<?xml version="1.0" encoding="UTF-8"?>
<svg xmlns="http://www.w3.org/2000/svg" xmlns:xlink="http://www.w3.org/1999/xlink" width="343pt" height="340pt" viewBox="0 0 343 340" version="1.1">
<g id="surface417">
<path style="fill:none;stroke-width:1.6;stroke-linecap:square;stroke-linejoin:miter;stroke:rgb(36.84082%,50.67749%,70.979309%);stroke-opacity:1;stroke-miterlimit:3.25;" d="M 258.890625 189.566406 L 258.933594 189.261719 L 258.960938 188.953125 L 258.972656 188.640625 L 258.96875 188.328125 L 258.953125 188.011719 L 258.917969 187.695312 L 258.871094 187.378906 L 258.808594 187.0625 L 258.730469 186.746094 L 258.636719 186.429688 L 258.527344 186.121094 L 258.402344 185.8125 L 258.261719 185.511719 L 258.105469 185.210938 L 257.933594 184.917969 L 257.75 184.632812 L 257.550781 184.355469 L 257.335938 184.085938 L 257.105469 183.824219 L 256.867188 183.570312 L 256.609375 183.328125 L 256.34375 183.097656 L 256.0625 182.875 L 255.769531 182.667969 L 255.46875 182.472656 L 255.152344 182.292969 L 254.828125 182.125 L 254.496094 181.96875 L 254.152344 181.832031 L 253.800781 181.710938 L 253.445312 181.601562 L 253.078125 181.511719 L 252.707031 181.4375 L 252.332031 181.382812 L 251.953125 181.34375 L 251.566406 181.324219 L 251.179688 181.320312 L 250.792969 181.335938 L 250.402344 181.371094 L 250.011719 181.421875 L 249.621094 181.492188 L 249.234375 181.582031 L 248.847656 181.691406 L 248.464844 181.816406 L 248.089844 181.964844 L 247.714844 182.128906 L 247.351562 182.308594 L 246.992188 182.511719 L 246.640625 182.726562 L 246.296875 182.964844 L 245.964844 183.214844 L 245.640625 183.484375 L 245.328125 183.773438 L 245.03125 184.074219 L 244.746094 184.390625 L 244.472656 184.722656 L 244.214844 185.066406 L 243.972656 185.425781 L 243.746094 185.800781 L 243.535156 186.183594 L 243.34375 186.578125 L 243.167969 186.984375 L 243.011719 187.402344 L 242.875 187.828125 L 242.746094 188.296875 L 242.644531 188.777344 L 242.5625 189.261719 L 242.507812 189.753906 L 242.476562 190.25 L 242.472656 190.75 L 242.492188 191.25 L 242.539062 191.753906 L 242.609375 192.257812 L 242.707031 192.757812 L 242.832031 193.257812 L 242.980469 193.75 L 243.15625 194.238281 L 243.355469 194.71875 L 243.582031 195.191406 L 243.832031 195.652344 L 244.105469 196.105469 L 244.40625 196.542969 L 244.726562 196.96875 L 245.070312 197.378906 L 245.4375 197.773438 L 245.828125 198.152344 L 246.238281 198.511719 L 246.664062 198.851562 L 247.113281 199.167969 L 247.578125 199.46875 L 248.058594 199.742188 L 248.558594 199.992188 L 249.070312 200.21875 L 249.59375 200.421875 L 250.132812 200.597656 L 250.679688 200.746094 L 251.238281 200.867188 L 251.800781 200.960938 L 252.375 201.027344 L 252.949219 201.0625 L 253.53125 201.070312 L 254.113281 201.046875 L 254.699219 200.996094 L 255.28125 200.914062 L 255.859375 200.800781 L 256.4375 200.660156 L 257.007812 200.488281 L 257.574219 200.289062 L 258.128906 200.058594 L 258.675781 199.800781 L 259.210938 199.515625 L 259.730469 199.199219 L 260.238281 198.855469 L 260.730469 198.488281 L 261.203125 198.089844 L 261.660156 197.671875 L 262.09375 197.226562 L 262.511719 196.757812 L 262.902344 196.269531 L 263.269531 195.757812 L 263.613281 195.222656 L 263.929688 194.675781 L 264.21875 194.105469 L 264.480469 193.519531 L 264.714844 192.921875 L 264.917969 192.308594 L 265.09375 191.683594 L 265.234375 191.046875 L 265.339844 190.445312 L 265.414062 189.839844 L 265.460938 189.226562 L 265.480469 188.609375 L 265.46875 187.988281 L 265.429688 187.367188 L 265.359375 186.746094 L 265.257812 186.128906 L 265.132812 185.515625 L 264.972656 184.902344 L 264.785156 184.296875 L 264.570312 183.699219 L 264.324219 183.113281 L 264.050781 182.535156 L 263.75 181.964844 L 263.421875 181.414062 L 263.066406 180.871094 L 262.683594 180.347656 L 262.273438 179.839844 L 261.839844 179.351562 L 261.382812 178.878906 L 260.902344 178.429688 L 260.402344 178 L 259.878906 177.59375 L 259.332031 177.214844 L 258.769531 176.855469 L 258.1875 176.527344 L 257.589844 176.222656 L 256.972656 175.945312 L 256.34375 175.695312 L 255.703125 175.476562 L 255.046875 175.285156 L 254.382812 175.128906 L 253.710938 175 L 253.027344 174.902344 L 252.34375 174.839844 L 251.652344 174.804688 L 250.957031 174.804688 L 250.261719 174.839844 L 249.5625 174.90625 L 248.871094 175.003906 L 248.179688 175.136719 L 247.492188 175.300781 L 246.8125 175.496094 L 246.140625 175.726562 L 245.476562 175.988281 L 244.824219 176.285156 L 244.183594 176.609375 L 243.558594 176.964844 L 242.949219 177.351562 L 242.355469 177.765625 L 241.78125 178.210938 L 241.226562 178.683594 L 240.695312 179.183594 L 240.183594 179.710938 L 239.695312 180.261719 L 239.234375 180.835938 L 238.796875 181.433594 L 238.386719 182.054688 L 238.007812 182.695312 L 237.65625 183.355469 L 237.335938 184.03125 L 237.046875 184.726562 L 236.789062 185.433594 L 236.570312 186.140625 L 236.382812 186.863281 L 236.226562 187.589844 L 236.105469 188.328125 L 236.019531 189.074219 L 235.964844 189.824219 L 235.949219 190.578125 L 235.964844 191.335938 L 236.015625 192.09375 L 236.101562 192.847656 L 236.222656 193.601562 L 236.378906 194.351562 L 236.570312 195.09375 L 236.796875 195.832031 L 237.054688 196.558594 L 237.351562 197.273438 L 237.675781 197.976562 L 238.039062 198.667969 L 238.433594 199.339844 L 238.855469 200 L 239.3125 200.636719 L 239.800781 201.257812 L 240.316406 201.855469 L 240.859375 202.429688 L 241.433594 202.980469 L 242.03125 203.503906 L 242.65625 204.003906 L 243.300781 204.472656 L 243.972656 204.914062 L 244.664062 205.324219 L 245.378906 205.703125 L 246.109375 206.050781 L 246.855469 206.367188 L 247.621094 206.644531 L 248.398438 206.890625 L 249.1875 207.101562 L 249.988281 207.277344 L 250.800781 207.414062 L 251.621094 207.511719 L 252.445312 207.574219 L 253.273438 207.597656 L 254.101562 207.585938 L 254.933594 207.53125 L 255.765625 207.441406 L 256.59375 207.3125 L 257.417969 207.144531 L 258.234375 206.9375 L 259.039062 206.695312 L 259.839844 206.414062 L 260.625 206.09375 L 261.398438 205.738281 L 262.15625 205.347656 L 262.898438 204.921875 L 263.621094 204.457031 L 264.320312 203.960938 L 265 203.433594 L 265.65625 202.871094 L 266.289062 202.277344 L 266.894531 201.65625 L 267.472656 201.003906 L 268.019531 200.324219 L 268.539062 199.621094 L 269.023438 198.890625 L 269.476562 198.136719 L 269.929688 197.292969 L 270.339844 196.429688 L 270.710938 195.539062 L 271.035156 194.632812 L 271.3125 193.707031 L 271.546875 192.765625 L 271.734375 191.8125 L 271.875 190.847656 L 271.964844 189.875 L 272.007812 188.898438 L 272.003906 187.914062 L 271.945312 186.933594 L 271.84375 185.949219 L 271.6875 184.972656 L 271.484375 184 L 271.234375 183.039062 L 270.933594 182.085938 L 270.585938 181.148438 L 270.191406 180.226562 L 269.75 179.324219 L 269.261719 178.441406 L 268.726562 177.585938 L 268.152344 176.75 L 267.53125 175.945312 L 266.871094 175.171875 L 266.171875 174.425781 L 265.433594 173.71875 L 264.660156 173.042969 L 263.851562 172.410156 L 263.011719 171.8125 L 262.140625 171.257812 L 261.238281 170.746094 L 260.308594 170.28125 L 259.359375 169.859375 L 258.382812 169.484375 L 257.386719 169.160156 L 256.375 168.882812 L 255.347656 168.65625 L 254.308594 168.480469 L 253.261719 168.355469 L 252.203125 168.285156 L 251.140625 168.265625 L 250.078125 168.300781 L 249.011719 168.390625 L 247.953125 168.53125 L 246.898438 168.726562 L 245.851562 168.972656 L 244.816406 169.273438 L 243.796875 169.625 L 242.792969 170.03125 L 241.804688 170.484375 L 240.84375 170.988281 L 239.902344 171.539062 L 238.988281 172.140625 L 238.105469 172.789062 L 237.25 173.480469 L 236.433594 174.214844 L 235.648438 174.992188 L 234.902344 175.808594 L 234.199219 176.664062 L 233.535156 177.554688 L 232.914062 178.480469 L 232.339844 179.4375 L 231.8125 180.425781 L 231.367188 181.371094 L 230.960938 182.339844 L 230.605469 183.324219 L 230.289062 184.332031 L 230.023438 185.351562 L 229.804688 186.386719 L 229.632812 187.433594 L 229.507812 188.488281 L 229.433594 189.550781 L 229.410156 190.617188 L 229.4375 191.683594 L 229.511719 192.753906 L 229.636719 193.820312 L 229.8125 194.882812 L 230.035156 195.933594 L 230.308594 196.980469 L 230.632812 198.011719 L 231.003906 199.03125 L 231.421875 200.035156 L 231.890625 201.019531 L 232.402344 201.984375 L 232.960938 202.921875 L 233.5625 203.839844 L 234.210938 204.726562 L 234.898438 205.585938 L 235.625 206.414062 L 236.394531 207.207031 L 237.199219 207.964844 L 238.042969 208.6875 L 238.917969 209.371094 L 239.828125 210.015625 L 240.769531 210.617188 L 241.738281 211.175781 L 242.734375 211.691406 L 243.753906 212.15625 L 244.796875 212.578125 L 245.859375 212.953125 L 246.945312 213.273438 L 248.042969 213.546875 L 249.152344 213.769531 L 250.277344 213.941406 L 251.410156 214.058594 L 252.550781 214.125 L 253.691406 214.136719 L 254.835938 214.09375 L 255.980469 214 L 257.121094 213.851562 L 258.253906 213.652344 L 259.382812 213.398438 L 260.496094 213.089844 L 261.597656 212.730469 L 262.683594 212.320312 L 263.753906 211.859375 L 264.800781 211.347656 L 265.824219 210.785156 L 266.820312 210.175781 L 267.792969 209.519531 L 268.734375 208.820312 L 269.644531 208.070312 L 270.519531 207.28125 L 271.359375 206.453125 L 272.160156 205.582031 L 272.921875 204.671875 L 273.640625 203.726562 L 274.371094 202.664062 L 275.050781 201.5625 L 275.671875 200.425781 L 276.238281 199.257812 L 276.746094 198.058594 L 277.191406 196.835938 L 277.578125 195.589844 L 277.902344 194.320312 L 278.160156 193.035156 L 278.355469 191.734375 L 278.480469 190.425781 L 278.542969 189.109375 L 278.539062 187.785156 L 278.46875 186.464844 L 278.332031 185.144531 L 278.128906 183.832031 L 277.855469 182.527344 L 277.519531 181.234375 L 277.117188 179.957031 L 276.652344 178.703125 L 276.121094 177.46875 L 275.527344 176.261719 L 274.871094 175.082031 L 274.15625 173.9375 L 273.382812 172.828125 L 272.550781 171.753906 L 271.667969 170.722656 L 270.730469 169.734375 L 269.742188 168.796875 L 268.707031 167.902344 L 267.625 167.066406 L 266.5 166.28125 L 265.335938 165.550781 L 264.132812 164.878906 L 262.894531 164.269531 L 261.625 163.722656 L 260.328125 163.234375 L 259.003906 162.816406 L 257.660156 162.464844 L 256.296875 162.179688 L 254.917969 161.960938 L 253.527344 161.816406 L 252.128906 161.738281 L 250.726562 161.734375 L 249.320312 161.796875 L 247.917969 161.933594 L 246.523438 162.140625 L 245.136719 162.417969 L 243.761719 162.765625 L 242.40625 163.179688 L 241.070312 163.667969 L 239.757812 164.21875 L 238.472656 164.839844 L 237.214844 165.523438 L 235.996094 166.273438 L 234.8125 167.085938 L 233.667969 167.957031 L 232.566406 168.886719 L 231.511719 169.871094 L 230.507812 170.910156 L 229.554688 172.003906 L 228.65625 173.140625 L 227.816406 174.328125 L 227.035156 175.554688 L 226.324219 176.800781 L 225.679688 178.082031 L 225.097656 179.398438 L 224.578125 180.738281 L 224.125 182.109375 L 223.742188 183.503906 L 223.425781 184.914062 L 223.179688 186.34375 L 223.003906 187.785156 L 222.902344 189.238281 L 222.871094 190.695312 L 222.910156 192.15625 L 223.023438 193.613281 L 223.207031 195.066406 L 223.464844 196.511719 L 223.792969 197.945312 L 224.195312 199.363281 L 224.664062 200.761719 L 225.207031 202.136719 L 225.816406 203.488281 L 226.492188 204.808594 L 227.234375 206.09375 L 228.039062 207.347656 L 228.90625 208.558594 L 229.835938 209.726562 L 230.824219 210.851562 L 231.867188 211.925781 L 232.964844 212.953125 L 234.113281 213.921875 L 235.308594 214.835938 L 236.550781 215.691406 L 237.835938 216.484375 L 239.164062 217.214844 L 240.527344 217.882812 L 241.921875 218.480469 L 243.347656 219.007812 L 244.800781 219.46875 L 246.277344 219.855469 L 247.773438 220.167969 L 249.289062 220.40625 L 250.8125 220.574219 L 252.347656 220.660156 L 253.886719 220.675781 L 255.425781 220.613281 L 256.964844 220.472656 L 258.496094 220.257812 L 260.019531 219.964844 L 261.527344 219.597656 L 263.015625 219.15625 L 264.484375 218.640625 L 265.929688 218.050781 L 267.34375 217.390625 L 268.726562 216.660156 L 270.074219 215.859375 L 271.382812 214.992188 L 272.648438 214.0625 L 273.871094 213.066406 L 275.042969 212.007812 L 276.160156 210.894531 L 277.226562 209.722656 L 278.234375 208.5 L 279.179688 207.226562 L 280.066406 205.90625 L 280.882812 204.539062 L 281.585938 203.226562 L 282.230469 201.882812 L 282.8125 200.507812 L 283.332031 199.105469 L 283.785156 197.679688 L 284.171875 196.234375 L 284.492188 194.765625 L 284.746094 193.285156 L 284.929688 191.789062 L 285.046875 190.285156 L 285.09375 188.777344 L 285.070312 187.265625 L 284.976562 185.753906 L 284.8125 184.246094 L 284.578125 182.746094 L 284.277344 181.253906 L 283.90625 179.777344 L 283.464844 178.316406 L 282.960938 176.875 L 282.386719 175.457031 L 281.746094 174.0625 L 281.039062 172.699219 L 280.273438 171.371094 L 279.441406 170.074219 L 278.554688 168.816406 L 277.605469 167.597656 L 276.601562 166.421875 L 275.539062 165.296875 L 274.429688 164.214844 L 273.265625 163.1875 L 272.054688 162.210938 L 270.800781 161.292969 L 269.5 160.429688 L 268.164062 159.628906 L 266.785156 158.886719 L 265.375 158.210938 L 263.933594 157.597656 L 262.460938 157.050781 L 260.960938 156.574219 L 259.441406 156.164062 L 257.902344 155.824219 L 256.347656 155.554688 L 254.777344 155.359375 L 253.199219 155.238281 L 251.617188 155.1875 L 250.027344 155.207031 L 248.441406 155.304688 L 246.859375 155.472656 L 245.28125 155.714844 L 243.71875 156.03125 L 242.167969 156.417969 L 240.632812 156.875 L 239.121094 157.40625 L 237.632812 158.007812 L 236.167969 158.675781 L 234.738281 159.414062 L 233.339844 160.214844 L 231.980469 161.085938 L 230.660156 162.015625 L 229.382812 163.007812 L 228.148438 164.0625 L 226.964844 165.171875 L 225.828125 166.335938 L 224.75 167.550781 L 223.640625 168.929688 L 222.601562 170.359375 L 221.632812 171.84375 L 220.738281 173.378906 L 219.921875 174.957031 L 219.183594 176.578125 L 218.527344 178.234375 L 217.953125 179.925781 L 217.464844 181.644531 L 217.058594 183.390625 L 216.742188 185.15625 L 216.515625 186.9375 L 216.375 188.730469 L 216.328125 190.527344 L 216.367188 192.332031 L 216.5 194.132812 L 216.722656 195.929688 L 217.03125 197.714844 L 217.433594 199.484375 L 217.925781 201.230469 L 218.5 202.957031 L 219.164062 204.652344 L 219.914062 206.316406 L 220.746094 207.941406 L 221.664062 209.527344 L 222.65625 211.066406 L 223.726562 212.558594 L 224.875 213.992188 L 226.089844 215.371094 L 227.378906 216.691406 L 228.730469 217.945312 L 230.148438 219.132812 L 231.625 220.246094 L 233.15625 221.289062 L 234.742188 222.253906 L 236.375 223.140625 L 238.054688 223.945312 L 239.773438 224.664062 L 241.527344 225.300781 L 243.316406 225.847656 L 245.128906 226.304688 L 246.96875 226.671875 L 248.824219 226.945312 L 250.695312 227.125 L 252.574219 227.214844 L 254.457031 227.207031 L 256.34375 227.105469 L 258.222656 226.910156 L 260.089844 226.621094 L 261.949219 226.238281 L 263.785156 225.761719 L 265.597656 225.195312 L 267.382812 224.535156 L 269.132812 223.785156 L 270.847656 222.949219 L 272.523438 222.027344 L 274.148438 221.023438 L 275.726562 219.933594 L 277.246094 218.765625 L 278.710938 217.523438 L 280.113281 216.207031 L 281.449219 214.820312 L 282.71875 213.367188 L 283.910156 211.847656 L 284.957031 210.375 L 285.933594 208.855469 L 286.84375 207.289062 L 287.675781 205.679688 L 288.433594 204.03125 L 289.117188 202.347656 L 289.71875 200.632812 L 290.242188 198.890625 L 290.683594 197.121094 L 291.042969 195.328125 L 291.316406 193.523438 L 291.507812 191.703125 L 291.613281 189.871094 L 291.632812 188.039062 L 291.566406 186.203125 L 291.417969 184.367188 L 291.179688 182.542969 L 290.855469 180.726562 L 290.449219 178.925781 L 289.957031 177.144531 L 289.382812 175.386719 L 288.722656 173.652344 L 287.984375 171.953125 L 287.167969 170.285156 L 286.269531 168.65625 L 285.296875 167.066406 L 284.25 165.523438 L 283.132812 164.03125 L 281.941406 162.589844 L 280.683594 161.203125 L 279.363281 159.875 L 277.980469 158.609375 L 276.535156 157.410156 L 275.035156 156.273438 L 273.484375 155.210938 L 271.882812 154.21875 L 270.230469 153.300781 L 268.539062 152.460938 L 266.808594 151.703125 L 265.039062 151.023438 L 263.242188 150.425781 L 261.414062 149.910156 L 259.5625 149.484375 L 257.6875 149.140625 L 255.800781 148.886719 L 253.902344 148.722656 L 251.992188 148.644531 L 250.082031 148.660156 L 248.167969 148.761719 L 246.261719 148.953125 L 244.363281 149.234375 L 242.480469 149.601562 L 240.609375 150.058594 L 238.761719 150.605469 L 236.941406 151.234375 L 235.148438 151.953125 L 233.390625 152.75 L 231.667969 153.632812 L 229.988281 154.597656 L 228.351562 155.640625 L 226.765625 156.757812 L 225.230469 157.949219 L 223.75 159.214844 L 222.332031 160.546875 L 221 161.917969 L 219.730469 163.351562 L 218.527344 164.84375 L 217.390625 166.390625 L 216.328125 167.988281 L 215.335938 169.636719 L 214.417969 171.332031 L 213.582031 173.066406 L 212.820312 174.839844 L 212.144531 176.648438 L 211.550781 178.488281 L 211.039062 180.355469 L 210.613281 182.246094 L 210.273438 184.160156 L 210.023438 186.085938 L 209.863281 188.023438 L 209.789062 189.96875 L 209.804688 191.917969 L 209.90625 193.867188 L 210.101562 195.808594 L 210.382812 197.746094 L 210.757812 199.667969 L 211.214844 201.574219 L 211.761719 203.457031 L 212.398438 205.316406 L 213.117188 207.148438 L 213.917969 208.945312 L 214.804688 210.707031 L 215.769531 212.425781 L 216.816406 214.105469 L 217.9375 215.734375 L 219.132812 217.308594 L 220.402344 218.832031 L 221.742188 220.296875 L 223.144531 221.699219 L 224.617188 223.039062 L 226.148438 224.3125 L 227.738281 225.511719 L 229.382812 226.640625 L 231.078125 227.695312 L 232.824219 228.667969 L 234.613281 229.566406 L 236.445312 230.378906 L 238.316406 231.109375 L 240.214844 231.753906 L 242.148438 232.308594 L 244.105469 232.777344 L 246.082031 233.15625 L 248.082031 233.445312 L 250.089844 233.644531 L 252.109375 233.746094 L 254.132812 233.761719 L 256.15625 233.679688 L 258.175781 233.507812 L 260.1875 233.242188 L 262.1875 232.882812 L 264.171875 232.433594 L 266.136719 231.890625 L 268.074219 231.261719 L 269.984375 230.542969 L 271.859375 229.734375 L 273.699219 228.84375 L 275.5 227.863281 L 277.253906 226.804688 L 279.101562 225.566406 L 280.890625 224.230469 L 282.609375 222.8125 L 284.257812 221.304688 L 285.832031 219.714844 L 287.328125 218.050781 L 288.742188 216.308594 L 290.066406 214.496094 L 291.300781 212.621094 L 292.445312 210.683594 L 293.488281 208.6875 L 294.4375 206.640625 L 295.28125 204.550781 L 296.019531 202.414062 L 296.65625 200.242188 L 297.179688 198.039062 L 297.597656 195.8125 L 297.902344 193.5625 L 298.097656 191.296875 L 298.179688 189.023438 L 298.144531 186.746094 L 298 184.472656 L 297.742188 182.203125 L 297.371094 179.949219 L 296.890625 177.710938 L 296.296875 175.5 L 295.589844 173.316406 L 294.777344 171.171875 L 293.859375 169.066406 L 292.835938 167.003906 L 291.710938 164.996094 L 290.484375 163.042969 L 289.164062 161.148438 L 287.746094 159.324219 L 286.238281 157.570312 L 284.644531 155.890625 L 282.96875 154.289062 L 281.210938 152.769531 L 279.378906 151.339844 L 277.476562 150.003906 L 275.507812 148.757812 L 273.476562 147.613281 L 271.386719 146.570312 L 269.25 145.628906 L 267.0625 144.796875 L 264.835938 144.070312 L 262.574219 143.457031 L 260.28125 142.953125 L 257.964844 142.566406 L 255.628906 142.292969 L 253.277344 142.136719 L 250.921875 142.097656 L 248.5625 142.175781 L 246.210938 142.371094 L 243.863281 142.683594 L 241.535156 143.109375 L 239.230469 143.65625 L 236.949219 144.3125 L 234.703125 145.085938 L 232.496094 145.96875 L 230.332031 146.960938 L 228.21875 148.0625 L 226.160156 149.265625 L 224.164062 150.574219 L 222.355469 151.882812 L 220.613281 153.277344 L 218.933594 154.75 L 217.320312 156.300781 L 215.78125 157.929688 L 214.316406 159.625 L 212.929688 161.390625 L 211.628906 163.222656 L 210.410156 165.109375 L 209.28125 167.058594 L 208.238281 169.054688 L 207.292969 171.101562 L 206.441406 173.191406 L 205.683594 175.320312 L 205.027344 177.484375 L 204.472656 179.679688 L 204.019531 181.902344 L 203.667969 184.140625 L 203.417969 186.398438 L 203.277344 188.667969 L 203.238281 190.941406 L 203.308594 193.21875 L 203.480469 195.492188 L 203.761719 197.757812 L 204.144531 200.007812 L 204.632812 202.242188 L 205.226562 204.453125 L 205.921875 206.636719 L 206.714844 208.785156 L 207.613281 210.902344 L 208.605469 212.972656 L 209.695312 214.996094 L 210.878906 216.972656 L 212.152344 218.890625 L 213.515625 220.753906 L 214.964844 222.550781 L 216.5 224.277344 L 218.113281 225.9375 L 219.800781 227.519531 L 221.566406 229.023438 L 223.398438 230.445312 L 225.296875 231.785156 L 227.257812 233.035156 L 229.273438 234.191406 L 231.347656 235.257812 L 233.464844 236.226562 L 235.632812 237.09375 L 237.835938 237.863281 L 240.078125 238.53125 L 242.347656 239.09375 L 244.644531 239.550781 L 246.964844 239.902344 L 249.296875 240.144531 L 251.644531 240.28125 L 253.996094 240.308594 L 256.347656 240.222656 L 258.695312 240.03125 L 261.035156 239.730469 L 263.359375 239.324219 L 265.664062 238.804688 L 267.945312 238.183594 L 270.195312 237.453125 L 272.414062 236.621094 L 274.59375 235.683594 L 276.902344 234.554688 L 279.160156 233.308594 L 281.351562 231.949219 L 283.472656 230.484375 L 285.523438 228.910156 L 287.492188 227.230469 L 289.375 225.457031 L 291.167969 223.585938 L 292.867188 221.628906 L 294.46875 219.582031 L 295.96875 217.457031 L 297.359375 215.261719 L 298.636719 212.992188 L 299.804688 210.660156 L 300.851562 208.269531 L 301.777344 205.828125 L 302.582031 203.339844 L 303.261719 200.8125 L 303.8125 198.25 L 304.238281 195.660156 L 304.53125 193.050781 L 304.691406 190.429688 L 304.71875 187.796875 L 304.617188 185.167969 L 304.382812 182.539062 L 304.015625 179.925781 L 303.515625 177.332031 L 302.890625 174.765625 L 302.132812 172.230469 L 301.246094 169.734375 L 300.238281 167.28125 L 299.105469 164.878906 L 297.851562 162.539062 L 296.480469 160.257812 L 294.996094 158.046875 L 293.398438 155.914062 L 291.695312 153.859375 L 289.890625 151.890625 L 287.988281 150.015625 L 285.992188 148.234375 L 283.90625 146.558594 L 281.734375 144.984375 L 279.484375 143.519531 L 277.164062 142.167969 L 274.777344 140.933594 L 272.324219 139.820312 L 269.820312 138.832031 L 267.265625 137.96875 L 264.667969 137.234375 L 262.035156 136.628906 L 259.371094 136.15625 L 256.6875 135.820312 L 253.984375 135.617188 L 251.273438 135.550781 L 248.558594 135.621094 L 245.847656 135.828125 L 243.152344 136.167969 L 240.46875 136.648438 L 237.816406 137.261719 L 235.191406 138.003906 L 232.605469 138.882812 L 230.0625 139.890625 L 227.574219 141.023438 L 225.140625 142.285156 L 222.816406 143.640625 L 220.558594 145.109375 L 218.375 146.6875 L 216.269531 148.375 L 214.246094 150.167969 L 212.316406 152.058594 L 210.476562 154.042969 L 208.734375 156.117188 L 207.097656 158.28125 L 205.566406 160.519531 L 204.148438 162.835938 L 202.84375 165.222656 L 201.65625 167.671875 L 200.589844 170.175781 L 199.648438 172.734375 L 198.832031 175.339844 L 198.148438 177.984375 L 197.589844 180.660156 L 197.167969 183.363281 L 196.878906 186.089844 L 196.722656 188.824219 L 196.703125 191.570312 L 196.816406 194.3125 L 197.066406 197.050781 L 197.453125 199.777344 L 197.972656 202.480469 L 198.625 205.160156 L 199.410156 207.804688 L 200.328125 210.410156 L 201.371094 212.96875 L 202.539062 215.476562 L 203.832031 217.925781 L 205.246094 220.3125 L 206.777344 222.625 L 208.421875 224.863281 L 210.175781 227.019531 L 212.035156 229.085938 L 214 231.0625 L 216.058594 232.941406 L 218.207031 234.71875 L 220.445312 236.390625 L 222.765625 237.949219 L 225.160156 239.390625 L 227.628906 240.71875 L 230.160156 241.921875 L 232.746094 243 L 235.390625 243.949219 L 238.078125 244.769531 L 240.804688 245.453125 L 243.566406 246.007812 L 246.351562 246.421875 L 249.160156 246.699219 L 251.976562 246.839844 L 254.804688 246.839844 L 257.628906 246.699219 L 260.445312 246.417969 L 263.246094 246.003906 L 266.027344 245.445312 L 268.777344 244.753906 L 271.496094 243.925781 L 274.167969 242.960938 L 276.796875 241.867188 L 279.367188 240.644531 L 281.878906 239.296875 L 284.160156 237.925781 L 286.378906 236.453125 L 288.527344 234.875 L 290.601562 233.199219 L 292.601562 231.429688 L 294.515625 229.566406 L 296.347656 227.617188 L 298.085938 225.585938 L 299.734375 223.472656 L 301.28125 221.285156 L 302.730469 219.027344 L 304.074219 216.703125 L 305.308594 214.316406 L 306.433594 211.875 L 307.449219 209.378906 L 308.347656 206.839844 L 309.128906 204.261719 L 309.789062 201.644531 L 310.332031 199 L 310.75 196.328125 L 311.046875 193.640625 L 311.222656 190.9375 L 311.269531 188.230469 L 311.195312 185.519531 L 310.992188 182.8125 L 310.667969 180.117188 L 310.21875 177.4375 L 309.648438 174.777344 L 308.953125 172.144531 L 308.136719 169.546875 L 307.203125 166.984375 L 306.148438 164.46875 L 304.980469 162 L 303.699219 159.582031 L 302.308594 157.230469 L 300.808594 154.9375 L 299.203125 152.71875 L 297.496094 150.570312 L 295.6875 148.503906 L 293.789062 146.523438 L 291.796875 144.625 L 289.722656 142.824219 L 287.5625 141.117188 L 285.324219 139.507812 L 283.011719 138.003906 L 280.632812 136.605469 L 278.1875 135.320312 L 275.6875 134.144531 L 273.128906 133.085938 L 270.527344 132.144531 L 267.878906 131.324219 L 265.195312 130.625 L 262.480469 130.046875 L 259.742188 129.597656 L 256.980469 129.273438 L 254.207031 129.074219 L 251.421875 129.007812 L 248.636719 129.066406 L 245.855469 129.25 L 243.082031 129.566406 L 240.324219 130.007812 L 237.589844 130.578125 L 234.878906 131.273438 L 232.203125 132.09375 L 229.34375 133.121094 L 226.535156 134.289062 L 223.785156 135.597656 L 221.105469 137.046875 L 218.496094 138.625 L 215.96875 140.332031 L 213.527344 142.167969 L 211.175781 144.125 L 208.925781 146.195312 L 206.78125 148.378906 L 204.742188 150.667969 L 202.820312 153.058594 L 201.019531 155.542969 L 199.34375 158.121094 L 197.792969 160.777344 L 196.378906 163.507812 L 195.101562 166.3125 L 193.964844 169.175781 L 192.972656 172.097656 L 192.125 175.066406 L 191.425781 178.078125 L 190.875 181.121094 L 190.480469 184.191406 L 190.238281 187.28125 L 190.148438 190.382812 L 190.214844 193.484375 L 190.4375 196.582031 L 190.8125 199.667969 L 191.339844 202.734375 L 192.023438 205.773438 L 192.855469 208.777344 L 193.839844 211.734375 L 194.96875 214.644531 L 196.242188 217.496094 L 197.660156 220.285156 L 199.214844 223 L 200.90625 225.636719 L 202.726562 228.1875 L 204.675781 230.648438 L 206.746094 233.007812 L 208.929688 235.265625 L 211.230469 237.414062 L 213.632812 239.445312 L 216.136719 241.355469 L 218.738281 243.140625 L 221.425781 244.792969 L 224.191406 246.3125 L 227.035156 247.691406 L 229.945312 248.929688 L 232.917969 250.023438 L 235.941406 250.96875 L 239.011719 251.757812 L 242.121094 252.398438 L 245.261719 252.882812 L 248.421875 253.207031 L 251.597656 253.375 L 254.78125 253.386719 L 257.964844 253.238281 L 261.140625 252.929688 L 264.296875 252.460938 L 267.429688 251.839844 L 270.53125 251.058594 L 273.589844 250.125 L 276.601562 249.039062 L 279.363281 247.890625 L 282.070312 246.613281 L 284.71875 245.210938 L 287.296875 243.683594 L 289.804688 242.039062 L 292.238281 240.277344 L 294.585938 238.402344 L 296.84375 236.417969 L 299.011719 234.332031 L 301.082031 232.144531 L 303.046875 229.859375 L 304.90625 227.484375 L 306.65625 225.023438 L 308.289062 222.484375 L 309.800781 219.867188 L 311.191406 217.183594 L 312.460938 214.433594 L 313.597656 211.625 L 314.601562 208.765625 L 315.476562 205.859375 L 316.214844 202.914062 L 316.8125 199.9375 L 317.273438 196.929688 L 317.59375 193.902344 L 317.773438 190.863281 L 317.8125 187.816406 L 317.707031 184.769531 L 317.460938 181.726562 L 317.074219 178.699219 L 316.546875 175.6875 L 315.878906 172.703125 L 315.070312 169.75 L 314.125 166.835938 L 313.046875 163.96875 L 311.832031 161.148438 L 310.488281 158.390625 L 309.015625 155.691406 L 307.417969 153.066406 L 305.699219 150.515625 L 303.863281 148.042969 L 301.910156 145.660156 L 299.847656 143.367188 L 297.679688 141.171875 L 295.410156 139.078125 L 293.046875 137.089844 L 290.585938 135.210938 L 288.042969 133.449219 L 285.417969 131.808594 L 282.714844 130.289062 L 279.945312 128.894531 L 277.109375 127.632812 L 274.214844 126.5 L 271.273438 125.503906 L 268.28125 124.648438 L 265.253906 123.929688 L 262.191406 123.351562 L 259.105469 122.917969 L 256 122.625 L 252.878906 122.480469 L 249.757812 122.480469 L 246.632812 122.625 L 243.519531 122.914062 L 240.417969 123.347656 L 237.339844 123.929688 L 234.035156 124.71875 L 230.769531 125.675781 L 227.558594 126.792969 L 224.402344 128.074219 L 221.3125 129.515625 L 218.300781 131.113281 L 215.367188 132.859375 L 212.523438 134.753906 L 209.777344 136.789062 L 207.136719 138.964844 L 204.605469 141.269531 L 202.191406 143.703125 L 199.902344 146.257812 L 197.742188 148.925781 L 195.71875 151.699219 L 193.839844 154.574219 L 192.101562 157.546875 L 190.515625 160.601562 L 189.085938 163.734375 L 187.816406 166.941406 L 186.707031 170.207031 L 185.761719 173.527344 L 184.984375 176.898438 L 184.378906 180.300781 L 183.949219 183.734375 L 183.6875 187.191406 L 183.601562 190.65625 L 183.691406 194.125 L 183.957031 197.585938 L 184.398438 201.03125 L 185.011719 204.453125 L 185.796875 207.84375 L 186.75 211.191406 L 187.875 214.492188 L 189.167969 217.730469 L 190.621094 220.902344 L 192.234375 224.003906 L 194 227.015625 L 195.921875 229.941406 L 197.988281 232.769531 L 200.195312 235.488281 L 202.539062 238.097656 L 205.011719 240.585938 L 207.613281 242.945312 L 210.328125 245.175781 L 213.15625 247.265625 L 216.085938 249.214844 L 219.117188 251.011719 L 222.234375 252.65625 L 225.433594 254.144531 L 228.703125 255.46875 L 232.042969 256.625 L 235.4375 257.617188 L 238.878906 258.433594 L 242.359375 259.078125 L 245.871094 259.542969 L 249.40625 259.832031 L 252.953125 259.945312 L 256.503906 259.878906 L 260.046875 259.628906 L 263.578125 259.203125 L 267.085938 258.601562 L 270.5625 257.820312 L 273.996094 256.867188 L 277.320312 255.761719 L 280.585938 254.488281 L 283.789062 253.058594 L 286.917969 251.46875 L 289.96875 249.726562 L 292.929688 247.832031 L 295.792969 245.792969 L 298.558594 243.613281 L 301.210938 241.296875 L 303.75 238.851562 L 306.164062 236.277344 L 308.453125 233.589844 L 310.605469 230.789062 L 312.617188 227.882812 L 314.484375 224.875 L 316.203125 221.78125 L 317.765625 218.601562 L 319.171875 215.34375 L 320.414062 212.023438 L 321.492188 208.640625 L 322.402344 205.203125 L 323.140625 201.726562 L 323.707031 198.214844 L 324.097656 194.675781 L 324.316406 191.117188 L 324.355469 187.550781 L 324.21875 183.984375 L 323.90625 180.429688 L 323.414062 176.886719 L 322.75 173.375 L 321.914062 169.894531 L 320.902344 166.457031 L 319.722656 163.074219 L 318.375 159.75 L 316.863281 156.496094 L 315.191406 153.316406 L 313.363281 150.222656 L 311.382812 147.21875 L 309.257812 144.316406 L 306.984375 141.519531 L 304.578125 138.839844 L 302.039062 136.277344 L 299.371094 133.84375 L 296.585938 131.542969 L 293.691406 129.382812 L 290.6875 127.367188 L 287.585938 125.5 L 284.394531 123.785156 L 281.117188 122.234375 L 277.769531 120.84375 L 274.351562 119.621094 L 270.875 118.566406 L 267.347656 117.6875 L 263.78125 116.980469 L 260.179688 116.453125 L 256.550781 116.101562 L 252.910156 115.933594 L 249.261719 115.945312 L 245.617188 116.136719 L 241.984375 116.507812 L 238.371094 117.058594 L 234.785156 117.789062 L 231.238281 118.699219 L 227.742188 119.78125 L 224.527344 120.945312 L 221.367188 122.261719 L 218.269531 123.71875 L 215.242188 125.324219 L 212.289062 127.0625 L 209.414062 128.941406 L 206.632812 130.949219 L 203.941406 133.089844 L 201.351562 135.347656 L 198.867188 137.726562 L 196.496094 140.222656 L 194.238281 142.824219 L 192.101562 145.527344 L 190.09375 148.332031 L 188.214844 151.222656 L 186.46875 154.203125 L 184.863281 157.261719 L 183.398438 160.394531 L 182.082031 163.59375 L 180.910156 166.851562 L 179.890625 170.164062 L 179.023438 173.519531 L 178.316406 176.914062 L 177.761719 180.339844 L 177.367188 183.792969 L 177.132812 187.257812 L 177.058594 190.734375 L 177.144531 194.214844 L 177.390625 197.6875 L 177.796875 201.148438 L 178.367188 204.585938 L 179.089844 208 L 179.972656 211.375 L 181.011719 214.710938 L 182.207031 217.996094 L 183.550781 221.226562 L 185.042969 224.390625 L 186.679688 227.488281 L 188.460938 230.503906 L 190.382812 233.4375 L 192.4375 236.28125 L 194.621094 239.03125 L 196.929688 241.675781 L 199.363281 244.214844 L 201.910156 246.640625 L 204.570312 248.945312 L 207.335938 251.128906 L 210.199219 253.179688 L 213.15625 255.101562 L 216.203125 256.882812 L 219.328125 258.523438 L 222.53125 260.019531 L 225.800781 261.367188 L 229.128906 262.5625 L 232.511719 263.601562 L 235.941406 264.484375 L 239.410156 265.210938 L 242.914062 265.773438 L 246.4375 266.175781 L 249.980469 266.417969 L 253.535156 266.492188 L 257.085938 266.402344 L 260.636719 266.148438 L 264.171875 265.734375 L 267.980469 265.097656 L 271.753906 264.269531 L 275.488281 263.253906 L 279.164062 262.050781 L 282.78125 260.664062 L 286.324219 259.101562 L 289.789062 257.355469 L 293.164062 255.441406 L 296.441406 253.359375 L 299.609375 251.113281 L 302.667969 248.707031 L 305.601562 246.152344 L 308.402344 243.453125 L 311.070312 240.613281 L 313.59375 237.640625 L 315.964844 234.542969 L 318.183594 231.328125 L 320.238281 228.007812 L 322.121094 224.582031 L 323.835938 221.066406 L 325.371094 217.464844 L 326.726562 213.789062 L 327.898438 210.050781 L 328.878906 206.253906 L 329.667969 202.410156 L 330.265625 198.527344 L 330.671875 194.617188 L 330.875 190.691406 L 330.886719 186.753906 L 330.699219 182.824219 L 330.316406 178.902344 L 329.734375 175 L 328.960938 171.132812 L 327.988281 167.304688 L 326.828125 163.527344 L 325.480469 159.8125 L 323.945312 156.164062 L 322.230469 152.597656 L 320.335938 149.117188 L 318.269531 145.738281 L 316.035156 142.460938 L 313.636719 139.296875 L 311.082031 136.257812 L 308.375 133.347656 L 305.527344 130.574219 L 302.539062 127.941406 L 299.421875 125.464844 L 296.179688 123.144531 L 292.828125 120.988281 L 289.367188 119.003906 L 285.808594 117.191406 L 282.164062 115.554688 L 278.4375 114.105469 L 274.640625 112.84375 L 270.785156 111.773438 L 266.875 110.898438 L 262.925781 110.21875 L 258.945312 109.734375 L 254.941406 109.453125 L 250.925781 109.371094 L 246.90625 109.492188 L 242.898438 109.8125 L 238.910156 110.332031 L 234.949219 111.054688 L 231.285156 111.90625 L 227.660156 112.929688 L 224.089844 114.121094 L 220.574219 115.480469 L 217.125 117.003906 L 213.746094 118.6875 L 210.449219 120.527344 L 207.242188 122.519531 L 204.125 124.664062 L 201.113281 126.949219 L 198.210938 129.375 L 195.421875 131.9375 L 192.753906 134.628906 L 190.214844 137.445312 L 187.804688 140.375 L 185.539062 143.417969 L 183.410156 146.566406 L 181.433594 149.8125 L 179.609375 153.148438 L 177.941406 156.570312 L 176.4375 160.066406 L 175.09375 163.632812 L 173.917969 167.257812 L 172.914062 170.9375 L 172.082031 174.664062 L 171.425781 178.425781 L 170.945312 182.214844 L 170.640625 186.027344 L 170.515625 189.851562 L 170.570312 193.679688 L 170.800781 197.5 L 171.214844 201.3125 L 171.804688 205.101562 L 172.570312 208.859375 L 173.511719 212.582031 L 174.628906 216.257812 L 175.917969 219.878906 L 177.375 223.441406 L 178.996094 226.929688 L 180.78125 230.34375 L 182.722656 233.667969 L 184.820312 236.902344 L 187.070312 240.039062 L 189.460938 243.066406 L 191.996094 245.980469 L 194.667969 248.773438 L 197.464844 251.441406 L 200.386719 253.980469 L 203.425781 256.378906 L 206.574219 258.632812 L 209.828125 260.738281 L 213.179688 262.691406 L 216.621094 264.484375 L 220.144531 266.117188 L 223.738281 267.585938 L 227.402344 268.882812 L 231.125 270.011719 L 234.898438 270.960938 L 238.714844 271.738281 L 242.566406 272.332031 L 246.441406 272.746094 L 250.335938 272.980469 L 254.238281 273.03125 L 258.144531 272.902344 L 261.960938 272.597656 L 265.765625 272.117188 L 269.542969 271.460938 L 273.289062 270.632812 L 276.996094 269.632812 L 280.65625 268.464844 L 284.261719 267.128906 L 287.804688 265.625 L 291.273438 263.964844 L 294.667969 262.144531 L 297.972656 260.167969 L 301.191406 258.039062 L 304.304688 255.769531 L 307.316406 253.351562 L 310.214844 250.800781 L 312.996094 248.117188 L 315.652344 245.308594 L 318.175781 242.378906 L 320.566406 239.335938 L 322.816406 236.183594 L 324.917969 232.925781 L 326.871094 229.578125 L 328.667969 226.140625 L 330.308594 222.625 L 331.789062 219.03125 L 333.101562 215.375 L 334.242188 211.660156 L 335.21875 207.894531 L 336.015625 204.082031 L 336.640625 200.238281 L 337.089844 196.371094 L 337.359375 192.480469 L 337.453125 188.578125 L 337.367188 184.675781 L 337.097656 180.78125 L 336.65625 176.898438 L 336.03125 173.039062 L 335.234375 169.210938 L 334.257812 165.417969 L 333.113281 161.675781 L 331.792969 157.984375 L 330.304688 154.355469 L 328.652344 150.800781 L 326.835938 147.320312 L 324.863281 143.925781 L 322.734375 140.621094 L 320.453125 137.417969 L 318.03125 134.320312 L 315.464844 131.335938 L 312.761719 128.46875 L 309.929688 125.730469 L 306.972656 123.121094 L 303.902344 120.648438 L 300.714844 118.320312 L 297.421875 116.136719 L 294.035156 114.105469 L 290.550781 112.230469 L 286.988281 110.519531 L 283.34375 108.96875 L 279.632812 107.585938 L 275.859375 106.378906 L 272.035156 105.339844 L 268.164062 104.480469 L 264.253906 103.796875 L 259.976562 103.257812 L 255.679688 102.933594 L 251.367188 102.824219 L 247.054688 102.929688 L 242.746094 103.246094 L 238.457031 103.78125 L 234.199219 104.527344 L 229.980469 105.484375 L 225.8125 106.648438 L 221.703125 108.023438 L 217.667969 109.597656 L 213.710938 111.375 L 209.847656 113.347656 L 206.082031 115.511719 L 202.429688 117.859375 L 198.894531 120.390625 L 195.488281 123.09375 L 192.21875 125.964844 L 189.089844 128.996094 L 186.121094 132.183594 L 183.308594 135.515625 L 180.664062 138.984375 L 178.191406 142.582031 L 175.902344 146.300781 L 173.800781 150.132812 L 171.890625 154.066406 L 170.175781 158.089844 L 168.664062 162.199219 L 167.355469 166.378906 L 166.257812 170.621094 L 165.371094 174.917969 L 164.699219 179.253906 L 164.242188 183.621094 L 164.003906 188.007812 L 163.984375 192.402344 L 164.183594 196.796875 L 164.601562 201.175781 L 165.234375 205.535156 L 166.085938 209.855469 L 167.152344 214.132812 L 168.429688 218.355469 L 169.917969 222.511719 L 171.609375 226.589844 L 173.503906 230.582031 L 175.59375 234.480469 L 177.878906 238.265625 L 180.351562 241.941406 L 183.003906 245.488281 L 185.832031 248.898438 L 188.824219 252.167969 L 191.980469 255.289062 L 195.289062 258.246094 L 198.746094 261.039062 L 202.335938 263.660156 L 206.054688 266.097656 L 209.890625 268.351562 L 213.839844 270.410156 L 217.886719 272.273438 L 222.023438 273.933594 L 226.238281 275.386719 L 230.527344 276.628906 L 234.871094 277.65625 L 239.265625 278.46875 L 243.695312 279.058594 L 247.855469 279.414062 L 252.027344 279.574219 L 256.207031 279.539062 L 260.382812 279.3125 L 264.542969 278.890625 L 268.683594 278.273438 L 272.792969 277.46875 L 276.863281 276.472656 L 280.882812 275.285156 L 284.847656 273.914062 L 288.746094 272.359375 L 292.570312 270.625 L 296.308594 268.714844 L 299.960938 266.628906 L 303.511719 264.378906 L 306.957031 261.960938 L 310.289062 259.386719 L 313.496094 256.660156 L 316.578125 253.785156 L 319.523438 250.769531 L 322.328125 247.617188 L 324.984375 244.335938 L 327.488281 240.933594 L 329.832031 237.417969 L 332.011719 233.792969 L 334.019531 230.070312 L 335.855469 226.257812 L 337.515625 222.359375 L 338.988281 218.390625 L 340.28125 214.351562 L 341.382812 210.253906 L 342.292969 206.109375 L 343.011719 201.925781 L 343.535156 197.710938 L 343.863281 193.472656 L 343.996094 189.222656 L 343.929688 184.96875 L 343.664062 180.71875 L 343.203125 176.484375 L 342.546875 172.273438 L 341.695312 168.09375 L 340.648438 163.960938 L 339.410156 159.875 L 337.984375 155.847656 L 336.371094 151.890625 L 334.574219 148.011719 L 332.601562 144.21875 L 330.453125 140.515625 L 328.132812 136.917969 L 325.644531 133.429688 L 323 130.058594 L 320.199219 126.8125 L 317.246094 123.695312 L 314.152344 120.71875 L 310.921875 117.890625 L 307.5625 115.210938 L 304.078125 112.6875 L 300.480469 110.328125 L 296.777344 108.136719 L 292.972656 106.121094 L 289.074219 104.28125 L 285.097656 102.625 L 281.042969 101.152344 L 276.921875 99.867188 L 272.390625 98.695312 L 267.804688 97.75 L 263.175781 97.039062 L 258.511719 96.558594 L 253.828125 96.3125 L 249.136719 96.304688 L 244.445312 96.53125 L 239.769531 96.992188 L 235.121094 97.691406 L 230.511719 98.625 L 225.949219 99.785156 L 221.453125 101.175781 L 217.027344 102.792969 L 212.6875 104.632812 L 208.441406 106.6875 L 204.300781 108.957031 L 200.28125 111.429688 L 196.386719 114.105469 L 192.628906 116.972656 L 189.019531 120.027344 L 185.566406 123.265625 L 182.277344 126.671875 L 179.164062 130.242188 L 176.230469 133.964844 L 173.484375 137.832031 L 170.9375 141.839844 L 168.59375 145.96875 L 166.460938 150.210938 L 164.542969 154.5625 L 162.84375 159.003906 L 161.371094 163.527344 L 160.125 168.125 L 159.113281 172.777344 L 158.332031 177.480469 L 157.792969 182.21875 L 157.488281 186.984375 L 157.425781 191.757812 L 157.605469 196.53125 L 158.023438 201.292969 L 158.679688 206.027344 L 159.574219 210.730469 L 160.707031 215.382812 L 162.070312 219.972656 L 163.664062 224.492188 L 165.484375 228.929688 L 167.527344 233.273438 L 169.789062 237.507812 L 172.257812 241.628906 L 174.9375 245.621094 L 177.8125 249.472656 L 180.878906 253.179688 L 184.132812 256.730469 L 187.558594 260.113281 L 191.15625 263.324219 L 194.910156 266.347656 L 198.8125 269.183594 L 202.859375 271.820312 L 207.03125 274.25 L 211.324219 276.46875 L 215.726562 278.46875 L 220.226562 280.246094 L 224.8125 281.796875 L 229.472656 283.117188 L 234.195312 284.199219 L 238.878906 285.03125 L 243.605469 285.632812 L 248.355469 285.996094 L 253.121094 286.128906 L 257.890625 286.023438 L 262.652344 285.683594 L 267.390625 285.109375 L 272.101562 284.300781 L 276.765625 283.257812 L 281.375 281.988281 L 285.921875 280.492188 L 290.390625 278.769531 L 294.769531 276.828125 L 299.050781 274.671875 L 303.222656 272.308594 L 307.273438 269.738281 L 311.195312 266.96875 L 314.976562 264.007812 L 318.609375 260.863281 L 322.085938 257.542969 L 325.394531 254.050781 L 328.53125 250.398438 L 331.480469 246.59375 L 334.242188 242.644531 L 336.808594 238.5625 L 339.171875 234.355469 L 341.320312 230.039062 L 343.257812 225.613281 L 344.976562 221.097656 L 346.46875 216.503906 L 347.734375 211.835938 L 348.769531 207.109375 L 349.566406 202.332031 L 350.128906 197.523438 L 350.457031 192.6875 L 350.542969 187.839844 L 350.386719 182.988281 L 349.996094 178.152344 L 349.363281 173.335938 L 348.492188 168.554688 L 347.386719 163.820312 L 346.050781 159.144531 L 344.484375 154.539062 L 342.6875 150.011719 L 340.671875 145.578125 L 338.4375 141.246094 L 335.988281 137.027344 L 333.335938 132.933594 L 330.484375 128.972656 L 327.433594 125.15625 L 324.199219 121.492188 L 320.789062 117.988281 L 317.203125 114.660156 L 313.460938 111.507812 L 309.5625 108.542969 L 305.519531 105.773438 L 301.34375 103.207031 L 297.042969 100.847656 L 292.628906 98.703125 L 288.113281 96.777344 L 283.503906 95.074219 L 278.816406 93.601562 L 274.058594 92.363281 L 269.242188 91.359375 L 264.707031 90.636719 L 260.144531 90.125 L 255.558594 89.824219 L 250.960938 89.734375 L 246.363281 89.855469 L 241.769531 90.1875 L 237.199219 90.734375 L 232.65625 91.488281 L 228.148438 92.453125 L 223.6875 93.625 L 219.285156 95 L 214.945312 96.578125 L 210.683594 98.355469 L 206.507812 100.328125 L 202.421875 102.492188 L 198.441406 104.84375 L 194.566406 107.375 L 190.816406 110.085938 L 187.191406 112.964844 L 183.699219 116.011719 L 180.351562 119.21875 L 177.152344 122.578125 L 174.109375 126.078125 L 171.230469 129.722656 L 168.519531 133.492188 L 165.984375 137.386719 L 163.632812 141.398438 L 161.464844 145.511719 L 159.488281 149.722656 L 157.707031 154.027344 L 156.125 158.40625 L 154.746094 162.859375 L 153.574219 167.371094 L 152.609375 171.933594 L 151.855469 176.539062 L 151.3125 181.175781 L 150.988281 185.835938 L 150.875 190.507812 L 150.976562 195.179688 L 151.296875 199.847656 L 151.828125 204.496094 L 152.574219 209.117188 L 153.535156 213.703125 L 154.707031 218.242188 L 156.085938 222.722656 L 157.667969 227.136719 L 159.453125 231.476562 L 161.441406 235.730469 L 163.621094 239.890625 L 165.992188 243.949219 L 168.546875 247.894531 L 171.285156 251.722656 L 174.195312 255.417969 L 177.277344 258.980469 L 180.519531 262.398438 L 183.917969 265.664062 L 187.460938 268.769531 L 191.148438 271.714844 L 194.96875 274.484375 L 198.917969 277.078125 L 202.980469 279.488281 L 207.152344 281.707031 L 211.421875 283.734375 L 215.785156 285.5625 L 220.609375 287.320312 L 225.515625 288.832031 L 230.496094 290.097656 L 235.535156 291.117188 L 240.617188 291.878906 L 245.738281 292.390625 L 250.882812 292.644531 L 256.03125 292.640625 L 261.179688 292.378906 L 266.308594 291.863281 L 271.40625 291.089844 L 276.464844 290.0625 L 281.46875 288.78125 L 286.402344 287.253906 L 291.257812 285.476562 L 296.019531 283.460938 L 300.679688 281.210938 L 305.222656 278.726562 L 309.636719 276.019531 L 313.914062 273.09375 L 318.039062 269.953125 L 322.007812 266.613281 L 325.804688 263.074219 L 329.421875 259.351562 L 332.847656 255.449219 L 336.082031 251.375 L 339.105469 247.148438 L 341.917969 242.769531 L 344.507812 238.253906 L 346.871094 233.613281 L 349 228.859375 L 350.890625 224 L 352.539062 219.050781 L 353.9375 214.023438 L 355.082031 208.929688 L 355.972656 203.785156 L 356.605469 198.597656 L 356.976562 193.382812 L 357.089844 188.152344 L 356.941406 182.917969 L 356.527344 177.699219 L 355.859375 172.503906 L 354.925781 167.34375 L 353.738281 162.238281 L 352.296875 157.191406 L 350.605469 152.222656 L 348.664062 147.34375 L 346.484375 142.5625 L 344.066406 137.894531 L 341.414062 133.351562 L 338.539062 128.945312 L 335.445312 124.683594 L 332.140625 120.582031 L 328.632812 116.648438 L 324.933594 112.890625 L 321.046875 109.324219 L 316.988281 105.949219 L 312.761719 102.785156 L 308.378906 99.832031 L 303.855469 97.101562 L 299.195312 94.597656 L 294.417969 92.328125 L 289.527344 90.300781 L 284.539062 88.519531 L 279.808594 87.082031 L 275.011719 85.863281 L 270.160156 84.871094 L 265.265625 84.109375 L 260.339844 83.570312 L 255.390625 83.265625 L 250.433594 83.191406 L 245.472656 83.347656 L 240.523438 83.734375 L 235.59375 84.351562 L 230.699219 85.199219 L 225.84375 86.277344 L 221.042969 87.578125 L 216.308594 89.101562 L 211.644531 90.84375 L 207.066406 92.804688 L 202.582031 94.980469 L 198.203125 97.359375 L 193.9375 99.941406 L 189.796875 102.722656 L 185.785156 105.695312 L 181.914062 108.851562 L 178.195312 112.1875 L 174.632812 115.695312 L 171.238281 119.367188 L 168.015625 123.195312 L 164.972656 127.167969 L 162.121094 131.28125 L 159.460938 135.527344 L 156.996094 139.894531 L 154.742188 144.371094 L 152.695312 148.953125 L 150.867188 153.625 L 149.253906 158.378906 L 147.863281 163.207031 L 146.703125 168.097656 L 145.769531 173.039062 L 145.066406 178.019531 L 144.59375 183.027344 L 144.359375 188.058594 L 144.359375 193.09375 L 144.589844 198.128906 L 145.058594 203.148438 L 145.761719 208.144531 L 146.695312 213.101562 L 147.859375 218.015625 L 149.253906 222.867188 L 150.871094 227.65625 L 152.714844 232.363281 L 154.773438 236.980469 L 157.046875 241.503906 L 159.53125 245.914062 L 162.21875 250.207031 L 165.101562 254.371094 L 168.179688 258.398438 L 171.445312 262.277344 L 174.886719 266.003906 L 178.5 269.566406 L 182.28125 272.960938 L 186.214844 276.175781 L 190.296875 279.203125 L 194.515625 282.039062 L 198.863281 284.675781 L 203.335938 287.109375 L 207.824219 289.289062 L 212.410156 291.265625 L 217.082031 293.03125 L 221.835938 294.578125 L 226.652344 295.910156 L 231.53125 297.019531 L 236.457031 297.90625 L 241.417969 298.566406 L 246.410156 299 L 251.414062 299.203125 L 256.429688 299.179688 L 261.4375 298.925781 L 266.429688 298.441406 L 271.398438 297.730469 L 276.332031 296.792969 L 281.21875 295.632812 L 286.050781 294.246094 L 290.816406 292.644531 L 295.503906 290.820312 L 300.109375 288.785156 L 304.613281 286.542969 L 309.015625 284.09375 L 313.300781 281.445312 L 317.464844 278.601562 L 321.496094 275.570312 L 325.386719 272.355469 L 329.125 268.964844 L 332.707031 265.40625 L 336.125 261.6875 L 339.371094 257.8125 L 342.4375 253.789062 L 345.316406 249.632812 L 348.007812 245.34375 L 350.496094 240.9375 L 352.785156 236.417969 L 354.867188 231.796875 L 356.734375 227.085938 L 358.382812 222.289062 L 359.816406 217.421875 L 361.023438 212.492188 L 362.003906 207.507812 L 362.757812 202.484375 L 363.277344 197.429688 L 363.570312 192.351562 L 363.628906 187.265625 L 363.453125 182.179688 L 363.046875 177.105469 L 362.410156 172.050781 L 361.542969 167.03125 L 360.445312 162.054688 L 359.117188 157.128906 L 357.570312 152.265625 L 355.800781 147.480469 L 353.8125 142.777344 L 351.609375 138.167969 L 349.199219 133.660156 L 346.582031 129.265625 L 343.769531 124.996094 L 340.757812 120.855469 L 337.5625 116.859375 L 334.1875 113.007812 L 330.636719 109.3125 L 326.917969 105.785156 L 323.042969 102.425781 L 318.664062 98.988281 L 314.121094 95.765625 L 309.417969 92.773438 L 304.574219 90.019531 L 299.59375 87.503906 L 294.496094 85.238281 L 289.289062 83.226562 L 283.984375 81.476562 L 278.597656 79.992188 L 273.144531 78.773438 L 267.628906 77.828125 L 262.074219 77.15625 L 256.492188 76.761719 L 250.894531 76.640625 L 245.292969 76.800781 L 239.703125 77.238281 L 234.140625 77.953125 L 228.617188 78.941406 L 223.148438 80.203125 L 217.746094 81.738281 L 212.425781 83.535156 L 207.195312 85.597656 L 202.074219 87.917969 L 197.070312 90.492188 L 192.199219 93.3125 L 187.46875 96.367188 L 182.898438 99.660156 L 178.492188 103.175781 L 174.261719 106.90625 L 170.222656 110.84375 L 166.382812 114.976562 L 162.75 119.300781 L 159.332031 123.796875 L 156.140625 128.464844 L 153.1875 133.28125 L 150.472656 138.246094 L 148.003906 143.339844 L 145.792969 148.550781 L 143.839844 153.867188 L 142.15625 159.277344 L 140.738281 164.769531 L 139.59375 170.324219 L 138.726562 175.933594 L 138.140625 181.578125 L 137.832031 187.25 L 137.804688 192.933594 L 138.0625 198.609375 L 138.601562 204.273438 L 139.417969 209.902344 L 140.515625 215.488281 L 141.890625 221.015625 L 143.535156 226.472656 L 145.449219 231.839844 L 147.632812 237.109375 L 150.070312 242.265625 L 152.765625 247.300781 L 155.707031 252.195312 L 158.890625 256.9375 L 162.304688 261.523438 L 165.945312 265.933594 L 169.800781 270.160156 L 173.863281 274.191406 L 178.121094 278.015625 L 182.566406 281.628906 L 186.875 284.800781 L 191.324219 287.765625 L 195.910156 290.527344 L 200.617188 293.074219 L 205.441406 295.398438 L 210.371094 297.5 L 215.394531 299.375 L 220.5 301.011719 L 225.679688 302.414062 L 230.921875 303.574219 L 236.210938 304.488281 L 241.539062 305.160156 L 246.898438 305.585938 L 252.269531 305.761719 L 257.648438 305.6875 L 263.019531 305.367188 L 268.371094 304.796875 L 273.695312 303.980469 L 278.976562 302.914062 L 284.203125 301.609375 L 289.371094 300.0625 L 294.460938 298.273438 L 299.460938 296.253906 L 304.371094 294.003906 L 309.167969 291.527344 L 313.851562 288.828125 L 318.40625 285.917969 L 322.820312 282.796875 L 327.089844 279.472656 L 331.199219 275.953125 L 335.148438 272.25 L 338.917969 268.363281 L 342.507812 264.300781 L 345.910156 260.082031 L 349.109375 255.703125 L 352.105469 251.179688 L 354.894531 246.523438 L 357.460938 241.738281 L 359.808594 236.839844 L 361.921875 231.835938 L 363.808594 226.734375 L 365.453125 221.550781 L 366.859375 216.296875 L 368.019531 210.976562 L 368.9375 205.609375 L 369.601562 200.203125 L 370.015625 194.769531 L 370.179688 189.320312 L 370.089844 183.867188 L 369.746094 178.421875 L 369.152344 172.996094 L 368.308594 167.597656 L 367.214844 162.246094 L 365.875 156.949219 L 364.289062 151.714844 L 362.464844 146.558594 L 360.402344 141.492188 L 358.105469 136.523438 L 355.578125 131.664062 L 352.828125 126.921875 L 349.863281 122.3125 L 346.6875 117.84375 L 343.304688 113.527344 L 339.722656 109.367188 L 335.628906 105.050781 L 331.320312 100.941406 L 326.808594 97.050781 L 322.105469 93.390625 L 317.222656 89.96875 L 312.175781 86.796875 L 306.96875 83.878906 L 301.621094 81.222656 L 296.144531 78.839844 L 290.554688 76.734375 L 284.863281 74.910156 L 279.082031 73.371094 L 273.230469 72.125 L 267.320312 71.175781 L 261.367188 70.519531 L 255.386719 70.164062 L 249.394531 70.109375 L 243.40625 70.355469 L 237.429688 70.902344 L 231.488281 71.75 L 225.59375 72.890625 L 219.765625 74.332031 L 214.007812 76.058594 L 208.347656 78.078125 L 202.789062 80.375 L 197.351562 82.953125 L 192.046875 85.800781 L 186.890625 88.910156 L 181.894531 92.277344 L 177.070312 95.890625 L 172.433594 99.746094 L 167.992188 103.828125 L 163.761719 108.132812 L 159.746094 112.644531 L 155.964844 117.351562 L 152.421875 122.246094 L 149.125 127.316406 L 146.085938 132.546875 L 143.316406 137.925781 L 140.8125 143.4375 L 138.589844 149.070312 L 136.652344 154.8125 L 135.003906 160.644531 L 133.652344 166.554688 L 132.59375 172.53125 L 131.839844 178.550781 L 131.386719 184.605469 L 131.238281 190.679688 L 131.394531 196.753906 L 131.855469 202.816406 L 132.617188 208.851562 L 133.683594 214.84375 L 135.050781 220.777344 L 136.714844 226.632812 L 138.667969 232.40625 L 140.914062 238.074219 L 143.4375 243.625 L 146.242188 249.042969 L 149.3125 254.316406 L 152.648438 259.433594 L 156.234375 264.375 L 160.066406 269.136719 L 164.136719 273.699219 L 168.429688 278.054688 L 172.636719 281.925781 L 177.019531 285.59375 L 181.570312 289.058594 L 186.28125 292.304688 L 191.140625 295.328125 L 196.136719 298.121094 L 201.261719 300.679688 L 206.503906 302.992188 L 211.847656 305.0625 L 217.289062 306.878906 L 222.808594 308.441406 L 228.398438 309.742188 L 234.046875 310.777344 L 239.738281 311.550781 L 245.460938 312.054688 L 251.203125 312.292969 L 256.953125 312.261719 L 262.699219 311.957031 L 268.425781 311.386719 L 274.121094 310.550781 L 279.773438 309.445312 L 285.371094 308.074219 L 290.898438 306.445312 L 296.347656 304.558594 L 301.707031 302.414062 L 306.957031 300.023438 L 312.09375 297.386719 L 317.101562 294.511719 L 321.972656 291.40625 L 326.695312 288.070312 L 331.257812 284.519531 L 335.652344 280.753906 L 339.867188 276.789062 L 343.890625 272.625 L 347.71875 268.28125 L 351.339844 263.757812 L 354.746094 259.066406 L 357.929688 254.21875 L 360.882812 249.226562 L 363.601562 244.101562 L 366.078125 238.851562 L 368.308594 233.488281 L 370.28125 228.023438 L 372 222.472656 L 373.457031 216.84375 L 374.652344 211.148438 L 375.578125 205.402344 L 376.230469 199.621094 L 376.613281 193.808594 L 376.726562 187.984375 L 376.5625 182.15625 L 376.128906 176.34375 L 375.421875 170.554688 L 374.445312 164.800781 L 373.199219 159.097656 L 371.6875 153.457031 L 369.910156 147.890625 L 367.875 142.414062 L 365.582031 137.035156 L 363.042969 131.765625 L 360.257812 126.621094 L 357.230469 121.609375 L 353.972656 116.746094 L 350.488281 112.035156 L 346.863281 107.578125 L 343.03125 103.292969 L 339.007812 99.1875 L 334.800781 95.265625 L 330.414062 91.542969 L 325.859375 88.023438 L 321.144531 84.714844 L 316.28125 81.625 L 311.28125 78.761719 L 306.152344 76.128906 L 300.90625 73.734375 L 295.550781 71.582031 L 290.105469 69.675781 L 284.570312 68.023438 L 278.96875 66.625 L 273.300781 65.484375 L 267.589844 64.605469 L 261.839844 63.992188 L 256.066406 63.640625 L 250.277344 63.554688 L 244.492188 63.734375 L 238.71875 64.179688 L 232.96875 64.890625 L 227.253906 65.863281 L 221.589844 67.101562 L 215.984375 68.597656 L 210.453125 70.347656 L 205.003906 72.351562 L 199.652344 74.605469 L 194.410156 77.105469 L 189.28125 79.839844 L 184.285156 82.8125 L 179.429688 86.011719 L 174.722656 89.429688 L 170.175781 93.0625 L 165.796875 96.902344 L 161.601562 100.941406 L 157.589844 105.167969 L 153.777344 109.578125 L 150.171875 114.160156 L 146.777344 118.902344 L 143.601562 123.800781 L 140.65625 128.839844 L 137.941406 134.011719 L 135.46875 139.304688 L 133.238281 144.707031 L 131.257812 150.207031 L 129.535156 155.796875 L 128.066406 161.457031 L 126.859375 167.1875 L 125.917969 172.964844 L 125.242188 178.785156 L 124.832031 184.628906 L 124.691406 190.488281 L 124.820312 196.351562 L 125.21875 202.203125 L 125.886719 208.035156 L 126.820312 213.832031 L 128.019531 219.578125 L 129.484375 225.269531 L 131.207031 230.886719 L 133.1875 236.425781 L 135.421875 241.867188 L 137.902344 247.199219 L 140.867188 252.855469 L 144.113281 258.355469 L 147.632812 263.6875 L 151.414062 268.84375 L 155.445312 273.804688 L 159.726562 278.5625 L 164.234375 283.101562 L 168.96875 287.414062 L 173.914062 291.484375 L 179.058594 295.308594 L 184.386719 298.871094 L 189.890625 302.164062 L 195.550781 305.179688 L 201.359375 307.914062 L 207.296875 310.355469 L 213.351562 312.496094 L 219.507812 314.335938 L 225.753906 315.867188 L 232.066406 317.085938 L 238.4375 317.992188 L 244.847656 318.574219 L 251.28125 318.839844 L 257.722656 318.785156 L 264.15625 318.410156 L 270.5625 317.710938 L 276.933594 316.699219 L 283.246094 315.367188 L 289.488281 313.71875 L 295.640625 311.765625 L 301.691406 309.507812 L 307.625 306.945312 L 313.425781 304.09375 L 319.082031 300.953125 L 324.574219 297.535156 L 329.890625 293.847656 L 335.023438 289.894531 L 339.949219 285.691406 L 344.667969 281.246094 L 349.15625 276.570312 L 353.410156 271.675781 L 357.414062 266.570312 L 361.160156 261.269531 L 364.640625 255.789062 L 367.847656 250.140625 L 370.765625 244.335938 L 373.394531 238.386719 L 375.726562 232.316406 L 377.75 226.132812 L 379.46875 219.855469 L 380.867188 213.496094 L 381.953125 207.074219 L 382.714844 200.601562 L 383.15625 194.097656 L 383.269531 187.578125 L 383.058594 181.054688 L 382.527344 174.550781 L 381.667969 168.078125 L 380.488281 161.652344 L 378.988281 155.292969 L 377.175781 149.011719 L 375.046875 142.828125 L 372.617188 136.753906 L 369.882812 130.808594 L 366.855469 125.003906 L 363.773438 119.722656 L 360.445312 114.59375 L 356.882812 109.621094 L 353.089844 104.816406 L 349.078125 100.191406 L 344.851562 95.757812 L 340.425781 91.523438 L 335.804688 87.5 L 331 83.691406 L 326.019531 80.109375 L 320.875 76.761719 L 315.582031 73.65625 L 310.148438 70.796875 L 304.585938 68.195312 L 298.902344 65.851562 L 293.117188 63.777344 L 287.238281 61.96875 L 281.28125 60.4375 L 275.257812 59.1875 L 269.179688 58.214844 L 263.058594 57.527344 L 256.910156 57.121094 L 250.75 57.003906 L 244.585938 57.171875 L 238.4375 57.628906 L 232.3125 58.371094 L 226.226562 59.394531 L 220.191406 60.703125 L 214.222656 62.292969 L 208.332031 64.15625 L 202.53125 66.292969 L 196.835938 68.695312 L 191.253906 71.363281 L 185.804688 74.289062 L 180.492188 77.464844 L 175.328125 80.886719 L 170.332031 84.546875 L 165.507812 88.433594 L 160.867188 92.546875 L 156.421875 96.867188 L 152.179688 101.394531 L 148.152344 106.117188 L 144.347656 111.019531 L 140.773438 116.097656 L 137.4375 121.339844 L 134.347656 126.730469 L 131.507812 132.261719 L 128.933594 137.921875 L 126.621094 143.699219 L 124.578125 149.578125 L 122.808594 155.546875 L 121.320312 161.59375 L 120.113281 167.707031 L 119.195312 173.871094 L 118.558594 180.074219 L 118.214844 186.300781 L 118.160156 192.539062 L 118.394531 198.777344 L 118.917969 205 L 119.734375 211.191406 L 120.832031 217.34375 L 122.21875 223.4375 L 123.886719 229.464844 L 125.835938 235.410156 L 128.257812 241.742188 L 130.996094 247.949219 L 134.042969 254.011719 L 137.394531 259.914062 L 141.039062 265.644531 L 144.972656 271.1875 L 149.179688 276.523438 L 153.652344 281.648438 L 158.378906 286.539062 L 163.347656 291.1875 L 168.546875 295.582031 L 173.960938 299.710938 L 179.578125 303.5625 L 185.386719 307.128906 L 191.371094 310.398438 L 197.511719 313.367188 L 203.796875 316.019531 L 210.210938 318.355469 L 216.738281 320.363281 L 223.359375 322.042969 L 230.058594 323.386719 L 236.824219 324.390625 L 243.628906 325.054688 L 250.464844 325.371094 L 257.308594 325.347656 L 264.144531 324.976562 L 270.957031 324.265625 L 277.726562 323.207031 L 284.4375 321.808594 L 291.074219 320.074219 L 297.613281 318.007812 L 304.046875 315.613281 L 310.351562 312.898438 L 316.515625 309.867188 L 322.519531 306.527344 L 328.351562 302.886719 L 333.992188 298.957031 L 339.433594 294.746094 L 344.65625 290.265625 L 349.648438 285.527344 L 354.394531 280.539062 L 358.886719 275.316406 L 363.113281 269.871094 L 367.0625 264.21875 L 370.722656 258.375 L 374.085938 252.347656 L 377.140625 246.160156 L 379.878906 239.820312 L 382.300781 233.351562 L 384.390625 226.761719 L 386.148438 220.078125 L 387.566406 213.308594 L 388.640625 206.472656 L 389.371094 199.59375 L 389.757812 192.679688 L 389.792969 185.753906 L 389.476562 178.832031 L 388.8125 171.929688 L 387.804688 165.070312 L 386.449219 158.265625 L 384.753906 151.539062 L 382.71875 144.902344 L 380.355469 138.371094 L 377.660156 131.96875 L 374.703125 125.816406 L 371.445312 119.820312 L 367.894531 113.984375 L 364.058594 108.335938 L 359.945312 102.878906 L 355.566406 97.628906 L 350.929688 92.601562 L 346.046875 87.808594 L 340.933594 83.257812 L 335.601562 78.964844 L 330.058594 74.941406 L 324.320312 71.195312 L 318.40625 67.734375 L 312.324219 64.570312 L 306.089844 61.710938 L 299.71875 59.160156 L 293.226562 56.929688 L 286.628906 55.019531 L 279.945312 53.4375 L 273.1875 52.191406 L 266.375 51.277344 L 259.523438 50.699219 L 252.644531 50.464844 L 245.765625 50.566406 L 238.894531 51.011719 L 232.050781 51.796875 L 225.253906 52.917969 L 218.515625 54.375 L 211.859375 56.164062 L 205.292969 58.28125 L 198.839844 60.71875 L 192.511719 63.476562 L 186.324219 66.542969 L 180.296875 69.914062 L 174.4375 73.582031 L 168.769531 77.535156 L 163.296875 81.765625 L 158.042969 86.261719 L 153.011719 91.015625 L 148.222656 96.011719 L 143.683594 101.242188 L 139.40625 106.695312 L 135.402344 112.351562 L 131.683594 118.203125 L 128.257812 124.234375 L 125.132812 130.425781 L 122.316406 136.769531 L 119.816406 143.25 L 117.636719 149.84375 L 115.789062 156.542969 L 114.269531 163.324219 L 113.089844 170.175781 L 112.25 177.082031 L 111.753906 184.023438 L 111.601562 190.984375 L 111.789062 197.945312 L 112.324219 204.890625 L 113.203125 211.804688 L 114.421875 218.667969 L 115.980469 225.464844 L 117.875 232.179688 L 120.097656 238.792969 L 122.644531 245.292969 L 125.511719 251.664062 L 128.472656 257.46875 L 131.695312 263.136719 L 135.175781 268.652344 L 138.910156 274 L 142.890625 279.175781 L 147.105469 284.160156 L 151.546875 288.949219 L 156.203125 293.527344 L 161.070312 297.890625 L 166.136719 302.023438 L 171.386719 305.917969 L 176.816406 309.570312 L 182.40625 312.96875 L 188.152344 316.105469 L 194.039062 318.976562 L 200.054688 321.574219 L 206.183594 323.890625 L 212.414062 325.921875 L 218.734375 327.667969 L 225.132812 329.117188 L 231.59375 330.273438 L 238.101562 331.128906 L 244.644531 331.679688 L 251.207031 331.933594 L 257.777344 331.882812 L 264.339844 331.527344 L 270.882812 330.871094 L 277.390625 329.914062 L 283.847656 328.65625 L 290.242188 327.101562 L 296.5625 325.25 L 302.792969 323.113281 L 308.917969 320.6875 L 314.925781 317.980469 L 320.808594 315 L 326.546875 311.75 L 332.128906 308.238281 L 337.546875 304.46875 L 342.789062 300.453125 L 347.839844 296.199219 L 352.6875 291.714844 L 357.328125 287.007812 L 361.75 282.09375 L 365.941406 276.976562 L 369.890625 271.671875 L 373.59375 266.1875 L 377.039062 260.539062 L 380.226562 254.730469 L 383.136719 248.78125 L 385.773438 242.703125 L 388.128906 236.507812 L 390.195312 230.207031 L 391.972656 223.816406 L 393.449219 217.347656 L 394.628906 210.816406 L 395.503906 204.234375 L 396.078125 197.617188 L 396.34375 190.980469 L 396.304688 184.335938 L 395.957031 177.695312 L 395.304688 171.078125 L 394.347656 164.492188 L 393.085938 157.960938 L 391.523438 151.488281 L 389.496094 144.558594 L 387.121094 137.734375 L 384.40625 131.039062 L 381.363281 124.484375 L 377.988281 118.085938 L 374.300781 111.863281 L 370.304688 105.832031 L 366.011719 100.003906 L 361.425781 94.394531 L 356.570312 89.023438 L 351.445312 83.898438 L 346.070312 79.035156 L 340.457031 74.445312 L 334.617188 70.136719 L 328.566406 66.128906 L 322.324219 62.425781 L 315.898438 59.035156 L 309.3125 55.972656 L 302.578125 53.242188 L 295.710938 50.851562 L 288.730469 48.804688 L 281.65625 47.109375 L 274.503906 45.769531 L 267.289062 44.792969 L 260.03125 44.171875 L 252.75 43.917969 L 245.460938 44.027344 L 238.1875 44.503906 L 230.941406 45.339844 L 223.742188 46.542969 L 216.613281 48.101562 L 209.566406 50.015625 L 202.625 52.28125 L 195.796875 54.890625 L 189.109375 57.839844 L 182.578125 61.121094 L 176.210938 64.726562 L 170.035156 68.648438 L 164.058594 72.875 L 158.300781 77.398438 L 152.769531 82.203125 L 147.488281 87.28125 L 142.464844 92.621094 L 137.710938 98.203125 L 133.242188 104.023438 L 129.070312 110.058594 L 125.203125 116.296875 L 121.652344 122.722656 L 118.425781 129.324219 L 115.53125 136.078125 L 112.976562 142.972656 L 110.769531 149.984375 L 108.917969 157.105469 L 107.421875 164.3125 L 106.289062 171.585938 L 105.519531 178.910156 L 105.117188 186.265625 L 105.085938 193.632812 L 105.421875 200.996094 L 106.125 208.339844 L 107.195312 215.636719 L 108.628906 222.875 L 110.425781 230.039062 L 112.578125 237.101562 L 114.90625 243.59375 L 117.53125 249.972656 L 120.457031 256.226562 L 123.671875 262.335938 L 127.167969 268.289062 L 130.941406 274.078125 L 134.980469 279.683594 L 139.28125 285.097656 L 143.828125 290.308594 L 148.617188 295.300781 L 153.636719 300.0625 L 158.871094 304.589844 L 164.316406 308.871094 L 169.957031 312.890625 L 175.78125 316.644531 L 181.777344 320.125 L 187.929688 323.320312 L 194.226562 326.226562 L 200.652344 328.839844 L 207.199219 331.148438 L 213.847656 333.148438 L 220.582031 334.835938 L 227.394531 336.210938 L 234.261719 337.261719 L 241.175781 337.996094 L 248.117188 338.402344 L 255.074219 338.488281 L 262.027344 338.246094 L 268.964844 337.679688 L 275.871094 336.789062 L 282.730469 335.578125 L 289.527344 334.046875 L 296.246094 332.199219 L 302.875 330.039062 L 309.398438 327.574219 L 315.804688 324.800781 L 322.070312 321.734375 L 328.191406 318.375 L 334.152344 314.734375 L 339.933594 310.816406 L 345.53125 306.632812 L 350.929688 302.191406 L 356.113281 297.5 L 361.078125 292.570312 L 365.804688 287.410156 L 370.289062 282.035156 L 374.515625 276.457031 L 378.480469 270.683594 L 382.175781 264.726562 L 385.585938 258.605469 L 388.707031 252.328125 L 391.535156 245.910156 L 394.0625 239.367188 L 396.277344 232.707031 L 398.183594 225.949219 L 399.769531 219.109375 L 401.039062 212.203125 L 401.980469 205.238281 L 402.597656 198.238281 L 402.886719 191.210938 L 402.847656 184.179688 L 402.480469 177.152344 L 401.785156 170.148438 L 400.765625 163.183594 L 399.445312 156.40625 L 397.820312 149.691406 L 395.886719 143.058594 L 393.652344 136.519531 L 391.121094 130.089844 L 388.296875 123.777344 L 385.183594 117.601562 L 381.789062 111.570312 L 378.121094 105.699219 L 374.191406 100 L 370 94.488281 L 365.558594 89.167969 L 360.878906 84.058594 L 355.964844 79.164062 L 350.835938 74.5 L 345.492188 70.074219 L 339.953125 65.898438 L 334.226562 61.976562 L 328.320312 58.320312 L 322.253906 54.9375 L 316.039062 51.835938 L 309.683594 49.019531 L 303.207031 46.496094 L 296.617188 44.273438 L 289.929688 42.351562 L 283.160156 40.738281 L 276.324219 39.4375 L 269.429688 38.449219 L 262.496094 37.777344 L 255.539062 37.425781 L 248.570312 37.390625 L 241.605469 37.675781 L 234.65625 38.277344 L 227.742188 39.199219 L 220.871094 40.4375 L 214.066406 41.988281 L 207.335938 43.851562 L 200.695312 46.019531 L 194.160156 48.488281 L 187.742188 51.257812 L 181.457031 54.316406 L 175.316406 57.664062 L 169.332031 61.289062 L 163.519531 65.183594 L 157.886719 69.34375 L 152.453125 73.757812 L 147.222656 78.417969 L 142.210938 83.3125 L 137.425781 88.433594 L 132.878906 93.773438 L 128.578125 99.3125 L 124.539062 105.046875 L 120.761719 110.964844 L 117.257812 117.046875 L 114.039062 123.285156 L 111.105469 129.667969 L 108.464844 136.179688 L 106.128906 142.808594 L 104.09375 149.539062 L 102.371094 156.359375 L 100.960938 163.25 L 99.867188 170.203125 L 99.09375 177.199219 L 98.640625 184.226562 L 98.511719 191.867188 L 98.765625 199.507812 L 99.398438 207.128906 L 100.40625 214.714844 L 101.792969 222.238281 L 103.550781 229.691406 L 105.679688 237.046875 L 108.167969 244.289062 L 111.015625 251.40625 L 114.214844 258.371094 L 117.757812 265.171875 L 121.636719 271.789062 L 125.839844 278.210938 L 130.355469 284.414062 L 135.179688 290.390625 L 140.292969 296.121094 L 145.6875 301.59375 L 151.347656 306.789062 L 157.265625 311.703125 L 163.417969 316.316406 L 169.792969 320.621094 L 176.378906 324.605469 L 183.15625 328.257812 L 190.109375 331.570312 L 197.222656 334.53125 L 204.472656 337.140625 L 211.847656 339.386719 L 219.328125 341.265625 L 226.894531 342.765625 L 234.527344 343.894531 L 242.210938 344.640625 L 249.925781 345.003906 L 257.648438 344.984375 L 265.367188 344.582031 L 273.054688 343.792969 L 280.699219 342.625 L 288.277344 341.078125 L 295.773438 339.15625 L 303.164062 336.863281 L 310.4375 334.207031 L 317.570312 331.191406 L 324.546875 327.820312 L 331.351562 324.109375 L 337.964844 320.0625 L 344.371094 315.691406 L 350.554688 311.003906 L 356.5 306.015625 L 362.191406 300.738281 L 367.613281 295.179688 L 372.757812 289.355469 L 377.605469 283.285156 L 382.148438 276.976562 L 386.375 270.449219 L 390.273438 263.71875 L 393.832031 256.796875 L 397.042969 249.707031 L 399.898438 242.464844 L 402.394531 235.085938 L 404.519531 227.589844 L 406.273438 219.996094 L 407.644531 212.320312 L 408.632812 204.585938 L 409.238281 196.804688 L 409.457031 189.003906 L 409.308594 181.722656 L 408.824219 174.449219 L 408.003906 167.207031 L 406.847656 160.007812 L 405.359375 152.867188 L 403.539062 145.800781 L 401.394531 138.828125 L 398.929688 131.957031 L 396.144531 125.203125 L 393.050781 118.585938 L 389.652344 112.117188 L 385.957031 105.8125 L 381.96875 99.683594 L 377.703125 93.742188 L 373.164062 88.003906 L 368.363281 82.480469 L 363.308594 77.183594 L 358.011719 72.125 L 352.488281 67.316406 L 346.742188 62.769531 L 340.792969 58.488281 L 334.648438 54.492188 L 328.320312 50.777344 L 321.828125 47.363281 L 315.183594 44.25 L 308.398438 41.449219 L 301.488281 38.964844 L 294.46875 36.804688 L 287.351562 34.96875 L 280.15625 33.464844 L 272.898438 32.296875 L 265.59375 31.464844 L 258.253906 30.972656 L 250.894531 30.820312 L 243.535156 31.007812 L 236.191406 31.539062 L 228.878906 32.410156 L 221.609375 33.621094 L 214.40625 35.164062 L 207.277344 37.042969 L 200.238281 39.25 L 193.3125 41.78125 L 186.503906 44.632812 L 179.835938 47.796875 L 173.320312 51.269531 L 166.96875 55.039062 L 160.796875 59.101562 L 154.820312 63.445312 L 149.046875 68.0625 L 143.496094 72.945312 L 138.171875 78.082031 L 133.09375 83.460938 L 128.265625 89.074219 L 123.703125 94.902344 L 119.414062 100.941406 L 115.40625 107.171875 L 111.691406 113.582031 L 108.277344 120.164062 L 105.171875 126.894531 L 102.378906 133.769531 L 99.910156 140.761719 L 97.765625 147.867188 L 95.949219 155.066406 L 94.472656 162.34375 L 93.222656 170.542969 L 92.398438 178.796875 L 92 187.082031 L 92.03125 195.382812 L 92.492188 203.671875 L 93.382812 211.933594 L 94.703125 220.136719 L 96.441406 228.261719 L 98.601562 236.292969 L 101.171875 244.203125 L 104.152344 251.96875 L 107.53125 259.578125 L 111.296875 267 L 115.445312 274.222656 L 119.964844 281.222656 L 124.839844 287.980469 L 130.0625 294.480469 L 135.613281 300.703125 L 141.484375 306.628906 L 147.652344 312.25 L 154.105469 317.542969 L 160.828125 322.5 L 167.800781 327.101562 L 175 331.339844 L 182.414062 335.199219 L 190.023438 338.671875 L 197.800781 341.746094 L 205.730469 344.417969 L 213.792969 346.671875 L 221.960938 348.511719 L 230.214844 349.921875 L 238.539062 350.90625 L 246.898438 351.457031 L 255.285156 351.578125 L 263.664062 351.261719 L 272.019531 350.511719 L 280.328125 349.332031 L 288.570312 347.722656 L 296.71875 345.691406 L 304.753906 343.238281 L 312.652344 340.371094 L 320.394531 337.097656 L 327.960938 333.425781 L 335.328125 329.371094 L 342.480469 324.933594 L 349.394531 320.132812 L 356.054688 314.980469 L 362.4375 309.484375 L 368.535156 303.667969 L 374.320312 297.539062 L 379.785156 291.117188 L 384.914062 284.421875 L 389.6875 277.464844 L 394.097656 270.269531 L 398.132812 262.851562 L 401.777344 255.234375 L 405.023438 247.433594 L 407.863281 239.476562 L 410.289062 231.378906 L 412.292969 223.160156 L 413.871094 214.851562 L 415.015625 206.464844 L 415.726562 198.03125 L 416 189.566406 " transform="matrix(1,0,0,1,-74,-13)"/>
</g>
</svg>
