<?xml version="1.0" encoding="UTF-8"?>
<svg xmlns="http://www.w3.org/2000/svg" xmlns:xlink="http://www.w3.org/1999/xlink" width="342pt" height="342pt" viewBox="0 0 342 342" version="1.1">
<g id="surface424">
<path style="fill:none;stroke-width:1.6;stroke-linecap:square;stroke-linejoin:miter;stroke:rgb(36.84082%,50.67749%,70.979309%);stroke-opacity:1;stroke-miterlimit:3.25;" d="M 246.769531 192.5 L 246.746094 192.355469 L 246.714844 192.066406 L 246.703125 191.921875 L 246.695312 191.777344 L 246.6875 191.628906 L 246.683594 191.480469 L 246.691406 191.183594 L 246.707031 190.886719 L 246.738281 190.589844 L 246.757812 190.4375 L 246.78125 190.289062 L 246.808594 190.140625 L 246.839844 189.992188 L 246.875 189.839844 L 246.910156 189.691406 L 246.949219 189.542969 L 246.996094 189.394531 L 247.042969 189.25 L 247.144531 188.957031 L 247.203125 188.808594 L 247.261719 188.664062 L 247.394531 188.378906 L 247.535156 188.097656 L 247.691406 187.820312 L 247.863281 187.546875 L 248.042969 187.28125 L 248.238281 187.023438 L 248.445312 186.769531 L 248.664062 186.527344 L 248.894531 186.289062 L 249.390625 185.847656 L 249.519531 185.742188 L 249.652344 185.636719 L 249.925781 185.441406 L 250.066406 185.347656 L 250.210938 185.253906 L 250.503906 185.078125 L 250.652344 184.996094 L 250.804688 184.914062 L 251.117188 184.765625 L 251.273438 184.695312 L 251.433594 184.628906 L 251.761719 184.503906 L 251.941406 184.441406 L 252.121094 184.382812 L 252.304688 184.328125 L 252.488281 184.277344 L 252.863281 184.191406 L 253.246094 184.121094 L 253.4375 184.09375 L 253.632812 184.070312 L 253.828125 184.050781 L 254.023438 184.035156 L 254.414062 184.019531 L 254.613281 184.019531 L 254.8125 184.023438 L 255.011719 184.03125 L 255.210938 184.042969 L 255.609375 184.082031 L 255.808594 184.109375 L 256.007812 184.140625 L 256.40625 184.21875 L 256.601562 184.265625 L 256.800781 184.316406 L 256.996094 184.371094 L 257.195312 184.429688 L 257.390625 184.496094 L 257.582031 184.566406 L 257.96875 184.71875 L 258.15625 184.800781 L 258.347656 184.890625 L 258.71875 185.082031 L 258.902344 185.183594 L 259.085938 185.289062 L 259.441406 185.515625 L 259.617188 185.636719 L 259.789062 185.761719 L 260.128906 186.023438 L 260.292969 186.160156 L 260.457031 186.300781 L 260.773438 186.597656 L 260.925781 186.75 L 261.074219 186.90625 L 261.363281 187.234375 L 261.503906 187.402344 L 261.640625 187.574219 L 261.902344 187.929688 L 262.027344 188.113281 L 262.148438 188.300781 L 262.375 188.683594 L 262.484375 188.878906 L 262.589844 189.078125 L 262.78125 189.484375 L 262.867188 189.675781 L 262.949219 189.871094 L 263.097656 190.269531 L 263.164062 190.472656 L 263.289062 190.878906 L 263.34375 191.085938 L 263.394531 191.296875 L 263.441406 191.507812 L 263.484375 191.71875 L 263.519531 191.929688 L 263.554688 192.144531 L 263.582031 192.359375 L 263.605469 192.578125 L 263.625 192.792969 L 263.648438 193.230469 L 263.652344 193.453125 L 263.652344 193.671875 L 263.648438 193.894531 L 263.636719 194.113281 L 263.625 194.335938 L 263.605469 194.554688 L 263.582031 194.777344 L 263.550781 195 L 263.519531 195.21875 L 263.480469 195.441406 L 263.4375 195.660156 L 263.386719 195.882812 L 263.335938 196.101562 L 263.277344 196.320312 L 263.214844 196.535156 L 263.144531 196.753906 L 263.074219 196.96875 L 262.996094 197.183594 L 262.914062 197.398438 L 262.824219 197.609375 L 262.636719 198.027344 L 262.535156 198.234375 L 262.429688 198.441406 L 262.203125 198.84375 L 262.085938 199.042969 L 261.960938 199.242188 L 261.699219 199.628906 L 261.417969 200.003906 L 261.121094 200.371094 L 260.964844 200.550781 L 260.804688 200.726562 L 260.476562 201.066406 L 260.304688 201.234375 L 260.128906 201.394531 L 259.765625 201.710938 L 259.582031 201.859375 L 259.390625 202.007812 L 259 202.292969 L 258.804688 202.425781 L 258.601562 202.554688 L 258.195312 202.800781 L 257.984375 202.917969 L 257.773438 203.03125 L 257.34375 203.246094 L 257.121094 203.34375 L 256.902344 203.441406 L 256.675781 203.53125 L 256.449219 203.617188 L 256.21875 203.699219 L 255.988281 203.777344 L 255.519531 203.914062 L 255.28125 203.976562 L 255.042969 204.035156 L 254.804688 204.085938 L 254.5625 204.132812 L 254.316406 204.175781 L 254.074219 204.214844 L 253.828125 204.246094 L 253.582031 204.273438 L 253.332031 204.292969 L 253.082031 204.308594 L 252.835938 204.320312 L 252.582031 204.328125 L 252.332031 204.328125 L 252.082031 204.324219 L 251.832031 204.3125 L 251.578125 204.296875 L 251.328125 204.277344 L 251.074219 204.25 L 250.824219 204.21875 L 250.570312 204.179688 L 250.320312 204.140625 L 249.820312 204.039062 L 249.570312 203.980469 L 249.324219 203.914062 L 249.074219 203.847656 L 248.828125 203.769531 L 248.585938 203.691406 L 248.339844 203.605469 L 248.097656 203.515625 L 247.617188 203.316406 L 247.378906 203.210938 L 247.144531 203.097656 L 246.679688 202.859375 L 246.449219 202.734375 L 246.222656 202.601562 L 245.777344 202.320312 L 245.558594 202.175781 L 245.34375 202.023438 L 244.917969 201.703125 L 244.109375 201.011719 L 243.898438 200.808594 L 243.691406 200.605469 L 243.292969 200.175781 L 243.101562 199.957031 L 242.914062 199.730469 L 242.554688 199.265625 L 242.378906 199.027344 L 242.214844 198.785156 L 241.894531 198.285156 L 241.742188 198.027344 L 241.597656 197.769531 L 241.324219 197.238281 L 241.195312 196.964844 L 241.074219 196.691406 L 240.957031 196.414062 L 240.847656 196.136719 L 240.746094 195.851562 L 240.648438 195.566406 L 240.558594 195.277344 L 240.472656 194.984375 L 240.398438 194.691406 L 240.324219 194.394531 L 240.261719 194.097656 L 240.203125 193.796875 L 240.152344 193.496094 L 240.109375 193.191406 L 240.074219 192.886719 L 240.042969 192.578125 L 240.019531 192.273438 L 240.003906 191.964844 L 239.996094 191.65625 L 239.996094 191.34375 L 240 191.035156 L 240.015625 190.722656 L 240.035156 190.414062 L 240.0625 190.101562 L 240.09375 189.789062 L 240.136719 189.480469 L 240.183594 189.171875 L 240.242188 188.859375 L 240.304688 188.550781 L 240.375 188.246094 L 240.453125 187.9375 L 240.535156 187.632812 L 240.628906 187.328125 L 240.726562 187.027344 L 240.832031 186.726562 L 240.945312 186.429688 L 241.066406 186.132812 L 241.191406 185.839844 L 241.46875 185.257812 L 241.617188 184.972656 L 241.769531 184.691406 L 242.097656 184.136719 L 242.273438 183.863281 L 242.453125 183.59375 L 242.835938 183.066406 L 243.023438 182.824219 L 243.214844 182.589844 L 243.613281 182.125 L 243.820312 181.902344 L 244.035156 181.679688 L 244.476562 181.25 L 244.703125 181.042969 L 244.9375 180.839844 L 245.414062 180.449219 L 245.660156 180.261719 L 245.910156 180.078125 L 246.425781 179.726562 L 246.6875 179.558594 L 246.953125 179.394531 L 247.5 179.085938 L 247.777344 178.941406 L 248.058594 178.800781 L 248.632812 178.539062 L 248.925781 178.414062 L 249.21875 178.300781 L 249.515625 178.191406 L 249.816406 178.085938 L 250.117188 177.988281 L 250.425781 177.898438 L 250.730469 177.8125 L 251.042969 177.734375 L 251.351562 177.664062 L 251.667969 177.597656 L 251.980469 177.539062 L 252.300781 177.488281 L 252.617188 177.441406 L 252.9375 177.40625 L 253.257812 177.375 L 253.582031 177.347656 L 253.90625 177.332031 L 254.226562 177.320312 L 254.554688 177.316406 L 254.878906 177.320312 L 255.203125 177.332031 L 255.53125 177.347656 L 255.855469 177.371094 L 256.179688 177.402344 L 256.507812 177.441406 L 256.832031 177.484375 L 257.15625 177.539062 L 257.480469 177.597656 L 257.800781 177.664062 L 258.125 177.738281 L 258.445312 177.816406 L 258.761719 177.902344 L 259.082031 178 L 259.398438 178.097656 L 259.710938 178.207031 L 260.023438 178.320312 L 260.335938 178.445312 L 260.644531 178.570312 L 261.253906 178.847656 L 261.578125 179.011719 L 261.898438 179.179688 L 262.535156 179.539062 L 262.84375 179.734375 L 263.152344 179.933594 L 263.753906 180.351562 L 264.046875 180.574219 L 264.335938 180.804688 L 264.902344 181.28125 L 265.175781 181.53125 L 265.441406 181.785156 L 265.964844 182.316406 L 266.214844 182.59375 L 266.460938 182.875 L 266.929688 183.453125 L 267.15625 183.753906 L 267.375 184.058594 L 267.792969 184.683594 L 267.992188 185.003906 L 268.183594 185.328125 L 268.546875 185.996094 L 268.714844 186.335938 L 268.875 186.679688 L 269.175781 187.378906 L 269.3125 187.734375 L 269.441406 188.09375 L 269.5625 188.457031 L 269.675781 188.824219 L 269.78125 189.195312 L 269.878906 189.566406 L 269.964844 189.941406 L 270.042969 190.316406 L 270.113281 190.699219 L 270.175781 191.078125 L 270.230469 191.464844 L 270.273438 191.847656 L 270.308594 192.234375 L 270.335938 192.625 L 270.351562 193.011719 L 270.359375 193.402344 L 270.359375 193.792969 L 270.351562 194.183594 L 270.332031 194.578125 L 270.304688 194.96875 L 270.265625 195.359375 L 270.222656 195.75 L 270.164062 196.140625 L 270.101562 196.53125 L 270.027344 196.917969 L 269.945312 197.304688 L 269.851562 197.691406 L 269.753906 198.074219 L 269.644531 198.457031 L 269.523438 198.835938 L 269.257812 199.589844 L 269.117188 199.957031 L 268.964844 200.320312 L 268.636719 201.035156 L 268.460938 201.390625 L 268.277344 201.738281 L 267.882812 202.425781 L 267.675781 202.761719 L 267.457031 203.097656 L 267 203.75 L 266.761719 204.066406 L 266.511719 204.382812 L 265.996094 204.992188 L 265.726562 205.289062 L 265.449219 205.582031 L 264.875 206.148438 L 264.578125 206.421875 L 264.273438 206.6875 L 263.648438 207.199219 L 263.324219 207.449219 L 262.996094 207.6875 L 262.324219 208.144531 L 261.976562 208.359375 L 261.628906 208.570312 L 260.910156 208.96875 L 260.546875 209.152344 L 260.175781 209.332031 L 259.800781 209.5 L 259.421875 209.660156 L 259.039062 209.816406 L 258.652344 209.960938 L 257.867188 210.222656 L 257.46875 210.339844 L 257.070312 210.449219 L 256.667969 210.550781 L 256.261719 210.640625 L 255.851562 210.722656 L 255.441406 210.796875 L 255.027344 210.859375 L 254.613281 210.914062 L 254.195312 210.957031 L 253.777344 210.992188 L 253.359375 211.019531 L 252.9375 211.035156 L 252.519531 211.042969 L 252.097656 211.039062 L 251.675781 211.027344 L 251.253906 211.003906 L 250.828125 210.972656 L 250.40625 210.929688 L 249.988281 210.878906 L 249.566406 210.820312 L 249.144531 210.75 L 248.726562 210.667969 L 248.3125 210.582031 L 247.894531 210.480469 L 247.507812 210.378906 L 247.125 210.269531 L 246.742188 210.152344 L 246.363281 210.027344 L 245.984375 209.894531 L 245.609375 209.75 L 244.867188 209.441406 L 244.5 209.277344 L 244.136719 209.101562 L 243.417969 208.730469 L 243.066406 208.53125 L 242.714844 208.328125 L 242.03125 207.894531 L 241.695312 207.664062 L 241.363281 207.429688 L 240.710938 206.9375 L 240.394531 206.679688 L 240.082031 206.417969 L 239.472656 205.871094 L 239.175781 205.585938 L 238.886719 205.292969 L 238.324219 204.695312 L 237.273438 203.417969 L 237.027344 203.085938 L 236.785156 202.746094 L 236.328125 202.054688 L 236.109375 201.699219 L 235.898438 201.339844 L 235.5 200.605469 L 235.3125 200.234375 L 235.132812 199.855469 L 234.960938 199.472656 L 234.796875 199.089844 L 234.640625 198.699219 L 234.492188 198.304688 L 234.21875 197.507812 L 234.09375 197.105469 L 233.980469 196.699219 L 233.871094 196.289062 L 233.773438 195.878906 L 233.6875 195.460938 L 233.605469 195.046875 L 233.53125 194.628906 L 233.46875 194.207031 L 233.414062 193.785156 L 233.371094 193.359375 L 233.335938 192.9375 L 233.308594 192.507812 L 233.289062 192.082031 L 233.277344 191.65625 L 233.277344 191.226562 L 233.289062 190.796875 L 233.308594 190.332031 L 233.339844 189.867188 L 233.378906 189.402344 L 233.433594 188.9375 L 233.496094 188.472656 L 233.570312 188.011719 L 233.652344 187.546875 L 233.746094 187.089844 L 233.851562 186.628906 L 233.96875 186.171875 L 234.097656 185.71875 L 234.234375 185.269531 L 234.382812 184.820312 L 234.539062 184.375 L 234.890625 183.492188 L 235.078125 183.058594 L 235.277344 182.625 L 235.707031 181.773438 L 235.9375 181.355469 L 236.175781 180.945312 L 236.683594 180.132812 L 236.953125 179.734375 L 237.230469 179.34375 L 237.8125 178.582031 L 238.121094 178.207031 L 238.433594 177.84375 L 239.085938 177.132812 L 239.425781 176.785156 L 239.773438 176.449219 L 240.496094 175.800781 L 240.867188 175.484375 L 241.246094 175.179688 L 242.023438 174.597656 L 242.425781 174.316406 L 242.832031 174.046875 L 243.667969 173.535156 L 244.09375 173.289062 L 244.527344 173.058594 L 245.40625 172.621094 L 245.855469 172.417969 L 246.308594 172.226562 L 246.769531 172.042969 L 247.234375 171.871094 L 247.699219 171.707031 L 248.171875 171.558594 L 248.648438 171.417969 L 249.128906 171.285156 L 249.609375 171.167969 L 250.097656 171.058594 L 250.585938 170.964844 L 251.078125 170.878906 L 251.570312 170.804688 L 252.066406 170.742188 L 252.566406 170.6875 L 253.066406 170.648438 L 253.53125 170.621094 L 254 170.605469 L 254.46875 170.597656 L 254.941406 170.601562 L 255.410156 170.613281 L 255.878906 170.636719 L 256.351562 170.667969 L 256.820312 170.714844 L 257.289062 170.765625 L 257.757812 170.828125 L 258.226562 170.902344 L 258.691406 170.988281 L 259.15625 171.082031 L 259.621094 171.183594 L 260.082031 171.300781 L 260.542969 171.421875 L 261 171.558594 L 261.453125 171.699219 L 261.90625 171.855469 L 262.355469 172.019531 L 262.800781 172.191406 L 263.242188 172.375 L 264.117188 172.769531 L 264.546875 172.980469 L 264.972656 173.203125 L 265.8125 173.671875 L 266.226562 173.921875 L 266.632812 174.179688 L 267.433594 174.722656 L 267.824219 175.003906 L 268.210938 175.296875 L 268.964844 175.910156 L 269.332031 176.230469 L 269.695312 176.554688 L 270.394531 177.230469 L 270.734375 177.582031 L 271.066406 177.9375 L 271.710938 178.675781 L 272.023438 179.054688 L 272.324219 179.441406 L 272.902344 180.234375 L 273.179688 180.640625 L 273.449219 181.054688 L 273.960938 181.894531 L 274.207031 182.324219 L 274.4375 182.761719 L 274.878906 183.648438 L 275.085938 184.101562 L 275.28125 184.554688 L 275.46875 185.015625 L 275.644531 185.480469 L 275.8125 185.949219 L 275.96875 186.421875 L 276.253906 187.378906 L 276.378906 187.851562 L 276.492188 188.332031 L 276.597656 188.808594 L 276.691406 189.292969 L 276.777344 189.777344 L 276.851562 190.261719 L 276.914062 190.75 L 276.96875 191.242188 L 277.011719 191.734375 L 277.046875 192.226562 L 277.070312 192.722656 L 277.082031 193.214844 L 277.082031 193.710938 L 277.074219 194.207031 L 277.054688 194.703125 L 277.027344 195.199219 L 276.988281 195.695312 L 276.9375 196.191406 L 276.878906 196.6875 L 276.804688 197.179688 L 276.726562 197.671875 L 276.632812 198.164062 L 276.53125 198.652344 L 276.417969 199.140625 L 276.296875 199.628906 L 276.164062 200.109375 L 276.019531 200.59375 L 275.867188 201.070312 L 275.703125 201.546875 L 275.527344 202.019531 L 275.148438 202.953125 L 274.945312 203.414062 L 274.730469 203.875 L 274.273438 204.777344 L 274.03125 205.222656 L 273.777344 205.660156 L 273.246094 206.527344 L 272.964844 206.953125 L 272.675781 207.371094 L 272.070312 208.191406 L 270.753906 209.753906 L 270.402344 210.128906 L 270.042969 210.496094 L 269.304688 211.207031 L 268.921875 211.554688 L 268.535156 211.890625 L 267.734375 212.539062 L 267.320312 212.851562 L 266.90625 213.15625 L 266.050781 213.742188 L 265.613281 214.019531 L 265.167969 214.289062 L 264.265625 214.796875 L 263.765625 215.058594 L 263.257812 215.308594 L 262.746094 215.546875 L 262.226562 215.777344 L 261.703125 215.992188 L 261.171875 216.195312 L 260.101562 216.566406 L 259.558594 216.734375 L 259.007812 216.890625 L 258.457031 217.03125 L 257.902344 217.164062 L 257.34375 217.28125 L 256.78125 217.386719 L 256.21875 217.480469 L 255.648438 217.558594 L 255.082031 217.625 L 254.511719 217.679688 L 253.9375 217.71875 L 253.363281 217.746094 L 252.789062 217.761719 L 252.210938 217.765625 L 251.636719 217.753906 L 251.058594 217.726562 L 250.484375 217.691406 L 249.90625 217.640625 L 249.332031 217.574219 L 248.757812 217.496094 L 248.183594 217.40625 L 247.613281 217.304688 L 247.042969 217.1875 L 246.476562 217.054688 L 245.914062 216.914062 L 245.351562 216.757812 L 244.792969 216.589844 L 244.238281 216.40625 L 243.6875 216.210938 L 243.140625 216.003906 L 242.0625 215.554688 L 241.527344 215.308594 L 241 215.050781 L 239.960938 214.5 L 239.449219 214.207031 L 238.945312 213.902344 L 237.960938 213.257812 L 237.476562 212.917969 L 237 212.566406 L 236.070312 211.832031 L 235.617188 211.449219 L 235.175781 211.054688 L 234.3125 210.234375 L 233.898438 209.808594 L 233.488281 209.375 L 232.703125 208.476562 L 232.328125 208.011719 L 231.960938 207.539062 L 231.253906 206.570312 L 230.941406 206.105469 L 230.640625 205.636719 L 230.0625 204.675781 L 229.789062 204.183594 L 229.523438 203.6875 L 229.027344 202.675781 L 228.796875 202.164062 L 228.578125 201.644531 L 228.367188 201.121094 L 228.167969 200.59375 L 227.980469 200.058594 L 227.800781 199.519531 L 227.484375 198.433594 L 227.339844 197.882812 L 227.210938 197.332031 L 227.089844 196.777344 L 226.984375 196.21875 L 226.886719 195.65625 L 226.804688 195.09375 L 226.734375 194.527344 L 226.671875 193.960938 L 226.625 193.390625 L 226.589844 192.820312 L 226.566406 192.25 L 226.554688 191.675781 L 226.554688 191.101562 L 226.570312 190.527344 L 226.59375 189.957031 L 226.632812 189.382812 L 226.679688 188.808594 L 226.742188 188.238281 L 226.816406 187.664062 L 226.902344 187.097656 L 227.003906 186.527344 L 227.113281 185.960938 L 227.234375 185.394531 L 227.371094 184.832031 L 227.519531 184.273438 L 227.675781 183.714844 L 227.847656 183.160156 L 228.03125 182.609375 L 228.226562 182.0625 L 228.433594 181.519531 L 228.878906 180.445312 L 229.121094 179.914062 L 229.375 179.390625 L 229.914062 178.355469 L 230.199219 177.84375 L 230.496094 177.339844 L 231.125 176.351562 L 231.453125 175.867188 L 231.792969 175.386719 L 232.507812 174.449219 L 232.878906 173.996094 L 233.257812 173.542969 L 234.050781 172.671875 L 234.496094 172.210938 L 234.949219 171.757812 L 235.894531 170.890625 L 236.378906 170.46875 L 236.875 170.0625 L 237.898438 169.28125 L 238.425781 168.90625 L 238.957031 168.542969 L 240.054688 167.859375 L 240.613281 167.53125 L 241.179688 167.21875 L 242.335938 166.636719 L 242.925781 166.363281 L 243.519531 166.101562 L 244.125 165.855469 L 244.730469 165.625 L 245.34375 165.40625 L 245.964844 165.203125 L 246.589844 165.011719 L 247.21875 164.835938 L 247.851562 164.675781 L 248.488281 164.527344 L 249.128906 164.394531 L 249.773438 164.277344 L 250.421875 164.175781 L 251.074219 164.085938 L 251.726562 164.015625 L 252.382812 163.957031 L 253.039062 163.914062 L 253.695312 163.886719 L 254.355469 163.871094 L 255.015625 163.875 L 255.675781 163.894531 L 256.335938 163.925781 L 256.996094 163.976562 L 257.65625 164.039062 L 258.3125 164.117188 L 258.96875 164.210938 L 259.625 164.320312 L 260.277344 164.445312 L 260.929688 164.585938 L 261.574219 164.738281 L 262.21875 164.910156 L 262.859375 165.09375 L 263.496094 165.292969 L 264.128906 165.507812 L 264.757812 165.738281 L 265.382812 165.980469 L 266 166.238281 L 266.613281 166.511719 L 267.816406 167.101562 L 268.410156 167.414062 L 268.996094 167.742188 L 270.148438 168.441406 L 270.710938 168.8125 L 271.269531 169.195312 L 272.351562 170 L 272.871094 170.414062 L 273.382812 170.839844 L 274.375 171.726562 L 274.859375 172.183594 L 275.328125 172.65625 L 276.242188 173.632812 L 276.679688 174.136719 L 277.109375 174.648438 L 277.929688 175.707031 L 278.324219 176.25 L 278.707031 176.800781 L 279.429688 177.933594 L 279.773438 178.511719 L 280.105469 179.097656 L 280.730469 180.292969 L 281.019531 180.902344 L 281.296875 181.519531 L 281.8125 182.769531 L 282.046875 183.40625 L 282.269531 184.046875 L 282.476562 184.691406 L 282.667969 185.34375 L 282.84375 186 L 283.007812 186.660156 L 283.15625 187.324219 L 283.289062 187.992188 L 283.410156 188.660156 L 283.511719 189.335938 L 283.601562 190.011719 L 283.671875 190.691406 L 283.730469 191.375 L 283.773438 192.054688 L 283.796875 192.742188 L 283.808594 193.425781 L 283.804688 194.113281 L 283.785156 194.796875 L 283.75 195.484375 L 283.699219 196.167969 L 283.632812 196.855469 L 283.550781 197.539062 L 283.453125 198.21875 L 283.339844 198.902344 L 283.210938 199.578125 L 283.066406 200.253906 L 282.90625 200.925781 L 282.730469 201.597656 L 282.539062 202.261719 L 282.335938 202.925781 L 281.878906 204.234375 L 281.628906 204.882812 L 281.363281 205.527344 L 280.789062 206.792969 L 280.480469 207.417969 L 280.160156 208.035156 L 279.46875 209.25 L 279.128906 209.808594 L 278.777344 210.355469 L 278.039062 211.433594 L 277.652344 211.960938 L 277.253906 212.480469 L 276.425781 213.492188 L 275.992188 213.988281 L 275.550781 214.472656 L 274.636719 215.417969 L 272.6875 217.1875 L 272.175781 217.601562 L 271.65625 218.007812 L 270.589844 218.789062 L 270.042969 219.164062 L 269.488281 219.523438 L 268.359375 220.214844 L 267.78125 220.542969 L 267.195312 220.855469 L 266.007812 221.449219 L 265.402344 221.726562 L 264.792969 221.992188 L 263.554688 222.484375 L 262.925781 222.710938 L 262.292969 222.925781 L 261.65625 223.125 L 261.015625 223.3125 L 260.371094 223.488281 L 259.71875 223.648438 L 259.066406 223.792969 L 258.410156 223.925781 L 257.75 224.046875 L 257.085938 224.148438 L 256.417969 224.242188 L 255.75 224.316406 L 255.082031 224.382812 L 254.410156 224.429688 L 253.738281 224.464844 L 253.0625 224.484375 L 252.386719 224.492188 L 251.714844 224.484375 L 251.039062 224.460938 L 250.363281 224.425781 L 249.6875 224.375 L 249.015625 224.308594 L 248.339844 224.230469 L 247.667969 224.136719 L 247 224.027344 L 246.332031 223.90625 L 245.664062 223.769531 L 245.003906 223.621094 L 244.34375 223.457031 L 243.683594 223.277344 L 242.382812 222.878906 L 241.679688 222.640625 L 240.984375 222.382812 L 240.296875 222.113281 L 239.613281 221.824219 L 238.933594 221.523438 L 238.265625 221.203125 L 236.941406 220.519531 L 236.292969 220.152344 L 235.652344 219.773438 L 234.398438 218.96875 L 233.78125 218.546875 L 233.175781 218.105469 L 231.996094 217.1875 L 231.421875 216.707031 L 230.855469 216.214844 L 229.761719 215.191406 L 229.230469 214.65625 L 228.710938 214.113281 L 227.710938 212.988281 L 227.230469 212.410156 L 226.761719 211.816406 L 225.867188 210.601562 L 225.4375 209.980469 L 225.027344 209.34375 L 224.242188 208.050781 L 223.871094 207.386719 L 223.519531 206.71875 L 223.179688 206.039062 L 222.855469 205.351562 L 222.546875 204.65625 L 222.253906 203.953125 L 221.714844 202.527344 L 221.472656 201.804688 L 221.242188 201.078125 L 221.03125 200.34375 L 220.835938 199.605469 L 220.660156 198.863281 L 220.5 198.113281 L 220.355469 197.363281 L 220.226562 196.605469 L 220.117188 195.847656 L 220.027344 195.085938 L 219.949219 194.320312 L 219.894531 193.554688 L 219.855469 192.785156 L 219.832031 192.015625 L 219.828125 191.246094 L 219.839844 190.476562 L 219.871094 189.703125 L 219.917969 188.933594 L 219.984375 188.164062 L 220.070312 187.394531 L 220.171875 186.628906 L 220.289062 185.863281 L 220.425781 185.101562 L 220.578125 184.339844 L 220.738281 183.632812 L 220.914062 182.929688 L 221.101562 182.230469 L 221.308594 181.535156 L 221.527344 180.84375 L 221.761719 180.15625 L 222.277344 178.792969 L 222.554688 178.121094 L 222.847656 177.453125 L 223.476562 176.140625 L 223.8125 175.492188 L 224.164062 174.851562 L 224.90625 173.589844 L 225.296875 172.96875 L 225.699219 172.359375 L 226.550781 171.164062 L 226.992188 170.578125 L 227.449219 170.003906 L 228.398438 168.882812 L 228.894531 168.335938 L 229.398438 167.800781 L 230.441406 166.761719 L 232.664062 164.816406 L 233.246094 164.359375 L 233.839844 163.914062 L 235.054688 163.0625 L 235.671875 162.65625 L 236.300781 162.261719 L 237.585938 161.515625 L 238.242188 161.164062 L 238.902344 160.824219 L 240.25 160.1875 L 240.933594 159.890625 L 241.625 159.609375 L 243.027344 159.089844 L 243.734375 158.851562 L 244.449219 158.628906 L 245.167969 158.421875 L 245.890625 158.230469 L 246.621094 158.050781 L 247.351562 157.890625 L 248.089844 157.746094 L 248.828125 157.613281 L 249.570312 157.5 L 250.316406 157.402344 L 251.066406 157.320312 L 251.816406 157.253906 L 252.566406 157.203125 L 253.320312 157.167969 L 254.074219 157.148438 L 254.828125 157.144531 L 255.648438 157.160156 L 256.464844 157.195312 L 257.285156 157.25 L 258.101562 157.320312 L 258.917969 157.414062 L 259.730469 157.523438 L 260.542969 157.652344 L 261.351562 157.800781 L 262.15625 157.964844 L 262.960938 158.152344 L 263.757812 158.355469 L 264.550781 158.578125 L 265.34375 158.820312 L 266.125 159.078125 L 267.675781 159.652344 L 268.441406 159.96875 L 269.203125 160.300781 L 270.695312 161.015625 L 271.433594 161.398438 L 272.160156 161.800781 L 273.585938 162.65625 L 274.285156 163.109375 L 274.972656 163.578125 L 276.320312 164.5625 L 276.972656 165.078125 L 277.617188 165.609375 L 278.871094 166.71875 L 279.476562 167.292969 L 280.070312 167.882812 L 281.21875 169.105469 L 281.769531 169.738281 L 282.308594 170.382812 L 283.339844 171.710938 L 283.835938 172.390625 L 284.3125 173.085938 L 285.21875 174.503906 L 285.648438 175.230469 L 286.0625 175.96875 L 286.835938 177.46875 L 287.199219 178.234375 L 287.542969 179.007812 L 287.867188 179.789062 L 288.175781 180.578125 L 288.464844 181.378906 L 288.738281 182.179688 L 288.988281 182.992188 L 289.222656 183.808594 L 289.441406 184.632812 L 289.636719 185.460938 L 289.8125 186.292969 L 289.972656 187.132812 L 290.109375 187.972656 L 290.230469 188.816406 L 290.332031 189.664062 L 290.410156 190.515625 L 290.472656 191.355469 L 290.511719 192.191406 L 290.535156 193.035156 L 290.535156 193.875 L 290.519531 194.714844 L 290.484375 195.558594 L 290.429688 196.398438 L 290.355469 197.238281 L 290.261719 198.078125 L 290.148438 198.914062 L 290.019531 199.75 L 289.867188 200.582031 L 289.699219 201.410156 L 289.511719 202.238281 L 289.304688 203.058594 L 289.078125 203.875 L 288.835938 204.6875 L 288.570312 205.496094 L 288.289062 206.296875 L 287.992188 207.09375 L 287.671875 207.882812 L 287.335938 208.664062 L 286.613281 210.207031 L 286.222656 210.964844 L 285.816406 211.714844 L 284.949219 213.1875 L 284.492188 213.910156 L 284.019531 214.621094 L 283.023438 216.015625 L 282.5 216.695312 L 281.960938 217.363281 L 280.839844 218.660156 L 280.253906 219.292969 L 279.65625 219.910156 L 278.417969 221.105469 L 277.777344 221.683594 L 277.125 222.246094 L 275.777344 223.324219 L 275.085938 223.84375 L 274.382812 224.347656 L 272.941406 225.300781 L 272.203125 225.757812 L 271.457031 226.195312 L 269.929688 227.019531 L 269.152344 227.402344 L 268.367188 227.773438 L 266.765625 228.457031 L 265.953125 228.773438 L 265.136719 229.066406 L 264.308594 229.347656 L 263.476562 229.605469 L 262.636719 229.847656 L 261.792969 230.066406 L 260.945312 230.269531 L 260.089844 230.453125 L 259.285156 230.605469 L 258.480469 230.742188 L 257.671875 230.863281 L 256.863281 230.964844 L 256.046875 231.050781 L 255.234375 231.117188 L 254.414062 231.167969 L 253.597656 231.203125 L 252.777344 231.21875 L 251.957031 231.214844 L 251.136719 231.199219 L 250.316406 231.160156 L 249.496094 231.109375 L 248.675781 231.039062 L 247.855469 230.949219 L 247.039062 230.84375 L 246.226562 230.71875 L 245.414062 230.578125 L 244.605469 230.421875 L 243.796875 230.246094 L 242.996094 230.054688 L 242.195312 229.847656 L 240.609375 229.375 L 239.824219 229.117188 L 239.042969 228.839844 L 237.5 228.238281 L 236.734375 227.910156 L 235.980469 227.566406 L 234.488281 226.835938 L 233.753906 226.445312 L 233.027344 226.039062 L 231.601562 225.179688 L 230.902344 224.726562 L 230.210938 224.257812 L 228.859375 223.28125 L 228.199219 222.769531 L 227.546875 222.242188 L 226.28125 221.152344 L 223.886719 218.804688 L 223.320312 218.1875 L 222.765625 217.558594 L 221.695312 216.261719 L 221.179688 215.59375 L 220.679688 214.917969 L 219.722656 213.535156 L 219.265625 212.824219 L 218.824219 212.105469 L 217.984375 210.640625 L 217.585938 209.894531 L 217.207031 209.140625 L 216.492188 207.605469 L 216.132812 206.761719 L 215.792969 205.910156 L 215.46875 205.046875 L 215.167969 204.179688 L 214.886719 203.300781 L 214.625 202.417969 L 214.382812 201.527344 L 214.164062 200.632812 L 213.960938 199.734375 L 213.78125 198.828125 L 213.625 197.917969 L 213.484375 197.003906 L 213.367188 196.085938 L 213.273438 195.164062 L 213.195312 194.242188 L 213.140625 193.316406 L 213.109375 192.390625 L 213.097656 191.460938 L 213.109375 190.535156 L 213.140625 189.605469 L 213.191406 188.675781 L 213.265625 187.75 L 213.359375 186.824219 L 213.476562 185.902344 L 213.617188 184.980469 L 213.773438 184.0625 L 213.953125 183.144531 L 214.15625 182.234375 L 214.378906 181.328125 L 214.621094 180.425781 L 214.886719 179.527344 L 215.171875 178.636719 L 215.476562 177.75 L 215.800781 176.871094 L 216.148438 176 L 216.515625 175.136719 L 216.902344 174.28125 L 217.308594 173.4375 L 218.179688 171.769531 L 218.640625 170.953125 L 219.125 170.144531 L 220.148438 168.5625 L 220.6875 167.785156 L 221.242188 167.023438 L 222.410156 165.539062 L 223.019531 164.816406 L 223.644531 164.105469 L 224.945312 162.730469 L 225.617188 162.066406 L 226.308594 161.414062 L 227.734375 160.160156 L 228.46875 159.558594 L 229.214844 158.972656 L 230.753906 157.851562 L 231.542969 157.316406 L 232.34375 156.800781 L 233.980469 155.824219 L 234.761719 155.394531 L 235.550781 154.980469 L 237.15625 154.203125 L 237.972656 153.839844 L 238.796875 153.496094 L 240.46875 152.855469 L 241.3125 152.566406 L 242.164062 152.292969 L 243.023438 152.035156 L 243.886719 151.796875 L 244.757812 151.578125 L 245.632812 151.378906 L 246.511719 151.195312 L 247.394531 151.03125 L 248.28125 150.890625 L 249.171875 150.765625 L 250.066406 150.65625 L 250.964844 150.570312 L 251.863281 150.503906 L 252.761719 150.453125 L 253.664062 150.425781 L 254.566406 150.417969 L 255.46875 150.425781 L 256.371094 150.453125 L 257.273438 150.503906 L 258.175781 150.570312 L 259.078125 150.65625 L 259.976562 150.765625 L 260.871094 150.890625 L 261.765625 151.035156 L 262.660156 151.199219 L 263.546875 151.382812 L 264.433594 151.585938 L 265.3125 151.808594 L 266.1875 152.046875 L 267.058594 152.308594 L 268.785156 152.882812 L 269.640625 153.199219 L 270.488281 153.53125 L 272.164062 154.253906 L 272.988281 154.644531 L 273.808594 155.050781 L 275.417969 155.914062 L 276.207031 156.371094 L 276.992188 156.847656 L 278.523438 157.851562 L 279.273438 158.375 L 280.015625 158.917969 L 281.457031 160.050781 L 282.164062 160.640625 L 282.855469 161.246094 L 284.199219 162.5 L 286.726562 165.179688 L 287.3125 165.871094 L 287.882812 166.574219 L 288.976562 168.015625 L 289.503906 168.753906 L 290.011719 169.503906 L 290.984375 171.035156 L 291.449219 171.816406 L 291.894531 172.609375 L 292.738281 174.222656 L 293.132812 175.039062 L 293.511719 175.867188 L 294.21875 177.546875 L 294.542969 178.398438 L 294.851562 179.257812 L 295.144531 180.125 L 295.417969 180.996094 L 295.671875 181.875 L 295.90625 182.757812 L 296.125 183.644531 L 296.324219 184.539062 L 296.503906 185.4375 L 296.664062 186.339844 L 296.804688 187.246094 L 296.929688 188.152344 L 297.035156 189.066406 L 297.117188 189.980469 L 297.183594 190.894531 L 297.230469 191.8125 L 297.257812 192.734375 L 297.265625 193.652344 L 297.253906 194.574219 L 297.222656 195.492188 L 297.175781 196.414062 L 297.105469 197.332031 L 297.015625 198.25 L 296.90625 199.167969 L 296.78125 200.082031 L 296.632812 200.992188 L 296.46875 201.902344 L 296.28125 202.808594 L 296.078125 203.710938 L 295.855469 204.609375 L 295.351562 206.394531 L 295.070312 207.277344 L 294.773438 208.15625 L 294.453125 209.027344 L 294.121094 209.894531 L 293.765625 210.75 L 293.394531 211.601562 L 292.59375 213.285156 L 292.167969 214.113281 L 291.726562 214.929688 L 290.789062 216.542969 L 290.292969 217.332031 L 289.78125 218.113281 L 288.710938 219.640625 L 288.101562 220.453125 L 287.472656 221.25 L 286.164062 222.800781 L 285.480469 223.554688 L 284.78125 224.292969 L 283.332031 225.722656 L 282.585938 226.414062 L 281.820312 227.085938 L 280.242188 228.378906 L 279.433594 229 L 278.605469 229.601562 L 276.914062 230.75 L 276.050781 231.292969 L 275.171875 231.820312 L 273.378906 232.808594 L 272.464844 233.273438 L 271.539062 233.71875 L 269.660156 234.542969 L 268.707031 234.925781 L 267.742188 235.28125 L 266.769531 235.621094 L 265.792969 235.933594 L 264.804688 236.226562 L 263.808594 236.496094 L 262.808594 236.746094 L 261.804688 236.96875 L 260.792969 237.171875 L 259.773438 237.351562 L 258.753906 237.507812 L 257.730469 237.636719 L 256.699219 237.746094 L 255.667969 237.832031 L 254.636719 237.894531 L 253.601562 237.933594 L 252.566406 237.949219 L 251.527344 237.941406 L 250.492188 237.90625 L 249.453125 237.851562 L 248.417969 237.769531 L 247.386719 237.667969 L 246.355469 237.542969 L 245.324219 237.390625 L 244.296875 237.214844 L 243.277344 237.019531 L 242.257812 236.796875 L 241.246094 236.554688 L 240.238281 236.285156 L 239.234375 235.996094 L 237.25 235.347656 L 236.269531 234.988281 L 235.292969 234.605469 L 234.328125 234.203125 L 233.371094 233.777344 L 232.425781 233.328125 L 231.488281 232.859375 L 229.648438 231.855469 L 228.804688 231.359375 L 227.96875 230.84375 L 226.335938 229.757812 L 225.535156 229.191406 L 224.746094 228.605469 L 223.207031 227.382812 L 222.457031 226.75 L 221.71875 226.097656 L 220.285156 224.746094 L 217.59375 221.867188 L 216.960938 221.109375 L 216.34375 220.339844 L 215.152344 218.757812 L 214.585938 217.949219 L 214.03125 217.128906 L 212.980469 215.449219 L 212.480469 214.59375 L 212 213.726562 L 211.09375 211.960938 L 210.667969 211.0625 L 210.261719 210.15625 L 209.507812 208.316406 L 209.160156 207.386719 L 208.832031 206.445312 L 208.523438 205.5 L 208.234375 204.542969 L 207.96875 203.585938 L 207.71875 202.617188 L 207.492188 201.648438 L 207.285156 200.671875 L 207.097656 199.6875 L 206.933594 198.703125 L 206.789062 197.714844 L 206.667969 196.722656 L 206.566406 195.726562 L 206.484375 194.726562 L 206.425781 193.726562 L 206.386719 192.726562 L 206.371094 191.722656 L 206.375 190.71875 L 206.398438 189.714844 L 206.449219 188.714844 L 206.515625 187.710938 L 206.605469 186.710938 L 206.71875 185.710938 L 206.847656 184.714844 L 207.003906 183.71875 L 207.179688 182.726562 L 207.375 181.738281 L 207.589844 180.753906 L 207.832031 179.773438 L 208.089844 178.796875 L 208.671875 176.863281 L 209.019531 175.828125 L 209.394531 174.796875 L 209.789062 173.773438 L 210.210938 172.761719 L 210.65625 171.757812 L 211.121094 170.765625 L 212.125 168.808594 L 212.664062 167.847656 L 213.222656 166.902344 L 214.402344 165.042969 L 215.027344 164.132812 L 215.671875 163.238281 L 217.023438 161.496094 L 217.730469 160.644531 L 218.453125 159.8125 L 219.964844 158.195312 L 220.746094 157.414062 L 221.546875 156.652344 L 223.203125 155.175781 L 224.058594 154.46875 L 224.925781 153.78125 L 226.714844 152.464844 L 227.632812 151.835938 L 228.5625 151.230469 L 230.46875 150.082031 L 231.441406 149.539062 L 232.425781 149.019531 L 233.425781 148.523438 L 234.433594 148.050781 L 235.453125 147.597656 L 236.484375 147.171875 L 238.578125 146.386719 L 239.636719 146.03125 L 240.707031 145.703125 L 241.78125 145.394531 L 242.867188 145.113281 L 243.957031 144.855469 L 245.054688 144.625 L 246.15625 144.417969 L 247.261719 144.238281 L 248.375 144.082031 L 249.492188 143.953125 L 250.609375 143.847656 L 251.730469 143.769531 L 252.855469 143.71875 L 253.980469 143.691406 L 255.105469 143.691406 L 256.230469 143.714844 L 257.359375 143.765625 L 258.484375 143.84375 L 259.605469 143.945312 L 260.726562 144.074219 L 261.847656 144.230469 L 262.960938 144.414062 L 264.074219 144.617188 L 265.179688 144.851562 L 266.261719 145.105469 L 267.339844 145.382812 L 268.410156 145.683594 L 269.472656 146.011719 L 270.527344 146.363281 L 271.578125 146.738281 L 273.648438 147.558594 L 274.671875 148.003906 L 275.683594 148.472656 L 277.679688 149.480469 L 278.660156 150.015625 L 279.625 150.574219 L 281.523438 151.761719 L 282.453125 152.386719 L 283.367188 153.03125 L 285.15625 154.386719 L 286.023438 155.09375 L 286.878906 155.824219 L 288.539062 157.335938 L 289.34375 158.121094 L 290.132812 158.925781 L 291.648438 160.585938 L 292.382812 161.445312 L 293.09375 162.316406 L 294.460938 164.113281 L 295.113281 165.03125 L 295.742188 165.96875 L 296.941406 167.882812 L 297.511719 168.863281 L 298.054688 169.851562 L 299.078125 171.871094 L 299.554688 172.898438 L 300.011719 173.9375 L 300.441406 174.988281 L 300.847656 176.046875 L 301.230469 177.113281 L 301.589844 178.191406 L 301.925781 179.277344 L 302.238281 180.371094 L 302.523438 181.472656 L 302.78125 182.578125 L 303.019531 183.695312 L 303.230469 184.8125 L 303.414062 185.9375 L 303.574219 187.066406 L 303.707031 188.199219 L 303.816406 189.335938 L 303.902344 190.472656 L 303.957031 191.613281 L 303.988281 192.757812 L 303.996094 193.898438 L 303.972656 195.042969 L 303.929688 196.1875 L 303.855469 197.328125 L 303.757812 198.472656 L 303.644531 199.535156 L 303.503906 200.59375 L 303.34375 201.652344 L 303.164062 202.707031 L 302.957031 203.757812 L 302.730469 204.804688 L 302.484375 205.847656 L 302.210938 206.886719 L 301.917969 207.917969 L 301.605469 208.945312 L 301.269531 209.964844 L 300.910156 210.976562 L 300.53125 211.980469 L 300.128906 212.980469 L 299.261719 214.949219 L 298.800781 215.921875 L 298.316406 216.882812 L 297.285156 218.777344 L 296.738281 219.707031 L 296.171875 220.625 L 294.984375 222.429688 L 294.363281 223.3125 L 293.71875 224.179688 L 292.382812 225.878906 L 289.492188 229.105469 L 288.726562 229.875 L 287.945312 230.625 L 286.332031 232.082031 L 285.503906 232.78125 L 284.660156 233.46875 L 282.929688 234.78125 L 282.042969 235.414062 L 281.140625 236.027344 L 279.300781 237.191406 L 278.363281 237.746094 L 277.414062 238.28125 L 275.480469 239.292969 L 274.496094 239.765625 L 273.5 240.21875 L 272.5 240.652344 L 271.484375 241.0625 L 270.464844 241.453125 L 269.433594 241.824219 L 267.347656 242.496094 L 266.296875 242.796875 L 265.238281 243.078125 L 264.171875 243.335938 L 263.097656 243.574219 L 262.023438 243.789062 L 260.941406 243.976562 L 259.855469 244.144531 L 258.765625 244.292969 L 257.582031 244.421875 L 256.394531 244.527344 L 255.203125 244.605469 L 254.007812 244.652344 L 252.8125 244.675781 L 251.617188 244.671875 L 250.421875 244.640625 L 249.230469 244.578125 L 248.035156 244.492188 L 246.84375 244.378906 L 245.652344 244.238281 L 244.464844 244.066406 L 243.285156 243.871094 L 242.105469 243.648438 L 240.929688 243.398438 L 239.761719 243.121094 L 238.601562 242.816406 L 237.445312 242.484375 L 236.296875 242.128906 L 235.15625 241.742188 L 234.023438 241.332031 L 232.902344 240.898438 L 230.6875 239.949219 L 229.597656 239.433594 L 228.515625 238.898438 L 226.394531 237.746094 L 225.351562 237.136719 L 224.324219 236.5 L 222.3125 235.15625 L 221.328125 234.453125 L 220.359375 233.722656 L 218.476562 232.199219 L 217.558594 231.40625 L 216.660156 230.589844 L 214.921875 228.898438 L 214.078125 228.023438 L 213.257812 227.125 L 211.675781 225.277344 L 210.917969 224.328125 L 210.179688 223.355469 L 208.769531 221.367188 L 208.101562 220.351562 L 207.453125 219.316406 L 206.230469 217.203125 L 205.65625 216.125 L 205.105469 215.035156 L 204.078125 212.8125 L 203.605469 211.683594 L 203.15625 210.546875 L 202.730469 209.398438 L 202.335938 208.238281 L 201.964844 207.070312 L 201.621094 205.890625 L 201.304688 204.707031 L 201.015625 203.511719 L 200.769531 202.390625 L 200.546875 201.265625 L 200.347656 200.136719 L 200.175781 199 L 200.023438 197.863281 L 199.898438 196.71875 L 199.800781 195.574219 L 199.722656 194.425781 L 199.671875 193.277344 L 199.644531 192.128906 L 199.640625 190.976562 L 199.664062 189.824219 L 199.710938 188.671875 L 199.78125 187.523438 L 199.878906 186.371094 L 199.996094 185.226562 L 200.144531 184.078125 L 200.3125 182.9375 L 200.507812 181.796875 L 200.726562 180.664062 L 200.96875 179.53125 L 201.234375 178.40625 L 201.527344 177.285156 L 201.839844 176.171875 L 202.179688 175.066406 L 202.542969 173.964844 L 202.929688 172.871094 L 203.339844 171.785156 L 203.773438 170.710938 L 204.230469 169.640625 L 205.210938 167.535156 L 205.734375 166.5 L 206.28125 165.472656 L 207.441406 163.457031 L 208.050781 162.464844 L 208.6875 161.488281 L 210.015625 159.574219 L 210.710938 158.636719 L 211.425781 157.714844 L 212.917969 155.917969 L 216.125 152.519531 L 216.972656 151.714844 L 217.839844 150.925781 L 219.621094 149.402344 L 220.535156 148.671875 L 221.464844 147.957031 L 223.375 146.589844 L 224.347656 145.9375 L 225.339844 145.308594 L 227.359375 144.105469 L 228.390625 143.539062 L 229.433594 142.992188 L 231.550781 141.96875 L 232.605469 141.496094 L 233.671875 141.050781 L 234.746094 140.625 L 235.828125 140.222656 L 236.921875 139.84375 L 238.023438 139.484375 L 240.246094 138.839844 L 241.367188 138.550781 L 242.496094 138.285156 L 243.632812 138.046875 L 244.769531 137.828125 L 245.914062 137.636719 L 247.0625 137.46875 L 248.214844 137.320312 L 249.371094 137.199219 L 250.527344 137.105469 L 251.691406 137.03125 L 252.851562 136.984375 L 254.015625 136.960938 L 255.179688 136.960938 L 256.34375 136.984375 L 257.507812 137.035156 L 258.671875 137.109375 L 259.832031 137.207031 L 260.992188 137.328125 L 262.152344 137.476562 L 263.304688 137.648438 L 264.457031 137.84375 L 265.605469 138.0625 L 266.746094 138.304688 L 267.886719 138.574219 L 269.019531 138.867188 L 270.144531 139.179688 L 271.265625 139.519531 L 272.378906 139.882812 L 273.484375 140.269531 L 274.585938 140.679688 L 276.753906 141.566406 L 277.828125 142.042969 L 278.890625 142.546875 L 280.980469 143.613281 L 282.011719 144.179688 L 283.027344 144.769531 L 285.027344 146.011719 L 286.007812 146.664062 L 286.972656 147.335938 L 288.863281 148.742188 L 289.789062 149.476562 L 290.695312 150.230469 L 292.464844 151.792969 L 293.324219 152.601562 L 294.167969 153.429688 L 295.804688 155.136719 L 296.59375 156.019531 L 297.367188 156.914062 L 298.855469 158.757812 L 299.628906 159.78125 L 300.382812 160.824219 L 301.816406 162.964844 L 302.496094 164.058594 L 303.148438 165.167969 L 304.386719 167.429688 L 304.964844 168.582031 L 305.515625 169.75 L 306.042969 170.929688 L 306.542969 172.121094 L 307.015625 173.324219 L 307.460938 174.539062 L 308.269531 176.996094 L 308.628906 178.238281 L 308.964844 179.488281 L 309.269531 180.75 L 309.546875 182.015625 L 309.792969 183.289062 L 310.011719 184.566406 L 310.203125 185.851562 L 310.363281 187.140625 L 310.496094 188.429688 L 310.597656 189.726562 L 310.667969 191.023438 L 310.710938 192.324219 L 310.726562 193.625 L 310.710938 194.925781 L 310.664062 196.230469 L 310.589844 197.53125 L 310.484375 198.828125 L 310.347656 200.125 L 310.183594 201.417969 L 309.992188 202.710938 L 309.769531 203.996094 L 309.515625 205.277344 L 309.234375 206.554688 L 308.925781 207.824219 L 308.585938 209.085938 L 308.21875 210.34375 L 307.820312 211.589844 L 307.394531 212.828125 L 306.941406 214.058594 L 306.460938 215.277344 L 305.414062 217.683594 L 304.851562 218.867188 L 304.257812 220.039062 L 302.996094 222.34375 L 302.324219 223.472656 L 301.628906 224.589844 L 300.160156 226.773438 L 299.386719 227.839844 L 298.59375 228.886719 L 296.929688 230.933594 L 296.0625 231.925781 L 295.171875 232.902344 L 293.324219 234.789062 L 292.433594 235.640625 L 291.527344 236.472656 L 289.65625 238.082031 L 288.695312 238.855469 L 287.714844 239.613281 L 285.710938 241.058594 L 284.6875 241.75 L 283.648438 242.417969 L 281.523438 243.691406 L 280.441406 244.296875 L 279.347656 244.875 L 277.121094 245.96875 L 275.992188 246.476562 L 274.851562 246.964844 L 273.699219 247.425781 L 272.535156 247.863281 L 271.363281 248.277344 L 270.183594 248.664062 L 267.796875 249.363281 L 266.59375 249.675781 L 265.382812 249.964844 L 264.164062 250.226562 L 262.941406 250.460938 L 261.714844 250.671875 L 260.480469 250.855469 L 259.242188 251.011719 L 258.003906 251.144531 L 256.757812 251.25 L 255.511719 251.328125 L 254.265625 251.378906 L 253.015625 251.40625 L 251.765625 251.40625 L 250.515625 251.378906 L 249.265625 251.324219 L 248.015625 251.242188 L 246.769531 251.136719 L 245.523438 251.003906 L 244.28125 250.84375 L 243.042969 250.65625 L 241.808594 250.445312 L 240.574219 250.203125 L 239.347656 249.941406 L 238.128906 249.648438 L 236.914062 249.332031 L 235.703125 248.988281 L 234.503906 248.621094 L 233.308594 248.226562 L 232.125 247.804688 L 230.945312 247.363281 L 228.621094 246.398438 L 227.472656 245.878906 L 226.335938 245.332031 L 224.097656 244.171875 L 222.996094 243.558594 L 221.910156 242.917969 L 219.773438 241.570312 L 218.640625 240.800781 L 217.523438 240.007812 L 215.347656 238.339844 L 214.285156 237.46875 L 213.246094 236.574219 L 211.226562 234.710938 L 210.25 233.746094 L 209.292969 232.757812 L 207.453125 230.714844 L 206.566406 229.660156 L 205.703125 228.585938 L 204.054688 226.378906 L 203.269531 225.246094 L 202.507812 224.097656 L 201.066406 221.742188 L 200.386719 220.539062 L 199.734375 219.324219 L 198.511719 216.84375 L 197.945312 215.582031 L 197.40625 214.308594 L 196.894531 213.019531 L 196.414062 211.722656 L 195.964844 210.410156 L 195.546875 209.089844 L 195.15625 207.757812 L 194.796875 206.417969 L 194.46875 205.070312 L 194.167969 203.714844 L 193.902344 202.351562 L 193.667969 200.980469 L 193.464844 199.605469 L 193.292969 198.226562 L 193.152344 196.84375 L 193.042969 195.457031 L 192.964844 194.066406 L 192.921875 192.671875 L 192.910156 191.28125 L 192.929688 189.886719 L 192.980469 188.492188 L 193.0625 187.097656 L 193.179688 185.707031 L 193.328125 184.320312 L 193.507812 182.933594 L 193.71875 181.554688 L 193.960938 180.175781 L 194.238281 178.804688 L 194.542969 177.441406 L 194.882812 176.082031 L 195.25 174.730469 L 195.652344 173.390625 L 196.082031 172.054688 L 196.546875 170.734375 L 197.039062 169.417969 L 197.5625 168.117188 L 198.113281 166.828125 L 198.699219 165.550781 L 199.949219 163.035156 L 200.574219 161.878906 L 201.226562 160.738281 L 202.597656 158.5 L 203.324219 157.402344 L 204.070312 156.316406 L 205.632812 154.199219 L 206.449219 153.167969 L 207.285156 152.152344 L 209.027344 150.171875 L 212.761719 146.445312 L 213.746094 145.5625 L 214.746094 144.703125 L 216.808594 143.046875 L 217.863281 142.25 L 218.9375 141.476562 L 221.136719 140 L 222.257812 139.300781 L 223.398438 138.621094 L 225.71875 137.335938 L 226.898438 136.730469 L 228.09375 136.152344 L 230.519531 135.070312 L 231.75 134.570312 L 232.988281 134.09375 L 234.242188 133.644531 L 235.503906 133.222656 L 236.773438 132.828125 L 238.050781 132.460938 L 239.339844 132.121094 L 240.632812 131.808594 L 241.9375 131.523438 L 243.246094 131.265625 L 244.558594 131.039062 L 245.878906 130.835938 L 247.199219 130.664062 L 248.527344 130.519531 L 249.859375 130.40625 L 251.191406 130.320312 L 252.527344 130.261719 L 253.863281 130.230469 L 255.199219 130.230469 L 256.539062 130.257812 L 257.875 130.3125 L 259.210938 130.398438 L 260.546875 130.515625 L 261.878906 130.65625 L 263.207031 130.828125 L 264.535156 131.027344 L 265.855469 131.257812 L 267.171875 131.511719 L 268.484375 131.800781 L 269.789062 132.113281 L 271.089844 132.453125 L 272.382812 132.824219 L 273.640625 133.214844 L 274.894531 133.628906 L 276.136719 134.070312 L 277.367188 134.539062 L 278.59375 135.035156 L 279.804688 135.554688 L 282.199219 136.671875 L 283.378906 137.269531 L 284.546875 137.890625 L 286.839844 139.207031 L 287.96875 139.902344 L 289.082031 140.621094 L 291.261719 142.128906 L 292.324219 142.917969 L 293.375 143.726562 L 295.421875 145.414062 L 296.417969 146.292969 L 297.398438 147.1875 L 299.300781 149.046875 L 300.222656 150.003906 L 301.121094 150.984375 L 302.863281 152.996094 L 303.699219 154.03125 L 304.519531 155.082031 L 306.085938 157.238281 L 306.835938 158.339844 L 307.5625 159.457031 L 308.941406 161.742188 L 309.597656 162.902344 L 310.230469 164.082031 L 311.417969 166.476562 L 311.972656 167.691406 L 312.503906 168.917969 L 313.007812 170.160156 L 313.484375 171.410156 L 313.9375 172.667969 L 314.363281 173.9375 L 315.132812 176.507812 L 315.476562 177.800781 L 315.796875 179.105469 L 316.085938 180.414062 L 316.347656 181.730469 L 316.585938 183.054688 L 316.792969 184.378906 L 316.972656 185.710938 L 317.121094 187.046875 L 317.246094 188.386719 L 317.339844 189.726562 L 317.40625 191.074219 L 317.445312 192.417969 L 317.457031 193.765625 L 317.4375 195.109375 L 317.390625 196.457031 L 317.316406 197.804688 L 317.203125 199.261719 L 317.054688 200.71875 L 316.875 202.171875 L 316.664062 203.621094 L 316.414062 205.0625 L 316.136719 206.5 L 315.824219 207.933594 L 315.480469 209.359375 L 315.101562 210.777344 L 314.691406 212.1875 L 314.25 213.585938 L 313.773438 214.976562 L 313.269531 216.355469 L 312.730469 217.722656 L 311.5625 220.421875 L 310.929688 221.753906 L 310.269531 223.066406 L 308.855469 225.652344 L 308.105469 226.921875 L 307.328125 228.171875 L 305.679688 230.621094 L 304.816406 231.816406 L 303.925781 232.996094 L 302.058594 235.285156 L 301.089844 236.402344 L 300.089844 237.492188 L 298.023438 239.609375 L 296.953125 240.628906 L 295.855469 241.628906 L 293.601562 243.550781 L 292.4375 244.472656 L 291.257812 245.367188 L 288.832031 247.078125 L 287.585938 247.890625 L 286.328125 248.675781 L 283.75 250.160156 L 282.4375 250.855469 L 281.109375 251.523438 L 278.402344 252.769531 L 277.027344 253.34375 L 275.640625 253.886719 L 274.242188 254.402344 L 272.832031 254.882812 L 271.410156 255.328125 L 269.976562 255.746094 L 268.53125 256.128906 L 267.082031 256.480469 L 265.621094 256.796875 L 264.152344 257.082031 L 262.679688 257.332031 L 261.199219 257.550781 L 259.714844 257.734375 L 258.226562 257.882812 L 256.734375 257.996094 L 255.238281 258.078125 L 253.839844 258.125 L 252.441406 258.136719 L 251.042969 258.125 L 249.640625 258.078125 L 248.242188 258.003906 L 246.847656 257.902344 L 245.453125 257.765625 L 244.058594 257.601562 L 242.671875 257.410156 L 241.285156 257.1875 L 239.90625 256.933594 L 238.53125 256.652344 L 237.160156 256.339844 L 235.796875 256 L 233.09375 255.230469 L 231.753906 254.804688 L 230.425781 254.347656 L 229.101562 253.863281 L 227.792969 253.351562 L 226.492188 252.808594 L 225.203125 252.242188 L 222.660156 251.019531 L 221.410156 250.371094 L 220.171875 249.695312 L 217.742188 248.261719 L 216.550781 247.503906 L 215.371094 246.722656 L 213.070312 245.085938 L 211.941406 244.230469 L 210.835938 243.351562 L 208.675781 241.519531 L 207.625 240.570312 L 206.597656 239.597656 L 204.597656 237.585938 L 203.632812 236.550781 L 202.6875 235.492188 L 200.863281 233.316406 L 199.988281 232.199219 L 199.136719 231.0625 L 197.503906 228.734375 L 196.726562 227.546875 L 195.972656 226.339844 L 194.542969 223.878906 L 193.867188 222.625 L 193.21875 221.359375 L 192 218.78125 L 191.433594 217.472656 L 190.894531 216.152344 L 190.382812 214.820312 L 189.898438 213.480469 L 189.445312 212.125 L 189.019531 210.761719 L 188.621094 209.390625 L 188.253906 208.007812 L 187.890625 206.503906 L 187.558594 204.988281 L 187.265625 203.464844 L 187.003906 201.9375 L 186.78125 200.402344 L 186.589844 198.863281 L 186.4375 197.316406 L 186.320312 195.769531 L 186.238281 194.214844 L 186.191406 192.664062 L 186.179688 191.109375 L 186.207031 189.554688 L 186.265625 188 L 186.363281 186.445312 L 186.496094 184.894531 L 186.664062 183.34375 L 186.871094 181.800781 L 187.109375 180.257812 L 187.386719 178.722656 L 187.699219 177.195312 L 188.046875 175.675781 L 188.429688 174.160156 L 188.84375 172.65625 L 189.296875 171.160156 L 189.785156 169.675781 L 190.304688 168.199219 L 190.859375 166.738281 L 191.449219 165.289062 L 192.070312 163.851562 L 192.726562 162.429688 L 194.136719 159.632812 L 194.890625 158.257812 L 195.675781 156.902344 L 197.339844 154.242188 L 198.21875 152.941406 L 199.128906 151.660156 L 201.03125 149.160156 L 202.027344 147.945312 L 203.054688 146.75 L 205.183594 144.4375 L 206.289062 143.316406 L 207.421875 142.21875 L 209.761719 140.109375 L 210.964844 139.09375 L 212.195312 138.105469 L 214.722656 136.214844 L 216.019531 135.3125 L 217.335938 134.441406 L 220.03125 132.792969 L 221.410156 132.011719 L 222.804688 131.265625 L 224.214844 130.550781 L 225.644531 129.867188 L 227.085938 129.21875 L 228.546875 128.601562 L 231.507812 127.472656 L 232.980469 126.96875 L 234.464844 126.496094 L 235.960938 126.058594 L 237.464844 125.652344 L 238.980469 125.285156 L 240.503906 124.949219 L 242.03125 124.644531 L 243.570312 124.378906 L 245.113281 124.148438 L 246.664062 123.953125 L 248.21875 123.789062 L 249.777344 123.664062 L 251.335938 123.570312 L 252.898438 123.515625 L 254.464844 123.496094 L 256.027344 123.511719 L 257.59375 123.5625 L 259.15625 123.648438 L 260.71875 123.769531 L 262.28125 123.929688 L 263.835938 124.121094 L 265.386719 124.347656 L 266.933594 124.613281 L 268.476562 124.910156 L 270.007812 125.242188 L 271.535156 125.613281 L 273.054688 126.015625 L 274.5625 126.453125 L 276.0625 126.921875 L 277.554688 127.429688 L 280.496094 128.542969 L 281.949219 129.148438 L 283.390625 129.785156 L 286.226562 131.164062 L 287.617188 131.898438 L 288.996094 132.667969 L 291.699219 134.296875 L 293.023438 135.160156 L 294.328125 136.050781 L 296.875 137.921875 L 298.117188 138.898438 L 299.335938 139.90625 L 301.707031 142.003906 L 302.855469 143.09375 L 303.980469 144.207031 L 306.152344 146.511719 L 307.203125 147.703125 L 308.222656 148.917969 L 310.179688 151.414062 L 311.117188 152.695312 L 312.027344 154 L 313.753906 156.667969 L 314.570312 158.03125 L 315.359375 159.410156 L 316.839844 162.230469 L 317.484375 163.566406 L 318.105469 164.917969 L 318.695312 166.28125 L 319.253906 167.65625 L 319.785156 169.046875 L 320.289062 170.445312 L 321.207031 173.277344 L 321.621094 174.707031 L 322.003906 176.148438 L 322.355469 177.59375 L 322.675781 179.050781 L 322.96875 180.511719 L 323.230469 181.980469 L 323.457031 183.457031 L 323.65625 184.933594 L 323.824219 186.417969 L 323.957031 187.90625 L 324.0625 189.394531 L 324.136719 190.886719 L 324.175781 192.382812 L 324.1875 193.878906 L 324.164062 195.371094 L 324.109375 196.867188 L 324.023438 198.363281 L 323.90625 199.855469 L 323.757812 201.34375 L 323.578125 202.832031 L 323.367188 204.316406 L 323.121094 205.796875 L 322.847656 207.269531 L 322.542969 208.738281 L 322.203125 210.199219 L 321.835938 211.65625 L 321.4375 213.101562 L 321.007812 214.542969 L 320.550781 215.972656 L 320.058594 217.394531 L 318.988281 220.203125 L 318.410156 221.589844 L 317.800781 222.96875 L 316.492188 225.679688 L 315.796875 227.015625 L 315.074219 228.335938 L 313.539062 230.933594 L 312.734375 232.207031 L 311.898438 233.464844 L 310.148438 235.925781 L 309.238281 237.125 L 308.296875 238.308594 L 306.34375 240.617188 L 305.332031 241.738281 L 304.296875 242.839844 L 302.152344 244.976562 L 301.046875 246.011719 L 299.917969 247.023438 L 297.597656 248.972656 L 296.308594 249.988281 L 294.992188 250.972656 L 292.292969 252.855469 L 290.914062 253.75 L 289.511719 254.613281 L 286.648438 256.242188 L 285.1875 257.007812 L 283.710938 257.742188 L 282.214844 258.4375 L 280.707031 259.101562 L 279.179688 259.734375 L 277.640625 260.328125 L 274.519531 261.410156 L 272.941406 261.898438 L 271.347656 262.347656 L 269.75 262.761719 L 268.136719 263.140625 L 266.519531 263.484375 L 264.890625 263.785156 L 263.257812 264.054688 L 261.617188 264.28125 L 259.96875 264.476562 L 258.320312 264.628906 L 256.664062 264.746094 L 255.007812 264.824219 L 253.347656 264.863281 L 251.691406 264.863281 L 250.03125 264.828125 L 248.371094 264.753906 L 246.710938 264.644531 L 245.058594 264.492188 L 243.40625 264.304688 L 241.757812 264.078125 L 240.113281 263.8125 L 238.476562 263.511719 L 236.847656 263.171875 L 235.222656 262.796875 L 233.609375 262.382812 L 232.007812 261.933594 L 230.410156 261.445312 L 228.828125 260.917969 L 227.257812 260.359375 L 225.699219 259.761719 L 222.621094 258.460938 L 221.109375 257.757812 L 219.609375 257.019531 L 216.660156 255.441406 L 215.214844 254.597656 L 213.785156 253.726562 L 210.992188 251.878906 L 209.628906 250.910156 L 208.285156 249.90625 L 205.667969 247.8125 L 204.394531 246.71875 L 203.148438 245.59375 L 200.730469 243.265625 L 199.640625 242.140625 L 198.570312 240.988281 L 196.511719 238.621094 L 195.519531 237.40625 L 194.550781 236.167969 L 192.699219 233.628906 L 191.8125 232.332031 L 190.953125 231.015625 L 189.324219 228.324219 L 188.550781 226.953125 L 187.808594 225.5625 L 186.410156 222.742188 L 185.757812 221.304688 L 185.132812 219.859375 L 184.542969 218.394531 L 183.984375 216.921875 L 183.453125 215.433594 L 182.957031 213.9375 L 182.058594 210.910156 L 181.660156 209.378906 L 181.292969 207.84375 L 180.957031 206.296875 L 180.65625 204.746094 L 180.386719 203.1875 L 180.152344 201.621094 L 179.953125 200.050781 L 179.785156 198.476562 L 179.652344 196.898438 L 179.550781 195.316406 L 179.484375 193.734375 L 179.453125 192.148438 L 179.453125 190.5625 L 179.488281 188.976562 L 179.558594 187.390625 L 179.660156 185.808594 L 179.800781 184.226562 L 179.972656 182.648438 L 180.175781 181.070312 L 180.414062 179.5 L 180.6875 177.933594 L 180.992188 176.375 L 181.332031 174.820312 L 181.707031 173.273438 L 182.113281 171.734375 L 182.550781 170.203125 L 183.023438 168.683594 L 183.527344 167.171875 L 184.0625 165.671875 L 184.632812 164.179688 L 185.867188 161.242188 L 186.53125 159.789062 L 187.226562 158.351562 L 188.710938 155.523438 L 189.496094 154.132812 L 190.3125 152.761719 L 192.035156 150.066406 L 192.917969 148.773438 L 193.832031 147.496094 L 195.738281 145.003906 L 196.730469 143.785156 L 197.75 142.589844 L 199.863281 140.265625 L 200.953125 139.132812 L 202.070312 138.027344 L 204.371094 135.882812 L 209.238281 131.890625 L 210.507812 130.953125 L 211.796875 130.046875 L 214.433594 128.3125 L 215.777344 127.488281 L 217.136719 126.691406 L 219.914062 125.183594 L 221.324219 124.472656 L 222.75 123.792969 L 224.1875 123.140625 L 225.644531 122.519531 L 227.109375 121.929688 L 228.589844 121.371094 L 231.582031 120.34375 L 233.097656 119.878906 L 234.621094 119.445312 L 236.152344 119.042969 L 237.691406 118.671875 L 239.242188 118.335938 L 240.796875 118.03125 L 242.359375 117.757812 L 243.929688 117.519531 L 245.5 117.3125 L 247.078125 117.136719 L 248.660156 116.996094 L 250.246094 116.890625 L 251.832031 116.816406 L 253.421875 116.773438 L 255.011719 116.765625 L 256.601562 116.792969 L 258.191406 116.851562 L 259.78125 116.945312 L 261.367188 117.070312 L 262.949219 117.230469 L 264.53125 117.421875 L 266.109375 117.648438 L 267.679688 117.910156 L 269.25 118.199219 L 270.808594 118.523438 L 272.363281 118.882812 L 273.910156 119.273438 L 275.449219 119.695312 L 276.980469 120.152344 L 278.5 120.640625 L 281.511719 121.710938 L 283.125 122.34375 L 284.722656 123.015625 L 287.878906 124.464844 L 289.429688 125.242188 L 290.964844 126.058594 L 293.976562 127.789062 L 295.453125 128.710938 L 296.90625 129.660156 L 299.753906 131.664062 L 301.140625 132.714844 L 302.507812 133.796875 L 305.160156 136.050781 L 306.449219 137.222656 L 307.710938 138.425781 L 310.15625 140.917969 L 311.332031 142.207031 L 312.480469 143.519531 L 314.691406 146.226562 L 315.746094 147.617188 L 316.773438 149.035156 L 318.726562 151.933594 L 319.65625 153.417969 L 320.550781 154.921875 L 322.234375 157.992188 L 323.023438 159.554688 L 323.777344 161.136719 L 324.496094 162.734375 L 325.179688 164.351562 L 325.824219 165.984375 L 326.433594 167.628906 L 327.535156 170.960938 L 328.03125 172.644531 L 328.488281 174.34375 L 328.90625 176.050781 L 329.285156 177.765625 L 329.625 179.492188 L 329.925781 181.226562 L 330.1875 182.964844 L 330.40625 184.710938 L 330.589844 186.464844 L 330.730469 188.21875 L 330.832031 189.976562 L 330.894531 191.738281 L 330.917969 193.5 L 330.898438 195.265625 L 330.839844 197.027344 L 330.742188 198.789062 L 330.601562 200.550781 L 330.421875 202.308594 L 330.203125 204.058594 L 329.945312 205.808594 L 329.644531 207.550781 L 329.308594 209.285156 L 328.929688 211.011719 L 328.511719 212.730469 L 328.085938 214.328125 L 327.628906 215.914062 L 327.132812 217.492188 L 326.609375 219.058594 L 326.050781 220.613281 L 325.457031 222.15625 L 324.171875 225.207031 L 323.480469 226.710938 L 322.757812 228.199219 L 321.21875 231.132812 L 320.402344 232.574219 L 319.554688 234 L 317.769531 236.792969 L 316.832031 238.164062 L 315.867188 239.511719 L 313.847656 242.148438 L 312.796875 243.433594 L 311.71875 244.699219 L 309.480469 247.15625 L 308.324219 248.351562 L 307.140625 249.519531 L 304.699219 251.78125 L 303.441406 252.875 L 302.160156 253.9375 L 299.535156 255.988281 L 298.1875 256.96875 L 296.820312 257.921875 L 294.023438 259.746094 L 292.597656 260.609375 L 291.152344 261.445312 L 288.210938 263.023438 L 286.710938 263.765625 L 285.199219 264.476562 L 283.671875 265.15625 L 282.128906 265.800781 L 280.574219 266.414062 L 279.003906 266.992188 L 275.828125 268.054688 L 274.226562 268.53125 L 272.609375 268.976562 L 270.984375 269.390625 L 269.351562 269.765625 L 267.710938 270.109375 L 266.0625 270.414062 L 264.40625 270.6875 L 262.746094 270.921875 L 261.082031 271.125 L 259.410156 271.289062 L 257.734375 271.421875 L 256.058594 271.515625 L 254.378906 271.574219 L 252.699219 271.597656 L 251.015625 271.585938 L 249.335938 271.539062 L 247.460938 271.441406 L 245.585938 271.304688 L 243.71875 271.117188 L 241.851562 270.890625 L 239.992188 270.617188 L 238.136719 270.296875 L 236.289062 269.9375 L 234.453125 269.53125 L 232.625 269.082031 L 230.804688 268.589844 L 229 268.054688 L 227.207031 267.476562 L 225.425781 266.855469 L 223.660156 266.191406 L 220.179688 264.742188 L 218.464844 263.953125 L 216.765625 263.125 L 213.433594 261.347656 L 211.796875 260.398438 L 210.183594 259.410156 L 207.03125 257.324219 L 205.492188 256.222656 L 203.976562 255.085938 L 201.03125 252.707031 L 199.601562 251.464844 L 198.199219 250.1875 L 195.488281 247.535156 L 194.183594 246.160156 L 192.90625 244.753906 L 190.457031 241.851562 L 189.285156 240.359375 L 188.144531 238.835938 L 185.980469 235.714844 L 184.953125 234.113281 L 183.960938 232.488281 L 182.097656 229.167969 L 181.226562 227.476562 L 180.394531 225.761719 L 178.851562 222.277344 L 178.140625 220.503906 L 177.476562 218.71875 L 176.851562 216.914062 L 176.269531 215.097656 L 175.730469 213.265625 L 175.234375 211.421875 L 174.78125 209.566406 L 174.375 207.699219 L 174.011719 205.820312 L 173.691406 203.9375 L 173.417969 202.042969 L 173.191406 200.144531 L 173.003906 198.238281 L 172.867188 196.328125 L 172.773438 194.414062 L 172.726562 192.5 " transform="matrix(1,0,0,1,-74,-13)"/>
<path style="fill:none;stroke-width:1;stroke-linecap:square;stroke-linejoin:miter;stroke:rgb(0%,0%,0%);stroke-opacity:1;stroke-miterlimit:3.25;" d="M 234.71875 110.21875 L 217.550781 35 " transform="matrix(1,0,0,1,-74,-13)"/>
<path style="fill:none;stroke-width:1;stroke-linecap:square;stroke-linejoin:miter;stroke:rgb(0%,0%,0%);stroke-opacity:1;stroke-miterlimit:3.25;" d="M 177.460938 155.882812 L 107.949219 122.40625 " transform="matrix(1,0,0,1,-74,-13)"/>
<path style="fill:none;stroke-width:1;stroke-linecap:square;stroke-linejoin:miter;stroke:rgb(0%,0%,0%);stroke-opacity:1;stroke-miterlimit:3.25;" d="M 177.460938 229.117188 L 107.949219 262.59375 " transform="matrix(1,0,0,1,-74,-13)"/>
<path style="fill:none;stroke-width:1;stroke-linecap:square;stroke-linejoin:miter;stroke:rgb(0%,0%,0%);stroke-opacity:1;stroke-miterlimit:3.25;" d="M 234.71875 274.78125 L 217.550781 350 " transform="matrix(1,0,0,1,-74,-13)"/>
<path style="fill:none;stroke-width:1;stroke-linecap:square;stroke-linejoin:miter;stroke:rgb(0%,0%,0%);stroke-opacity:1;stroke-miterlimit:3.25;" d="M 306.121094 258.484375 L 354.226562 318.804688 " transform="matrix(1,0,0,1,-74,-13)"/>
<path style="fill:none;stroke-width:1;stroke-linecap:square;stroke-linejoin:miter;stroke:rgb(0%,0%,0%);stroke-opacity:1;stroke-miterlimit:3.25;" d="M 337.898438 192.5 L 415.050781 192.5 " transform="matrix(1,0,0,1,-74,-13)"/>
<path style="fill:none;stroke-width:1;stroke-linecap:square;stroke-linejoin:miter;stroke:rgb(0%,0%,0%);stroke-opacity:1;stroke-miterlimit:3.25;" d="M 306.121094 126.515625 L 354.226562 66.195312 " transform="matrix(1,0,0,1,-74,-13)"/>
<path style="fill:none;stroke-width:1;stroke-linecap:square;stroke-linejoin:miter;stroke:rgb(0%,0%,0%);stroke-opacity:1;stroke-miterlimit:3.25;" d="M 274.007812 102.65625 L 289.449219 35 " transform="matrix(1,0,0,1,-74,-13)"/>
<path style="fill:none;stroke-width:1;stroke-linecap:square;stroke-linejoin:miter;stroke:rgb(0%,0%,0%);stroke-opacity:1;stroke-miterlimit:3.25;" d="M 196.042969 120.449219 L 152.773438 66.195312 " transform="matrix(1,0,0,1,-74,-13)"/>
<path style="fill:none;stroke-width:1;stroke-linecap:square;stroke-linejoin:miter;stroke:rgb(0%,0%,0%);stroke-opacity:1;stroke-miterlimit:3.25;" d="M 161.34375 192.5 L 91.949219 192.5 " transform="matrix(1,0,0,1,-74,-13)"/>
<path style="fill:none;stroke-width:1;stroke-linecap:square;stroke-linejoin:miter;stroke:rgb(0%,0%,0%);stroke-opacity:1;stroke-miterlimit:3.25;" d="M 196.042969 264.550781 L 152.773438 318.804688 " transform="matrix(1,0,0,1,-74,-13)"/>
<path style="fill:none;stroke-width:1;stroke-linecap:square;stroke-linejoin:miter;stroke:rgb(0%,0%,0%);stroke-opacity:1;stroke-miterlimit:3.25;" d="M 274.007812 282.34375 L 289.449219 350 " transform="matrix(1,0,0,1,-74,-13)"/>
<path style="fill:none;stroke-width:1;stroke-linecap:square;stroke-linejoin:miter;stroke:rgb(0%,0%,0%);stroke-opacity:1;stroke-miterlimit:3.25;" d="M 336.527344 232.484375 L 399.050781 262.59375 " transform="matrix(1,0,0,1,-74,-13)"/>
<path style="fill:none;stroke-width:1;stroke-linecap:square;stroke-linejoin:miter;stroke:rgb(0%,0%,0%);stroke-opacity:1;stroke-miterlimit:3.25;" d="M 336.527344 152.515625 L 399.050781 122.40625 " transform="matrix(1,0,0,1,-74,-13)"/>
<path style="fill:none;stroke-width:1;stroke-linecap:square;stroke-linejoin:miter;stroke:rgb(0%,0%,0%);stroke-opacity:1;stroke-miterlimit:3.25;" d="M 337.375 125.613281 L 379.804688 91.773438 " transform="matrix(1,0,0,1,-74,-13)"/>
<path style="fill:none;stroke-width:1;stroke-linecap:square;stroke-linejoin:miter;stroke:rgb(0%,0%,0%);stroke-opacity:1;stroke-miterlimit:3.25;" d="M 300.046875 95.84375 L 323.59375 46.949219 " transform="matrix(1,0,0,1,-74,-13)"/>
<path style="fill:none;stroke-width:1;stroke-linecap:square;stroke-linejoin:miter;stroke:rgb(0%,0%,0%);stroke-opacity:1;stroke-miterlimit:3.25;" d="M 253.5 85.21875 L 253.5 30.949219 " transform="matrix(1,0,0,1,-74,-13)"/>
<path style="fill:none;stroke-width:1;stroke-linecap:square;stroke-linejoin:miter;stroke:rgb(0%,0%,0%);stroke-opacity:1;stroke-miterlimit:3.25;" d="M 206.953125 95.84375 L 183.40625 46.949219 " transform="matrix(1,0,0,1,-74,-13)"/>
<path style="fill:none;stroke-width:1;stroke-linecap:square;stroke-linejoin:miter;stroke:rgb(0%,0%,0%);stroke-opacity:1;stroke-miterlimit:3.25;" d="M 169.625 125.613281 L 127.195312 91.773438 " transform="matrix(1,0,0,1,-74,-13)"/>
<path style="fill:none;stroke-width:1;stroke-linecap:square;stroke-linejoin:miter;stroke:rgb(0%,0%,0%);stroke-opacity:1;stroke-miterlimit:3.25;" d="M 148.910156 168.628906 L 96 156.550781 " transform="matrix(1,0,0,1,-74,-13)"/>
<path style="fill:none;stroke-width:1;stroke-linecap:square;stroke-linejoin:miter;stroke:rgb(0%,0%,0%);stroke-opacity:1;stroke-miterlimit:3.25;" d="M 148.910156 216.371094 L 96 228.449219 " transform="matrix(1,0,0,1,-74,-13)"/>
<path style="fill:none;stroke-width:1;stroke-linecap:square;stroke-linejoin:miter;stroke:rgb(0%,0%,0%);stroke-opacity:1;stroke-miterlimit:3.25;" d="M 169.625 259.386719 L 127.195312 293.226562 " transform="matrix(1,0,0,1,-74,-13)"/>
<path style="fill:none;stroke-width:1;stroke-linecap:square;stroke-linejoin:miter;stroke:rgb(0%,0%,0%);stroke-opacity:1;stroke-miterlimit:3.25;" d="M 206.953125 289.15625 L 183.40625 338.050781 " transform="matrix(1,0,0,1,-74,-13)"/>
<path style="fill:none;stroke-width:1;stroke-linecap:square;stroke-linejoin:miter;stroke:rgb(0%,0%,0%);stroke-opacity:1;stroke-miterlimit:3.25;" d="M 253.5 299.78125 L 253.5 354.050781 " transform="matrix(1,0,0,1,-74,-13)"/>
<path style="fill:none;stroke-width:1;stroke-linecap:square;stroke-linejoin:miter;stroke:rgb(0%,0%,0%);stroke-opacity:1;stroke-miterlimit:3.25;" d="M 300.046875 289.15625 L 323.59375 338.050781 " transform="matrix(1,0,0,1,-74,-13)"/>
<path style="fill:none;stroke-width:1;stroke-linecap:square;stroke-linejoin:miter;stroke:rgb(0%,0%,0%);stroke-opacity:1;stroke-miterlimit:3.25;" d="M 337.375 259.386719 L 379.804688 293.226562 " transform="matrix(1,0,0,1,-74,-13)"/>
<path style="fill:none;stroke-width:1;stroke-linecap:square;stroke-linejoin:miter;stroke:rgb(0%,0%,0%);stroke-opacity:1;stroke-miterlimit:3.25;" d="M 358.089844 216.371094 L 411 228.449219 " transform="matrix(1,0,0,1,-74,-13)"/>
<path style="fill:none;stroke-width:1;stroke-linecap:square;stroke-linejoin:miter;stroke:rgb(0%,0%,0%);stroke-opacity:1;stroke-miterlimit:3.25;" d="M 358.089844 168.628906 L 411 156.550781 " transform="matrix(1,0,0,1,-74,-13)"/>
<path style="fill:none;stroke-width:1;stroke-linecap:square;stroke-linejoin:miter;stroke:rgb(0%,0%,0%);stroke-opacity:1;stroke-miterlimit:3.25;" d="M 383.132812 147.140625 L 405.984375 139.144531 " transform="matrix(1,0,0,1,-74,-13)"/>
<path style="fill:none;stroke-width:1;stroke-linecap:square;stroke-linejoin:miter;stroke:rgb(0%,0%,0%);stroke-opacity:1;stroke-miterlimit:3.25;" d="M 369.789062 119.429688 L 390.289062 106.550781 " transform="matrix(1,0,0,1,-74,-13)"/>
<path style="fill:none;stroke-width:1;stroke-linecap:square;stroke-linejoin:miter;stroke:rgb(0%,0%,0%);stroke-opacity:1;stroke-miterlimit:3.25;" d="M 350.613281 95.386719 L 367.734375 78.265625 " transform="matrix(1,0,0,1,-74,-13)"/>
<path style="fill:none;stroke-width:1;stroke-linecap:square;stroke-linejoin:miter;stroke:rgb(0%,0%,0%);stroke-opacity:1;stroke-miterlimit:3.25;" d="M 326.570312 76.210938 L 339.449219 55.710938 " transform="matrix(1,0,0,1,-74,-13)"/>
<path style="fill:none;stroke-width:1;stroke-linecap:square;stroke-linejoin:miter;stroke:rgb(0%,0%,0%);stroke-opacity:1;stroke-miterlimit:3.25;" d="M 298.859375 62.867188 L 306.855469 40.015625 " transform="matrix(1,0,0,1,-74,-13)"/>
<path style="fill:none;stroke-width:1;stroke-linecap:square;stroke-linejoin:miter;stroke:rgb(0%,0%,0%);stroke-opacity:1;stroke-miterlimit:3.25;" d="M 268.878906 56.023438 L 271.585938 31.964844 " transform="matrix(1,0,0,1,-74,-13)"/>
<path style="fill:none;stroke-width:1;stroke-linecap:square;stroke-linejoin:miter;stroke:rgb(0%,0%,0%);stroke-opacity:1;stroke-miterlimit:3.25;" d="M 238.121094 56.023438 L 235.414062 31.964844 " transform="matrix(1,0,0,1,-74,-13)"/>
<path style="fill:none;stroke-width:1;stroke-linecap:square;stroke-linejoin:miter;stroke:rgb(0%,0%,0%);stroke-opacity:1;stroke-miterlimit:3.25;" d="M 208.140625 62.867188 L 200.144531 40.015625 " transform="matrix(1,0,0,1,-74,-13)"/>
<path style="fill:none;stroke-width:1;stroke-linecap:square;stroke-linejoin:miter;stroke:rgb(0%,0%,0%);stroke-opacity:1;stroke-miterlimit:3.25;" d="M 180.429688 76.210938 L 167.550781 55.710938 " transform="matrix(1,0,0,1,-74,-13)"/>
<path style="fill:none;stroke-width:1;stroke-linecap:square;stroke-linejoin:miter;stroke:rgb(0%,0%,0%);stroke-opacity:1;stroke-miterlimit:3.25;" d="M 156.386719 95.386719 L 139.265625 78.265625 " transform="matrix(1,0,0,1,-74,-13)"/>
<path style="fill:none;stroke-width:1;stroke-linecap:square;stroke-linejoin:miter;stroke:rgb(0%,0%,0%);stroke-opacity:1;stroke-miterlimit:3.25;" d="M 137.210938 119.429688 L 116.710938 106.550781 " transform="matrix(1,0,0,1,-74,-13)"/>
<path style="fill:none;stroke-width:1;stroke-linecap:square;stroke-linejoin:miter;stroke:rgb(0%,0%,0%);stroke-opacity:1;stroke-miterlimit:3.25;" d="M 123.867188 147.140625 L 101.015625 139.144531 " transform="matrix(1,0,0,1,-74,-13)"/>
<path style="fill:none;stroke-width:1;stroke-linecap:square;stroke-linejoin:miter;stroke:rgb(0%,0%,0%);stroke-opacity:1;stroke-miterlimit:3.25;" d="M 117.023438 177.121094 L 92.964844 174.414062 " transform="matrix(1,0,0,1,-74,-13)"/>
<path style="fill:none;stroke-width:1;stroke-linecap:square;stroke-linejoin:miter;stroke:rgb(0%,0%,0%);stroke-opacity:1;stroke-miterlimit:3.25;" d="M 117.023438 207.878906 L 92.964844 210.585938 " transform="matrix(1,0,0,1,-74,-13)"/>
<path style="fill:none;stroke-width:1;stroke-linecap:square;stroke-linejoin:miter;stroke:rgb(0%,0%,0%);stroke-opacity:1;stroke-miterlimit:3.25;" d="M 123.867188 237.859375 L 101.015625 245.855469 " transform="matrix(1,0,0,1,-74,-13)"/>
<path style="fill:none;stroke-width:1;stroke-linecap:square;stroke-linejoin:miter;stroke:rgb(0%,0%,0%);stroke-opacity:1;stroke-miterlimit:3.25;" d="M 137.210938 265.570312 L 116.710938 278.449219 " transform="matrix(1,0,0,1,-74,-13)"/>
<path style="fill:none;stroke-width:1;stroke-linecap:square;stroke-linejoin:miter;stroke:rgb(0%,0%,0%);stroke-opacity:1;stroke-miterlimit:3.25;" d="M 156.386719 289.613281 L 139.265625 306.734375 " transform="matrix(1,0,0,1,-74,-13)"/>
<path style="fill:none;stroke-width:1;stroke-linecap:square;stroke-linejoin:miter;stroke:rgb(0%,0%,0%);stroke-opacity:1;stroke-miterlimit:3.25;" d="M 180.429688 308.789062 L 167.550781 329.289062 " transform="matrix(1,0,0,1,-74,-13)"/>
<path style="fill:none;stroke-width:1;stroke-linecap:square;stroke-linejoin:miter;stroke:rgb(0%,0%,0%);stroke-opacity:1;stroke-miterlimit:3.25;" d="M 208.140625 322.132812 L 200.144531 344.984375 " transform="matrix(1,0,0,1,-74,-13)"/>
<path style="fill:none;stroke-width:1;stroke-linecap:square;stroke-linejoin:miter;stroke:rgb(0%,0%,0%);stroke-opacity:1;stroke-miterlimit:3.25;" d="M 238.121094 328.976562 L 235.414062 353.035156 " transform="matrix(1,0,0,1,-74,-13)"/>
<path style="fill:none;stroke-width:1;stroke-linecap:square;stroke-linejoin:miter;stroke:rgb(0%,0%,0%);stroke-opacity:1;stroke-miterlimit:3.25;" d="M 268.878906 328.976562 L 271.585938 353.035156 " transform="matrix(1,0,0,1,-74,-13)"/>
<path style="fill:none;stroke-width:1;stroke-linecap:square;stroke-linejoin:miter;stroke:rgb(0%,0%,0%);stroke-opacity:1;stroke-miterlimit:3.25;" d="M 298.859375 322.132812 L 306.855469 344.984375 " transform="matrix(1,0,0,1,-74,-13)"/>
<path style="fill:none;stroke-width:1;stroke-linecap:square;stroke-linejoin:miter;stroke:rgb(0%,0%,0%);stroke-opacity:1;stroke-miterlimit:3.25;" d="M 326.570312 308.789062 L 339.449219 329.289062 " transform="matrix(1,0,0,1,-74,-13)"/>
<path style="fill:none;stroke-width:1;stroke-linecap:square;stroke-linejoin:miter;stroke:rgb(0%,0%,0%);stroke-opacity:1;stroke-miterlimit:3.25;" d="M 350.613281 289.613281 L 367.734375 306.734375 " transform="matrix(1,0,0,1,-74,-13)"/>
<path style="fill:none;stroke-width:1;stroke-linecap:square;stroke-linejoin:miter;stroke:rgb(0%,0%,0%);stroke-opacity:1;stroke-miterlimit:3.25;" d="M 369.789062 265.570312 L 390.289062 278.449219 " transform="matrix(1,0,0,1,-74,-13)"/>
<path style="fill:none;stroke-width:1;stroke-linecap:square;stroke-linejoin:miter;stroke:rgb(0%,0%,0%);stroke-opacity:1;stroke-miterlimit:3.25;" d="M 383.132812 237.859375 L 405.984375 245.855469 " transform="matrix(1,0,0,1,-74,-13)"/>
<path style="fill:none;stroke-width:1;stroke-linecap:square;stroke-linejoin:miter;stroke:rgb(0%,0%,0%);stroke-opacity:1;stroke-miterlimit:3.25;" d="M 389.976562 207.878906 L 414.035156 210.585938 " transform="matrix(1,0,0,1,-74,-13)"/>
<path style="fill:none;stroke-width:1;stroke-linecap:square;stroke-linejoin:miter;stroke:rgb(0%,0%,0%);stroke-opacity:1;stroke-miterlimit:3.25;" d="M 389.976562 177.121094 L 414.035156 174.414062 " transform="matrix(1,0,0,1,-74,-13)"/>
</g>
</svg>
