<?xml version="1.0" encoding="UTF-8"?>
<svg xmlns="http://www.w3.org/2000/svg" xmlns:xlink="http://www.w3.org/1999/xlink" width="353pt" height="336pt" viewBox="0 0 353 336" version="1.1">
<g id="surface56">
<path style="fill:none;stroke-width:1;stroke-linecap:square;stroke-linejoin:miter;stroke:rgb(0%,0%,0%);stroke-opacity:1;stroke-miterlimit:3.25;" d="M 253.5 201.082031 L 253.609375 201.0625 L 253.707031 201.011719 L 253.792969 200.929688 L 253.855469 200.824219 L 253.886719 200.691406 L 253.886719 200.546875 L 253.847656 200.394531 L 253.769531 200.246094 L 253.65625 200.105469 L 253.5 199.984375 L 253.3125 199.886719 L 253.09375 199.828125 L 252.851562 199.808594 L 252.597656 199.835938 L 252.335938 199.917969 L 252.078125 200.046875 L 251.835938 200.234375 L 251.621094 200.46875 L 251.4375 200.753906 L 251.304688 201.082031 L 251.222656 201.441406 L 251.203125 201.828125 L 251.25 202.226562 L 251.367188 202.628906 L 251.558594 203.023438 L 251.820312 203.390625 L 252.152344 203.722656 L 252.550781 204.003906 L 253 204.226562 L 253.5 204.375 L 254.03125 204.441406 L 254.585938 204.421875 L 255.144531 204.308594 L 255.695312 204.101562 L 256.21875 203.796875 L 256.699219 203.40625 L 257.121094 202.925781 L 257.46875 202.371094 L 257.730469 201.75 L 257.890625 201.082031 L 257.945312 200.375 L 257.886719 199.65625 L 257.707031 198.9375 L 257.410156 198.242188 L 256.996094 197.585938 L 256.46875 196.996094 L 255.84375 196.480469 L 255.128906 196.066406 L 254.339844 195.765625 L 253.5 195.589844 L 252.625 195.550781 L 251.734375 195.648438 L 250.859375 195.894531 L 250.015625 196.285156 L 249.230469 196.808594 L 248.523438 197.464844 L 247.921875 198.238281 L 247.441406 199.113281 L 247.101562 200.066406 L 246.910156 201.082031 L 246.882812 202.128906 L 247.023438 203.183594 L 247.335938 204.222656 L 247.8125 205.210938 L 248.453125 206.128906 L 249.238281 206.945312 L 250.160156 207.636719 L 251.191406 208.183594 L 252.316406 208.5625 L 253.5 208.765625 L 254.71875 208.78125 L 255.941406 208.601562 L 257.140625 208.222656 L 258.277344 207.65625 L 259.324219 206.90625 L 260.25 205.984375 L 261.035156 204.917969 L 261.644531 203.726562 L 262.066406 202.4375 L 262.285156 201.082031 L 262.285156 199.6875 L 262.0625 198.296875 L 261.621094 196.941406 L 260.960938 195.660156 L 260.101562 194.480469 L 259.050781 193.441406 L 257.835938 192.570312 L 256.484375 191.890625 L 255.027344 191.429688 L 253.5 191.199219 L 251.9375 191.210938 L 250.378906 191.472656 L 248.863281 191.980469 L 247.433594 192.730469 L 246.125 193.703125 L 244.972656 194.882812 L 244.007812 196.246094 L 243.265625 197.753906 L 242.761719 199.378906 L 242.519531 201.082031 L 242.546875 202.816406 L 242.847656 204.542969 L 243.421875 206.214844 L 244.261719 207.792969 L 245.347656 209.234375 L 246.660156 210.496094 L 248.164062 211.550781 L 249.835938 212.359375 L 251.628906 212.902344 L 253.5 213.160156 L 255.40625 213.121094 L 257.300781 212.777344 L 259.132812 212.136719 L 260.859375 211.207031 L 262.429688 210.011719 L 263.804688 208.566406 L 264.949219 206.914062 L 265.824219 205.085938 L 266.40625 203.125 L 266.675781 201.082031 L 266.625 199.003906 L 266.242188 196.941406 L 265.535156 194.949219 L 264.515625 193.078125 L 263.207031 191.375 L 261.632812 189.886719 L 259.832031 188.65625 L 257.84375 187.714844 L 255.714844 187.089844 L 253.5 186.804688 L 251.25 186.871094 L 249.019531 187.296875 L 246.871094 188.066406 L 244.851562 189.175781 L 243.015625 190.597656 L 241.417969 192.300781 L 240.09375 194.25 L 239.085938 196.398438 L 238.425781 198.691406 L 238.125 201.082031 L 238.207031 203.503906 L 238.671875 205.898438 L 239.507812 208.210938 L 240.707031 210.375 L 242.242188 212.339844 L 244.078125 214.050781 L 246.171875 215.464844 L 248.476562 216.539062 L 250.941406 217.242188 L 253.5 217.550781 L 256.09375 217.457031 L 258.65625 216.957031 L 261.128906 216.050781 L 263.441406 214.761719 L 265.535156 213.117188 L 267.359375 211.148438 L 268.859375 208.90625 L 270 206.441406 L 270.746094 203.8125 L 271.070312 201.082031 L 270.960938 198.316406 L 270.417969 195.582031 L 269.449219 192.953125 L 268.070312 190.496094 L 266.3125 188.269531 L 264.214844 186.332031 L 261.824219 184.742188 L 259.199219 183.535156 L 256.402344 182.75 L 253.5 182.414062 L 250.5625 182.535156 L 247.664062 183.117188 L 244.875 184.152344 L 242.269531 185.621094 L 239.910156 187.492188 L 237.863281 189.722656 L 236.183594 192.257812 L 234.910156 195.039062 L 234.085938 198.007812 L 233.734375 201.082031 L 233.867188 204.191406 L 234.492188 207.257812 L 235.59375 210.203125 L 237.152344 212.957031 L 239.136719 215.445312 L 241.496094 217.605469 L 244.175781 219.378906 L 247.121094 220.714844 L 250.253906 221.578125 L 253.5 221.945312 L 256.78125 221.796875 L 260.015625 221.132812 L 263.121094 219.964844 L 266.023438 218.316406 L 268.640625 216.222656 L 270.914062 213.730469 L 272.773438 210.902344 L 274.179688 207.800781 L 275.082031 204.5 L 275.460938 201.082031 L 275.300781 197.628906 L 274.597656 194.226562 L 273.363281 190.960938 L 271.625 187.914062 L 269.417969 185.164062 L 266.796875 182.78125 L 263.820312 180.828125 L 260.558594 179.359375 L 257.089844 178.414062 L 253.5 178.019531 L 249.875 178.195312 L 246.304688 178.941406 L 242.882812 180.242188 L 239.6875 182.070312 L 236.804688 184.386719 L 234.3125 187.140625 L 232.269531 190.261719 L 230.734375 193.683594 L 229.746094 197.320312 L 229.339844 201.082031 L 229.53125 204.878906 L 230.316406 208.613281 L 231.679688 212.199219 L 233.601562 215.539062 L 236.027344 218.550781 L 238.914062 221.160156 L 242.183594 223.289062 L 245.761719 224.890625 L 249.566406 225.917969 L 253.5 226.335938 L 257.46875 226.136719 L 261.371094 225.308594 L 265.117188 223.878906 L 268.605469 221.867188 L 271.746094 219.328125 L 274.464844 216.3125 L 276.6875 212.894531 L 278.355469 209.15625 L 279.421875 205.1875 L 279.855469 201.082031 L 279.636719 196.941406 L 278.773438 192.867188 L 277.277344 188.964844 L 275.175781 185.332031 L 272.523438 182.058594 L 269.378906 179.226562 L 265.8125 176.914062 L 261.914062 175.179688 L 257.777344 174.074219 L 253.5 173.628906 L 252.808594 173.636719 L 252.121094 173.664062 L 251.433594 173.707031 L 250.746094 173.765625 L 250.058594 173.84375 L 249.375 173.941406 L 248.695312 174.050781 L 248.015625 174.179688 L 247.34375 174.328125 L 246.671875 174.492188 L 246.007812 174.671875 L 245.34375 174.867188 L 244.6875 175.082031 L 244.039062 175.308594 L 243.394531 175.554688 L 242.753906 175.816406 L 242.125 176.097656 L 241.5 176.390625 L 240.882812 176.699219 L 240.273438 177.023438 L 239.675781 177.363281 L 239.082031 177.71875 L 238.5 178.089844 L 237.925781 178.472656 L 237.363281 178.871094 L 236.8125 179.285156 L 236.269531 179.710938 L 235.738281 180.148438 L 235.214844 180.601562 L 234.707031 181.070312 L 234.210938 181.546875 L 233.726562 182.039062 L 233.253906 182.542969 L 232.792969 183.054688 L 232.347656 183.582031 L 231.914062 184.117188 L 231.496094 184.667969 L 231.089844 185.226562 L 230.699219 185.792969 L 230.320312 186.371094 L 229.957031 186.957031 L 229.609375 187.554688 L 229.277344 188.160156 L 228.960938 188.769531 L 228.660156 189.390625 L 228.375 190.019531 L 228.105469 190.65625 L 227.851562 191.296875 L 227.613281 191.945312 L 227.390625 192.597656 L 227.1875 193.257812 L 226.996094 193.921875 L 226.824219 194.589844 L 226.671875 195.261719 L 226.535156 195.9375 L 226.414062 196.617188 L 226.308594 197.296875 L 226.222656 197.984375 L 226.152344 198.667969 L 226.101562 199.355469 L 226.066406 200.046875 L 226.050781 200.734375 L 226.050781 201.425781 L 226.066406 202.117188 L 226.101562 202.804688 L 226.152344 203.492188 L 226.222656 204.179688 L 226.308594 204.863281 L 226.414062 205.546875 L 226.535156 206.226562 L 226.671875 206.902344 L 226.824219 207.574219 L 226.996094 208.242188 L 227.1875 208.90625 L 227.390625 209.5625 L 227.613281 210.21875 L 227.851562 210.867188 L 228.105469 211.507812 L 228.375 212.140625 L 228.660156 212.769531 L 228.960938 213.390625 L 229.277344 214.003906 L 229.609375 214.609375 L 229.957031 215.203125 L 230.320312 215.789062 L 230.699219 216.367188 L 231.089844 216.9375 L 231.496094 217.496094 L 231.914062 218.042969 L 232.347656 218.578125 L 232.792969 219.105469 L 233.253906 219.621094 L 233.726562 220.125 L 234.210938 220.613281 L 234.707031 221.09375 L 235.214844 221.558594 L 235.738281 222.011719 L 236.269531 222.453125 L 236.8125 222.878906 L 237.363281 223.289062 L 237.925781 223.6875 L 238.5 224.074219 L 239.082031 224.441406 L 239.675781 224.796875 L 240.273438 225.136719 L 240.882812 225.460938 L 241.5 225.773438 L 242.125 226.066406 L 242.753906 226.34375 L 243.394531 226.605469 L 244.039062 226.851562 L 244.6875 227.082031 L 245.34375 227.292969 L 246.007812 227.492188 L 246.671875 227.671875 L 247.34375 227.835938 L 248.015625 227.980469 L 248.695312 228.109375 L 249.375 228.222656 L 250.058594 228.316406 L 250.746094 228.394531 L 251.433594 228.457031 L 252.121094 228.5 L 252.808594 228.523438 L 253.5 228.535156 L 254.191406 228.523438 L 254.878906 228.5 L 255.566406 228.457031 L 256.253906 228.394531 L 256.941406 228.316406 L 257.625 228.222656 L 258.304688 228.109375 L 258.984375 227.980469 L 259.65625 227.835938 L 260.328125 227.671875 L 260.992188 227.492188 L 261.65625 227.292969 L 262.3125 227.082031 L 262.960938 226.851562 L 263.605469 226.605469 L 264.246094 226.34375 L 264.875 226.066406 L 265.5 225.773438 L 266.117188 225.460938 L 266.726562 225.136719 L 267.324219 224.796875 L 267.917969 224.441406 L 268.5 224.074219 L 269.074219 223.6875 L 269.636719 223.289062 L 270.1875 222.878906 L 270.730469 222.453125 L 271.261719 222.011719 L 271.785156 221.558594 L 272.292969 221.09375 L 272.789062 220.613281 L 273.273438 220.125 L 273.746094 219.621094 L 274.207031 219.105469 L 274.652344 218.578125 L 275.085938 218.042969 L 275.503906 217.496094 L 275.910156 216.9375 L 276.300781 216.367188 L 276.679688 215.789062 L 277.042969 215.203125 L 277.390625 214.609375 L 277.722656 214.003906 L 278.039062 213.390625 L 278.339844 212.769531 L 278.625 212.140625 L 278.894531 211.507812 L 279.148438 210.867188 L 279.386719 210.21875 L 279.609375 209.5625 L 279.8125 208.90625 L 280.003906 208.242188 L 280.175781 207.574219 L 280.328125 206.902344 L 280.464844 206.226562 L 280.585938 205.546875 L 280.691406 204.863281 L 280.777344 204.179688 L 280.847656 203.492188 L 280.898438 202.804688 L 280.933594 202.117188 L 280.949219 201.425781 L 280.949219 200.734375 L 280.933594 200.046875 L 280.898438 199.355469 L 280.847656 198.667969 L 280.777344 197.984375 L 280.691406 197.296875 L 280.585938 196.617188 L 280.464844 195.9375 L 280.328125 195.261719 L 280.175781 194.589844 L 280.003906 193.921875 L 279.8125 193.257812 L 279.609375 192.597656 L 279.386719 191.945312 L 279.148438 191.296875 L 278.894531 190.65625 L 278.625 190.019531 L 278.339844 189.390625 L 278.039062 188.769531 L 277.722656 188.160156 L 277.390625 187.554688 L 277.042969 186.957031 L 276.679688 186.371094 L 276.300781 185.792969 L 275.910156 185.226562 L 275.503906 184.667969 L 275.085938 184.117188 L 274.652344 183.582031 L 274.207031 183.054688 L 273.746094 182.542969 L 273.273438 182.039062 L 272.789062 181.546875 L 272.292969 181.070312 L 271.785156 180.601562 L 271.261719 180.148438 L 270.730469 179.710938 L 270.1875 179.285156 L 269.636719 178.871094 L 269.074219 178.472656 L 268.5 178.089844 L 267.917969 177.71875 L 267.324219 177.363281 L 266.726562 177.023438 L 266.117188 176.699219 L 265.5 176.390625 L 264.875 176.097656 L 264.246094 175.816406 L 263.605469 175.554688 L 262.960938 175.308594 L 262.3125 175.082031 L 261.65625 174.867188 L 260.992188 174.671875 L 260.328125 174.492188 L 259.65625 174.328125 L 258.984375 174.179688 L 258.304688 174.050781 L 257.625 173.941406 L 256.941406 173.84375 L 256.253906 173.765625 L 255.566406 173.707031 L 254.878906 173.664062 L 254.191406 173.636719 L 253.5 173.628906 " transform="matrix(1,0,0,1,-74,-13)"/>
<path style="fill:none;stroke-width:1;stroke-linecap:square;stroke-linejoin:miter;stroke:rgb(0%,0%,0%);stroke-opacity:1;stroke-miterlimit:3.25;" d="M 272.167969 149.179688 L 272.167969 55.324219 " transform="matrix(1,0,0,1,-74,-13)"/>
<path style="fill:none;stroke-width:1;stroke-linecap:square;stroke-linejoin:miter;stroke:rgb(0%,0%,0%);stroke-opacity:1;stroke-miterlimit:3.25;" d="M 262.832031 34.578125 L 262.832031 169.925781 " transform="matrix(1,0,0,1,-74,-13)"/>
<path style="fill:none;stroke-width:1;stroke-linecap:square;stroke-linejoin:miter;stroke:rgb(0%,0%,0%);stroke-opacity:1;stroke-miterlimit:3.25;" d="M 253.5 173.628906 L 253.5 19.894531 " transform="matrix(1,0,0,1,-74,-13)"/>
<path style="fill:none;stroke-width:1;stroke-linecap:square;stroke-linejoin:miter;stroke:rgb(0%,0%,0%);stroke-opacity:1;stroke-miterlimit:3.25;" d="M 244.167969 34.578125 L 244.167969 169.925781 " transform="matrix(1,0,0,1,-74,-13)"/>
<path style="fill:none;stroke-width:1;stroke-linecap:square;stroke-linejoin:miter;stroke:rgb(0%,0%,0%);stroke-opacity:1;stroke-miterlimit:3.25;" d="M 234.832031 149.179688 L 234.832031 55.324219 " transform="matrix(1,0,0,1,-74,-13)"/>
<path style="fill:none;stroke-width:1;stroke-linecap:square;stroke-linejoin:miter;stroke:rgb(0%,0%,0%);stroke-opacity:1;stroke-miterlimit:3.25;" d="M 209.90625 167.289062 L 120.644531 138.285156 " transform="matrix(1,0,0,1,-74,-13)"/>
<path style="fill:none;stroke-width:1;stroke-linecap:square;stroke-linejoin:miter;stroke:rgb(0%,0%,0%);stroke-opacity:1;stroke-miterlimit:3.25;" d="M 98.03125 140.75 L 226.753906 182.574219 " transform="matrix(1,0,0,1,-74,-13)"/>
<path style="fill:none;stroke-width:1;stroke-linecap:square;stroke-linejoin:miter;stroke:rgb(0%,0%,0%);stroke-opacity:1;stroke-miterlimit:3.25;" d="M 227.390625 192.597656 L 81.179688 145.089844 " transform="matrix(1,0,0,1,-74,-13)"/>
<path style="fill:none;stroke-width:1;stroke-linecap:square;stroke-linejoin:miter;stroke:rgb(0%,0%,0%);stroke-opacity:1;stroke-miterlimit:3.25;" d="M 92.261719 158.503906 L 220.984375 200.328125 " transform="matrix(1,0,0,1,-74,-13)"/>
<path style="fill:none;stroke-width:1;stroke-linecap:square;stroke-linejoin:miter;stroke:rgb(0%,0%,0%);stroke-opacity:1;stroke-miterlimit:3.25;" d="M 198.367188 202.796875 L 109.109375 173.792969 " transform="matrix(1,0,0,1,-74,-13)"/>
<path style="fill:none;stroke-width:1;stroke-linecap:square;stroke-linejoin:miter;stroke:rgb(0%,0%,0%);stroke-opacity:1;stroke-miterlimit:3.25;" d="M 207.890625 232.097656 L 152.722656 308.027344 " transform="matrix(1,0,0,1,-74,-13)"/>
<path style="fill:none;stroke-width:1;stroke-linecap:square;stroke-linejoin:miter;stroke:rgb(0%,0%,0%);stroke-opacity:1;stroke-miterlimit:3.25;" d="M 148.082031 330.296875 L 227.636719 220.800781 " transform="matrix(1,0,0,1,-74,-13)"/>
<path style="fill:none;stroke-width:1;stroke-linecap:square;stroke-linejoin:miter;stroke:rgb(0%,0%,0%);stroke-opacity:1;stroke-miterlimit:3.25;" d="M 237.363281 223.289062 L 147 347.664062 " transform="matrix(1,0,0,1,-74,-13)"/>
<path style="fill:none;stroke-width:1;stroke-linecap:square;stroke-linejoin:miter;stroke:rgb(0%,0%,0%);stroke-opacity:1;stroke-miterlimit:3.25;" d="M 163.183594 341.269531 L 242.738281 231.773438 " transform="matrix(1,0,0,1,-74,-13)"/>
<path style="fill:none;stroke-width:1;stroke-linecap:square;stroke-linejoin:miter;stroke:rgb(0%,0%,0%);stroke-opacity:1;stroke-miterlimit:3.25;" d="M 238.09375 254.042969 L 182.929688 329.972656 " transform="matrix(1,0,0,1,-74,-13)"/>
<path style="fill:none;stroke-width:1;stroke-linecap:square;stroke-linejoin:miter;stroke:rgb(0%,0%,0%);stroke-opacity:1;stroke-miterlimit:3.25;" d="M 268.90625 254.042969 L 324.070312 329.972656 " transform="matrix(1,0,0,1,-74,-13)"/>
<path style="fill:none;stroke-width:1;stroke-linecap:square;stroke-linejoin:miter;stroke:rgb(0%,0%,0%);stroke-opacity:1;stroke-miterlimit:3.25;" d="M 343.816406 341.269531 L 264.261719 231.773438 " transform="matrix(1,0,0,1,-74,-13)"/>
<path style="fill:none;stroke-width:1;stroke-linecap:square;stroke-linejoin:miter;stroke:rgb(0%,0%,0%);stroke-opacity:1;stroke-miterlimit:3.25;" d="M 269.636719 223.289062 L 360 347.664062 " transform="matrix(1,0,0,1,-74,-13)"/>
<path style="fill:none;stroke-width:1;stroke-linecap:square;stroke-linejoin:miter;stroke:rgb(0%,0%,0%);stroke-opacity:1;stroke-miterlimit:3.25;" d="M 358.917969 330.296875 L 279.363281 220.800781 " transform="matrix(1,0,0,1,-74,-13)"/>
<path style="fill:none;stroke-width:1;stroke-linecap:square;stroke-linejoin:miter;stroke:rgb(0%,0%,0%);stroke-opacity:1;stroke-miterlimit:3.25;" d="M 299.109375 232.097656 L 354.277344 308.027344 " transform="matrix(1,0,0,1,-74,-13)"/>
<path style="fill:none;stroke-width:1;stroke-linecap:square;stroke-linejoin:miter;stroke:rgb(0%,0%,0%);stroke-opacity:1;stroke-miterlimit:3.25;" d="M 308.632812 202.796875 L 397.890625 173.792969 " transform="matrix(1,0,0,1,-74,-13)"/>
<path style="fill:none;stroke-width:1;stroke-linecap:square;stroke-linejoin:miter;stroke:rgb(0%,0%,0%);stroke-opacity:1;stroke-miterlimit:3.25;" d="M 414.738281 158.503906 L 286.015625 200.328125 " transform="matrix(1,0,0,1,-74,-13)"/>
<path style="fill:none;stroke-width:1;stroke-linecap:square;stroke-linejoin:miter;stroke:rgb(0%,0%,0%);stroke-opacity:1;stroke-miterlimit:3.25;" d="M 279.609375 192.597656 L 425.820312 145.089844 " transform="matrix(1,0,0,1,-74,-13)"/>
<path style="fill:none;stroke-width:1;stroke-linecap:square;stroke-linejoin:miter;stroke:rgb(0%,0%,0%);stroke-opacity:1;stroke-miterlimit:3.25;" d="M 408.96875 140.75 L 280.246094 182.574219 " transform="matrix(1,0,0,1,-74,-13)"/>
<path style="fill:none;stroke-width:1;stroke-linecap:square;stroke-linejoin:miter;stroke:rgb(0%,0%,0%);stroke-opacity:1;stroke-miterlimit:3.25;" d="M 297.09375 167.289062 L 386.355469 138.285156 " transform="matrix(1,0,0,1,-74,-13)"/>
<path style="fill:none;stroke-width:1;stroke-linecap:square;stroke-linejoin:miter;stroke:rgb(0%,0%,0%);stroke-opacity:1;stroke-miterlimit:3.25;" d="M 253.5 19.894531 L 252.734375 20.957031 L 251.976562 22.027344 L 251.234375 23.105469 L 250.863281 23.648438 L 250.496094 24.191406 L 250.132812 24.738281 L 249.414062 25.832031 L 249.058594 26.382812 L 248.703125 26.9375 L 248.351562 27.488281 L 248.003906 28.046875 L 247.65625 28.601562 L 247.3125 29.160156 L 246.972656 29.71875 L 246.300781 30.84375 L 245.636719 31.976562 L 245.308594 32.542969 L 244.984375 33.113281 L 244.664062 33.683594 L 244.34375 34.257812 L 243.710938 35.40625 L 242.785156 37.140625 L 242.183594 38.304688 L 241.882812 38.890625 L 241.296875 40.0625 L 240.71875 41.242188 L 240.15625 42.421875 L 239.875 43.015625 L 239.601562 43.613281 L 239.328125 44.207031 L 238.789062 45.402344 L 238.003906 47.207031 L 237.75 47.808594 L 237.496094 48.414062 L 237.246094 49.019531 L 236.996094 49.628906 L 236.753906 50.234375 L 236.511719 50.84375 L 236.273438 51.457031 L 236.035156 52.066406 L 235.800781 52.679688 L 235.570312 53.292969 L 235.34375 53.910156 L 235.117188 54.523438 L 234.679688 55.757812 L 234.460938 56.378906 L 234.039062 57.621094 L 233.625 58.863281 L 233.226562 60.113281 L 233.03125 60.738281 L 232.839844 61.367188 L 232.648438 61.992188 L 232.460938 62.621094 L 232.277344 63.25 L 232.097656 63.878906 L 231.917969 64.511719 L 231.742188 65.144531 L 231.570312 65.777344 L 231.234375 67.042969 L 231.074219 67.679688 L 230.914062 68.3125 L 230.753906 68.949219 L 230.601562 69.585938 L 230.449219 70.226562 L 230.300781 70.863281 L 230.011719 72.144531 L 229.738281 73.425781 L 229.605469 74.066406 L 229.472656 74.710938 L 229.347656 75.351562 L 229.222656 75.996094 L 228.980469 77.285156 L 228.867188 77.929688 L 228.753906 78.578125 L 228.644531 79.222656 L 228.539062 79.871094 L 228.4375 80.519531 L 228.335938 81.164062 L 228.238281 81.8125 L 228.144531 82.464844 L 227.964844 83.761719 L 227.878906 84.414062 L 227.796875 85.0625 L 227.71875 85.714844 L 227.644531 86.363281 L 227.570312 87.015625 L 227.5 87.667969 L 227.433594 88.320312 L 227.308594 89.625 L 227.253906 90.277344 L 227.199219 90.933594 L 227.097656 92.238281 L 227.054688 92.894531 L 227.011719 93.546875 L 226.972656 94.203125 L 226.933594 94.855469 L 226.871094 96.167969 L 226.84375 96.820312 L 226.820312 97.476562 L 226.78125 98.789062 L 226.769531 99.441406 L 226.757812 100.097656 L 226.742188 101.410156 L 226.742188 102.71875 L 226.75 104.03125 L 226.773438 105.34375 L 226.789062 106 L 226.808594 106.652344 L 226.855469 107.964844 L 226.886719 108.617188 L 226.949219 109.929688 L 226.988281 110.582031 L 227.027344 111.238281 L 227.070312 111.890625 L 227.117188 112.546875 L 227.167969 113.199219 L 227.222656 113.851562 L 227.277344 114.507812 L 227.335938 115.160156 L 227.398438 115.8125 L 227.53125 117.117188 L 227.601562 117.769531 L 227.675781 118.417969 L 227.832031 119.722656 L 228.003906 121.019531 L 228.09375 121.671875 L 228.183594 122.320312 L 228.378906 123.617188 L 228.480469 124.265625 L 228.585938 124.910156 L 228.691406 125.558594 L 228.804688 126.203125 L 228.917969 126.851562 L 229.03125 127.496094 L 229.273438 128.785156 L 229.402344 129.425781 L 229.53125 130.070312 L 229.660156 130.710938 L 229.796875 131.355469 L 229.933594 131.996094 L 230.074219 132.636719 L 230.21875 133.273438 L 230.363281 133.914062 L 230.515625 134.550781 L 230.667969 135.191406 L 230.824219 135.828125 L 230.980469 136.460938 L 231.308594 137.734375 L 231.644531 139 L 231.820312 139.632812 L 231.996094 140.261719 L 232.175781 140.894531 L 232.355469 141.523438 L 232.730469 142.78125 L 232.921875 143.40625 L 233.113281 144.035156 L 233.511719 145.285156 L 233.714844 145.90625 L 233.921875 146.53125 L 234.128906 147.152344 L 234.339844 147.773438 L 234.554688 148.390625 L 234.773438 149.011719 L 234.992188 149.628906 L 235.214844 150.242188 L 235.441406 150.859375 L 235.902344 152.085938 L 236.136719 152.699219 L 236.375 153.308594 L 236.613281 153.921875 L 236.859375 154.527344 L 237.105469 155.136719 L 237.351562 155.742188 L 237.859375 156.953125 L 238.375 158.15625 L 238.90625 159.359375 L 239.175781 159.957031 L 239.445312 160.550781 L 239.71875 161.148438 L 239.996094 161.742188 L 240.277344 162.335938 L 240.558594 162.925781 L 240.84375 163.515625 L 241.421875 164.695312 L 241.714844 165.28125 L 242.011719 165.863281 L 242.3125 166.449219 L 242.613281 167.03125 L 242.917969 167.609375 L 243.226562 168.191406 L 243.535156 168.765625 L 243.847656 169.34375 L 244.480469 170.492188 L 244.800781 171.0625 L 245.449219 172.203125 L 245.78125 172.769531 L 246.109375 173.335938 L 246.78125 174.460938 " transform="matrix(1,0,0,1,-74,-13)"/>
<path style="fill:none;stroke-width:1;stroke-linecap:square;stroke-linejoin:miter;stroke:rgb(0%,0%,0%);stroke-opacity:1;stroke-miterlimit:3.25;" d="M 260.21875 174.460938 L 260.890625 173.335938 L 261.21875 172.769531 L 261.550781 172.203125 L 262.199219 171.0625 L 262.519531 170.492188 L 263.152344 169.34375 L 263.464844 168.765625 L 263.773438 168.191406 L 264.082031 167.609375 L 264.386719 167.03125 L 264.6875 166.449219 L 264.988281 165.863281 L 265.285156 165.28125 L 265.578125 164.695312 L 266.15625 163.515625 L 266.441406 162.925781 L 266.722656 162.335938 L 267.003906 161.742188 L 267.28125 161.148438 L 267.554688 160.550781 L 267.824219 159.957031 L 268.09375 159.359375 L 268.625 158.15625 L 269.140625 156.953125 L 269.648438 155.742188 L 269.894531 155.136719 L 270.140625 154.527344 L 270.386719 153.921875 L 270.625 153.308594 L 270.863281 152.699219 L 271.097656 152.085938 L 271.558594 150.859375 L 271.785156 150.242188 L 272.007812 149.628906 L 272.226562 149.011719 L 272.445312 148.390625 L 272.660156 147.773438 L 272.871094 147.152344 L 273.078125 146.53125 L 273.285156 145.90625 L 273.488281 145.285156 L 273.886719 144.035156 L 274.078125 143.40625 L 274.269531 142.78125 L 274.644531 141.523438 L 274.824219 140.894531 L 275.003906 140.261719 L 275.179688 139.632812 L 275.355469 139 L 275.691406 137.734375 L 276.019531 136.460938 L 276.175781 135.828125 L 276.332031 135.191406 L 276.484375 134.550781 L 276.636719 133.914062 L 276.78125 133.273438 L 276.925781 132.636719 L 277.066406 131.996094 L 277.203125 131.355469 L 277.339844 130.710938 L 277.46875 130.070312 L 277.597656 129.425781 L 277.726562 128.785156 L 277.96875 127.496094 L 278.082031 126.851562 L 278.195312 126.203125 L 278.308594 125.558594 L 278.414062 124.910156 L 278.519531 124.265625 L 278.621094 123.617188 L 278.816406 122.320312 L 278.90625 121.671875 L 278.996094 121.019531 L 279.167969 119.722656 L 279.324219 118.417969 L 279.398438 117.769531 L 279.46875 117.117188 L 279.601562 115.8125 L 279.664062 115.160156 L 279.722656 114.507812 L 279.777344 113.851562 L 279.832031 113.199219 L 279.882812 112.546875 L 279.929688 111.890625 L 279.972656 111.238281 L 280.011719 110.582031 L 280.050781 109.929688 L 280.113281 108.617188 L 280.144531 107.964844 L 280.191406 106.652344 L 280.210938 106 L 280.226562 105.34375 L 280.25 104.03125 L 280.257812 102.71875 L 280.257812 101.410156 L 280.242188 100.097656 L 280.230469 99.441406 L 280.21875 98.789062 L 280.179688 97.476562 L 280.15625 96.820312 L 280.128906 96.167969 L 280.066406 94.855469 L 280.027344 94.203125 L 279.988281 93.546875 L 279.945312 92.894531 L 279.902344 92.238281 L 279.800781 90.933594 L 279.746094 90.277344 L 279.691406 89.625 L 279.566406 88.320312 L 279.5 87.667969 L 279.429688 87.015625 L 279.355469 86.363281 L 279.28125 85.714844 L 279.203125 85.0625 L 279.121094 84.414062 L 279.035156 83.761719 L 278.855469 82.464844 L 278.761719 81.8125 L 278.664062 81.164062 L 278.5625 80.519531 L 278.460938 79.871094 L 278.355469 79.222656 L 278.246094 78.578125 L 278.132812 77.929688 L 278.019531 77.285156 L 277.777344 75.996094 L 277.652344 75.351562 L 277.527344 74.710938 L 277.394531 74.066406 L 277.261719 73.425781 L 276.988281 72.144531 L 276.699219 70.863281 L 276.550781 70.226562 L 276.398438 69.585938 L 276.246094 68.949219 L 276.085938 68.3125 L 275.925781 67.679688 L 275.765625 67.042969 L 275.429688 65.777344 L 275.257812 65.144531 L 275.082031 64.511719 L 274.902344 63.878906 L 274.722656 63.25 L 274.539062 62.621094 L 274.351562 61.992188 L 274.160156 61.367188 L 273.96875 60.738281 L 273.773438 60.113281 L 273.375 58.863281 L 272.960938 57.621094 L 272.539062 56.378906 L 272.320312 55.757812 L 271.882812 54.523438 L 271.65625 53.910156 L 271.429688 53.292969 L 271.199219 52.679688 L 270.964844 52.066406 L 270.726562 51.457031 L 270.488281 50.84375 L 270.246094 50.234375 L 270.003906 49.628906 L 269.753906 49.019531 L 269.503906 48.414062 L 269.25 47.808594 L 268.996094 47.207031 L 268.210938 45.402344 L 267.671875 44.207031 L 267.398438 43.613281 L 267.125 43.015625 L 266.84375 42.421875 L 266.28125 41.242188 L 265.703125 40.0625 L 265.117188 38.890625 L 264.816406 38.304688 L 264.214844 37.140625 L 263.289062 35.40625 L 262.65625 34.257812 L 262.335938 33.683594 L 262.015625 33.113281 L 261.691406 32.542969 L 261.363281 31.976562 L 260.699219 30.84375 L 260.027344 29.71875 L 259.6875 29.160156 L 259.34375 28.601562 L 258.996094 28.046875 L 258.648438 27.488281 L 258.296875 26.9375 L 257.941406 26.382812 L 257.585938 25.832031 L 256.867188 24.738281 L 256.503906 24.191406 L 256.136719 23.648438 L 255.765625 23.105469 L 255.023438 22.027344 L 254.265625 20.957031 L 253.5 19.894531 " transform="matrix(1,0,0,1,-74,-13)"/>
<path style="fill:none;stroke-width:1;stroke-linecap:square;stroke-linejoin:miter;stroke:rgb(0%,0%,0%);stroke-opacity:1;stroke-miterlimit:3.25;" d="M 81.179688 145.089844 L 81.566406 145.621094 L 81.957031 146.148438 L 82.347656 146.671875 L 82.742188 147.199219 L 83.136719 147.71875 L 83.535156 148.238281 L 83.9375 148.757812 L 84.339844 149.273438 L 84.746094 149.789062 L 85.566406 150.8125 L 86.394531 151.828125 L 86.8125 152.335938 L 87.234375 152.835938 L 87.65625 153.339844 L 88.082031 153.835938 L 88.511719 154.335938 L 88.941406 154.828125 L 89.371094 155.324219 L 89.804688 155.8125 L 90.242188 156.304688 L 91.566406 157.757812 L 92.011719 158.238281 L 92.460938 158.71875 L 92.910156 159.195312 L 93.816406 160.140625 L 94.273438 160.609375 L 94.734375 161.078125 L 95.195312 161.542969 L 95.660156 162.007812 L 96.589844 162.929688 L 97.0625 163.386719 L 98.007812 164.292969 L 98.484375 164.746094 L 98.960938 165.191406 L 99.441406 165.640625 L 100.410156 166.523438 L 100.898438 166.964844 L 101.386719 167.402344 L 101.875 167.835938 L 102.367188 168.269531 L 102.863281 168.699219 L 103.359375 169.125 L 103.859375 169.550781 L 104.359375 169.972656 L 104.863281 170.394531 L 105.367188 170.8125 L 105.875 171.230469 L 106.382812 171.644531 L 107.40625 172.464844 L 107.921875 172.871094 L 108.953125 173.675781 L 109.476562 174.074219 L 109.996094 174.472656 L 110.519531 174.867188 L 111.574219 175.648438 L 112.101562 176.035156 L 112.632812 176.417969 L 113.167969 176.800781 L 114.238281 177.558594 L 114.777344 177.929688 L 115.316406 178.304688 L 116.402344 179.039062 L 116.945312 179.402344 L 117.492188 179.765625 L 118.042969 180.125 L 118.589844 180.480469 L 119.144531 180.835938 L 119.695312 181.1875 L 120.25 181.535156 L 120.808594 181.882812 L 121.367188 182.226562 L 121.925781 182.566406 L 122.488281 182.90625 L 123.050781 183.242188 L 124.183594 183.90625 L 124.75 184.234375 L 125.320312 184.558594 L 126.460938 185.199219 L 127.609375 185.832031 L 128.1875 186.144531 L 128.765625 186.453125 L 129.34375 186.757812 L 129.925781 187.0625 L 130.507812 187.363281 L 131.09375 187.664062 L 132.265625 188.25 L 132.851562 188.539062 L 133.441406 188.828125 L 134.03125 189.113281 L 134.625 189.394531 L 135.8125 189.949219 L 136.410156 190.222656 L 137.003906 190.492188 L 137.605469 190.761719 L 138.203125 191.027344 L 138.804688 191.289062 L 139.40625 191.546875 L 140.011719 191.804688 L 140.613281 192.058594 L 141.21875 192.308594 L 141.828125 192.554688 L 142.433594 192.800781 L 143.042969 193.042969 L 143.65625 193.285156 L 144.265625 193.519531 L 144.878906 193.753906 L 145.492188 193.984375 L 146.105469 194.210938 L 146.722656 194.4375 L 147.339844 194.660156 L 148.574219 195.097656 L 149.816406 195.519531 L 150.4375 195.726562 L 151.0625 195.933594 L 151.683594 196.136719 L 152.308594 196.335938 L 152.933594 196.53125 L 153.5625 196.722656 L 154.1875 196.914062 L 154.816406 197.101562 L 155.445312 197.285156 L 156.078125 197.46875 L 156.707031 197.644531 L 157.339844 197.820312 L 158.605469 198.164062 L 159.238281 198.328125 L 159.875 198.492188 L 160.507812 198.652344 L 161.144531 198.8125 L 161.78125 198.964844 L 162.421875 199.117188 L 163.058594 199.265625 L 163.699219 199.414062 L 164.980469 199.695312 L 165.621094 199.832031 L 166.902344 200.097656 L 167.546875 200.226562 L 168.191406 200.347656 L 168.835938 200.472656 L 170.125 200.707031 L 170.769531 200.820312 L 171.417969 200.929688 L 172.0625 201.035156 L 173.359375 201.238281 L 174.007812 201.335938 L 175.304688 201.523438 L 175.957031 201.609375 L 176.605469 201.695312 L 177.253906 201.777344 L 177.90625 201.859375 L 179.210938 202.007812 L 179.859375 202.078125 L 181.164062 202.210938 L 181.816406 202.269531 L 182.472656 202.328125 L 183.125 202.382812 L 183.777344 202.433594 L 184.433594 202.484375 L 185.085938 202.53125 L 185.738281 202.570312 L 186.394531 202.613281 L 187.050781 202.648438 L 187.703125 202.683594 L 189.015625 202.738281 L 189.667969 202.765625 L 190.980469 202.804688 L 191.636719 202.820312 L 192.289062 202.832031 L 192.945312 202.839844 L 194.257812 202.847656 L 194.914062 202.847656 L 195.570312 202.84375 L 196.222656 202.839844 L 197.535156 202.816406 L 198.191406 202.800781 L 198.847656 202.78125 L 199.5 202.761719 L 200.8125 202.707031 L 201.464844 202.675781 L 202.121094 202.644531 L 202.777344 202.605469 L 203.429688 202.566406 L 204.085938 202.523438 L 204.738281 202.476562 L 205.390625 202.425781 L 206.046875 202.375 L 206.699219 202.320312 L 207.351562 202.261719 L 208.65625 202.136719 L 209.960938 201.996094 L 210.613281 201.921875 L 211.261719 201.847656 L 211.914062 201.765625 L 212.5625 201.683594 L 213.214844 201.597656 L 214.511719 201.417969 L 216.457031 201.125 L 217.105469 201.019531 L 217.75 200.910156 L 218.398438 200.800781 L 219.6875 200.574219 L 220.976562 200.332031 L 221.621094 200.207031 L 222.265625 200.078125 L 223.546875 199.8125 L 224.1875 199.675781 L 224.828125 199.535156 L 226.109375 199.246094 " transform="matrix(1,0,0,1,-74,-13)"/>
<path style="fill:none;stroke-width:1;stroke-linecap:square;stroke-linejoin:miter;stroke:rgb(0%,0%,0%);stroke-opacity:1;stroke-miterlimit:3.25;" d="M 230.261719 186.464844 L 229.828125 185.972656 L 229.398438 185.480469 L 228.960938 184.988281 L 228.523438 184.503906 L 228.082031 184.015625 L 227.640625 183.53125 L 226.75 182.570312 L 226.300781 182.09375 L 225.847656 181.617188 L 225.394531 181.144531 L 224.480469 180.207031 L 224.019531 179.738281 L 223.558594 179.273438 L 223.09375 178.8125 L 222.625 178.351562 L 222.15625 177.894531 L 221.683594 177.4375 L 220.738281 176.53125 L 220.257812 176.082031 L 219.78125 175.636719 L 218.8125 174.746094 L 218.328125 174.308594 L 217.351562 173.433594 L 216.859375 173 L 215.867188 172.140625 L 215.371094 171.714844 L 214.871094 171.289062 L 214.371094 170.867188 L 213.867188 170.449219 L 213.359375 170.03125 L 212.34375 169.203125 L 211.832031 168.792969 L 210.800781 167.980469 L 210.285156 167.578125 L 209.765625 167.179688 L 209.242188 166.78125 L 208.722656 166.386719 L 208.195312 165.992188 L 207.667969 165.601562 L 207.140625 165.214844 L 206.609375 164.828125 L 206.078125 164.445312 L 205.007812 163.6875 L 204.472656 163.3125 L 203.933594 162.9375 L 203.390625 162.566406 L 202.847656 162.199219 L 202.304688 161.835938 L 201.757812 161.472656 L 201.210938 161.113281 L 200.660156 160.753906 L 200.109375 160.398438 L 199.558594 160.046875 L 199.003906 159.695312 L 198.449219 159.347656 L 197.332031 158.660156 L 196.769531 158.320312 L 196.207031 157.984375 L 195.644531 157.652344 L 194.511719 156.988281 L 193.371094 156.339844 L 192.800781 156.019531 L 192.226562 155.699219 L 191.652344 155.386719 L 191.078125 155.070312 L 189.921875 154.453125 L 189.339844 154.148438 L 188.175781 153.546875 L 187.589844 153.25 L 187.003906 152.957031 L 186.417969 152.667969 L 185.828125 152.378906 L 185.238281 152.09375 L 184.644531 151.808594 L 184.054688 151.527344 L 183.460938 151.25 L 182.863281 150.976562 L 181.667969 150.4375 L 181.070312 150.171875 L 180.46875 149.90625 L 179.867188 149.644531 L 179.265625 149.386719 L 178.660156 149.132812 L 177.449219 148.632812 L 176.84375 148.386719 L 176.234375 148.140625 L 175.625 147.902344 L 175.011719 147.664062 L 174.402344 147.429688 L 173.789062 147.195312 L 173.171875 146.96875 L 172.558594 146.742188 L 171.941406 146.515625 L 170.707031 146.078125 L 170.085938 145.863281 L 168.84375 145.441406 L 167.601562 145.035156 L 166.976562 144.832031 L 166.351562 144.636719 L 165.722656 144.441406 L 165.097656 144.25 L 163.839844 143.875 L 163.210938 143.691406 L 162.582031 143.511719 L 161.949219 143.335938 L 160.683594 142.992188 L 160.050781 142.824219 L 159.414062 142.660156 L 158.78125 142.496094 L 158.144531 142.335938 L 157.507812 142.179688 L 156.871094 142.027344 L 156.230469 141.878906 L 155.59375 141.730469 L 154.953125 141.585938 L 154.3125 141.445312 L 153.03125 141.171875 L 152.386719 141.039062 L 151.746094 140.910156 L 151.101562 140.785156 L 149.8125 140.542969 L 149.167969 140.425781 L 147.878906 140.199219 L 146.582031 139.988281 L 145.9375 139.886719 L 145.289062 139.785156 L 144.640625 139.691406 L 143.988281 139.597656 L 143.339844 139.507812 L 142.691406 139.421875 L 142.039062 139.335938 L 141.390625 139.257812 L 140.738281 139.179688 L 140.085938 139.105469 L 139.4375 139.035156 L 138.785156 138.964844 L 138.132812 138.898438 L 137.480469 138.835938 L 136.824219 138.777344 L 135.519531 138.667969 L 134.867188 138.617188 L 134.210938 138.570312 L 133.558594 138.527344 L 132.902344 138.488281 L 132.25 138.449219 L 131.59375 138.414062 L 130.9375 138.382812 L 130.285156 138.351562 L 128.972656 138.304688 L 128.320312 138.285156 L 127.007812 138.253906 L 125.695312 138.238281 L 125.039062 138.234375 L 123.730469 138.234375 L 123.074219 138.238281 L 122.417969 138.246094 L 121.761719 138.257812 L 121.109375 138.273438 L 120.453125 138.289062 L 119.140625 138.335938 L 118.488281 138.359375 L 117.175781 138.421875 L 116.523438 138.457031 L 115.867188 138.496094 L 115.214844 138.539062 L 114.558594 138.585938 L 113.90625 138.632812 L 113.253906 138.683594 L 112.597656 138.738281 L 111.945312 138.792969 L 110.640625 138.917969 L 109.988281 138.984375 L 108.683594 139.125 L 108.03125 139.203125 L 107.382812 139.28125 L 106.730469 139.359375 L 106.082031 139.445312 L 105.433594 139.535156 L 104.78125 139.625 L 103.484375 139.8125 L 102.835938 139.914062 L 102.191406 140.015625 L 101.542969 140.121094 L 100.894531 140.230469 L 99.605469 140.457031 L 98.960938 140.578125 L 98.316406 140.695312 L 97.671875 140.820312 L 97.027344 140.949219 L 96.386719 141.078125 L 95.742188 141.210938 L 94.460938 141.484375 L 93.820312 141.628906 L 93.183594 141.773438 L 92.542969 141.921875 L 91.90625 142.070312 L 90.632812 142.382812 L 89.359375 142.703125 L 88.09375 143.039062 L 87.460938 143.210938 L 86.828125 143.386719 L 86.199219 143.5625 L 85.566406 143.746094 L 84.9375 143.925781 L 84.308594 144.113281 L 83.679688 144.304688 L 83.054688 144.496094 L 82.429688 144.691406 L 81.179688 145.089844 " transform="matrix(1,0,0,1,-74,-13)"/>
<path style="fill:none;stroke-width:1;stroke-linecap:square;stroke-linejoin:miter;stroke:rgb(0%,0%,0%);stroke-opacity:1;stroke-miterlimit:3.25;" d="M 147 347.664062 L 147.625 347.460938 L 148.246094 347.253906 L 149.488281 346.832031 L 150.105469 346.617188 L 150.722656 346.398438 L 151.957031 345.953125 L 152.570312 345.722656 L 153.1875 345.492188 L 153.796875 345.261719 L 154.410156 345.023438 L 155.019531 344.785156 L 156.238281 344.300781 L 156.847656 344.054688 L 157.453125 343.804688 L 158.058594 343.550781 L 159.261719 343.035156 L 160.464844 342.511719 L 161.660156 341.972656 L 162.257812 341.699219 L 162.851562 341.425781 L 163.445312 341.148438 L 164.039062 340.867188 L 165.21875 340.296875 L 165.808594 340.007812 L 166.980469 339.421875 L 167.5625 339.121094 L 168.148438 338.824219 L 168.726562 338.519531 L 169.308594 338.214844 L 169.886719 337.90625 L 170.464844 337.59375 L 171.039062 337.28125 L 171.613281 336.964844 L 172.1875 336.644531 L 172.757812 336.324219 L 173.328125 336 L 174.460938 335.34375 L 175.027344 335.011719 L 175.589844 334.675781 L 176.714844 333.996094 L 177.273438 333.652344 L 177.828125 333.308594 L 178.382812 332.960938 L 179.492188 332.257812 L 180.042969 331.902344 L 180.589844 331.542969 L 181.683594 330.816406 L 182.226562 330.453125 L 182.769531 330.082031 L 183.308594 329.710938 L 184.386719 328.960938 L 184.921875 328.582031 L 185.453125 328.203125 L 186.515625 327.429688 L 187.042969 327.042969 L 187.570312 326.652344 L 188.617188 325.863281 L 189.136719 325.464844 L 189.65625 325.0625 L 190.171875 324.660156 L 190.6875 324.253906 L 191.710938 323.433594 L 192.726562 322.605469 L 193.234375 322.1875 L 193.734375 321.769531 L 194.238281 321.34375 L 194.738281 320.921875 L 195.730469 320.0625 L 196.222656 319.632812 L 196.714844 319.199219 L 197.691406 318.324219 L 198.175781 317.882812 L 198.660156 317.4375 L 199.140625 316.992188 L 199.617188 316.546875 L 200.097656 316.097656 L 201.042969 315.191406 L 201.511719 314.734375 L 202.449219 313.8125 L 202.914062 313.351562 L 203.375 312.886719 L 203.832031 312.417969 L 204.292969 311.949219 L 205.199219 311.003906 L 205.652344 310.527344 L 206.097656 310.046875 L 206.546875 309.566406 L 206.988281 309.085938 L 207.871094 308.117188 L 208.308594 307.625 L 208.742188 307.136719 L 209.175781 306.644531 L 210.035156 305.652344 L 210.460938 305.15625 L 210.882812 304.652344 L 211.304688 304.152344 L 211.722656 303.648438 L 212.140625 303.140625 L 212.554688 302.632812 L 213.375 301.609375 L 214.1875 300.578125 L 214.589844 300.0625 L 214.988281 299.542969 L 215.386719 299.019531 L 215.78125 298.496094 L 216.171875 297.972656 L 216.5625 297.445312 L 216.949219 296.914062 L 217.714844 295.851562 L 218.097656 295.316406 L 218.472656 294.78125 L 218.847656 294.242188 L 219.589844 293.164062 L 219.957031 292.621094 L 220.683594 291.527344 L 221.042969 290.980469 L 221.402344 290.429688 L 221.753906 289.878906 L 222.457031 288.769531 L 222.804688 288.214844 L 223.148438 287.65625 L 223.488281 287.097656 L 223.828125 286.535156 L 224.164062 285.972656 L 224.828125 284.839844 L 225.15625 284.273438 L 225.804688 283.132812 L 226.125 282.5625 L 226.757812 281.414062 L 227.070312 280.835938 L 227.6875 279.679688 L 227.988281 279.097656 L 228.292969 278.515625 L 228.589844 277.933594 L 228.886719 277.347656 L 229.179688 276.761719 L 229.46875 276.171875 L 229.757812 275.585938 L 230.042969 274.992188 L 230.324219 274.402344 L 230.878906 273.214844 L 231.152344 272.617188 L 231.425781 272.023438 L 231.691406 271.421875 L 231.957031 270.824219 L 232.480469 269.621094 L 232.738281 269.019531 L 232.992188 268.414062 L 233.492188 267.203125 L 233.738281 266.59375 L 233.980469 265.984375 L 234.21875 265.375 L 234.457031 264.761719 L 234.691406 264.152344 L 234.921875 263.539062 L 235.152344 262.921875 L 235.375 262.308594 L 235.820312 261.074219 L 236.035156 260.453125 L 236.25 259.835938 L 236.460938 259.214844 L 236.667969 258.59375 L 236.875 257.96875 L 237.078125 257.347656 L 237.277344 256.722656 L 237.472656 256.097656 L 237.664062 255.46875 L 237.855469 254.84375 L 238.230469 253.585938 L 238.410156 252.957031 L 238.589844 252.324219 L 238.765625 251.695312 L 239.109375 250.429688 L 239.277344 249.792969 L 239.441406 249.160156 L 239.601562 248.523438 L 239.914062 247.25 L 240.066406 246.613281 L 240.214844 245.972656 L 240.363281 245.335938 L 240.644531 244.054688 L 240.917969 242.773438 L 241.046875 242.128906 L 241.175781 241.488281 L 241.300781 240.84375 L 241.542969 239.554688 L 241.660156 238.910156 L 241.773438 238.261719 L 241.882812 237.617188 L 241.988281 236.96875 L 242.09375 236.324219 L 242.195312 235.675781 L 242.292969 235.027344 L 242.480469 233.730469 L 242.566406 233.078125 L 242.738281 231.78125 L 242.894531 230.476562 L 242.96875 229.828125 L 243.039062 229.175781 L 243.105469 228.523438 L 243.230469 227.21875 L 243.289062 226.5625 " transform="matrix(1,0,0,1,-74,-13)"/>
<path style="fill:none;stroke-width:1;stroke-linecap:square;stroke-linejoin:miter;stroke:rgb(0%,0%,0%);stroke-opacity:1;stroke-miterlimit:3.25;" d="M 232.417969 218.667969 L 231.816406 218.921875 L 230.613281 219.445312 L 230.015625 219.710938 L 229.417969 219.980469 L 228.222656 220.527344 L 227.035156 221.082031 L 225.265625 221.9375 L 224.09375 222.523438 L 222.921875 223.117188 L 222.339844 223.421875 L 221.183594 224.03125 L 220.605469 224.339844 L 220.027344 224.652344 L 219.453125 224.96875 L 218.878906 225.289062 L 217.738281 225.929688 L 217.167969 226.257812 L 216.601562 226.585938 L 216.035156 226.917969 L 215.472656 227.25 L 214.910156 227.585938 L 214.347656 227.925781 L 213.230469 228.613281 L 212.121094 229.308594 L 211.566406 229.660156 L 211.015625 230.015625 L 210.464844 230.375 L 209.917969 230.734375 L 209.371094 231.097656 L 208.828125 231.460938 L 208.285156 231.828125 L 207.742188 232.199219 L 207.203125 232.570312 L 206.664062 232.945312 L 205.59375 233.703125 L 205.0625 234.085938 L 204.53125 234.472656 L 204.003906 234.859375 L 203.476562 235.25 L 202.429688 236.039062 L 201.90625 236.4375 L 201.386719 236.835938 L 200.871094 237.238281 L 199.839844 238.050781 L 199.328125 238.460938 L 198.820312 238.871094 L 198.3125 239.285156 L 197.804688 239.703125 L 197.300781 240.121094 L 196.796875 240.542969 L 196.296875 240.964844 L 195.800781 241.394531 L 195.304688 241.820312 L 194.808594 242.253906 L 194.316406 242.683594 L 192.851562 243.996094 L 192.367188 244.441406 L 191.886719 244.882812 L 191.40625 245.332031 L 190.453125 246.230469 L 189.980469 246.683594 L 189.507812 247.140625 L 189.039062 247.597656 L 188.570312 248.058594 L 188.105469 248.519531 L 187.644531 248.984375 L 187.183594 249.453125 L 186.269531 250.390625 L 185.816406 250.863281 L 185.363281 251.339844 L 184.914062 251.816406 L 184.464844 252.296875 L 184.019531 252.777344 L 183.136719 253.746094 L 182.261719 254.722656 L 181.828125 255.214844 L 181.398438 255.707031 L 180.96875 256.203125 L 180.542969 256.703125 L 180.117188 257.199219 L 179.695312 257.703125 L 178.859375 258.710938 L 178.441406 259.21875 L 178.03125 259.730469 L 177.621094 260.238281 L 177.210938 260.753906 L 176.808594 261.269531 L 176.402344 261.785156 L 175.605469 262.824219 L 174.816406 263.871094 L 174.035156 264.925781 L 173.652344 265.457031 L 173.265625 265.988281 L 172.507812 267.058594 L 172.132812 267.59375 L 171.757812 268.132812 L 171.386719 268.675781 L 170.652344 269.761719 L 170.289062 270.308594 L 169.570312 271.402344 L 169.214844 271.953125 L 168.511719 273.0625 L 168.164062 273.617188 L 167.476562 274.734375 L 167.136719 275.292969 L 166.464844 276.417969 L 166.132812 276.984375 L 165.804688 277.550781 L 165.476562 278.121094 L 165.152344 278.691406 L 164.832031 279.261719 L 164.511719 279.835938 L 164.195312 280.410156 L 163.882812 280.984375 L 163.265625 282.140625 L 162.65625 283.304688 L 162.0625 284.46875 L 161.765625 285.054688 L 161.476562 285.644531 L 161.1875 286.230469 L 160.898438 286.820312 L 160.617188 287.414062 L 160.335938 288.003906 L 160.058594 288.597656 L 159.785156 289.195312 L 159.511719 289.789062 L 159.242188 290.390625 L 158.710938 291.585938 L 158.449219 292.1875 L 158.191406 292.792969 L 157.9375 293.394531 L 157.683594 294 L 157.433594 294.605469 L 157.1875 295.214844 L 156.703125 296.433594 L 156.464844 297.042969 L 155.996094 298.269531 L 155.765625 298.882812 L 155.539062 299.496094 L 155.09375 300.730469 L 154.875 301.347656 L 154.660156 301.96875 L 154.238281 303.210938 L 154.03125 303.832031 L 153.828125 304.457031 L 153.628906 305.078125 L 153.429688 305.703125 L 153.234375 306.332031 L 153.042969 306.957031 L 152.667969 308.214844 L 152.484375 308.84375 L 152.304688 309.472656 L 151.953125 310.738281 L 151.78125 311.371094 L 151.613281 312.003906 L 151.449219 312.636719 L 151.285156 313.273438 L 150.816406 315.183594 L 150.667969 315.820312 L 150.519531 316.460938 L 150.375 317.097656 L 150.09375 318.378906 L 149.960938 319.019531 L 149.828125 319.664062 L 149.699219 320.304688 L 149.570312 320.949219 L 149.328125 322.238281 L 149.09375 323.527344 L 148.984375 324.175781 L 148.875 324.820312 L 148.769531 325.46875 L 148.566406 326.765625 L 148.378906 328.0625 L 148.199219 329.359375 L 148.117188 330.011719 L 148.035156 330.660156 L 147.957031 331.3125 L 147.882812 331.964844 L 147.8125 332.613281 L 147.742188 333.265625 L 147.675781 333.917969 L 147.613281 334.570312 L 147.554688 335.226562 L 147.496094 335.878906 L 147.394531 337.183594 L 147.34375 337.839844 L 147.300781 338.492188 L 147.257812 339.148438 L 147.222656 339.800781 L 147.1875 340.457031 L 147.152344 341.109375 L 147.097656 342.421875 L 147.074219 343.078125 L 147.054688 343.730469 L 147.023438 345.042969 L 147.007812 346.355469 L 147 347.007812 L 147 347.664062 " transform="matrix(1,0,0,1,-74,-13)"/>
<path style="fill:none;stroke-width:1;stroke-linecap:square;stroke-linejoin:miter;stroke:rgb(0%,0%,0%);stroke-opacity:1;stroke-miterlimit:3.25;" d="M 360 347.664062 L 360 347.007812 L 359.992188 346.355469 L 359.976562 345.042969 L 359.945312 343.730469 L 359.925781 343.078125 L 359.902344 342.421875 L 359.847656 341.109375 L 359.8125 340.457031 L 359.777344 339.800781 L 359.742188 339.148438 L 359.699219 338.492188 L 359.65625 337.839844 L 359.605469 337.183594 L 359.503906 335.878906 L 359.445312 335.226562 L 359.386719 334.570312 L 359.324219 333.917969 L 359.257812 333.265625 L 359.1875 332.613281 L 359.117188 331.964844 L 359.042969 331.3125 L 358.964844 330.660156 L 358.882812 330.011719 L 358.800781 329.359375 L 358.621094 328.0625 L 358.433594 326.765625 L 358.230469 325.46875 L 358.125 324.820312 L 358.015625 324.175781 L 357.90625 323.527344 L 357.671875 322.238281 L 357.429688 320.949219 L 357.300781 320.304688 L 357.171875 319.664062 L 357.039062 319.019531 L 356.90625 318.378906 L 356.625 317.097656 L 356.480469 316.460938 L 356.332031 315.820312 L 356.183594 315.183594 L 355.714844 313.273438 L 355.550781 312.636719 L 355.386719 312.003906 L 355.21875 311.371094 L 355.046875 310.738281 L 354.695312 309.472656 L 354.515625 308.84375 L 354.332031 308.214844 L 353.957031 306.957031 L 353.765625 306.332031 L 353.570312 305.703125 L 353.371094 305.078125 L 353.171875 304.457031 L 352.96875 303.832031 L 352.761719 303.210938 L 352.339844 301.96875 L 352.125 301.347656 L 351.90625 300.730469 L 351.460938 299.496094 L 351.234375 298.882812 L 351.003906 298.269531 L 350.535156 297.042969 L 350.296875 296.433594 L 349.8125 295.214844 L 349.566406 294.605469 L 349.316406 294 L 349.0625 293.394531 L 348.808594 292.792969 L 348.550781 292.1875 L 348.289062 291.585938 L 347.757812 290.390625 L 347.488281 289.789062 L 347.214844 289.195312 L 346.941406 288.597656 L 346.664062 288.003906 L 346.382812 287.414062 L 346.101562 286.820312 L 345.8125 286.230469 L 345.523438 285.644531 L 345.234375 285.054688 L 344.9375 284.46875 L 344.34375 283.304688 L 343.734375 282.140625 L 343.117188 280.984375 L 342.804688 280.410156 L 342.488281 279.835938 L 342.167969 279.261719 L 341.847656 278.691406 L 341.523438 278.121094 L 341.195312 277.550781 L 340.867188 276.984375 L 340.535156 276.417969 L 339.863281 275.292969 L 339.523438 274.734375 L 338.835938 273.617188 L 338.488281 273.0625 L 337.785156 271.953125 L 337.429688 271.402344 L 336.710938 270.308594 L 336.347656 269.761719 L 335.613281 268.675781 L 335.242188 268.132812 L 334.867188 267.59375 L 334.492188 267.058594 L 333.734375 265.988281 L 333.347656 265.457031 L 332.964844 264.925781 L 332.183594 263.871094 L 331.394531 262.824219 L 330.597656 261.785156 L 330.191406 261.269531 L 329.789062 260.753906 L 329.378906 260.238281 L 328.96875 259.730469 L 328.558594 259.21875 L 328.140625 258.710938 L 327.304688 257.703125 L 326.882812 257.199219 L 326.457031 256.703125 L 326.03125 256.203125 L 325.601562 255.707031 L 325.171875 255.214844 L 324.738281 254.722656 L 323.863281 253.746094 L 322.980469 252.777344 L 322.535156 252.296875 L 322.085938 251.816406 L 321.636719 251.339844 L 321.183594 250.863281 L 320.730469 250.390625 L 319.816406 249.453125 L 319.355469 248.984375 L 318.894531 248.519531 L 318.429688 248.058594 L 317.960938 247.597656 L 317.492188 247.140625 L 317.019531 246.683594 L 316.546875 246.230469 L 315.59375 245.332031 L 315.113281 244.882812 L 314.632812 244.441406 L 314.148438 243.996094 L 312.683594 242.683594 L 312.191406 242.253906 L 311.695312 241.820312 L 311.199219 241.394531 L 310.703125 240.964844 L 310.203125 240.542969 L 309.699219 240.121094 L 309.195312 239.703125 L 308.6875 239.285156 L 308.179688 238.871094 L 307.671875 238.460938 L 307.160156 238.050781 L 306.128906 237.238281 L 305.613281 236.835938 L 305.09375 236.4375 L 304.570312 236.039062 L 303.523438 235.25 L 302.996094 234.859375 L 302.46875 234.472656 L 301.9375 234.085938 L 301.40625 233.703125 L 300.335938 232.945312 L 299.796875 232.570312 L 299.257812 232.199219 L 298.714844 231.828125 L 298.171875 231.460938 L 297.628906 231.097656 L 297.082031 230.734375 L 296.535156 230.375 L 295.984375 230.015625 L 295.433594 229.660156 L 294.878906 229.308594 L 293.769531 228.613281 L 292.652344 227.925781 L 292.089844 227.585938 L 291.527344 227.25 L 290.964844 226.917969 L 290.398438 226.585938 L 289.832031 226.257812 L 289.261719 225.929688 L 288.121094 225.289062 L 287.546875 224.96875 L 286.972656 224.652344 L 286.394531 224.339844 L 285.816406 224.03125 L 284.660156 223.421875 L 284.078125 223.117188 L 282.90625 222.523438 L 281.734375 221.9375 L 279.964844 221.082031 L 278.777344 220.527344 L 277.582031 219.980469 L 276.984375 219.710938 L 276.386719 219.445312 L 275.183594 218.921875 L 274.582031 218.667969 " transform="matrix(1,0,0,1,-74,-13)"/>
<path style="fill:none;stroke-width:1;stroke-linecap:square;stroke-linejoin:miter;stroke:rgb(0%,0%,0%);stroke-opacity:1;stroke-miterlimit:3.25;" d="M 263.710938 226.5625 L 263.769531 227.21875 L 263.894531 228.523438 L 263.960938 229.175781 L 264.03125 229.828125 L 264.105469 230.476562 L 264.261719 231.78125 L 264.433594 233.078125 L 264.519531 233.730469 L 264.707031 235.027344 L 264.804688 235.675781 L 264.90625 236.324219 L 265.011719 236.96875 L 265.117188 237.617188 L 265.226562 238.261719 L 265.339844 238.910156 L 265.457031 239.554688 L 265.699219 240.84375 L 265.824219 241.488281 L 265.953125 242.128906 L 266.082031 242.773438 L 266.355469 244.054688 L 266.636719 245.335938 L 266.785156 245.972656 L 266.933594 246.613281 L 267.085938 247.25 L 267.398438 248.523438 L 267.558594 249.160156 L 267.722656 249.792969 L 267.890625 250.429688 L 268.234375 251.695312 L 268.410156 252.324219 L 268.589844 252.957031 L 268.769531 253.585938 L 269.144531 254.84375 L 269.335938 255.46875 L 269.527344 256.097656 L 269.722656 256.722656 L 269.921875 257.347656 L 270.125 257.96875 L 270.332031 258.59375 L 270.539062 259.214844 L 270.75 259.835938 L 270.964844 260.453125 L 271.179688 261.074219 L 271.625 262.308594 L 271.847656 262.921875 L 272.078125 263.539062 L 272.308594 264.152344 L 272.542969 264.761719 L 272.78125 265.375 L 273.019531 265.984375 L 273.261719 266.59375 L 273.507812 267.203125 L 274.007812 268.414062 L 274.261719 269.019531 L 274.519531 269.621094 L 275.042969 270.824219 L 275.308594 271.421875 L 275.574219 272.023438 L 275.847656 272.617188 L 276.121094 273.214844 L 276.675781 274.402344 L 276.957031 274.992188 L 277.242188 275.585938 L 277.53125 276.171875 L 277.820312 276.761719 L 278.113281 277.347656 L 278.410156 277.933594 L 278.707031 278.515625 L 279.011719 279.097656 L 279.3125 279.679688 L 279.929688 280.835938 L 280.242188 281.414062 L 280.875 282.5625 L 281.195312 283.132812 L 281.84375 284.273438 L 282.171875 284.839844 L 282.835938 285.972656 L 283.171875 286.535156 L 283.511719 287.097656 L 283.851562 287.65625 L 284.195312 288.214844 L 284.542969 288.769531 L 285.246094 289.878906 L 285.597656 290.429688 L 285.957031 290.980469 L 286.316406 291.527344 L 287.042969 292.621094 L 287.410156 293.164062 L 288.152344 294.242188 L 288.527344 294.78125 L 288.902344 295.316406 L 289.285156 295.851562 L 290.050781 296.914062 L 290.4375 297.445312 L 290.828125 297.972656 L 291.21875 298.496094 L 291.613281 299.019531 L 292.011719 299.542969 L 292.410156 300.0625 L 292.8125 300.578125 L 293.625 301.609375 L 294.445312 302.632812 L 294.859375 303.140625 L 295.277344 303.648438 L 295.695312 304.152344 L 296.117188 304.652344 L 296.539062 305.15625 L 296.964844 305.652344 L 297.824219 306.644531 L 298.257812 307.136719 L 298.691406 307.625 L 299.128906 308.117188 L 300.011719 309.085938 L 300.453125 309.566406 L 300.902344 310.046875 L 301.347656 310.527344 L 301.800781 311.003906 L 302.707031 311.949219 L 303.167969 312.417969 L 303.625 312.886719 L 304.085938 313.351562 L 304.550781 313.8125 L 305.488281 314.734375 L 305.957031 315.191406 L 306.902344 316.097656 L 307.382812 316.546875 L 307.859375 316.992188 L 308.339844 317.4375 L 308.824219 317.882812 L 309.308594 318.324219 L 310.285156 319.199219 L 310.777344 319.632812 L 311.269531 320.0625 L 312.261719 320.921875 L 312.761719 321.34375 L 313.265625 321.769531 L 313.765625 322.1875 L 314.273438 322.605469 L 315.289062 323.433594 L 316.3125 324.253906 L 316.828125 324.660156 L 317.34375 325.0625 L 317.863281 325.464844 L 318.382812 325.863281 L 319.429688 326.652344 L 319.957031 327.042969 L 320.484375 327.429688 L 321.546875 328.203125 L 322.078125 328.582031 L 322.613281 328.960938 L 323.691406 329.710938 L 324.230469 330.082031 L 324.773438 330.453125 L 325.316406 330.816406 L 326.410156 331.542969 L 326.957031 331.902344 L 327.507812 332.257812 L 328.617188 332.960938 L 329.171875 333.308594 L 329.726562 333.652344 L 330.285156 333.996094 L 331.410156 334.675781 L 331.972656 335.011719 L 332.539062 335.34375 L 333.671875 336 L 334.242188 336.324219 L 334.8125 336.644531 L 335.386719 336.964844 L 335.960938 337.28125 L 336.535156 337.59375 L 337.113281 337.90625 L 337.691406 338.214844 L 338.273438 338.519531 L 338.851562 338.824219 L 339.4375 339.121094 L 340.019531 339.421875 L 341.191406 340.007812 L 341.78125 340.296875 L 342.960938 340.867188 L 343.554688 341.148438 L 344.148438 341.425781 L 344.742188 341.699219 L 345.339844 341.972656 L 346.535156 342.511719 L 347.738281 343.035156 L 348.941406 343.550781 L 349.546875 343.804688 L 350.152344 344.054688 L 350.761719 344.300781 L 351.980469 344.785156 L 352.589844 345.023438 L 353.203125 345.261719 L 353.8125 345.492188 L 354.429688 345.722656 L 355.042969 345.953125 L 356.277344 346.398438 L 356.894531 346.617188 L 357.511719 346.832031 L 358.753906 347.253906 L 359.375 347.460938 L 360 347.664062 " transform="matrix(1,0,0,1,-74,-13)"/>
<path style="fill:none;stroke-width:1;stroke-linecap:square;stroke-linejoin:miter;stroke:rgb(0%,0%,0%);stroke-opacity:1;stroke-miterlimit:3.25;" d="M 425.820312 145.089844 L 424.570312 144.691406 L 423.945312 144.496094 L 423.320312 144.304688 L 422.691406 144.113281 L 422.0625 143.925781 L 421.433594 143.746094 L 420.800781 143.5625 L 420.171875 143.386719 L 419.539062 143.210938 L 418.90625 143.039062 L 417.640625 142.703125 L 416.367188 142.382812 L 415.09375 142.070312 L 414.457031 141.921875 L 413.816406 141.773438 L 413.179688 141.628906 L 412.539062 141.484375 L 411.257812 141.210938 L 410.613281 141.078125 L 409.972656 140.949219 L 409.328125 140.820312 L 408.683594 140.695312 L 408.039062 140.578125 L 407.394531 140.457031 L 406.105469 140.230469 L 405.457031 140.121094 L 404.808594 140.015625 L 404.164062 139.914062 L 403.515625 139.8125 L 402.21875 139.625 L 401.566406 139.535156 L 400.917969 139.445312 L 400.269531 139.359375 L 399.617188 139.28125 L 398.96875 139.203125 L 398.316406 139.125 L 397.011719 138.984375 L 396.359375 138.917969 L 395.054688 138.792969 L 394.402344 138.738281 L 393.746094 138.683594 L 393.09375 138.632812 L 392.441406 138.585938 L 391.785156 138.539062 L 391.132812 138.496094 L 390.476562 138.457031 L 389.824219 138.421875 L 388.511719 138.359375 L 387.859375 138.335938 L 386.546875 138.289062 L 385.890625 138.273438 L 385.238281 138.257812 L 384.582031 138.246094 L 383.925781 138.238281 L 383.269531 138.234375 L 381.960938 138.234375 L 381.304688 138.238281 L 379.992188 138.253906 L 378.679688 138.285156 L 378.027344 138.304688 L 376.714844 138.351562 L 376.0625 138.382812 L 375.40625 138.414062 L 374.75 138.449219 L 374.097656 138.488281 L 373.441406 138.527344 L 372.789062 138.570312 L 372.132812 138.617188 L 371.480469 138.667969 L 370.175781 138.777344 L 369.519531 138.835938 L 368.867188 138.898438 L 368.214844 138.964844 L 367.5625 139.035156 L 366.914062 139.105469 L 366.261719 139.179688 L 365.609375 139.257812 L 364.960938 139.335938 L 364.308594 139.421875 L 363.660156 139.507812 L 363.011719 139.597656 L 362.359375 139.691406 L 361.710938 139.785156 L 361.0625 139.886719 L 360.417969 139.988281 L 359.121094 140.199219 L 357.832031 140.425781 L 357.1875 140.542969 L 355.898438 140.785156 L 355.253906 140.910156 L 354.613281 141.039062 L 353.96875 141.171875 L 352.6875 141.445312 L 352.046875 141.585938 L 351.40625 141.730469 L 350.769531 141.878906 L 350.128906 142.027344 L 349.492188 142.179688 L 348.855469 142.335938 L 348.21875 142.496094 L 347.585938 142.660156 L 346.949219 142.824219 L 346.316406 142.992188 L 345.050781 143.335938 L 344.417969 143.511719 L 343.789062 143.691406 L 343.160156 143.875 L 341.902344 144.25 L 341.277344 144.441406 L 340.648438 144.636719 L 340.023438 144.832031 L 339.398438 145.035156 L 338.15625 145.441406 L 336.914062 145.863281 L 336.292969 146.078125 L 335.058594 146.515625 L 334.441406 146.742188 L 333.828125 146.96875 L 333.210938 147.195312 L 332.597656 147.429688 L 331.988281 147.664062 L 331.375 147.902344 L 330.765625 148.140625 L 330.15625 148.386719 L 329.550781 148.632812 L 328.339844 149.132812 L 327.734375 149.386719 L 327.132812 149.644531 L 326.53125 149.90625 L 325.929688 150.171875 L 325.332031 150.4375 L 324.136719 150.976562 L 323.539062 151.25 L 322.945312 151.527344 L 322.355469 151.808594 L 321.761719 152.09375 L 321.171875 152.378906 L 320.582031 152.667969 L 319.996094 152.957031 L 319.410156 153.25 L 318.824219 153.546875 L 317.660156 154.148438 L 317.078125 154.453125 L 315.921875 155.070312 L 315.347656 155.386719 L 314.773438 155.699219 L 314.199219 156.019531 L 313.628906 156.339844 L 312.488281 156.988281 L 311.355469 157.652344 L 310.792969 157.984375 L 310.230469 158.320312 L 309.667969 158.660156 L 308.550781 159.347656 L 307.996094 159.695312 L 307.441406 160.046875 L 306.890625 160.398438 L 306.339844 160.753906 L 305.789062 161.113281 L 305.242188 161.472656 L 304.695312 161.835938 L 304.152344 162.199219 L 303.609375 162.566406 L 303.066406 162.9375 L 302.527344 163.3125 L 301.992188 163.6875 L 300.921875 164.445312 L 300.390625 164.828125 L 299.859375 165.214844 L 299.332031 165.601562 L 298.804688 165.992188 L 298.277344 166.386719 L 297.757812 166.78125 L 297.234375 167.179688 L 296.714844 167.578125 L 296.199219 167.980469 L 295.167969 168.792969 L 294.65625 169.203125 L 293.640625 170.03125 L 293.132812 170.449219 L 292.628906 170.867188 L 292.128906 171.289062 L 291.628906 171.714844 L 291.132812 172.140625 L 290.140625 173 L 289.648438 173.433594 L 288.671875 174.308594 L 288.1875 174.746094 L 287.21875 175.636719 L 286.742188 176.082031 L 286.261719 176.53125 L 285.316406 177.4375 L 284.84375 177.894531 L 284.375 178.351562 L 283.90625 178.8125 L 283.441406 179.273438 L 282.980469 179.738281 L 282.519531 180.207031 L 281.605469 181.144531 L 281.152344 181.617188 L 280.699219 182.09375 L 280.25 182.570312 L 279.359375 183.53125 L 278.917969 184.015625 L 278.476562 184.503906 L 278.039062 184.988281 L 277.601562 185.480469 L 277.171875 185.972656 L 276.738281 186.464844 " transform="matrix(1,0,0,1,-74,-13)"/>
<path style="fill:none;stroke-width:1;stroke-linecap:square;stroke-linejoin:miter;stroke:rgb(0%,0%,0%);stroke-opacity:1;stroke-miterlimit:3.25;" d="M 280.890625 199.246094 L 282.171875 199.535156 L 282.8125 199.675781 L 283.453125 199.8125 L 284.734375 200.078125 L 285.378906 200.207031 L 286.023438 200.332031 L 287.3125 200.574219 L 288.601562 200.800781 L 289.25 200.910156 L 289.894531 201.019531 L 290.542969 201.125 L 292.488281 201.417969 L 293.785156 201.597656 L 294.4375 201.683594 L 295.085938 201.765625 L 295.738281 201.847656 L 296.386719 201.921875 L 297.039062 201.996094 L 298.34375 202.136719 L 299.648438 202.261719 L 300.300781 202.320312 L 300.953125 202.375 L 301.609375 202.425781 L 302.261719 202.476562 L 302.914062 202.523438 L 303.570312 202.566406 L 304.222656 202.605469 L 304.878906 202.644531 L 305.535156 202.675781 L 306.1875 202.707031 L 307.5 202.761719 L 308.152344 202.78125 L 308.808594 202.800781 L 309.464844 202.816406 L 310.777344 202.839844 L 311.429688 202.84375 L 312.085938 202.847656 L 312.742188 202.847656 L 314.054688 202.839844 L 314.710938 202.832031 L 315.363281 202.820312 L 316.019531 202.804688 L 317.332031 202.765625 L 317.984375 202.738281 L 319.296875 202.683594 L 319.949219 202.648438 L 320.605469 202.613281 L 321.261719 202.570312 L 321.914062 202.53125 L 322.566406 202.484375 L 323.222656 202.433594 L 323.875 202.382812 L 324.527344 202.328125 L 325.183594 202.269531 L 325.835938 202.210938 L 327.140625 202.078125 L 327.789062 202.007812 L 329.09375 201.859375 L 329.746094 201.777344 L 330.394531 201.695312 L 331.042969 201.609375 L 331.695312 201.523438 L 332.992188 201.335938 L 333.640625 201.238281 L 334.9375 201.035156 L 335.582031 200.929688 L 336.230469 200.820312 L 336.875 200.707031 L 338.164062 200.472656 L 338.808594 200.347656 L 339.453125 200.226562 L 340.097656 200.097656 L 341.378906 199.832031 L 342.019531 199.695312 L 343.300781 199.414062 L 343.941406 199.265625 L 344.578125 199.117188 L 345.21875 198.964844 L 345.855469 198.8125 L 346.492188 198.652344 L 347.125 198.492188 L 347.761719 198.328125 L 348.394531 198.164062 L 349.660156 197.820312 L 350.292969 197.644531 L 350.921875 197.46875 L 351.554688 197.285156 L 352.183594 197.101562 L 352.8125 196.914062 L 353.4375 196.722656 L 354.066406 196.53125 L 354.691406 196.335938 L 355.316406 196.136719 L 355.9375 195.933594 L 356.5625 195.726562 L 357.183594 195.519531 L 358.425781 195.097656 L 359.660156 194.660156 L 360.277344 194.4375 L 360.894531 194.210938 L 361.507812 193.984375 L 362.121094 193.753906 L 362.734375 193.519531 L 363.34375 193.285156 L 363.957031 193.042969 L 364.566406 192.800781 L 365.171875 192.554688 L 365.78125 192.308594 L 366.386719 192.058594 L 366.988281 191.804688 L 367.59375 191.546875 L 368.195312 191.289062 L 368.796875 191.027344 L 369.394531 190.761719 L 369.996094 190.492188 L 370.589844 190.222656 L 371.1875 189.949219 L 372.375 189.394531 L 372.96875 189.113281 L 373.558594 188.828125 L 374.148438 188.539062 L 374.734375 188.25 L 375.90625 187.664062 L 376.492188 187.363281 L 377.074219 187.0625 L 377.65625 186.757812 L 378.234375 186.453125 L 378.8125 186.144531 L 379.390625 185.832031 L 380.539062 185.199219 L 381.679688 184.558594 L 382.25 184.234375 L 382.816406 183.90625 L 383.949219 183.242188 L 384.511719 182.90625 L 385.074219 182.566406 L 385.632812 182.226562 L 386.191406 181.882812 L 386.75 181.535156 L 387.304688 181.1875 L 387.855469 180.835938 L 388.410156 180.480469 L 388.957031 180.125 L 389.507812 179.765625 L 390.054688 179.402344 L 390.597656 179.039062 L 391.683594 178.304688 L 392.222656 177.929688 L 392.761719 177.558594 L 393.832031 176.800781 L 394.367188 176.417969 L 394.898438 176.035156 L 395.425781 175.648438 L 396.480469 174.867188 L 397.003906 174.472656 L 397.523438 174.074219 L 398.046875 173.675781 L 399.078125 172.871094 L 399.59375 172.464844 L 400.617188 171.644531 L 401.125 171.230469 L 401.632812 170.8125 L 402.136719 170.394531 L 402.640625 169.972656 L 403.140625 169.550781 L 403.640625 169.125 L 404.136719 168.699219 L 404.632812 168.269531 L 405.125 167.835938 L 405.613281 167.402344 L 406.101562 166.964844 L 406.589844 166.523438 L 407.558594 165.640625 L 408.039062 165.191406 L 408.515625 164.746094 L 408.992188 164.292969 L 409.9375 163.386719 L 410.410156 162.929688 L 411.339844 162.007812 L 411.804688 161.542969 L 412.265625 161.078125 L 412.726562 160.609375 L 413.183594 160.140625 L 414.089844 159.195312 L 414.539062 158.71875 L 414.988281 158.238281 L 415.433594 157.757812 L 416.757812 156.304688 L 417.195312 155.8125 L 417.628906 155.324219 L 418.058594 154.828125 L 418.488281 154.335938 L 418.917969 153.835938 L 419.34375 153.339844 L 419.765625 152.835938 L 420.1875 152.335938 L 420.605469 151.828125 L 421.433594 150.8125 L 422.253906 149.789062 L 422.660156 149.273438 L 423.0625 148.757812 L 423.464844 148.238281 L 423.863281 147.71875 L 424.257812 147.199219 L 424.652344 146.671875 L 425.042969 146.148438 L 425.433594 145.621094 L 425.820312 145.089844 " transform="matrix(1,0,0,1,-74,-13)"/>
</g>
</svg>
