<?xml version="1.0" encoding="UTF-8"?>
<svg xmlns="http://www.w3.org/2000/svg" xmlns:xlink="http://www.w3.org/1999/xlink" width="343pt" height="338pt" viewBox="0 0 343 338" version="1.1">
<g id="surface459">
<path style="fill:none;stroke-width:1.6;stroke-linecap:square;stroke-linejoin:miter;stroke:rgb(36.84082%,50.67749%,70.979309%);stroke-opacity:1;stroke-miterlimit:3.25;" d="M 260.847656 188.179688 L 260.890625 187.878906 L 260.921875 187.574219 L 260.945312 187.269531 L 260.957031 186.960938 L 260.960938 186.652344 L 260.953125 186.339844 L 260.933594 186.03125 L 260.902344 185.714844 L 260.863281 185.402344 L 260.8125 185.089844 L 260.75 184.777344 L 260.679688 184.464844 L 260.597656 184.152344 L 260.503906 183.84375 L 260.398438 183.535156 L 260.28125 183.230469 L 260.15625 182.929688 L 260.019531 182.628906 L 259.871094 182.332031 L 259.710938 182.039062 L 259.542969 181.75 L 259.363281 181.464844 L 258.976562 180.914062 L 258.765625 180.644531 L 258.546875 180.382812 L 258.320312 180.125 L 258.082031 179.875 L 257.832031 179.632812 L 257.574219 179.398438 L 257.035156 178.953125 L 256.753906 178.738281 L 256.460938 178.539062 L 256.164062 178.34375 L 255.855469 178.160156 L 255.542969 177.984375 L 255.222656 177.820312 L 254.894531 177.664062 L 254.5625 177.523438 L 254.222656 177.386719 L 253.875 177.265625 L 253.523438 177.152344 L 253.167969 177.054688 L 252.808594 176.964844 L 252.445312 176.886719 L 252.074219 176.820312 L 251.703125 176.769531 L 251.328125 176.726562 L 250.949219 176.699219 L 250.570312 176.683594 L 250.1875 176.679688 L 249.804688 176.691406 L 249.417969 176.710938 L 249.03125 176.746094 L 248.648438 176.796875 L 248.261719 176.859375 L 247.878906 176.933594 L 247.496094 177.019531 L 247.113281 177.121094 L 246.734375 177.234375 L 246.355469 177.359375 L 245.984375 177.5 L 245.613281 177.652344 L 245.214844 177.832031 L 244.824219 178.027344 L 244.4375 178.238281 L 244.054688 178.460938 L 243.683594 178.699219 L 243.316406 178.953125 L 242.605469 179.503906 L 242.265625 179.796875 L 241.933594 180.105469 L 241.613281 180.425781 L 241.300781 180.761719 L 241.003906 181.105469 L 240.714844 181.464844 L 240.171875 182.214844 L 239.921875 182.605469 L 239.683594 183.007812 L 239.460938 183.421875 L 239.25 183.84375 L 239.054688 184.273438 L 238.875 184.710938 L 238.710938 185.160156 L 238.558594 185.613281 L 238.425781 186.074219 L 238.308594 186.539062 L 238.207031 187.015625 L 238.121094 187.492188 L 238.054688 187.972656 L 238.003906 188.460938 L 237.972656 188.949219 L 237.957031 189.441406 L 237.957031 189.9375 L 237.980469 190.433594 L 238.015625 190.929688 L 238.074219 191.425781 L 238.148438 191.921875 L 238.238281 192.417969 L 238.351562 192.910156 L 238.480469 193.402344 L 238.625 193.890625 L 238.789062 194.375 L 238.972656 194.851562 L 239.171875 195.328125 L 239.390625 195.796875 L 239.625 196.257812 L 240.148438 197.15625 L 240.433594 197.597656 L 240.738281 198.027344 L 241.054688 198.445312 L 241.390625 198.855469 L 241.742188 199.253906 L 242.109375 199.640625 L 242.886719 200.375 L 243.296875 200.726562 L 243.71875 201.0625 L 244.15625 201.382812 L 244.605469 201.6875 L 245.066406 201.976562 L 245.539062 202.253906 L 246.023438 202.511719 L 246.519531 202.753906 L 246.992188 202.964844 L 247.472656 203.160156 L 247.957031 203.335938 L 248.453125 203.5 L 248.953125 203.648438 L 249.460938 203.78125 L 249.976562 203.894531 L 250.492188 203.992188 L 251.015625 204.070312 L 251.542969 204.132812 L 252.074219 204.179688 L 252.605469 204.207031 L 253.140625 204.21875 L 253.679688 204.207031 L 254.214844 204.183594 L 254.753906 204.136719 L 255.292969 204.078125 L 255.828125 203.996094 L 256.363281 203.898438 L 256.898438 203.78125 L 257.429688 203.644531 L 257.957031 203.492188 L 258.480469 203.320312 L 259 203.132812 L 259.515625 202.925781 L 260.023438 202.699219 L 260.527344 202.457031 L 261.019531 202.199219 L 261.507812 201.921875 L 261.988281 201.628906 L 262.921875 200.988281 L 263.371094 200.648438 L 263.8125 200.289062 L 264.242188 199.914062 L 264.660156 199.523438 L 265.066406 199.117188 L 265.460938 198.699219 L 266.207031 197.820312 L 266.558594 197.359375 L 266.898438 196.886719 L 267.222656 196.398438 L 267.527344 195.902344 L 267.820312 195.394531 L 268.09375 194.875 L 268.351562 194.34375 L 268.59375 193.804688 L 268.816406 193.257812 L 269.023438 192.699219 L 269.210938 192.132812 L 269.378906 191.5625 L 269.527344 190.980469 L 269.660156 190.394531 L 269.773438 189.804688 L 269.863281 189.207031 L 269.9375 188.605469 L 269.988281 188 L 270.019531 187.394531 L 270.03125 186.785156 L 270.023438 186.171875 L 269.996094 185.558594 L 269.945312 184.945312 L 269.875 184.335938 L 269.785156 183.734375 L 269.679688 183.136719 L 269.550781 182.542969 L 269.402344 181.949219 L 269.234375 181.359375 L 269.046875 180.777344 L 268.839844 180.199219 L 268.613281 179.625 L 268.367188 179.058594 L 268.101562 178.496094 L 267.820312 177.945312 L 267.515625 177.398438 L 267.195312 176.863281 L 266.855469 176.339844 L 266.125 175.316406 L 265.734375 174.824219 L 265.324219 174.339844 L 264.902344 173.871094 L 264.460938 173.414062 L 264.003906 172.972656 L 263.53125 172.542969 L 262.542969 171.730469 L 262.027344 171.347656 L 261.496094 170.980469 L 260.953125 170.628906 L 260.398438 170.296875 L 259.832031 169.980469 L 259.253906 169.679688 L 258.664062 169.402344 L 258.066406 169.140625 L 257.457031 168.898438 L 256.839844 168.679688 L 256.214844 168.476562 L 255.578125 168.292969 L 254.9375 168.132812 L 254.292969 167.992188 L 253.636719 167.871094 L 252.980469 167.773438 L 252.316406 167.695312 L 251.652344 167.640625 L 250.980469 167.605469 L 250.308594 167.59375 L 249.636719 167.605469 L 248.964844 167.636719 L 248.289062 167.6875 L 247.617188 167.765625 L 246.941406 167.863281 L 246.273438 167.984375 L 245.605469 168.125 L 244.941406 168.292969 L 244.28125 168.476562 L 243.628906 168.6875 L 242.980469 168.917969 L 242.335938 169.167969 L 241.699219 169.441406 L 241.074219 169.738281 L 240.453125 170.054688 L 239.84375 170.390625 L 239.246094 170.746094 L 238.65625 171.125 L 237.515625 171.9375 L 236.914062 172.410156 L 236.332031 172.90625 L 235.765625 173.425781 L 235.214844 173.964844 L 234.6875 174.523438 L 234.171875 175.101562 L 233.210938 176.3125 L 232.757812 176.949219 L 232.328125 177.597656 L 231.921875 178.265625 L 231.539062 178.949219 L 231.179688 179.648438 L 230.84375 180.359375 L 230.53125 181.082031 L 230.246094 181.820312 L 229.984375 182.570312 L 229.75 183.328125 L 229.542969 184.097656 L 229.363281 184.875 L 229.207031 185.660156 L 229.082031 186.449219 L 228.984375 187.246094 L 228.914062 188.050781 L 228.871094 188.855469 L 228.859375 189.664062 L 228.875 190.472656 L 228.917969 191.285156 L 228.992188 192.09375 L 229.09375 192.90625 L 229.226562 193.710938 L 229.386719 194.515625 L 229.574219 195.316406 L 229.789062 196.109375 L 230.035156 196.898438 L 230.308594 197.675781 L 230.613281 198.449219 L 230.941406 199.210938 L 231.300781 199.960938 L 231.683594 200.703125 L 232.097656 201.429688 L 232.535156 202.144531 L 232.996094 202.84375 L 233.488281 203.527344 L 234 204.195312 L 234.539062 204.84375 L 235.6875 206.089844 L 236.296875 206.683594 L 236.929688 207.257812 L 237.582031 207.808594 L 238.253906 208.335938 L 238.945312 208.84375 L 239.65625 209.324219 L 241.132812 210.214844 L 241.894531 210.621094 L 242.671875 211 L 243.464844 211.355469 L 244.273438 211.679688 L 245.09375 211.976562 L 245.925781 212.246094 L 246.765625 212.484375 L 247.617188 212.695312 L 248.421875 212.863281 L 249.230469 213.007812 L 250.042969 213.125 L 250.863281 213.214844 L 251.6875 213.277344 L 252.515625 213.3125 L 253.347656 213.320312 L 254.175781 213.300781 L 255.007812 213.253906 L 255.839844 213.179688 L 256.667969 213.074219 L 257.496094 212.945312 L 258.320312 212.789062 L 259.140625 212.605469 L 259.957031 212.390625 L 260.765625 212.152344 L 261.566406 211.886719 L 262.363281 211.59375 L 263.148438 211.273438 L 263.925781 210.925781 L 264.691406 210.554688 L 265.445312 210.15625 L 266.917969 209.28125 L 267.632812 208.808594 L 268.332031 208.3125 L 269.019531 207.789062 L 269.6875 207.246094 L 270.339844 206.675781 L 270.972656 206.085938 L 272.183594 204.84375 L 272.757812 204.1875 L 273.3125 203.515625 L 273.84375 202.824219 L 274.355469 202.113281 L 274.84375 201.382812 L 275.308594 200.636719 L 276.164062 199.097656 L 276.554688 198.304688 L 276.917969 197.5 L 277.257812 196.679688 L 277.566406 195.851562 L 277.851562 195.007812 L 278.109375 194.152344 L 278.339844 193.292969 L 278.539062 192.421875 L 278.710938 191.542969 L 278.855469 190.65625 L 278.972656 189.765625 L 279.054688 188.867188 L 279.113281 187.96875 L 279.136719 187.0625 L 279.132812 186.160156 L 279.101562 185.253906 L 279.035156 184.347656 L 278.941406 183.441406 L 278.820312 182.539062 L 278.664062 181.640625 L 278.480469 180.742188 L 278.265625 179.851562 L 278.023438 178.96875 L 277.75 178.089844 L 277.421875 177.148438 L 277.058594 176.214844 L 276.664062 175.296875 L 276.234375 174.390625 L 275.769531 173.496094 L 275.273438 172.621094 L 274.1875 170.917969 L 273.597656 170.09375 L 272.976562 169.292969 L 272.328125 168.511719 L 271.648438 167.75 L 270.941406 167.015625 L 270.210938 166.304688 L 268.664062 164.957031 L 267.855469 164.324219 L 267.019531 163.722656 L 266.164062 163.144531 L 265.285156 162.601562 L 264.390625 162.085938 L 263.472656 161.605469 L 262.535156 161.15625 L 261.582031 160.738281 L 260.613281 160.355469 L 259.628906 160.003906 L 258.632812 159.691406 L 257.621094 159.410156 L 256.601562 159.167969 L 255.570312 158.960938 L 254.53125 158.789062 L 253.484375 158.65625 L 252.429688 158.5625 L 251.375 158.503906 L 250.3125 158.484375 L 249.25 158.5 L 248.1875 158.554688 L 247.125 158.648438 L 246.066406 158.78125 L 245.007812 158.953125 L 243.957031 159.160156 L 242.914062 159.40625 L 241.875 159.6875 L 240.847656 160.007812 L 239.828125 160.367188 L 238.820312 160.761719 L 237.828125 161.195312 L 236.851562 161.660156 L 235.886719 162.164062 L 234.941406 162.703125 L 234.011719 163.273438 L 233.105469 163.882812 L 232.214844 164.519531 L 231.351562 165.191406 L 229.691406 166.628906 L 228.898438 167.394531 L 228.132812 168.1875 L 227.394531 169.011719 L 226.683594 169.859375 L 226.003906 170.734375 L 225.351562 171.636719 L 224.148438 173.507812 L 223.605469 174.460938 L 223.097656 175.433594 L 222.621094 176.421875 L 222.179688 177.433594 L 221.773438 178.457031 L 221.402344 179.496094 L 221.066406 180.550781 L 220.769531 181.621094 L 220.507812 182.699219 L 220.285156 183.789062 L 220.101562 184.886719 L 219.953125 185.992188 L 219.84375 187.101562 L 219.777344 188.21875 L 219.746094 189.339844 L 219.757812 190.460938 L 219.804688 191.585938 L 219.894531 192.707031 L 220.023438 193.828125 L 220.1875 194.945312 L 220.394531 196.058594 L 220.640625 197.164062 L 220.925781 198.261719 L 221.25 199.351562 L 221.613281 200.429688 L 222.015625 201.5 L 222.453125 202.554688 L 222.929688 203.59375 L 223.445312 204.617188 L 223.992188 205.625 L 225.199219 207.582031 L 225.855469 208.53125 L 226.546875 209.457031 L 227.269531 210.359375 L 228.023438 211.234375 L 228.808594 212.089844 L 229.625 212.914062 L 231.347656 214.480469 L 232.253906 215.21875 L 233.183594 215.925781 L 234.140625 216.601562 L 235.121094 217.242188 L 236.125 217.851562 L 237.148438 218.425781 L 238.199219 218.964844 L 239.265625 219.464844 L 240.351562 219.929688 L 241.453125 220.355469 L 242.574219 220.746094 L 243.707031 221.097656 L 244.855469 221.40625 L 246.011719 221.675781 L 247.183594 221.90625 L 248.359375 222.09375 L 249.546875 222.242188 L 250.738281 222.347656 L 251.9375 222.414062 L 253.136719 222.433594 L 254.339844 222.414062 L 255.542969 222.351562 L 256.742188 222.25 L 257.941406 222.101562 L 259.058594 221.925781 L 260.167969 221.714844 L 261.269531 221.46875 L 262.367188 221.183594 L 263.457031 220.863281 L 264.535156 220.507812 L 265.601562 220.113281 L 266.65625 219.6875 L 267.699219 219.222656 L 268.730469 218.726562 L 269.742188 218.195312 L 270.738281 217.632812 L 271.71875 217.035156 L 272.675781 216.402344 L 274.535156 215.046875 L 275.433594 214.324219 L 276.308594 213.570312 L 277.15625 212.785156 L 277.984375 211.972656 L 278.78125 211.132812 L 279.554688 210.265625 L 281.015625 208.457031 L 281.703125 207.515625 L 282.359375 206.550781 L 282.984375 205.5625 L 283.574219 204.554688 L 284.136719 203.523438 L 284.664062 202.476562 L 285.15625 201.410156 L 285.617188 200.328125 L 286.039062 199.230469 L 286.429688 198.117188 L 286.78125 196.988281 L 287.097656 195.847656 L 287.375 194.699219 L 287.613281 193.535156 L 287.816406 192.367188 L 287.984375 191.191406 L 288.109375 190.007812 L 288.195312 188.816406 L 288.246094 187.625 L 288.253906 186.429688 L 288.226562 185.234375 L 288.15625 184.039062 L 288.050781 182.84375 L 287.902344 181.652344 L 287.71875 180.464844 L 287.492188 179.28125 L 287.226562 178.105469 L 286.925781 176.9375 L 286.582031 175.777344 L 286.203125 174.628906 L 285.785156 173.488281 L 285.332031 172.363281 L 284.839844 171.253906 L 284.3125 170.160156 L 283.746094 169.078125 L 283.144531 168.019531 L 282.507812 166.976562 L 281.835938 165.953125 L 280.394531 163.972656 L 279.558594 162.9375 L 278.683594 161.933594 L 277.773438 160.957031 L 276.828125 160.011719 L 275.847656 159.101562 L 274.832031 158.226562 L 272.710938 156.578125 L 271.605469 155.8125 L 270.472656 155.082031 L 269.3125 154.394531 L 268.128906 153.746094 L 266.917969 153.140625 L 265.6875 152.574219 L 264.433594 152.054688 L 263.164062 151.578125 L 261.871094 151.144531 L 260.566406 150.761719 L 259.246094 150.417969 L 257.914062 150.125 L 256.566406 149.878906 L 255.210938 149.679688 L 253.851562 149.53125 L 252.480469 149.425781 L 251.105469 149.375 L 249.730469 149.367188 L 248.351562 149.410156 L 246.976562 149.503906 L 245.601562 149.644531 L 244.230469 149.835938 L 242.867188 150.074219 L 241.507812 150.363281 L 240.160156 150.699219 L 238.824219 151.085938 L 237.5 151.515625 L 236.191406 151.996094 L 234.894531 152.523438 L 233.621094 153.09375 L 232.363281 153.710938 L 231.128906 154.375 L 229.917969 155.082031 L 228.726562 155.832031 L 227.566406 156.628906 L 226.429688 157.464844 L 225.324219 158.339844 L 224.25 159.253906 L 222.195312 161.203125 L 221.21875 162.234375 L 220.277344 163.296875 L 219.375 164.394531 L 218.511719 165.527344 L 217.6875 166.691406 L 216.902344 167.882812 L 215.460938 170.351562 L 214.804688 171.628906 L 214.195312 172.925781 L 213.628906 174.246094 L 213.109375 175.585938 L 212.640625 176.949219 L 212.21875 178.328125 L 211.84375 179.722656 L 211.515625 181.128906 L 211.257812 182.457031 L 211.042969 183.792969 L 210.875 185.136719 L 210.746094 186.488281 L 210.664062 187.839844 L 210.628906 189.199219 L 210.636719 190.5625 L 210.691406 191.921875 L 210.789062 193.28125 L 210.933594 194.640625 L 211.121094 195.996094 L 211.355469 197.34375 L 211.632812 198.683594 L 211.957031 200.019531 L 212.324219 201.34375 L 212.734375 202.652344 L 213.191406 203.953125 L 213.691406 205.238281 L 214.230469 206.507812 L 214.816406 207.757812 L 215.441406 208.992188 L 216.109375 210.207031 L 217.5625 212.566406 L 218.351562 213.710938 L 219.175781 214.832031 L 220.039062 215.925781 L 220.9375 216.988281 L 221.875 218.027344 L 222.84375 219.03125 L 224.882812 220.945312 L 225.953125 221.855469 L 227.054688 222.726562 L 228.183594 223.5625 L 229.339844 224.363281 L 230.523438 225.125 L 231.734375 225.847656 L 234.226562 227.175781 L 235.507812 227.777344 L 236.808594 228.335938 L 238.128906 228.851562 L 239.46875 229.324219 L 240.824219 229.753906 L 242.191406 230.136719 L 243.578125 230.476562 L 244.972656 230.769531 L 246.378906 231.019531 L 247.792969 231.21875 L 249.214844 231.375 L 250.644531 231.480469 L 252.074219 231.542969 L 253.511719 231.554688 L 254.949219 231.519531 L 256.382812 231.4375 L 257.816406 231.304688 L 259.25 231.128906 L 260.675781 230.902344 L 262.09375 230.628906 L 263.503906 230.3125 L 264.90625 229.945312 L 266.292969 229.53125 L 267.671875 229.070312 L 269.007812 228.574219 L 270.328125 228.035156 L 271.628906 227.453125 L 272.914062 226.832031 L 274.179688 226.164062 L 275.425781 225.457031 L 277.847656 223.917969 L 279.019531 223.089844 L 280.167969 222.222656 L 281.285156 221.316406 L 282.378906 220.375 L 283.4375 219.398438 L 284.46875 218.386719 L 286.429688 216.261719 L 287.359375 215.148438 L 288.253906 214.007812 L 289.109375 212.835938 L 289.929688 211.636719 L 290.710938 210.40625 L 291.453125 209.15625 L 292.8125 206.574219 L 293.433594 205.25 L 294.007812 203.90625 L 294.539062 202.542969 L 295.027344 201.160156 L 295.472656 199.761719 L 295.871094 198.347656 L 296.222656 196.921875 L 296.527344 195.484375 L 296.789062 194.03125 L 297 192.574219 L 297.167969 191.105469 L 297.285156 189.632812 L 297.355469 188.15625 L 297.378906 186.675781 L 297.351562 185.195312 L 297.277344 183.710938 L 297.15625 182.230469 L 296.984375 180.753906 L 296.765625 179.28125 L 296.5 177.816406 L 296.1875 176.359375 L 295.824219 174.910156 L 295.417969 173.472656 L 294.960938 172.046875 L 294.460938 170.636719 L 293.910156 169.242188 L 293.316406 167.863281 L 292.679688 166.503906 L 291.996094 165.164062 L 291.269531 163.847656 L 289.6875 161.28125 L 288.832031 160.035156 L 287.9375 158.820312 L 287.003906 157.628906 L 286.027344 156.46875 L 285.015625 155.339844 L 283.964844 154.246094 L 281.761719 152.15625 L 280.507812 151.082031 L 279.214844 150.050781 L 277.882812 149.066406 L 276.519531 148.125 L 275.121094 147.234375 L 273.691406 146.390625 L 272.230469 145.597656 L 270.742188 144.855469 L 269.222656 144.167969 L 267.683594 143.53125 L 266.117188 142.949219 L 264.53125 142.421875 L 262.929688 141.949219 L 261.304688 141.535156 L 259.667969 141.175781 L 258.015625 140.875 L 256.355469 140.632812 L 254.683594 140.445312 L 253.003906 140.320312 L 251.320312 140.253906 L 249.632812 140.246094 L 247.945312 140.300781 L 246.257812 140.410156 L 244.574219 140.582031 L 242.894531 140.8125 L 241.222656 141.101562 L 239.5625 141.453125 L 237.910156 141.859375 L 236.273438 142.324219 L 234.652344 142.847656 L 233.050781 143.429688 L 231.46875 144.066406 L 229.90625 144.761719 L 228.367188 145.511719 L 226.855469 146.316406 L 225.371094 147.171875 L 223.917969 148.082031 L 222.492188 149.042969 L 219.746094 151.117188 L 218.429688 152.226562 L 217.148438 153.382812 L 215.910156 154.585938 L 214.710938 155.832031 L 213.558594 157.121094 L 212.449219 158.453125 L 210.371094 161.230469 L 209.40625 162.675781 L 208.488281 164.152344 L 207.625 165.664062 L 206.816406 167.207031 L 206.058594 168.78125 L 205.355469 170.378906 L 204.710938 172.003906 L 204.125 173.652344 L 203.59375 175.320312 L 203.121094 177.011719 L 202.707031 178.71875 L 202.355469 180.4375 L 202.0625 182.171875 L 201.832031 183.917969 L 201.660156 185.671875 L 201.550781 187.433594 L 201.507812 189.082031 L 201.515625 190.730469 L 201.578125 192.382812 L 201.695312 194.03125 L 201.867188 195.675781 L 202.09375 197.316406 L 202.375 198.949219 L 202.707031 200.574219 L 203.097656 202.191406 L 203.535156 203.792969 L 204.03125 205.382812 L 204.574219 206.953125 L 205.171875 208.511719 L 205.824219 210.046875 L 206.523438 211.5625 L 207.273438 213.058594 L 208.070312 214.527344 L 208.917969 215.972656 L 209.816406 217.386719 L 210.757812 218.777344 L 211.746094 220.132812 L 212.78125 221.457031 L 214.980469 224.007812 L 216.140625 225.226562 L 217.34375 226.410156 L 218.585938 227.554688 L 219.867188 228.660156 L 221.183594 229.71875 L 222.535156 230.738281 L 225.34375 232.644531 L 226.792969 233.527344 L 228.273438 234.363281 L 229.78125 235.152344 L 231.3125 235.890625 L 232.875 236.578125 L 234.457031 237.214844 L 236.058594 237.800781 L 237.683594 238.332031 L 239.324219 238.8125 L 240.984375 239.238281 L 242.65625 239.613281 L 244.34375 239.929688 L 246.039062 240.191406 L 247.746094 240.394531 L 249.457031 240.546875 L 251.175781 240.640625 L 252.898438 240.675781 L 254.625 240.65625 L 256.347656 240.582031 L 258.070312 240.449219 L 259.792969 240.257812 L 261.503906 240.011719 L 263.210938 239.710938 L 264.90625 239.351562 L 266.59375 238.9375 L 268.265625 238.46875 L 269.921875 237.941406 L 271.5625 237.363281 L 273.1875 236.730469 L 274.789062 236.042969 L 276.367188 235.300781 L 277.925781 234.507812 L 279.582031 233.589844 L 281.207031 232.613281 L 282.800781 231.582031 L 284.355469 230.488281 L 285.871094 229.339844 L 287.351562 228.136719 L 290.175781 225.578125 L 291.519531 224.21875 L 292.8125 222.816406 L 294.0625 221.363281 L 295.257812 219.867188 L 296.398438 218.328125 L 297.484375 216.746094 L 299.492188 213.46875 L 300.410156 211.777344 L 301.265625 210.050781 L 302.058594 208.292969 L 302.789062 206.507812 L 303.460938 204.695312 L 304.0625 202.859375 L 304.601562 201 L 305.078125 199.125 L 305.484375 197.226562 L 305.820312 195.316406 L 306.09375 193.390625 L 306.296875 191.457031 L 306.429688 189.515625 L 306.492188 187.570312 L 306.488281 185.621094 L 306.414062 183.667969 L 306.269531 181.71875 L 306.058594 179.777344 L 305.777344 177.839844 L 305.421875 175.910156 L 305.003906 173.996094 L 304.515625 172.09375 L 303.957031 170.210938 L 303.335938 168.347656 L 302.644531 166.503906 L 301.886719 164.683594 L 301.066406 162.890625 L 300.179688 161.125 L 299.230469 159.394531 L 298.222656 157.691406 L 296.019531 154.402344 L 294.828125 152.816406 L 293.582031 151.269531 L 292.28125 149.769531 L 290.925781 148.3125 L 289.515625 146.90625 L 288.058594 145.550781 L 284.996094 142.992188 L 283.398438 141.792969 L 281.757812 140.652344 L 280.074219 139.570312 L 278.351562 138.546875 L 276.589844 137.585938 L 274.796875 136.683594 L 272.972656 135.847656 L 271.113281 135.078125 L 269.261719 134.382812 L 267.386719 133.757812 L 265.492188 133.191406 L 263.574219 132.695312 L 261.636719 132.265625 L 259.6875 131.902344 L 257.722656 131.609375 L 255.746094 131.382812 L 253.761719 131.226562 L 251.773438 131.140625 L 249.78125 131.121094 L 247.785156 131.175781 L 245.792969 131.296875 L 243.800781 131.488281 L 241.820312 131.75 L 239.84375 132.078125 L 237.878906 132.480469 L 235.929688 132.949219 L 233.996094 133.484375 L 232.078125 134.089844 L 230.183594 134.761719 L 228.3125 135.5 L 226.464844 136.300781 L 224.644531 137.171875 L 222.855469 138.105469 L 221.097656 139.097656 L 219.371094 140.15625 L 217.6875 141.273438 L 216.039062 142.453125 L 214.429688 143.6875 L 211.34375 146.324219 L 209.871094 147.722656 L 208.449219 149.175781 L 207.074219 150.679688 L 205.75 152.230469 L 204.484375 153.824219 L 203.269531 155.46875 L 201.015625 158.878906 L 199.980469 160.644531 L 199.003906 162.445312 L 198.09375 164.28125 L 197.242188 166.148438 L 196.460938 168.046875 L 195.742188 169.972656 L 195.089844 171.925781 L 194.507812 173.898438 L 193.996094 175.894531 L 193.550781 177.910156 L 193.179688 179.9375 L 192.875 181.984375 L 192.644531 184.039062 L 192.484375 186.101562 L 192.398438 188.171875 L 192.382812 190.242188 L 192.441406 192.316406 L 192.570312 194.390625 L 192.773438 196.460938 L 193.050781 198.519531 L 193.398438 200.574219 L 193.816406 202.613281 L 194.304688 204.640625 L 194.867188 206.652344 L 195.457031 208.511719 L 196.101562 210.347656 L 196.8125 212.167969 L 197.578125 213.964844 L 198.40625 215.734375 L 199.289062 217.480469 L 201.226562 220.882812 L 202.28125 222.535156 L 203.386719 224.15625 L 204.546875 225.738281 L 205.761719 227.285156 L 207.023438 228.792969 L 208.335938 230.261719 L 211.101562 233.066406 L 212.554688 234.402344 L 214.050781 235.6875 L 215.589844 236.929688 L 217.171875 238.117188 L 218.789062 239.257812 L 220.445312 240.34375 L 223.863281 242.351562 L 225.625 243.273438 L 227.414062 244.136719 L 229.230469 244.941406 L 231.074219 245.691406 L 232.945312 246.375 L 234.835938 247.003906 L 236.75 247.566406 L 238.679688 248.070312 L 240.628906 248.507812 L 242.59375 248.886719 L 244.570312 249.195312 L 246.554688 249.445312 L 248.550781 249.628906 L 250.550781 249.746094 L 252.558594 249.796875 L 254.566406 249.785156 L 256.574219 249.707031 L 258.582031 249.5625 L 260.582031 249.355469 L 262.578125 249.082031 L 264.566406 248.742188 L 266.542969 248.335938 L 268.507812 247.867188 L 270.457031 247.332031 L 272.386719 246.738281 L 274.300781 246.078125 L 276.191406 245.355469 L 278.0625 244.570312 L 279.90625 243.726562 L 281.722656 242.820312 L 285.265625 240.828125 L 286.988281 239.75 L 288.679688 238.609375 L 290.332031 237.417969 L 291.945312 236.171875 L 293.515625 234.871094 L 295.046875 233.519531 L 297.976562 230.667969 L 299.488281 229.039062 L 300.941406 227.359375 L 302.335938 225.628906 L 303.667969 223.84375 L 304.9375 222.015625 L 306.144531 220.140625 L 308.355469 216.265625 L 309.359375 214.269531 L 310.292969 212.238281 L 311.15625 210.171875 L 311.941406 208.074219 L 312.65625 205.949219 L 313.296875 203.796875 L 313.859375 201.625 L 314.347656 199.429688 L 314.753906 197.21875 L 315.085938 194.992188 L 315.339844 192.753906 L 315.511719 190.507812 L 315.605469 188.253906 L 315.621094 185.992188 L 315.554688 183.734375 L 315.410156 181.476562 L 315.183594 179.226562 L 314.878906 176.980469 L 314.492188 174.746094 L 314.027344 172.527344 L 313.484375 170.320312 L 312.867188 168.132812 L 312.167969 165.96875 L 311.394531 163.828125 L 310.542969 161.714844 L 309.617188 159.632812 L 308.617188 157.582031 L 307.546875 155.566406 L 306.402344 153.585938 L 305.191406 151.648438 L 302.558594 147.902344 L 301.140625 146.097656 L 299.664062 144.34375 L 298.121094 142.640625 L 296.519531 140.992188 L 294.859375 139.402344 L 293.140625 137.871094 L 289.546875 134.988281 L 287.671875 133.640625 L 285.75 132.363281 L 283.785156 131.152344 L 281.773438 130.007812 L 279.722656 128.9375 L 277.632812 127.9375 L 275.507812 127.011719 L 273.347656 126.164062 L 271.160156 125.386719 L 268.945312 124.691406 L 266.703125 124.074219 L 264.4375 123.535156 L 262.15625 123.074219 L 259.855469 122.695312 L 257.542969 122.398438 L 255.21875 122.179688 L 253.042969 122.054688 L 250.859375 122 L 248.675781 122.015625 L 246.492188 122.105469 L 244.3125 122.265625 L 242.136719 122.496094 L 239.96875 122.800781 L 237.808594 123.179688 L 235.664062 123.625 L 233.53125 124.144531 L 231.414062 124.734375 L 229.316406 125.390625 L 227.242188 126.121094 L 225.191406 126.917969 L 223.164062 127.78125 L 221.167969 128.710938 L 219.203125 129.710938 L 217.265625 130.773438 L 215.367188 131.898438 L 213.503906 133.089844 L 211.679688 134.339844 L 209.898438 135.652344 L 206.460938 138.453125 L 204.8125 139.9375 L 203.214844 141.476562 L 201.667969 143.066406 L 200.167969 144.710938 L 198.726562 146.40625 L 197.339844 148.148438 L 194.738281 151.765625 L 193.527344 153.640625 L 192.378906 155.554688 L 191.292969 157.507812 L 190.273438 159.496094 L 189.316406 161.515625 L 188.425781 163.570312 L 187.605469 165.65625 L 186.851562 167.765625 L 186.167969 169.902344 L 185.554688 172.0625 L 185.011719 174.242188 L 184.542969 176.441406 L 184.144531 178.65625 L 183.820312 180.882812 L 183.566406 183.125 L 183.390625 185.371094 L 183.285156 187.625 L 183.257812 189.882812 L 183.300781 192.140625 L 183.421875 194.398438 L 183.617188 196.652344 L 183.886719 198.902344 L 184.230469 201.140625 L 184.648438 203.367188 L 185.136719 205.582031 L 185.703125 207.78125 L 186.339844 209.964844 L 187.046875 212.125 L 187.828125 214.261719 L 188.679688 216.371094 L 189.597656 218.457031 L 190.589844 220.511719 L 191.738281 222.699219 L 192.964844 224.847656 L 194.269531 226.953125 L 195.648438 229.011719 L 197.101562 231.019531 L 198.628906 232.976562 L 201.886719 236.726562 L 203.617188 238.511719 L 205.410156 240.234375 L 207.265625 241.898438 L 209.183594 243.492188 L 211.15625 245.019531 L 213.183594 246.472656 L 217.390625 249.167969 L 219.566406 250.402344 L 221.789062 251.558594 L 224.050781 252.632812 L 226.351562 253.628906 L 228.691406 254.542969 L 231.058594 255.371094 L 233.460938 256.117188 L 235.886719 256.777344 L 238.335938 257.351562 L 240.808594 257.835938 L 243.296875 258.230469 L 245.800781 258.539062 L 248.3125 258.757812 L 250.835938 258.886719 L 253.363281 258.925781 L 255.894531 258.875 L 258.421875 258.730469 L 260.945312 258.5 L 263.457031 258.175781 L 265.960938 257.761719 L 268.449219 257.257812 L 270.921875 256.667969 L 273.371094 255.988281 L 275.796875 255.21875 L 278.195312 254.367188 L 280.5625 253.425781 L 282.898438 252.398438 L 285.195312 251.292969 L 287.453125 250.101562 L 289.671875 248.828125 L 293.964844 246.046875 L 296.039062 244.542969 L 298.054688 242.964844 L 300.019531 241.3125 L 301.921875 239.589844 L 303.765625 237.800781 L 305.542969 235.945312 L 308.898438 232.042969 L 310.46875 230.003906 L 311.96875 227.90625 L 313.394531 225.753906 L 314.742188 223.554688 L 316.011719 221.304688 L 317.199219 219.007812 L 318.308594 216.671875 L 319.332031 214.292969 L 320.253906 211.921875 L 321.09375 209.519531 L 321.847656 207.085938 L 322.515625 204.625 L 323.101562 202.144531 L 323.597656 199.640625 L 324.003906 197.117188 L 324.324219 194.582031 L 324.554688 192.035156 L 324.695312 189.480469 L 324.75 186.917969 L 324.710938 184.355469 L 324.582031 181.792969 L 324.363281 179.234375 L 324.054688 176.6875 L 323.65625 174.148438 L 323.171875 171.621094 L 322.597656 169.113281 L 321.933594 166.625 L 321.179688 164.15625 L 320.34375 161.71875 L 319.421875 159.308594 L 318.414062 156.929688 L 317.320312 154.585938 L 316.148438 152.28125 L 314.890625 150.019531 L 313.558594 147.800781 L 312.144531 145.625 L 310.65625 143.503906 L 309.09375 141.429688 L 305.75 137.453125 L 303.972656 135.554688 L 302.128906 133.71875 L 300.222656 131.945312 L 298.25 130.238281 L 296.222656 128.601562 L 294.132812 127.035156 L 289.796875 124.125 L 287.550781 122.785156 L 285.257812 121.523438 L 282.921875 120.34375 L 280.542969 119.242188 L 278.125 118.226562 L 275.671875 117.296875 L 273.183594 116.449219 L 270.667969 115.691406 L 268.128906 115.023438 L 265.5625 114.441406 L 262.972656 113.953125 L 260.371094 113.550781 L 257.75 113.246094 L 255.121094 113.027344 L 252.484375 112.902344 L 249.84375 112.871094 L 247.199219 112.933594 L 244.558594 113.089844 L 241.921875 113.335938 L 239.296875 113.675781 L 236.679688 114.105469 L 234.082031 114.628906 L 231.5 115.246094 L 228.9375 115.949219 L 226.570312 116.6875 L 224.226562 117.507812 L 221.914062 118.398438 L 219.625 119.367188 L 217.371094 120.414062 L 215.148438 121.53125 L 210.816406 123.988281 L 208.710938 125.320312 L 206.648438 126.722656 L 204.632812 128.191406 L 202.664062 129.730469 L 200.746094 131.328125 L 198.882812 132.992188 L 195.316406 136.503906 L 193.621094 138.34375 L 191.984375 140.242188 L 190.410156 142.195312 L 188.898438 144.199219 L 187.453125 146.25 L 186.074219 148.351562 L 183.527344 152.6875 L 182.359375 154.917969 L 181.265625 157.183594 L 180.242188 159.488281 L 179.296875 161.828125 L 178.429688 164.195312 L 177.636719 166.59375 L 176.925781 169.015625 L 176.292969 171.464844 L 175.738281 173.929688 L 175.265625 176.417969 L 174.875 178.917969 L 174.566406 181.433594 L 174.339844 183.960938 L 174.195312 186.492188 L 174.132812 189.03125 L 174.15625 191.570312 L 174.261719 194.109375 L 174.449219 196.648438 L 174.722656 199.175781 L 175.074219 201.699219 L 175.511719 204.210938 L 176.03125 206.707031 L 176.632812 209.183594 L 177.3125 211.644531 L 178.078125 214.082031 L 178.917969 216.496094 L 179.839844 218.878906 L 180.839844 221.234375 L 181.917969 223.558594 L 183.070312 225.847656 L 185.601562 230.304688 L 186.976562 232.472656 L 188.421875 234.597656 L 189.9375 236.671875 L 191.519531 238.699219 L 193.167969 240.671875 L 194.882812 242.59375 L 198.5 246.265625 L 200.558594 248.15625 L 202.6875 249.972656 L 204.878906 251.714844 L 207.132812 253.378906 L 209.445312 254.960938 L 211.816406 256.464844 L 216.710938 259.214844 L 219.234375 260.457031 L 221.796875 261.613281 L 224.402344 262.675781 L 227.046875 263.648438 L 229.726562 264.523438 L 232.433594 265.304688 L 235.171875 265.992188 L 237.933594 266.582031 L 240.714844 267.070312 L 243.515625 267.464844 L 246.332031 267.757812 L 249.15625 267.949219 L 251.984375 268.042969 L 254.820312 268.035156 L 257.65625 267.925781 L 260.484375 267.714844 L 263.308594 267.40625 L 266.121094 266.996094 L 268.917969 266.484375 L 271.699219 265.875 L 274.457031 265.167969 L 277.191406 264.363281 L 279.894531 263.457031 L 282.566406 262.460938 L 285.203125 261.367188 L 287.800781 260.179688 L 290.355469 258.898438 L 292.867188 257.527344 L 295.328125 256.066406 L 297.738281 254.519531 L 302.390625 251.171875 L 304.628906 249.375 L 306.800781 247.496094 L 308.90625 245.542969 L 310.941406 243.511719 L 312.90625 241.410156 L 314.796875 239.238281 L 318.34375 234.699219 L 319.992188 232.332031 L 321.5625 229.910156 L 323.042969 227.429688 L 324.4375 224.898438 L 325.738281 222.320312 L 326.953125 219.691406 L 328.070312 217.023438 L 329.09375 214.3125 L 330.019531 211.566406 L 330.851562 208.785156 L 331.582031 205.976562 L 332.214844 203.144531 L 332.746094 200.285156 L 333.175781 197.410156 L 333.503906 194.519531 L 333.726562 191.617188 L 333.84375 188.898438 L 333.871094 186.179688 L 333.808594 183.457031 L 333.65625 180.734375 L 333.410156 178.019531 L 333.078125 175.3125 L 332.652344 172.617188 L 332.140625 169.933594 L 331.539062 167.265625 L 330.847656 164.621094 L 330.070312 162 L 329.207031 159.402344 L 328.253906 156.832031 L 327.21875 154.296875 L 326.097656 151.792969 L 324.894531 149.328125 L 323.609375 146.902344 L 322.242188 144.515625 L 320.800781 142.179688 L 319.277344 139.886719 L 317.679688 137.648438 L 316.003906 135.460938 L 312.445312 131.253906 L 310.558594 129.242188 L 308.609375 127.289062 L 306.59375 125.402344 L 304.515625 123.582031 L 302.375 121.832031 L 300.175781 120.152344 L 295.617188 117.011719 L 293.261719 115.554688 L 290.855469 114.175781 L 288.402344 112.875 L 285.910156 111.660156 L 283.375 110.523438 L 280.800781 109.472656 L 278.195312 108.507812 L 275.554688 107.628906 L 272.886719 106.835938 L 270.191406 106.132812 L 267.472656 105.519531 L 264.734375 104.996094 L 261.976562 104.5625 L 259.207031 104.222656 L 256.425781 103.972656 L 253.632812 103.8125 L 250.839844 103.75 L 248.039062 103.777344 L 245.242188 103.894531 L 242.449219 104.109375 L 239.664062 104.414062 L 236.886719 104.8125 L 234.125 105.300781 L 231.378906 105.882812 L 228.652344 106.558594 L 225.945312 107.320312 L 223.265625 108.171875 L 220.613281 109.113281 L 217.992188 110.144531 L 215.40625 111.261719 L 212.855469 112.460938 L 210.347656 113.75 L 207.929688 115.089844 L 205.550781 116.511719 L 203.222656 118.007812 L 200.941406 119.582031 L 198.710938 121.230469 L 196.535156 122.953125 L 192.351562 126.601562 L 190.351562 128.53125 L 188.410156 130.523438 L 186.539062 132.578125 L 184.730469 134.695312 L 182.992188 136.871094 L 181.320312 139.101562 L 178.203125 143.726562 L 176.757812 146.113281 L 175.390625 148.546875 L 174.101562 151.027344 L 172.894531 153.546875 L 171.765625 156.105469 L 170.722656 158.703125 L 169.761719 161.335938 L 168.890625 163.996094 L 168.101562 166.6875 L 167.402344 169.402344 L 166.789062 172.140625 L 166.269531 174.902344 L 165.835938 177.675781 L 165.492188 180.46875 L 165.242188 183.269531 L 165.078125 186.078125 L 165.011719 188.890625 L 165.03125 191.710938 L 165.144531 194.527344 L 165.351562 197.339844 L 165.644531 200.144531 L 166.035156 202.941406 L 166.511719 205.726562 L 167.082031 208.492188 L 167.738281 211.242188 L 168.488281 213.972656 L 169.324219 216.675781 L 170.25 219.355469 L 171.261719 222 L 172.359375 224.617188 L 173.539062 227.195312 L 174.808594 229.734375 L 176.15625 232.234375 L 177.585938 234.6875 L 179.097656 237.097656 L 180.683594 239.457031 L 182.351562 241.765625 L 184.089844 244.019531 L 187.789062 248.355469 L 189.742188 250.433594 L 191.765625 252.449219 L 193.851562 254.398438 L 196.003906 256.277344 L 198.214844 258.089844 L 200.484375 259.828125 L 205.191406 263.082031 L 207.835938 264.71875 L 210.535156 266.261719 L 213.289062 267.710938 L 216.09375 269.0625 L 218.945312 270.3125 L 221.839844 271.464844 L 224.777344 272.515625 L 227.75 273.460938 L 230.757812 274.300781 L 233.792969 275.039062 L 236.855469 275.664062 L 239.9375 276.183594 L 243.042969 276.597656 L 246.15625 276.898438 L 249.285156 277.089844 L 252.417969 277.171875 L 255.554688 277.144531 L 258.691406 277.003906 L 261.820312 276.753906 L 264.941406 276.394531 L 268.050781 275.925781 L 271.140625 275.34375 L 274.210938 274.65625 L 277.257812 273.859375 L 280.277344 272.957031 L 283.265625 271.945312 L 286.214844 270.828125 L 289.125 269.609375 L 291.992188 268.289062 L 294.816406 266.863281 L 300.304688 263.722656 L 302.964844 262.003906 L 305.5625 260.195312 L 308.097656 258.292969 L 310.566406 256.304688 L 312.964844 254.226562 L 315.289062 252.0625 L 319.703125 247.496094 L 321.792969 245.097656 L 323.792969 242.625 L 325.707031 240.082031 L 327.535156 237.472656 L 329.265625 234.796875 L 330.90625 232.0625 L 332.449219 229.269531 L 333.890625 226.421875 L 335.234375 223.523438 L 336.476562 220.578125 L 337.613281 217.589844 L 338.644531 214.5625 L 339.570312 211.496094 L 340.386719 208.398438 L 341.09375 205.273438 L 341.691406 202.121094 L 342.175781 198.949219 L 342.550781 195.761719 L 342.8125 192.558594 L 342.960938 189.351562 L 342.996094 186.132812 L 342.917969 182.917969 L 342.726562 179.703125 L 342.425781 176.496094 L 342.039062 173.515625 L 341.554688 170.542969 L 340.972656 167.589844 L 340.292969 164.65625 L 339.519531 161.742188 L 338.648438 158.855469 L 337.679688 155.996094 L 336.621094 153.171875 L 335.46875 150.378906 L 334.222656 147.625 L 332.886719 144.914062 L 331.460938 142.246094 L 329.949219 139.625 L 328.351562 137.050781 L 324.902344 132.070312 L 323.054688 129.664062 L 321.128906 127.320312 L 319.125 125.039062 L 317.046875 122.824219 L 314.894531 120.675781 L 312.675781 118.597656 L 308.03125 114.667969 L 305.609375 112.820312 L 303.128906 111.046875 L 300.59375 109.359375 L 298 107.753906 L 295.351562 106.234375 L 292.65625 104.800781 L 289.914062 103.457031 L 287.125 102.203125 L 284.296875 101.042969 L 281.429688 99.972656 L 278.527344 99 L 275.59375 98.121094 L 272.632812 97.335938 L 269.644531 96.652344 L 266.632812 96.066406 L 263.605469 95.578125 L 260.558594 95.1875 L 257.5 94.902344 L 254.433594 94.714844 L 251.359375 94.628906 L 248.28125 94.640625 L 245.203125 94.757812 L 242.132812 94.976562 L 239.066406 95.292969 L 236.011719 95.710938 L 232.972656 96.230469 L 229.949219 96.851562 L 226.945312 97.570312 L 223.96875 98.386719 L 221.015625 99.304688 L 218.09375 100.316406 L 215.203125 101.425781 L 212.351562 102.628906 L 209.539062 103.925781 L 206.769531 105.316406 L 204.046875 106.796875 L 201.371094 108.367188 L 198.75 110.027344 L 193.671875 113.601562 L 191.015625 115.675781 L 188.4375 117.847656 L 185.9375 120.109375 L 183.515625 122.460938 L 181.179688 124.898438 L 178.929688 127.417969 L 174.703125 132.695312 L 172.734375 135.445312 L 170.859375 138.265625 L 169.089844 141.152344 L 167.421875 144.101562 L 165.855469 147.109375 L 164.402344 150.175781 L 163.054688 153.289062 L 161.820312 156.453125 L 160.695312 159.660156 L 159.6875 162.910156 L 158.796875 166.191406 L 158.019531 169.503906 L 157.363281 172.847656 L 156.828125 176.210938 L 156.410156 179.59375 L 156.113281 182.992188 L 155.9375 186.402344 L 155.882812 189.816406 L 155.949219 193.234375 L 156.136719 196.644531 L 156.449219 200.050781 L 156.882812 203.445312 L 157.433594 206.824219 L 158.109375 210.183594 L 158.902344 213.519531 L 159.8125 216.824219 L 160.84375 220.097656 L 161.992188 223.335938 L 163.253906 226.53125 L 164.628906 229.679688 L 166.117188 232.78125 L 167.714844 235.828125 L 169.421875 238.816406 L 171.234375 241.746094 L 173.152344 244.609375 L 175.171875 247.402344 L 177.289062 250.125 L 179.503906 252.773438 L 184.214844 257.824219 L 186.703125 260.222656 L 189.277344 262.535156 L 191.9375 264.753906 L 194.671875 266.875 L 197.480469 268.902344 L 200.363281 270.824219 L 206.332031 274.363281 L 209.410156 275.972656 L 212.542969 277.472656 L 215.730469 278.859375 L 218.964844 280.132812 L 222.246094 281.292969 L 225.566406 282.332031 L 228.925781 283.253906 L 232.316406 284.058594 L 235.675781 284.726562 L 239.054688 285.28125 L 242.453125 285.714844 L 245.867188 286.027344 L 249.292969 286.222656 L 252.722656 286.300781 L 256.15625 286.257812 L 259.589844 286.089844 L 263.011719 285.808594 L 266.429688 285.402344 L 269.828125 284.878906 L 273.210938 284.234375 L 276.570312 283.472656 L 279.902344 282.597656 L 283.203125 281.601562 L 286.46875 280.488281 L 289.695312 279.265625 L 292.878906 277.925781 L 296.015625 276.476562 L 299.101562 274.917969 L 302.132812 273.253906 L 305.105469 271.480469 L 310.859375 267.625 L 313.632812 265.550781 L 316.335938 263.375 L 318.957031 261.105469 L 321.503906 258.746094 L 323.964844 256.296875 L 326.34375 253.761719 L 330.824219 248.445312 L 332.925781 245.671875 L 334.929688 242.824219 L 336.835938 239.910156 L 338.636719 236.925781 L 340.332031 233.878906 L 341.921875 230.773438 L 343.402344 227.613281 L 344.773438 224.398438 L 346.03125 221.140625 L 347.175781 217.835938 L 348.203125 214.492188 L 349.113281 211.113281 L 349.90625 207.703125 L 350.578125 204.265625 L 351.132812 200.804688 L 351.5625 197.324219 L 351.871094 193.832031 L 352.058594 190.324219 L 352.125 186.8125 L 352.066406 183.300781 L 351.882812 179.789062 L 351.582031 176.285156 L 351.152344 172.792969 L 350.605469 169.316406 L 349.933594 165.855469 L 349.140625 162.421875 L 348.230469 159.015625 L 347.199219 155.644531 L 346.050781 152.304688 L 344.785156 149.007812 L 343.402344 145.757812 L 341.910156 142.550781 L 340.414062 139.613281 L 338.824219 136.71875 L 337.136719 133.878906 L 335.359375 131.097656 L 333.492188 128.371094 L 331.535156 125.707031 L 327.363281 120.570312 L 325.148438 118.105469 L 322.859375 115.714844 L 320.488281 113.398438 L 318.042969 111.15625 L 315.523438 109 L 312.9375 106.921875 L 307.558594 103.023438 L 304.777344 101.207031 L 301.933594 99.480469 L 299.035156 97.847656 L 296.085938 96.308594 L 293.082031 94.867188 L 290.035156 93.523438 L 286.941406 92.28125 L 283.808594 91.136719 L 280.640625 90.097656 L 277.4375 89.160156 L 274.203125 88.328125 L 270.941406 87.601562 L 267.660156 86.980469 L 264.355469 86.46875 L 261.035156 86.0625 L 257.699219 85.765625 L 254.359375 85.578125 L 251.007812 85.5 L 247.65625 85.527344 L 244.308594 85.667969 L 240.960938 85.917969 L 237.625 86.277344 L 234.300781 86.742188 L 230.992188 87.320312 L 227.699219 88.003906 L 224.433594 88.792969 L 221.191406 89.691406 L 217.980469 90.695312 L 214.800781 91.804688 L 211.65625 93.015625 L 208.554688 94.332031 L 205.496094 95.746094 L 202.480469 97.261719 L 199.519531 98.875 L 196.605469 100.585938 L 193.753906 102.390625 L 190.957031 104.289062 L 188.222656 106.28125 L 182.953125 110.523438 L 180.425781 112.773438 L 177.96875 115.105469 L 175.589844 117.519531 L 173.289062 120.011719 L 171.070312 122.574219 L 168.9375 125.210938 L 164.925781 130.691406 L 162.902344 133.773438 L 160.988281 136.921875 L 159.1875 140.140625 L 157.5 143.421875 L 155.929688 146.761719 L 154.476562 150.160156 L 153.144531 153.605469 L 151.933594 157.101562 L 150.84375 160.636719 L 149.882812 164.210938 L 149.050781 167.816406 L 148.34375 171.453125 L 147.765625 175.117188 L 147.316406 178.796875 L 147 182.492188 L 146.8125 186.199219 L 146.757812 189.914062 L 146.832031 193.628906 L 147.039062 197.339844 L 147.378906 201.046875 L 147.847656 204.738281 L 148.449219 208.410156 L 149.179688 212.0625 L 150.039062 215.6875 L 151.023438 219.285156 L 152.140625 222.84375 L 153.378906 226.363281 L 154.746094 229.839844 L 156.234375 233.265625 L 157.84375 236.640625 L 159.570312 239.957031 L 161.417969 243.210938 L 163.378906 246.398438 L 165.449219 249.515625 L 167.632812 252.5625 L 169.921875 255.527344 L 172.320312 258.414062 L 174.816406 261.214844 L 180.105469 266.546875 L 182.886719 269.070312 L 185.761719 271.492188 L 188.71875 273.816406 L 191.757812 276.035156 L 194.875 278.144531 L 198.070312 280.144531 L 204.660156 283.800781 L 208.050781 285.449219 L 211.5 286.984375 L 215.003906 288.390625 L 218.554688 289.675781 L 222.152344 290.835938 L 225.789062 291.867188 L 229.464844 292.769531 L 233.167969 293.542969 L 236.902344 294.183594 L 240.65625 294.695312 L 244.425781 295.070312 L 248.210938 295.3125 L 252.003906 295.421875 L 255.800781 295.394531 L 259.59375 295.234375 L 263.382812 294.941406 L 266.90625 294.542969 L 270.417969 294.03125 L 273.914062 293.402344 L 277.390625 292.660156 L 280.839844 291.800781 L 284.257812 290.828125 L 287.648438 289.746094 L 291 288.546875 L 294.3125 287.238281 L 297.582031 285.820312 L 300.800781 284.296875 L 303.972656 282.664062 L 307.089844 280.929688 L 310.148438 279.089844 L 316.078125 275.113281 L 318.945312 272.976562 L 321.738281 270.75 L 324.460938 268.425781 L 327.105469 266.015625 L 329.667969 263.515625 L 332.148438 260.933594 L 336.851562 255.523438 L 339.066406 252.707031 L 341.191406 249.8125 L 343.21875 246.851562 L 345.144531 243.820312 L 346.972656 240.730469 L 348.699219 237.578125 L 350.324219 234.367188 L 351.839844 231.105469 L 353.246094 227.792969 L 354.542969 224.433594 L 355.730469 221.03125 L 356.804688 217.59375 L 357.765625 214.117188 L 358.613281 210.613281 L 359.339844 207.078125 L 359.953125 203.519531 L 360.449219 199.941406 L 360.828125 196.347656 L 361.085938 192.742188 L 361.222656 189.128906 L 361.242188 185.511719 L 361.144531 181.894531 L 360.925781 178.277344 L 360.585938 174.671875 L 360.125 171.078125 L 359.550781 167.496094 L 358.855469 163.9375 L 358.042969 160.398438 L 357.113281 156.890625 L 356.066406 153.410156 L 354.90625 149.96875 L 353.632812 146.5625 L 352.246094 143.199219 L 350.75 139.882812 L 349.144531 136.617188 L 347.429688 133.40625 L 345.609375 130.25 L 343.683594 127.152344 L 339.53125 121.15625 L 337.351562 118.320312 L 335.082031 115.554688 L 332.722656 112.859375 L 330.273438 110.246094 L 327.742188 107.707031 L 325.128906 105.253906 L 319.664062 100.601562 L 316.820312 98.410156 L 313.90625 96.3125 L 310.925781 94.308594 L 307.878906 92.398438 L 304.773438 90.589844 L 301.605469 88.882812 L 295.113281 85.773438 L 291.789062 84.378906 L 288.425781 83.09375 L 285.019531 81.914062 L 281.574219 80.847656 L 278.09375 79.890625 L 274.582031 79.046875 L 271.046875 78.320312 L 267.484375 77.703125 L 263.90625 77.203125 L 260.3125 76.820312 L 256.703125 76.554688 L 253.085938 76.40625 L 249.46875 76.371094 L 245.847656 76.457031 L 242.226562 76.660156 L 238.617188 76.976562 L 235.015625 77.414062 L 231.429688 77.96875 L 227.863281 78.636719 L 224.320312 79.417969 L 220.800781 80.320312 L 217.308594 81.332031 L 213.851562 82.457031 L 210.433594 83.695312 L 207.050781 85.042969 L 203.714844 86.5 L 200.429688 88.066406 L 197.191406 89.738281 L 194.007812 91.515625 L 190.882812 93.394531 L 184.820312 97.453125 L 181.890625 99.632812 L 179.03125 101.902344 L 176.242188 104.265625 L 173.535156 106.71875 L 170.902344 109.261719 L 168.355469 111.886719 L 163.519531 117.382812 L 161.238281 120.246094 L 159.046875 123.183594 L 156.953125 126.195312 L 154.957031 129.269531 L 153.058594 132.410156 L 151.261719 135.613281 L 149.570312 138.871094 L 147.984375 142.183594 L 146.386719 145.839844 L 144.914062 149.546875 L 143.574219 153.308594 L 142.367188 157.113281 L 141.296875 160.960938 L 140.355469 164.847656 L 139.554688 168.765625 L 138.894531 172.710938 L 138.367188 176.679688 L 137.984375 180.664062 L 137.738281 184.664062 L 137.632812 188.667969 L 137.671875 192.679688 L 137.847656 196.6875 L 138.167969 200.6875 L 138.625 204.675781 L 139.222656 208.648438 L 139.964844 212.597656 L 140.839844 216.519531 L 141.855469 220.414062 L 143.007812 224.269531 L 144.292969 228.082031 L 145.714844 231.851562 L 147.269531 235.570312 L 148.953125 239.230469 L 150.761719 242.835938 L 152.703125 246.375 L 154.765625 249.84375 L 156.949219 253.238281 L 159.25 256.558594 L 164.203125 262.949219 L 166.84375 266.011719 L 169.59375 268.980469 L 172.449219 271.855469 L 175.402344 274.625 L 178.457031 277.292969 L 181.601562 279.851562 L 188.152344 284.632812 L 191.554688 286.851562 L 195.03125 288.949219 L 198.585938 290.921875 L 202.203125 292.773438 L 205.890625 294.492188 L 209.632812 296.085938 L 213.433594 297.546875 L 217.28125 298.871094 L 221.179688 300.0625 L 225.117188 301.117188 L 229.089844 302.03125 L 233.09375 302.804688 L 237.128906 303.441406 L 241.179688 303.933594 L 245.25 304.28125 L 249.332031 304.488281 L 253.421875 304.550781 L 257.507812 304.472656 L 261.59375 304.246094 L 265.671875 303.878906 L 269.734375 303.367188 L 273.78125 302.714844 L 277.800781 301.917969 L 281.796875 300.980469 L 285.488281 299.980469 L 289.152344 298.859375 L 292.777344 297.617188 L 296.359375 296.257812 L 299.898438 294.78125 L 303.386719 293.1875 L 310.203125 289.660156 L 313.523438 287.726562 L 316.777344 285.6875 L 319.964844 283.542969 L 323.085938 281.292969 L 326.128906 278.941406 L 329.09375 276.488281 L 334.78125 271.296875 L 337.496094 268.5625 L 340.121094 265.738281 L 342.652344 262.828125 L 345.085938 259.839844 L 347.425781 256.765625 L 349.660156 253.621094 L 353.820312 247.109375 L 355.738281 243.753906 L 357.546875 240.335938 L 359.242188 236.859375 L 360.824219 233.328125 L 362.289062 229.746094 L 363.636719 226.113281 L 364.867188 222.4375 L 365.976562 218.722656 L 366.960938 214.972656 L 367.824219 211.191406 L 368.5625 207.382812 L 369.175781 203.546875 L 369.664062 199.695312 L 370.027344 195.824219 L 370.261719 191.945312 L 370.367188 188.058594 L 370.347656 184.167969 L 370.199219 180.277344 L 369.925781 176.394531 L 369.523438 172.519531 L 368.992188 168.660156 L 368.335938 164.816406 L 367.554688 160.996094 L 366.648438 157.203125 L 365.617188 153.4375 L 364.460938 149.707031 L 363.183594 146.015625 L 361.785156 142.367188 L 360.269531 138.765625 L 358.632812 135.214844 L 355.015625 128.273438 L 353.039062 124.894531 L 350.949219 121.582031 L 348.75 118.339844 L 346.449219 115.167969 L 344.039062 112.070312 L 341.53125 109.054688 L 336.222656 103.273438 L 333.1875 100.285156 L 330.046875 97.40625 L 326.804688 94.640625 L 323.464844 91.992188 L 320.03125 89.460938 L 316.507812 87.054688 L 309.210938 82.617188 L 305.449219 80.59375 L 301.613281 78.707031 L 297.710938 76.957031 L 293.75 75.34375 L 289.730469 73.871094 L 285.660156 72.542969 L 281.542969 71.363281 L 277.382812 70.324219 L 273.1875 69.4375 L 268.964844 68.699219 L 264.714844 68.109375 L 260.441406 67.671875 L 256.15625 67.386719 L 251.863281 67.253906 L 247.566406 67.273438 L 243.269531 67.445312 L 238.976562 67.773438 L 234.699219 68.25 L 230.441406 68.878906 L 226.207031 69.660156 L 221.996094 70.589844 L 217.824219 71.671875 L 213.691406 72.902344 L 209.601562 74.277344 L 205.558594 75.796875 L 201.574219 77.460938 L 197.648438 79.265625 L 193.789062 81.210938 L 190 83.292969 L 186.285156 85.507812 L 179.097656 90.332031 L 175.632812 92.933594 L 172.265625 95.660156 L 168.992188 98.5 L 165.820312 101.460938 L 162.757812 104.53125 L 159.800781 107.710938 L 154.238281 114.382812 L 151.636719 117.863281 L 149.15625 121.433594 L 146.804688 125.09375 L 144.585938 128.835938 L 142.5 132.65625 L 140.546875 136.550781 L 138.734375 140.511719 L 137.066406 144.539062 L 135.539062 148.625 L 134.15625 152.761719 L 132.921875 156.949219 L 131.835938 161.175781 L 130.902344 165.445312 L 130.121094 169.742188 L 129.492188 174.070312 L 129.015625 178.417969 L 128.710938 182.492188 L 128.542969 186.574219 L 128.507812 190.664062 L 128.609375 194.753906 L 128.847656 198.839844 L 129.222656 202.914062 L 129.730469 206.980469 L 130.375 211.023438 L 131.152344 215.050781 L 132.0625 219.046875 L 133.105469 223.011719 L 134.28125 226.945312 L 135.585938 230.835938 L 137.023438 234.683594 L 138.582031 238.484375 L 140.273438 242.230469 L 142.082031 245.921875 L 144.019531 249.550781 L 146.074219 253.113281 L 148.246094 256.609375 L 150.53125 260.035156 L 152.933594 263.382812 L 158.066406 269.832031 L 160.792969 272.925781 L 163.621094 275.929688 L 166.546875 278.839844 L 169.570312 281.652344 L 172.683594 284.363281 L 175.890625 286.972656 L 182.554688 291.863281 L 186.007812 294.140625 L 189.535156 296.304688 L 193.136719 298.351562 L 196.800781 300.277344 L 200.53125 302.082031 L 204.320312 303.761719 L 208.164062 305.316406 L 212.058594 306.742188 L 216 308.039062 L 219.984375 309.207031 L 224.007812 310.238281 L 228.0625 311.140625 L 232.148438 311.902344 L 236.257812 312.53125 L 240.386719 313.027344 L 244.535156 313.378906 L 248.691406 313.597656 L 252.851562 313.679688 L 257.019531 313.621094 L 261.179688 313.421875 L 265.335938 313.089844 L 269.480469 312.617188 L 273.605469 312.003906 L 277.714844 311.257812 L 281.792969 310.375 L 285.84375 309.355469 L 289.859375 308.203125 L 293.839844 306.917969 L 297.773438 305.5 L 301.65625 303.949219 L 305.492188 302.273438 L 309.269531 300.46875 L 312.914062 298.582031 L 316.5 296.570312 L 320.015625 294.449219 L 323.460938 292.207031 L 326.835938 289.859375 L 330.132812 287.398438 L 336.480469 282.160156 L 339.527344 279.386719 L 342.480469 276.515625 L 345.339844 273.546875 L 348.105469 270.488281 L 350.769531 267.339844 L 353.328125 264.105469 L 358.128906 257.386719 L 360.363281 253.914062 L 362.484375 250.371094 L 364.492188 246.753906 L 366.378906 243.078125 L 368.148438 239.335938 L 369.796875 235.539062 L 371.316406 231.691406 L 372.714844 227.792969 L 373.984375 223.847656 L 375.125 219.863281 L 376.136719 215.84375 L 377.019531 211.792969 L 377.765625 207.710938 L 378.382812 203.605469 L 378.863281 199.480469 L 379.210938 195.34375 L 379.425781 191.191406 L 379.5 187.039062 L 379.445312 182.878906 L 379.25 178.722656 L 378.921875 174.574219 L 378.460938 170.4375 L 377.863281 166.316406 L 377.132812 162.21875 L 376.265625 158.140625 L 375.269531 154.09375 L 374.140625 150.078125 L 372.878906 146.101562 L 371.492188 142.164062 L 369.972656 138.273438 L 368.332031 134.433594 L 366.5625 130.648438 L 364.671875 126.921875 L 362.660156 123.253906 L 360.53125 119.65625 L 358.285156 116.125 L 355.921875 112.671875 L 353.449219 109.292969 L 348.175781 102.78125 L 345.378906 99.65625 L 342.484375 96.625 L 339.488281 93.6875 L 336.402344 90.84375 L 333.21875 88.105469 L 329.949219 85.46875 L 323.160156 80.523438 L 319.34375 78.023438 L 315.4375 75.664062 L 311.453125 73.441406 L 307.390625 71.359375 L 303.253906 69.417969 L 299.050781 67.628906 L 294.785156 65.984375 L 290.460938 64.492188 L 286.085938 63.152344 L 281.667969 61.96875 L 277.207031 60.941406 L 272.707031 60.070312 L 268.183594 59.359375 L 263.632812 58.804688 L 259.0625 58.414062 L 254.480469 58.1875 L 249.890625 58.117188 L 245.300781 58.210938 L 240.714844 58.46875 L 236.140625 58.886719 L 231.582031 59.46875 L 227.042969 60.207031 L 222.53125 61.109375 L 218.050781 62.167969 L 213.613281 63.382812 L 209.214844 64.757812 L 204.871094 66.285156 L 200.578125 67.96875 L 196.347656 69.800781 L 192.183594 71.785156 L 188.085938 73.910156 L 184.070312 76.183594 L 180.132812 78.597656 L 176.28125 81.148438 L 172.519531 83.835938 L 168.855469 86.65625 L 165.292969 89.605469 L 161.832031 92.679688 L 155.246094 99.1875 L 152.128906 102.613281 L 149.128906 106.148438 L 146.257812 109.789062 L 143.515625 113.527344 L 140.90625 117.363281 L 138.433594 121.292969 L 133.90625 129.402344 L 131.859375 133.574219 L 129.960938 137.816406 L 128.210938 142.125 L 126.613281 146.496094 L 125.171875 150.921875 L 123.886719 155.398438 L 122.761719 159.917969 L 121.792969 164.476562 L 120.988281 169.066406 L 120.34375 173.6875 L 119.863281 178.328125 L 119.546875 182.984375 L 119.394531 187.648438 L 119.40625 192.320312 L 119.582031 196.988281 L 119.925781 201.652344 L 120.390625 205.992188 L 121.003906 210.3125 L 121.757812 214.617188 L 122.648438 218.890625 L 123.683594 223.136719 L 124.859375 227.347656 L 126.171875 231.519531 L 127.625 235.648438 L 129.210938 239.726562 L 130.929688 243.753906 L 132.785156 247.722656 L 134.765625 251.628906 L 136.878906 255.472656 L 139.117188 259.242188 L 143.960938 266.554688 L 146.5625 270.09375 L 149.28125 273.539062 L 152.109375 276.898438 L 155.050781 280.164062 L 158.101562 283.332031 L 161.25 286.398438 L 167.851562 292.214844 L 171.296875 294.960938 L 174.828125 297.589844 L 178.445312 300.101562 L 182.144531 302.496094 L 185.925781 304.765625 L 189.777344 306.910156 L 197.6875 310.820312 L 201.738281 312.574219 L 205.84375 314.199219 L 210.003906 315.6875 L 214.214844 317.039062 L 218.464844 318.25 L 222.757812 319.320312 L 227.082031 320.25 L 231.4375 321.039062 L 235.816406 321.679688 L 240.21875 322.179688 L 244.632812 322.535156 L 249.0625 322.742188 L 253.492188 322.804688 L 257.929688 322.722656 L 262.359375 322.492188 L 266.78125 322.117188 L 271.191406 321.59375 L 275.582031 320.929688 L 279.949219 320.117188 L 284.292969 319.164062 L 288.601562 318.066406 L 292.871094 316.824219 L 297.101562 315.445312 L 301.285156 313.925781 L 305.417969 312.269531 L 309.496094 310.476562 L 313.511719 308.550781 L 317.46875 306.492188 L 321.351562 304.304688 L 325.164062 301.988281 L 332.554688 296.984375 L 336.417969 294.074219 L 340.175781 291.023438 L 343.824219 287.839844 L 347.359375 284.523438 L 350.773438 281.085938 L 354.0625 277.527344 L 360.257812 270.0625 L 363.152344 266.167969 L 365.910156 262.167969 L 368.519531 258.074219 L 370.988281 253.886719 L 373.300781 249.613281 L 375.464844 245.257812 L 377.46875 240.824219 L 379.316406 236.324219 L 381 231.753906 L 382.523438 227.128906 L 383.878906 222.449219 L 385.070312 217.722656 L 386.089844 212.957031 L 386.941406 208.152344 L 387.617188 203.320312 L 388.125 198.464844 L 388.457031 193.59375 L 388.613281 188.710938 L 388.597656 183.824219 L 388.40625 178.941406 L 388.042969 174.0625 L 387.5 169.199219 L 386.789062 164.359375 L 385.902344 159.542969 L 384.847656 154.761719 L 383.621094 150.015625 L 382.222656 145.320312 L 380.660156 140.671875 L 378.929688 136.082031 L 377.035156 131.554688 L 374.984375 127.09375 L 372.769531 122.710938 L 370.402344 118.40625 L 367.878906 114.1875 L 365.207031 110.0625 L 362.390625 106.03125 L 359.429688 102.101562 L 356.328125 98.277344 L 349.722656 90.972656 L 346.226562 87.5 L 342.609375 84.152344 L 338.871094 80.9375 L 335.019531 77.855469 L 331.058594 74.910156 L 326.996094 72.105469 L 318.574219 66.941406 L 314.230469 64.589844 L 309.800781 62.390625 L 305.296875 60.347656 L 300.71875 58.46875 L 296.078125 56.753906 L 291.375 55.207031 L 286.617188 53.824219 L 281.8125 52.617188 L 277.050781 51.59375 L 272.257812 50.742188 L 267.4375 50.054688 L 262.59375 49.539062 L 257.730469 49.191406 L 252.859375 49.015625 L 247.980469 49.011719 L 243.105469 49.175781 L 238.234375 49.511719 L 233.378906 50.019531 L 228.542969 50.695312 L 223.730469 51.542969 L 218.949219 52.558594 L 214.203125 53.742188 L 209.5 55.089844 L 204.847656 56.601562 L 200.246094 58.277344 L 195.707031 60.113281 L 191.234375 62.109375 L 186.832031 64.261719 L 182.503906 66.566406 L 178.257812 69.023438 L 170.035156 74.375 L 166.066406 77.269531 L 162.203125 80.296875 L 158.445312 83.460938 L 154.796875 86.757812 L 151.265625 90.179688 L 147.859375 93.726562 L 141.417969 101.167969 L 138.398438 105.054688 L 135.511719 109.046875 L 132.769531 113.140625 L 130.167969 117.328125 L 127.714844 121.605469 L 125.414062 125.96875 L 123.265625 130.410156 L 121.273438 134.925781 L 119.441406 139.511719 L 117.769531 144.160156 L 116.257812 148.867188 L 114.914062 153.621094 L 113.738281 158.425781 L 112.730469 163.269531 L 111.894531 168.148438 L 111.226562 173.050781 L 110.734375 177.980469 L 110.410156 182.921875 L 110.261719 187.878906 L 110.289062 192.835938 L 110.488281 197.789062 L 110.859375 202.738281 L 111.40625 207.671875 L 112.125 212.582031 L 113.015625 217.46875 L 114.078125 222.324219 L 115.308594 227.136719 L 116.710938 231.910156 L 118.277344 236.628906 L 120.007812 241.292969 L 121.902344 245.894531 L 123.960938 250.429688 L 126.019531 254.59375 L 128.21875 258.691406 L 130.546875 262.714844 L 133.007812 266.660156 L 135.597656 270.527344 L 138.3125 274.304688 L 144.109375 281.59375 L 147.183594 285.09375 L 150.375 288.492188 L 153.675781 291.785156 L 157.082031 294.96875 L 160.589844 298.039062 L 164.203125 300.996094 L 171.707031 306.554688 L 175.589844 309.144531 L 179.5625 311.609375 L 183.609375 313.945312 L 187.738281 316.144531 L 191.933594 318.210938 L 196.195312 320.140625 L 200.519531 321.925781 L 204.902344 323.574219 L 209.339844 325.078125 L 213.824219 326.433594 L 218.351562 327.644531 L 222.917969 328.707031 L 227.519531 329.621094 L 232.148438 330.382812 L 236.800781 330.996094 L 241.472656 331.453125 L 246.15625 331.757812 L 250.851562 331.910156 L 255.550781 331.910156 L 260.25 331.757812 L 264.941406 331.449219 L 269.625 330.988281 L 274.289062 330.371094 L 278.933594 329.605469 L 283.550781 328.6875 L 288.136719 327.617188 L 292.6875 326.398438 L 297.199219 325.03125 L 301.664062 323.515625 L 306.078125 321.855469 L 310.4375 320.050781 L 314.734375 318.105469 L 318.96875 316.019531 L 323.136719 313.792969 L 327.226562 311.433594 L 331.242188 308.9375 L 335.171875 306.316406 L 339.015625 303.5625 L 346.429688 297.683594 L 349.992188 294.566406 L 353.449219 291.332031 L 356.800781 287.984375 L 360.039062 284.527344 L 363.167969 280.96875 L 366.179688 277.304688 L 371.835938 269.691406 L 374.691406 265.410156 L 377.394531 261.03125 L 379.945312 256.554688 L 382.332031 251.992188 L 384.558594 247.34375 L 386.621094 242.617188 L 388.511719 237.820312 L 390.234375 232.960938 L 391.785156 228.039062 L 393.15625 223.0625 L 394.355469 218.039062 L 395.375 212.972656 L 396.214844 207.875 L 396.871094 202.746094 L 397.347656 197.597656 L 397.640625 192.433594 L 397.753906 187.261719 L 397.679688 182.082031 L 397.425781 176.910156 L 396.984375 171.75 L 396.363281 166.605469 L 395.558594 161.484375 L 394.570312 156.390625 L 393.40625 151.335938 L 392.058594 146.324219 L 390.535156 141.363281 L 388.839844 136.453125 L 386.96875 131.609375 L 384.925781 126.828125 L 382.714844 122.125 L 380.335938 117.5 L 377.792969 112.960938 L 375.09375 108.511719 L 372.234375 104.160156 L 369.222656 99.914062 L 366.0625 95.773438 L 362.753906 91.746094 L 359.304688 87.835938 L 351.996094 80.394531 L 348.148438 76.867188 L 344.175781 73.480469 L 340.085938 70.234375 L 335.878906 67.136719 L 331.566406 64.1875 L 327.148438 61.390625 L 318.023438 56.277344 L 313.332031 53.960938 L 308.554688 51.816406 L 303.707031 49.839844 L 298.789062 48.035156 L 293.804688 46.40625 L 288.769531 44.953125 L 283.679688 43.679688 L 278.550781 42.589844 L 273.382812 41.679688 L 268.183594 40.953125 L 262.960938 40.410156 L 257.71875 40.054688 L 252.464844 39.882812 L 247.207031 39.898438 L 241.953125 40.097656 L 236.707031 40.488281 L 231.824219 41.015625 L 226.957031 41.707031 L 222.117188 42.5625 L 217.304688 43.574219 L 212.523438 44.746094 L 207.789062 46.074219 L 203.09375 47.558594 L 198.453125 49.199219 L 193.863281 50.996094 L 189.335938 52.941406 L 184.875 55.035156 L 180.484375 57.277344 L 176.167969 59.664062 L 171.933594 62.195312 L 163.71875 67.667969 L 159.75 70.609375 L 155.878906 73.679688 L 152.113281 76.875 L 148.453125 80.195312 L 144.902344 83.640625 L 141.464844 87.199219 L 134.953125 94.648438 L 131.886719 98.535156 L 128.945312 102.519531 L 126.140625 106.605469 L 123.46875 110.777344 L 120.933594 115.039062 L 118.542969 119.386719 L 116.296875 123.808594 L 114.199219 128.304688 L 112.25 132.871094 L 110.449219 137.496094 L 108.804688 142.183594 L 107.316406 146.925781 L 105.980469 151.710938 L 104.808594 156.542969 L 103.796875 161.414062 L 102.941406 166.316406 L 102.253906 171.242188 L 101.726562 176.195312 L 101.363281 181.160156 L 101.167969 186.136719 L 101.132812 191.121094 L 101.265625 196.101562 L 101.5625 201.082031 L 102.023438 206.046875 L 102.648438 210.996094 L 103.4375 215.925781 L 104.390625 220.824219 L 105.503906 225.695312 L 106.777344 230.523438 L 108.214844 235.3125 L 109.804688 240.050781 L 111.554688 244.734375 L 113.460938 249.359375 L 115.515625 253.921875 L 117.722656 258.414062 L 120.078125 262.832031 L 122.578125 267.171875 L 125.222656 271.425781 L 130.925781 279.667969 L 133.921875 283.566406 L 137.042969 287.371094 L 140.285156 291.070312 L 143.648438 294.660156 L 147.125 298.144531 L 150.714844 301.515625 L 158.21875 307.898438 L 162.121094 310.90625 L 166.121094 313.785156 L 170.214844 316.535156 L 174.398438 319.152344 L 178.664062 321.632812 L 183.007812 323.976562 L 191.921875 328.230469 L 196.476562 330.140625 L 201.09375 331.902344 L 205.769531 333.511719 L 210.492188 334.972656 L 215.265625 336.277344 L 220.078125 337.429688 L 224.925781 338.421875 L 229.808594 339.257812 L 234.714844 339.9375 L 239.640625 340.457031 L 244.582031 340.816406 L 249.535156 341.015625 L 254.496094 341.050781 L 259.453125 340.929688 L 264.410156 340.644531 L 269.351562 340.199219 L 274.28125 339.59375 L 279.1875 338.828125 L 284.070312 337.90625 L 288.917969 336.824219 L 293.734375 335.582031 L 298.507812 334.1875 L 303.234375 332.636719 L 307.910156 330.933594 L 312.527344 329.082031 L 317.085938 327.078125 L 321.578125 324.925781 L 326 322.628906 L 330.34375 320.191406 L 334.609375 317.609375 L 342.882812 312.039062 L 346.882812 309.054688 L 350.78125 305.941406 L 354.582031 302.703125 L 358.273438 299.339844 L 361.855469 295.859375 L 365.324219 292.261719 L 371.90625 284.738281 L 375.015625 280.816406 L 377.992188 276.796875 L 380.839844 272.679688 L 383.550781 268.472656 L 386.128906 264.175781 L 388.5625 259.800781 L 390.855469 255.34375 L 393.003906 250.816406 L 395.167969 245.824219 L 397.15625 240.757812 L 398.964844 235.625 L 400.59375 230.429688 L 402.035156 225.175781 L 403.296875 219.875 L 404.367188 214.53125 L 405.25 209.148438 L 405.945312 203.738281 L 406.449219 198.304688 L 406.757812 192.859375 L 406.878906 187.398438 L 406.804688 181.9375 L 406.542969 176.480469 L 406.085938 171.035156 L 405.4375 165.605469 L 404.597656 160.203125 L 403.566406 154.828125 L 402.351562 149.496094 L 400.945312 144.203125 L 399.351562 138.964844 L 397.578125 133.78125 L 395.621094 128.664062 L 393.484375 123.617188 L 391.171875 118.644531 L 388.683594 113.757812 L 386.023438 108.957031 L 383.195312 104.253906 L 380.203125 99.652344 L 377.050781 95.152344 L 370.273438 86.503906 L 366.660156 82.359375 L 362.902344 78.347656 L 359.003906 74.464844 L 354.96875 70.722656 L 350.804688 67.121094 L 346.515625 63.667969 L 337.578125 57.226562 L 332.945312 54.242188 L 328.207031 51.421875 L 323.371094 48.769531 L 318.441406 46.289062 L 313.429688 43.980469 L 308.335938 41.851562 L 303.167969 39.902344 L 297.933594 38.136719 L 292.640625 36.554688 L 287.289062 35.15625 L 281.894531 33.949219 L 276.457031 32.933594 L 270.984375 32.109375 L 265.484375 31.476562 L 259.964844 31.039062 L 254.433594 30.792969 L 248.890625 30.746094 L 243.351562 30.890625 L 237.816406 31.234375 L 232.296875 31.769531 L 226.796875 32.5 L 221.324219 33.421875 L 215.886719 34.539062 L 210.488281 35.84375 L 205.496094 37.234375 L 200.546875 38.789062 L 195.652344 40.503906 L 190.816406 42.382812 L 186.042969 44.417969 L 181.335938 46.609375 L 172.148438 51.449219 L 167.675781 54.097656 L 163.292969 56.886719 L 159 59.824219 L 154.808594 62.898438 L 150.714844 66.113281 L 146.730469 69.460938 L 139.097656 76.539062 L 135.457031 80.265625 L 131.941406 84.109375 L 128.550781 88.070312 L 125.292969 92.136719 L 122.167969 96.3125 L 119.179688 100.589844 L 113.636719 109.429688 L 111.082031 113.984375 L 108.679688 118.621094 L 106.429688 123.335938 L 104.332031 128.125 L 102.398438 132.980469 L 100.621094 137.898438 L 99.003906 142.875 L 97.550781 147.898438 L 96.265625 152.972656 L 95.148438 158.085938 L 94.195312 163.238281 L 93.414062 168.417969 L 92.804688 173.621094 L 92.363281 178.84375 L 92.097656 184.082031 L 92 189.324219 L 92.074219 194.570312 L 92.324219 199.8125 L 92.746094 205.042969 L 93.335938 210.261719 L 94.101562 215.457031 L 95.035156 220.628906 L 96.136719 225.769531 L 97.410156 230.867188 L 98.847656 235.925781 L 100.453125 240.9375 L 102.222656 245.890625 L 104.15625 250.789062 L 106.246094 255.621094 L 108.496094 260.382812 L 113.464844 269.675781 L 116.171875 274.195312 L 119.03125 278.628906 L 122.035156 282.964844 L 125.179688 287.199219 L 128.460938 291.332031 L 131.878906 295.355469 L 139.105469 303.058594 L 143.355469 307.148438 L 147.753906 311.082031 L 152.296875 314.851562 L 156.976562 318.453125 L 161.785156 321.882812 L 166.714844 325.132812 L 176.925781 331.085938 L 182.191406 333.78125 L 187.554688 336.28125 L 193.007812 338.582031 L 198.542969 340.683594 L 204.152344 342.582031 L 209.828125 344.273438 L 215.566406 345.753906 L 221.355469 347.027344 L 227.1875 348.085938 L 233.058594 348.929688 L 238.960938 349.558594 L 244.882812 349.972656 L 250.816406 350.164062 L 256.753906 350.144531 L 262.691406 349.902344 L 268.617188 349.445312 L 274.523438 348.769531 L 280.40625 347.878906 L 286.25 346.773438 L 292.050781 345.453125 L 297.804688 343.917969 L 303.5 342.175781 L 309.128906 340.226562 L 314.683594 338.066406 L 320.15625 335.707031 L 325.542969 333.148438 L 330.832031 330.390625 L 336.019531 327.441406 L 341.09375 324.304688 L 346.054688 320.980469 L 355.597656 313.792969 L 360.167969 309.941406 L 364.59375 305.925781 L 368.871094 301.746094 L 372.996094 297.410156 L 376.957031 292.925781 L 380.753906 288.300781 L 387.832031 278.636719 L 391.101562 273.613281 L 394.183594 268.476562 L 397.078125 263.222656 L 399.78125 257.867188 L 402.285156 252.417969 L 404.585938 246.875 L 406.6875 241.25 L 408.578125 235.546875 L 410.261719 229.78125 L 411.730469 223.953125 L 412.984375 218.074219 L 414.027344 212.152344 L 414.847656 206.191406 L 415.453125 200.207031 L 415.835938 194.199219 L 416 188.179688 " transform="matrix(1,0,0,1,-74,-13)"/>
</g>
</svg>
