<?xml version="1.0" encoding="UTF-8"?>
<svg xmlns="http://www.w3.org/2000/svg" xmlns:xlink="http://www.w3.org/1999/xlink" width="342pt" height="342pt" viewBox="0 0 342 342" version="1.1">
<g id="surface466">
<path style="fill:none;stroke-width:1.6;stroke-linecap:square;stroke-linejoin:miter;stroke:rgb(36.84082%,50.67749%,70.979309%);stroke-opacity:1;stroke-miterlimit:3.25;" d="M 244.398438 192.5 L 244.359375 192.21875 L 244.339844 192.074219 L 244.328125 191.933594 L 244.3125 191.789062 L 244.304688 191.648438 L 244.289062 191.359375 L 244.285156 191.214844 L 244.285156 190.921875 L 244.289062 190.777344 L 244.296875 190.628906 L 244.304688 190.484375 L 244.316406 190.335938 L 244.328125 190.191406 L 244.34375 190.042969 L 244.359375 189.898438 L 244.378906 189.75 L 244.402344 189.601562 L 244.425781 189.457031 L 244.453125 189.308594 L 244.515625 189.015625 L 244.550781 188.867188 L 244.585938 188.722656 L 244.664062 188.429688 L 244.710938 188.285156 L 244.753906 188.140625 L 244.90625 187.707031 L 244.964844 187.566406 L 245.082031 187.28125 L 245.144531 187.140625 L 245.210938 187 L 245.347656 186.71875 L 245.417969 186.582031 L 245.492188 186.445312 L 245.648438 186.171875 L 245.988281 185.640625 L 246.078125 185.511719 L 246.171875 185.382812 L 246.363281 185.125 L 246.460938 185 L 246.5625 184.875 L 246.878906 184.511719 L 246.988281 184.394531 L 247.214844 184.160156 L 247.691406 183.714844 L 247.828125 183.597656 L 247.964844 183.484375 L 248.246094 183.261719 L 248.386719 183.15625 L 248.535156 183.050781 L 248.832031 182.84375 L 248.984375 182.746094 L 249.136719 182.652344 L 249.449219 182.464844 L 250.097656 182.125 L 250.265625 182.046875 L 250.433594 181.972656 L 250.777344 181.828125 L 250.949219 181.757812 L 251.125 181.695312 L 251.476562 181.574219 L 251.835938 181.464844 L 252.019531 181.414062 L 252.199219 181.367188 L 252.382812 181.324219 L 252.570312 181.28125 L 252.753906 181.242188 L 252.941406 181.207031 L 253.128906 181.175781 L 253.320312 181.148438 L 253.507812 181.121094 L 254.082031 181.0625 L 254.277344 181.050781 L 254.46875 181.042969 L 254.664062 181.035156 L 254.855469 181.03125 L 255.050781 181.03125 L 255.246094 181.035156 L 255.441406 181.042969 L 255.832031 181.066406 L 256.03125 181.085938 L 256.226562 181.105469 L 256.421875 181.128906 L 256.617188 181.15625 L 257.007812 181.21875 L 257.207031 181.257812 L 257.402344 181.296875 L 257.59375 181.339844 L 258.179688 181.492188 L 258.371094 181.550781 L 258.753906 181.675781 L 259.136719 181.816406 L 259.488281 181.957031 L 259.839844 182.109375 L 260.011719 182.191406 L 260.183594 182.277344 L 260.527344 182.453125 L 260.863281 182.640625 L 261.195312 182.839844 L 261.84375 183.273438 L 262.003906 183.386719 L 262.160156 183.503906 L 262.46875 183.746094 L 262.621094 183.871094 L 262.769531 184 L 263.066406 184.265625 L 263.210938 184.402344 L 263.351562 184.539062 L 263.632812 184.824219 L 264.167969 185.421875 L 264.296875 185.574219 L 264.421875 185.734375 L 264.667969 186.054688 L 264.902344 186.382812 L 265.128906 186.722656 L 265.238281 186.894531 L 265.34375 187.070312 L 265.550781 187.425781 L 265.929688 188.15625 L 266.101562 188.53125 L 266.261719 188.914062 L 266.410156 189.304688 L 266.546875 189.699219 L 266.613281 189.898438 L 266.675781 190.101562 L 266.730469 190.300781 L 266.789062 190.503906 L 266.839844 190.710938 L 266.886719 190.914062 L 266.976562 191.332031 L 267.015625 191.535156 L 267.050781 191.742188 L 267.082031 191.949219 L 267.136719 192.363281 L 267.160156 192.570312 L 267.179688 192.78125 L 267.195312 192.992188 L 267.21875 193.414062 L 267.226562 193.835938 L 267.226562 194.046875 L 267.222656 194.261719 L 267.21875 194.472656 L 267.195312 194.902344 L 267.179688 195.113281 L 267.160156 195.328125 L 267.136719 195.539062 L 267.109375 195.753906 L 267.078125 195.96875 L 267.046875 196.179688 L 267.007812 196.394531 L 266.96875 196.605469 L 266.925781 196.820312 L 266.878906 197.03125 L 266.777344 197.453125 L 266.71875 197.664062 L 266.59375 198.082031 L 266.527344 198.292969 L 266.457031 198.5 L 266.308594 198.914062 L 266.230469 199.117188 L 266.144531 199.324219 L 265.96875 199.730469 L 265.78125 200.128906 L 265.578125 200.527344 L 265.132812 201.304688 L 265.015625 201.496094 L 264.894531 201.683594 L 264.640625 202.058594 L 264.511719 202.242188 L 264.101562 202.78125 L 263.957031 202.960938 L 263.8125 203.132812 L 263.511719 203.476562 L 262.875 204.136719 L 262.695312 204.3125 L 262.515625 204.480469 L 262.140625 204.8125 L 261.75 205.132812 L 261.351562 205.441406 L 261.148438 205.589844 L 260.941406 205.738281 L 260.523438 206.019531 L 259.648438 206.542969 L 259.195312 206.785156 L 258.734375 207.011719 L 258.265625 207.222656 L 257.789062 207.417969 L 257.546875 207.511719 L 257.300781 207.597656 L 257.058594 207.683594 L 256.558594 207.839844 L 256.308594 207.914062 L 255.804688 208.042969 L 255.546875 208.105469 L 255.292969 208.160156 L 255.035156 208.210938 L 254.773438 208.257812 L 254.515625 208.300781 L 254.253906 208.339844 L 253.992188 208.375 L 253.726562 208.40625 L 253.464844 208.429688 L 253.199219 208.453125 L 252.933594 208.46875 L 252.667969 208.480469 L 252.402344 208.488281 L 252.132812 208.492188 L 251.867188 208.492188 L 251.328125 208.476562 L 251.0625 208.460938 L 250.792969 208.441406 L 250.523438 208.417969 L 250.253906 208.390625 L 249.988281 208.359375 L 249.449219 208.28125 L 249.183594 208.234375 L 248.914062 208.183594 L 248.648438 208.128906 L 248.117188 208.003906 L 247.851562 207.933594 L 247.324219 207.785156 L 247.082031 207.707031 L 246.835938 207.625 L 246.351562 207.453125 L 246.113281 207.359375 L 245.871094 207.265625 L 245.398438 207.058594 L 245.160156 206.953125 L 244.925781 206.839844 L 244.460938 206.605469 L 243.554688 206.089844 L 243.332031 205.953125 L 243.109375 205.8125 L 242.671875 205.519531 L 242.457031 205.367188 L 242.246094 205.210938 L 241.828125 204.890625 L 241.621094 204.722656 L 241.417969 204.554688 L 241.015625 204.203125 L 240.246094 203.464844 L 240.0625 203.273438 L 239.878906 203.078125 L 239.519531 202.675781 L 239.347656 202.472656 L 239.175781 202.265625 L 238.839844 201.839844 L 238.679688 201.625 L 238.519531 201.40625 L 238.214844 200.957031 L 237.636719 200.035156 L 237.371094 199.558594 L 237.117188 199.070312 L 236.996094 198.824219 L 236.878906 198.574219 L 236.65625 198.070312 L 236.550781 197.816406 L 236.449219 197.558594 L 236.257812 197.042969 L 236.167969 196.777344 L 236.082031 196.515625 L 235.921875 195.980469 L 235.84375 195.691406 L 235.765625 195.398438 L 235.695312 195.105469 L 235.570312 194.511719 L 235.515625 194.210938 L 235.464844 193.910156 L 235.378906 193.308594 L 235.34375 193.003906 L 235.3125 192.699219 L 235.289062 192.394531 L 235.269531 192.085938 L 235.253906 191.78125 L 235.238281 191.164062 L 235.246094 190.546875 L 235.257812 190.238281 L 235.273438 189.929688 L 235.296875 189.621094 L 235.324219 189.3125 L 235.355469 189 L 235.394531 188.691406 L 235.4375 188.382812 L 235.484375 188.074219 L 235.535156 187.765625 L 235.59375 187.460938 L 235.660156 187.152344 L 235.730469 186.847656 L 235.882812 186.238281 L 235.96875 185.933594 L 236.058594 185.632812 L 236.253906 185.03125 L 236.359375 184.730469 L 236.46875 184.433594 L 236.707031 183.847656 L 236.832031 183.554688 L 236.964844 183.261719 L 237.242188 182.6875 L 237.855469 181.5625 L 238.023438 181.289062 L 238.195312 181.015625 L 238.550781 180.476562 L 238.734375 180.214844 L 238.925781 179.953125 L 239.320312 179.4375 L 239.523438 179.183594 L 239.730469 178.933594 L 240.160156 178.445312 L 241.070312 177.503906 L 241.304688 177.285156 L 241.542969 177.066406 L 242.03125 176.640625 L 242.277344 176.4375 L 242.53125 176.234375 L 243.046875 175.839844 L 243.3125 175.648438 L 243.578125 175.464844 L 244.125 175.105469 L 245.25 174.4375 L 245.539062 174.28125 L 245.832031 174.132812 L 246.421875 173.84375 L 246.722656 173.707031 L 247.027344 173.574219 L 247.640625 173.328125 L 247.949219 173.210938 L 248.261719 173.097656 L 248.578125 172.992188 L 248.894531 172.890625 L 249.210938 172.792969 L 249.535156 172.703125 L 250.179688 172.535156 L 250.507812 172.460938 L 250.832031 172.390625 L 251.164062 172.324219 L 251.492188 172.265625 L 251.824219 172.210938 L 252.15625 172.160156 L 252.492188 172.117188 L 253.164062 172.046875 L 253.5 172.023438 L 253.839844 172 L 254.175781 171.984375 L 254.515625 171.976562 L 254.855469 171.972656 L 255.195312 171.972656 L 255.535156 171.980469 L 255.875 171.992188 L 256.21875 172.011719 L 256.558594 172.035156 L 256.898438 172.0625 L 257.238281 172.097656 L 257.578125 172.140625 L 257.917969 172.1875 L 258.257812 172.238281 L 258.597656 172.296875 L 258.9375 172.359375 L 259.273438 172.429688 L 259.613281 172.503906 L 259.949219 172.585938 L 260.28125 172.671875 L 260.949219 172.863281 L 261.257812 172.957031 L 261.566406 173.058594 L 262.179688 173.277344 L 262.480469 173.390625 L 262.785156 173.511719 L 263.386719 173.765625 L 263.683594 173.902344 L 263.976562 174.039062 L 264.5625 174.332031 L 265.710938 174.972656 L 265.992188 175.144531 L 266.269531 175.320312 L 266.820312 175.6875 L 267.359375 176.070312 L 267.886719 176.472656 L 268.144531 176.679688 L 268.402344 176.890625 L 268.90625 177.324219 L 269.878906 178.242188 L 270.113281 178.480469 L 270.34375 178.722656 L 270.792969 179.21875 L 271.015625 179.472656 L 271.230469 179.730469 L 271.652344 180.257812 L 272.058594 180.796875 L 272.445312 181.351562 L 273.175781 182.496094 L 273.347656 182.789062 L 273.511719 183.085938 L 273.835938 183.6875 L 273.988281 183.992188 L 274.136719 184.300781 L 274.421875 184.925781 L 274.554688 185.238281 L 274.6875 185.558594 L 274.933594 186.199219 L 275.160156 186.847656 L 275.367188 187.507812 L 275.46875 187.867188 L 275.566406 188.230469 L 275.660156 188.59375 L 275.746094 188.960938 L 275.824219 189.328125 L 275.898438 189.699219 L 275.964844 190.070312 L 276.027344 190.441406 L 276.082031 190.816406 L 276.132812 191.191406 L 276.175781 191.566406 L 276.210938 191.945312 L 276.242188 192.324219 L 276.265625 192.703125 L 276.28125 193.082031 L 276.292969 193.464844 L 276.300781 193.84375 L 276.296875 194.226562 L 276.289062 194.609375 L 276.277344 194.992188 L 276.253906 195.371094 L 276.226562 195.753906 L 276.195312 196.136719 L 276.109375 196.902344 L 276.054688 197.28125 L 275.996094 197.664062 L 275.929688 198.042969 L 275.859375 198.421875 L 275.777344 198.800781 L 275.601562 199.554688 L 275.503906 199.929688 L 275.402344 200.304688 L 275.171875 201.046875 L 275.050781 201.414062 L 274.921875 201.78125 L 274.644531 202.511719 L 274.496094 202.875 L 274.339844 203.234375 L 274.011719 203.945312 L 273.285156 205.339844 L 273.089844 205.679688 L 272.886719 206.019531 L 272.464844 206.6875 L 272.246094 207.015625 L 272.019531 207.34375 L 271.550781 207.980469 L 271.308594 208.296875 L 271.058594 208.609375 L 270.546875 209.21875 L 269.460938 210.390625 L 269.195312 210.652344 L 268.925781 210.910156 L 268.371094 211.417969 L 268.089844 211.664062 L 267.804688 211.90625 L 267.21875 212.378906 L 266.917969 212.609375 L 266.617188 212.835938 L 266 213.273438 L 264.726562 214.089844 L 264.398438 214.28125 L 264.070312 214.46875 L 263.398438 214.828125 L 263.058594 215 L 262.714844 215.167969 L 262.023438 215.484375 L 261.671875 215.636719 L 261.316406 215.78125 L 260.601562 216.058594 L 260.238281 216.1875 L 259.875 216.3125 L 259.144531 216.542969 L 258.773438 216.648438 L 258.402344 216.75 L 258.027344 216.84375 L 257.652344 216.933594 L 257.273438 217.019531 L 256.894531 217.097656 L 256.515625 217.167969 L 256.132812 217.234375 L 255.75 217.296875 L 255.367188 217.351562 L 254.980469 217.398438 L 254.59375 217.441406 L 254.207031 217.476562 L 253.816406 217.507812 L 253.429688 217.53125 L 253.039062 217.550781 L 252.648438 217.5625 L 252.257812 217.570312 L 251.863281 217.570312 L 251.472656 217.5625 L 251.082031 217.550781 L 250.6875 217.535156 L 249.90625 217.480469 L 249.511719 217.441406 L 249.121094 217.398438 L 248.730469 217.351562 L 247.949219 217.234375 L 247.5625 217.167969 L 247.171875 217.09375 L 246.785156 217.011719 L 246.40625 216.929688 L 246.027344 216.839844 L 245.273438 216.640625 L 244.898438 216.535156 L 244.523438 216.421875 L 243.78125 216.175781 L 243.414062 216.046875 L 243.046875 215.910156 L 242.320312 215.621094 L 240.886719 214.972656 L 240.535156 214.796875 L 240.183594 214.613281 L 239.492188 214.234375 L 239.148438 214.039062 L 238.808594 213.832031 L 238.140625 213.410156 L 237.808594 213.191406 L 237.480469 212.96875 L 236.835938 212.503906 L 235.585938 211.515625 L 234.984375 210.992188 L 234.398438 210.449219 L 234.109375 210.167969 L 233.824219 209.886719 L 233.269531 209.304688 L 233 209.007812 L 232.730469 208.707031 L 232.210938 208.09375 L 231.226562 206.8125 L 230.992188 206.484375 L 230.761719 206.148438 L 230.316406 205.472656 L 230.101562 205.128906 L 229.894531 204.777344 L 229.488281 204.074219 L 229.296875 203.714844 L 229.105469 203.351562 L 228.746094 202.621094 L 228.574219 202.25 L 228.40625 201.875 L 228.09375 201.121094 L 227.929688 200.707031 L 227.773438 200.289062 L 227.484375 199.445312 L 227.351562 199.019531 L 227.222656 198.589844 L 226.988281 197.726562 L 226.882812 197.292969 L 226.78125 196.855469 L 226.691406 196.414062 L 226.605469 195.972656 L 226.527344 195.53125 L 226.457031 195.085938 L 226.394531 194.640625 L 226.339844 194.191406 L 226.289062 193.746094 L 226.25 193.292969 L 226.214844 192.84375 L 226.191406 192.390625 L 226.171875 191.941406 L 226.160156 191.488281 L 226.15625 191.03125 L 226.160156 190.578125 L 226.171875 190.125 L 226.191406 189.671875 L 226.21875 189.214844 L 226.253906 188.761719 L 226.296875 188.308594 L 226.34375 187.855469 L 226.402344 187.402344 L 226.464844 186.949219 L 226.539062 186.496094 L 226.617188 186.046875 L 226.707031 185.59375 L 226.800781 185.144531 L 226.902344 184.699219 L 227.011719 184.253906 L 227.253906 183.363281 L 227.386719 182.921875 L 227.527344 182.484375 L 227.828125 181.609375 L 227.992188 181.175781 L 228.160156 180.746094 L 228.519531 179.894531 L 228.710938 179.46875 L 228.910156 179.050781 L 229.324219 178.21875 L 229.546875 177.808594 L 229.769531 177.402344 L 230.246094 176.597656 L 230.492188 176.199219 L 230.746094 175.808594 L 231.273438 175.035156 L 232.40625 173.539062 L 232.683594 173.199219 L 232.96875 172.863281 L 233.554688 172.207031 L 233.855469 171.886719 L 234.160156 171.570312 L 234.785156 170.949219 L 235.105469 170.644531 L 235.433594 170.34375 L 236.097656 169.761719 L 237.484375 168.65625 L 237.84375 168.394531 L 238.203125 168.136719 L 238.941406 167.636719 L 239.316406 167.394531 L 239.695312 167.160156 L 240.464844 166.707031 L 240.855469 166.488281 L 241.246094 166.273438 L 242.046875 165.867188 L 243.683594 165.125 L 244.097656 164.957031 L 244.519531 164.792969 L 245.367188 164.488281 L 245.792969 164.34375 L 246.222656 164.207031 L 247.089844 163.949219 L 247.527344 163.832031 L 247.96875 163.722656 L 248.410156 163.617188 L 248.851562 163.519531 L 249.296875 163.429688 L 249.742188 163.347656 L 250.191406 163.269531 L 250.640625 163.199219 L 251.089844 163.136719 L 251.542969 163.082031 L 251.996094 163.03125 L 252.453125 162.992188 L 252.90625 162.957031 L 253.363281 162.925781 L 253.820312 162.90625 L 254.277344 162.894531 L 254.734375 162.886719 L 255.195312 162.886719 L 255.652344 162.894531 L 256.113281 162.90625 L 256.570312 162.929688 L 257.03125 162.957031 L 257.488281 162.996094 L 257.949219 163.039062 L 258.445312 163.09375 L 258.941406 163.15625 L 259.433594 163.226562 L 259.929688 163.304688 L 260.421875 163.394531 L 260.914062 163.492188 L 261.894531 163.707031 L 262.382812 163.828125 L 262.871094 163.960938 L 263.835938 164.242188 L 264.316406 164.398438 L 264.796875 164.5625 L 265.742188 164.910156 L 266.214844 165.097656 L 266.683594 165.292969 L 267.609375 165.707031 L 268.066406 165.925781 L 268.519531 166.152344 L 269.417969 166.625 L 269.863281 166.875 L 270.304688 167.132812 L 271.171875 167.671875 L 272.855469 168.835938 L 273.265625 169.144531 L 273.667969 169.457031 L 274.460938 170.113281 L 274.851562 170.449219 L 275.234375 170.792969 L 275.984375 171.496094 L 276.351562 171.859375 L 276.710938 172.230469 L 277.414062 172.988281 L 278.746094 174.574219 L 279.0625 174.988281 L 279.371094 175.402344 L 279.96875 176.253906 L 280.257812 176.6875 L 280.542969 177.125 L 281.082031 178.015625 L 281.34375 178.46875 L 281.597656 178.925781 L 282.078125 179.855469 L 282.308594 180.328125 L 282.53125 180.800781 L 282.953125 181.761719 L 283.148438 182.242188 L 283.335938 182.722656 L 283.6875 183.695312 L 283.847656 184.183594 L 284.003906 184.679688 L 284.292969 185.675781 L 284.421875 186.179688 L 284.546875 186.683594 L 284.660156 187.191406 L 284.769531 187.699219 L 284.867188 188.210938 L 284.957031 188.722656 L 285.039062 189.238281 L 285.109375 189.753906 L 285.175781 190.273438 L 285.230469 190.792969 L 285.277344 191.3125 L 285.316406 191.835938 L 285.347656 192.359375 L 285.371094 192.882812 L 285.382812 193.40625 L 285.386719 193.929688 L 285.382812 194.457031 L 285.371094 194.980469 L 285.347656 195.507812 L 285.320312 196.035156 L 285.28125 196.558594 L 285.234375 197.085938 L 285.175781 197.609375 L 285.113281 198.132812 L 285.039062 198.65625 L 284.957031 199.179688 L 284.867188 199.699219 L 284.765625 200.21875 L 284.660156 200.738281 L 284.542969 201.257812 L 284.28125 202.285156 L 284.140625 202.796875 L 283.988281 203.308594 L 283.660156 204.320312 L 283.484375 204.824219 L 283.300781 205.324219 L 282.90625 206.316406 L 282.695312 206.808594 L 282.480469 207.300781 L 282.019531 208.265625 L 281.777344 208.746094 L 281.527344 209.21875 L 281 210.15625 L 280.726562 210.621094 L 280.445312 211.078125 L 279.859375 211.980469 L 278.59375 213.734375 L 278.28125 214.128906 L 277.964844 214.523438 L 277.3125 215.292969 L 276.972656 215.671875 L 276.632812 216.042969 L 275.929688 216.773438 L 275.570312 217.128906 L 275.203125 217.484375 L 274.457031 218.171875 L 272.894531 219.480469 L 272.492188 219.789062 L 272.085938 220.097656 L 271.253906 220.691406 L 270.832031 220.980469 L 270.402344 221.261719 L 269.535156 221.804688 L 269.09375 222.066406 L 268.652344 222.320312 L 267.75 222.8125 L 265.898438 223.710938 L 265.425781 223.917969 L 264.949219 224.117188 L 263.988281 224.496094 L 263.503906 224.675781 L 263.015625 224.84375 L 262.03125 225.164062 L 261.535156 225.3125 L 261.035156 225.453125 L 260.535156 225.585938 L 260.03125 225.714844 L 259.527344 225.832031 L 259.015625 225.941406 L 258.507812 226.042969 L 257.996094 226.140625 L 257.480469 226.226562 L 256.96875 226.304688 L 256.449219 226.375 L 255.933594 226.441406 L 255.414062 226.496094 L 254.894531 226.542969 L 254.371094 226.582031 L 253.847656 226.613281 L 253.328125 226.636719 L 252.804688 226.652344 L 252.277344 226.660156 L 251.753906 226.660156 L 251.230469 226.652344 L 250.703125 226.632812 L 250.179688 226.609375 L 249.65625 226.578125 L 249.085938 226.53125 L 248.515625 226.476562 L 247.949219 226.414062 L 247.382812 226.339844 L 246.816406 226.257812 L 246.25 226.164062 L 245.6875 226.0625 L 245.125 225.953125 L 244.5625 225.832031 L 244.003906 225.703125 L 243.445312 225.5625 L 242.890625 225.414062 L 242.335938 225.257812 L 241.785156 225.089844 L 240.691406 224.726562 L 240.148438 224.53125 L 239.605469 224.328125 L 238.535156 223.890625 L 238.003906 223.660156 L 237.480469 223.417969 L 236.4375 222.910156 L 235.921875 222.644531 L 235.410156 222.367188 L 234.402344 221.789062 L 232.4375 220.535156 L 231.960938 220.199219 L 231.488281 219.855469 L 230.558594 219.144531 L 230.105469 218.777344 L 229.652344 218.402344 L 228.773438 217.628906 L 228.339844 217.234375 L 227.914062 216.828125 L 227.085938 215.996094 L 225.507812 214.246094 L 225.128906 213.792969 L 224.761719 213.332031 L 224.042969 212.394531 L 223.695312 211.914062 L 223.359375 211.429688 L 222.703125 210.441406 L 222.386719 209.9375 L 222.082031 209.429688 L 221.492188 208.398438 L 220.417969 206.273438 L 220.1875 205.765625 L 219.964844 205.257812 L 219.542969 204.222656 L 219.34375 203.703125 L 219.152344 203.179688 L 218.792969 202.121094 L 218.628906 201.585938 L 218.46875 201.046875 L 218.320312 200.507812 L 218.175781 199.964844 L 218.042969 199.421875 L 217.917969 198.875 L 217.691406 197.773438 L 217.59375 197.222656 L 217.5 196.667969 L 217.417969 196.109375 L 217.34375 195.550781 L 217.28125 194.992188 L 217.222656 194.429688 L 217.175781 193.867188 L 217.136719 193.304688 L 217.105469 192.742188 L 217.082031 192.175781 L 217.070312 191.609375 L 217.066406 191.042969 L 217.070312 190.476562 L 217.082031 189.910156 L 217.105469 189.34375 L 217.136719 188.777344 L 217.175781 188.210938 L 217.226562 187.644531 L 217.28125 187.078125 L 217.347656 186.515625 L 217.425781 185.949219 L 217.507812 185.386719 L 217.601562 184.824219 L 217.703125 184.265625 L 217.8125 183.703125 L 217.929688 183.144531 L 218.058594 182.589844 L 218.195312 182.035156 L 218.339844 181.480469 L 218.496094 180.929688 L 218.828125 179.832031 L 219.007812 179.289062 L 219.195312 178.746094 L 219.597656 177.671875 L 219.8125 177.136719 L 220.035156 176.605469 L 220.503906 175.554688 L 220.75 175.035156 L 221.003906 174.519531 L 221.539062 173.496094 L 222.707031 171.5 L 223.042969 170.972656 L 223.390625 170.449219 L 224.109375 169.417969 L 224.484375 168.910156 L 224.867188 168.410156 L 225.65625 167.429688 L 226.0625 166.949219 L 226.480469 166.472656 L 227.335938 165.546875 L 229.144531 163.773438 L 229.613281 163.347656 L 230.09375 162.933594 L 231.070312 162.125 L 231.570312 161.730469 L 232.078125 161.347656 L 233.109375 160.601562 L 233.636719 160.242188 L 234.167969 159.894531 L 235.253906 159.21875 L 237.488281 157.980469 L 238.0625 157.695312 L 238.640625 157.417969 L 239.8125 156.890625 L 240.402344 156.644531 L 241 156.40625 L 242.207031 155.957031 L 242.816406 155.75 L 243.429688 155.550781 L 244.042969 155.363281 L 244.664062 155.1875 L 245.289062 155.019531 L 245.914062 154.863281 L 247.175781 154.582031 L 247.8125 154.457031 L 248.449219 154.34375 L 249.085938 154.238281 L 249.730469 154.144531 L 250.371094 154.0625 L 251.019531 153.992188 L 251.664062 153.929688 L 252.3125 153.882812 L 252.960938 153.84375 L 253.609375 153.816406 L 254.261719 153.796875 L 254.914062 153.792969 L 255.566406 153.796875 L 256.21875 153.8125 L 256.871094 153.839844 L 257.523438 153.878906 L 258.160156 153.925781 L 258.800781 153.984375 L 259.441406 154.054688 L 260.078125 154.132812 L 260.714844 154.222656 L 261.351562 154.324219 L 261.984375 154.433594 L 262.617188 154.558594 L 263.246094 154.691406 L 263.875 154.832031 L 264.503906 154.984375 L 265.128906 155.148438 L 265.75 155.324219 L 266.371094 155.507812 L 267.601562 155.910156 L 268.214844 156.125 L 268.820312 156.351562 L 270.027344 156.832031 L 270.621094 157.089844 L 271.214844 157.355469 L 272.390625 157.917969 L 272.96875 158.210938 L 273.542969 158.519531 L 274.679688 159.15625 L 276.890625 160.550781 L 277.429688 160.921875 L 277.960938 161.304688 L 279.007812 162.089844 L 279.523438 162.496094 L 280.03125 162.914062 L 281.027344 163.769531 L 281.515625 164.210938 L 281.992188 164.660156 L 282.933594 165.585938 L 284.71875 167.527344 L 285.144531 168.03125 L 285.566406 168.542969 L 286.378906 169.585938 L 286.769531 170.117188 L 287.15625 170.65625 L 287.898438 171.753906 L 288.257812 172.3125 L 288.605469 172.878906 L 289.277344 174.027344 L 290.507812 176.390625 L 290.769531 176.953125 L 291.027344 177.519531 L 291.511719 178.667969 L 291.742188 179.246094 L 291.960938 179.832031 L 292.378906 181.007812 L 292.570312 181.601562 L 292.753906 182.199219 L 292.929688 182.800781 L 293.097656 183.402344 L 293.253906 184.007812 L 293.402344 184.617188 L 293.671875 185.84375 L 293.789062 186.460938 L 293.902344 187.078125 L 294 187.699219 L 294.09375 188.320312 L 294.175781 188.941406 L 294.246094 189.566406 L 294.308594 190.195312 L 294.363281 190.824219 L 294.40625 191.453125 L 294.4375 192.082031 L 294.464844 192.710938 L 294.476562 193.34375 L 294.480469 193.976562 L 294.476562 194.605469 L 294.460938 195.238281 L 294.4375 195.871094 L 294.402344 196.503906 L 294.359375 197.136719 L 294.304688 197.765625 L 294.238281 198.398438 L 294.167969 199.027344 L 294.082031 199.65625 L 293.988281 200.285156 L 293.886719 200.914062 L 293.773438 201.539062 L 293.652344 202.164062 L 293.519531 202.785156 L 293.378906 203.40625 L 293.226562 204.023438 L 293.066406 204.640625 L 292.714844 205.871094 L 292.527344 206.480469 L 292.328125 207.085938 L 291.902344 208.292969 L 291.675781 208.890625 L 291.4375 209.484375 L 290.9375 210.664062 L 290.671875 211.25 L 290.398438 211.828125 L 289.824219 212.980469 L 288.570312 215.222656 L 288.207031 215.820312 L 287.832031 216.410156 L 287.054688 217.570312 L 286.648438 218.144531 L 286.234375 218.707031 L 285.378906 219.816406 L 284.9375 220.363281 L 284.484375 220.898438 L 283.554688 221.953125 L 281.585938 223.964844 L 281.070312 224.449219 L 280.550781 224.921875 L 279.484375 225.84375 L 278.9375 226.292969 L 278.382812 226.734375 L 277.253906 227.585938 L 276.679688 227.996094 L 276.09375 228.398438 L 274.910156 229.175781 L 272.457031 230.609375 L 271.828125 230.941406 L 271.195312 231.265625 L 269.90625 231.878906 L 269.257812 232.167969 L 268.601562 232.449219 L 267.273438 232.976562 L 266.605469 233.222656 L 265.929688 233.460938 L 265.25 233.6875 L 264.566406 233.898438 L 263.882812 234.101562 L 263.191406 234.292969 L 261.800781 234.640625 L 261.097656 234.796875 L 260.394531 234.941406 L 259.6875 235.074219 L 258.980469 235.195312 L 258.269531 235.304688 L 257.554688 235.402344 L 256.839844 235.488281 L 256.125 235.5625 L 255.40625 235.625 L 254.6875 235.675781 L 253.964844 235.714844 L 253.246094 235.738281 L 252.523438 235.753906 L 251.800781 235.753906 L 251.074219 235.746094 L 250.351562 235.722656 L 249.675781 235.691406 L 249.003906 235.648438 L 248.328125 235.59375 L 247.652344 235.53125 L 246.980469 235.457031 L 246.308594 235.375 L 245.636719 235.277344 L 244.964844 235.171875 L 244.296875 235.054688 L 243.628906 234.929688 L 242.964844 234.792969 L 242.300781 234.644531 L 241.636719 234.488281 L 240.980469 234.320312 L 239.667969 233.949219 L 239.015625 233.75 L 238.367188 233.542969 L 237.078125 233.09375 L 236.4375 232.851562 L 235.800781 232.601562 L 234.539062 232.070312 L 233.914062 231.792969 L 233.296875 231.5 L 232.066406 230.890625 L 229.667969 229.558594 L 229.082031 229.199219 L 228.5 228.832031 L 227.351562 228.074219 L 226.785156 227.679688 L 226.226562 227.277344 L 225.128906 226.445312 L 224.585938 226.015625 L 224.054688 225.578125 L 223.003906 224.675781 L 220.992188 222.773438 L 220.507812 222.277344 L 220.03125 221.777344 L 219.101562 220.746094 L 218.648438 220.222656 L 218.199219 219.6875 L 217.332031 218.601562 L 216.914062 218.046875 L 216.5 217.488281 L 215.703125 216.34375 L 214.210938 213.988281 L 213.867188 213.394531 L 213.53125 212.796875 L 212.890625 211.585938 L 212.582031 210.972656 L 212.285156 210.351562 L 211.71875 209.101562 L 211.449219 208.46875 L 211.1875 207.832031 L 210.699219 206.542969 L 210.46875 205.894531 L 210.246094 205.242188 L 209.832031 203.925781 L 209.644531 203.261719 L 209.460938 202.597656 L 209.292969 201.925781 L 209.128906 201.253906 L 208.980469 200.578125 L 208.839844 199.902344 L 208.710938 199.222656 L 208.589844 198.539062 L 208.480469 197.855469 L 208.382812 197.167969 L 208.296875 196.480469 L 208.21875 195.789062 L 208.148438 195.101562 L 208.09375 194.40625 L 208.046875 193.714844 L 208.011719 193.019531 L 207.988281 192.324219 L 207.972656 191.628906 L 207.96875 190.933594 L 207.976562 190.234375 L 207.996094 189.539062 L 208.023438 188.839844 L 208.0625 188.144531 L 208.113281 187.449219 L 208.171875 186.753906 L 208.246094 186.058594 L 208.328125 185.363281 L 208.417969 184.667969 L 208.523438 183.976562 L 208.636719 183.285156 L 208.761719 182.597656 L 208.894531 181.910156 L 209.039062 181.222656 L 209.195312 180.539062 L 209.363281 179.859375 L 209.539062 179.179688 L 209.726562 178.503906 L 209.925781 177.828125 L 210.355469 176.488281 L 210.582031 175.820312 L 210.820312 175.160156 L 211.332031 173.847656 L 211.601562 173.195312 L 211.882812 172.546875 L 212.472656 171.265625 L 212.808594 170.574219 L 213.15625 169.890625 L 213.886719 168.542969 L 214.269531 167.875 L 214.664062 167.214844 L 215.480469 165.914062 L 215.910156 165.273438 L 216.347656 164.640625 L 217.253906 163.394531 L 219.191406 160.992188 L 219.699219 160.410156 L 220.21875 159.835938 L 221.289062 158.714844 L 221.835938 158.167969 L 222.394531 157.632812 L 223.535156 156.582031 L 224.121094 156.070312 L 224.714844 155.570312 L 225.925781 154.597656 L 228.445312 152.773438 L 229.097656 152.34375 L 229.753906 151.921875 L 231.089844 151.117188 L 231.765625 150.726562 L 232.449219 150.351562 L 233.839844 149.632812 L 234.542969 149.292969 L 235.253906 148.960938 L 236.691406 148.335938 L 237.414062 148.039062 L 238.148438 147.757812 L 239.625 147.226562 L 240.371094 146.980469 L 241.121094 146.746094 L 241.875 146.523438 L 242.632812 146.3125 L 243.394531 146.117188 L 244.160156 145.929688 L 245.703125 145.601562 L 246.476562 145.453125 L 247.253906 145.320312 L 248.035156 145.199219 L 248.816406 145.089844 L 249.601562 144.996094 L 250.390625 144.914062 L 251.175781 144.84375 L 251.96875 144.789062 L 252.703125 144.75 L 253.445312 144.71875 L 254.183594 144.703125 L 254.921875 144.695312 L 255.664062 144.699219 L 256.40625 144.71875 L 257.144531 144.746094 L 257.886719 144.785156 L 258.625 144.835938 L 259.363281 144.898438 L 260.105469 144.972656 L 260.839844 145.058594 L 261.578125 145.15625 L 262.3125 145.265625 L 263.046875 145.386719 L 263.78125 145.515625 L 264.511719 145.660156 L 265.242188 145.8125 L 265.96875 145.980469 L 266.691406 146.15625 L 267.414062 146.34375 L 268.132812 146.542969 L 269.5625 146.976562 L 270.273438 147.210938 L 270.980469 147.453125 L 272.382812 147.976562 L 273.078125 148.25 L 273.769531 148.539062 L 275.140625 149.148438 L 275.816406 149.46875 L 276.492188 149.796875 L 277.824219 150.492188 L 278.484375 150.851562 L 279.136719 151.226562 L 280.425781 152 L 281.0625 152.40625 L 281.691406 152.816406 L 282.933594 153.671875 L 285.335938 155.5 L 285.917969 155.980469 L 286.496094 156.46875 L 287.625 157.476562 L 288.179688 157.992188 L 288.726562 158.515625 L 289.792969 159.59375 L 290.316406 160.144531 L 290.828125 160.703125 L 291.828125 161.84375 L 293.726562 164.222656 L 294.214844 164.886719 L 294.691406 165.558594 L 295.613281 166.929688 L 296.054688 167.628906 L 296.488281 168.332031 L 297.316406 169.765625 L 297.714844 170.492188 L 298.097656 171.226562 L 298.832031 172.714844 L 299.179688 173.46875 L 299.515625 174.226562 L 300.148438 175.765625 L 300.445312 176.542969 L 300.730469 177.324219 L 301 178.109375 L 301.257812 178.902344 L 301.503906 179.699219 L 301.734375 180.5 L 302.15625 182.113281 L 302.347656 182.925781 L 302.527344 183.742188 L 302.691406 184.5625 L 302.839844 185.382812 L 302.976562 186.210938 L 303.097656 187.039062 L 303.207031 187.867188 L 303.300781 188.699219 L 303.382812 189.535156 L 303.449219 190.371094 L 303.503906 191.207031 L 303.542969 192.046875 L 303.566406 192.886719 L 303.578125 193.726562 L 303.574219 194.566406 L 303.558594 195.40625 L 303.527344 196.246094 L 303.480469 197.085938 L 303.421875 197.925781 L 303.347656 198.765625 L 303.257812 199.605469 L 303.15625 200.441406 L 303.039062 201.277344 L 302.910156 202.113281 L 302.765625 202.945312 L 302.605469 203.773438 L 302.433594 204.601562 L 302.25 205.425781 L 302.046875 206.25 L 301.835938 207.066406 L 301.363281 208.695312 L 301.109375 209.503906 L 300.839844 210.308594 L 300.261719 211.90625 L 299.953125 212.695312 L 299.628906 213.480469 L 298.941406 215.039062 L 298.585938 215.792969 L 298.21875 216.542969 L 297.441406 218.027344 L 297.039062 218.761719 L 296.621094 219.484375 L 295.746094 220.917969 L 295.292969 221.621094 L 294.828125 222.320312 L 293.863281 223.695312 L 291.792969 226.34375 L 291.25 226.988281 L 290.691406 227.621094 L 289.550781 228.859375 L 288.964844 229.464844 L 288.367188 230.0625 L 287.140625 231.226562 L 286.515625 231.792969 L 285.878906 232.347656 L 284.578125 233.429688 L 281.871094 235.464844 L 281.171875 235.949219 L 280.464844 236.417969 L 279.027344 237.324219 L 278.300781 237.757812 L 277.5625 238.179688 L 276.066406 238.992188 L 275.308594 239.378906 L 274.542969 239.753906 L 272.992188 240.464844 L 272.210938 240.800781 L 271.421875 241.125 L 269.824219 241.734375 L 269.019531 242.019531 L 268.210938 242.289062 L 267.394531 242.546875 L 266.574219 242.792969 L 265.75 243.023438 L 264.921875 243.242188 L 263.253906 243.636719 L 262.414062 243.816406 L 261.574219 243.980469 L 260.726562 244.128906 L 259.878906 244.265625 L 259.03125 244.386719 L 258.175781 244.492188 L 257.324219 244.585938 L 256.464844 244.667969 L 255.664062 244.726562 L 254.863281 244.777344 L 254.0625 244.816406 L 253.257812 244.839844 L 252.453125 244.851562 L 251.648438 244.851562 L 250.84375 244.839844 L 250.039062 244.816406 L 249.234375 244.777344 L 248.429688 244.726562 L 247.628906 244.664062 L 246.824219 244.589844 L 246.023438 244.503906 L 245.222656 244.40625 L 244.421875 244.292969 L 243.621094 244.171875 L 242.824219 244.035156 L 242.03125 243.886719 L 241.238281 243.726562 L 240.449219 243.554688 L 239.660156 243.367188 L 238.875 243.171875 L 237.3125 242.742188 L 236.535156 242.507812 L 235.761719 242.261719 L 234.226562 241.734375 L 233.464844 241.453125 L 232.707031 241.160156 L 231.203125 240.539062 L 230.457031 240.210938 L 229.71875 239.871094 L 228.253906 239.160156 L 227.527344 238.785156 L 226.808594 238.402344 L 225.390625 237.597656 L 224.6875 237.179688 L 223.992188 236.75 L 222.625 235.859375 L 219.964844 233.953125 L 219.316406 233.449219 L 218.679688 232.9375 L 217.421875 231.878906 L 216.808594 231.339844 L 216.199219 230.785156 L 215.011719 229.652344 L 214.429688 229.074219 L 213.855469 228.484375 L 212.734375 227.277344 L 210.605469 224.765625 L 210.054688 224.058594 L 209.515625 223.347656 L 208.472656 221.890625 L 207.96875 221.148438 L 207.476562 220.398438 L 206.53125 218.875 L 206.078125 218.101562 L 205.636719 217.320312 L 204.792969 215.734375 L 204.390625 214.929688 L 204.003906 214.117188 L 203.265625 212.476562 L 202.917969 211.644531 L 202.582031 210.808594 L 201.957031 209.117188 L 201.664062 208.265625 L 201.382812 207.40625 L 200.871094 205.671875 L 200.636719 204.800781 L 200.414062 203.921875 L 200.207031 203.042969 L 200.015625 202.160156 L 199.839844 201.269531 L 199.675781 200.378906 L 199.527344 199.484375 L 199.394531 198.589844 L 199.277344 197.6875 L 199.175781 196.785156 L 199.085938 195.882812 L 199.015625 194.976562 L 198.957031 194.070312 L 198.914062 193.164062 L 198.886719 192.253906 L 198.875 191.34375 L 198.875 190.433594 L 198.894531 189.523438 L 198.925781 188.613281 L 198.976562 187.703125 L 199.039062 186.792969 L 199.117188 185.882812 L 199.210938 184.976562 L 199.320312 184.070312 L 199.445312 183.164062 L 199.582031 182.261719 L 199.738281 181.359375 L 199.90625 180.460938 L 200.089844 179.5625 L 200.289062 178.671875 L 200.734375 176.894531 L 200.980469 176.007812 L 201.238281 175.128906 L 201.800781 173.382812 L 202.101562 172.515625 L 202.421875 171.652344 L 203.097656 169.945312 L 203.433594 169.15625 L 203.785156 168.367188 L 204.519531 166.816406 L 204.902344 166.046875 L 205.300781 165.28125 L 206.132812 163.773438 L 206.566406 163.027344 L 207.007812 162.292969 L 207.933594 160.835938 L 209.917969 158.007812 L 210.441406 157.320312 L 210.976562 156.640625 L 212.078125 155.308594 L 212.644531 154.652344 L 213.222656 154.007812 L 214.40625 152.742188 L 215.015625 152.121094 L 215.632812 151.511719 L 216.894531 150.320312 L 219.53125 148.058594 L 220.210938 147.515625 L 220.902344 146.984375 L 222.308594 145.957031 L 223.023438 145.457031 L 223.746094 144.972656 L 225.214844 144.03125 L 225.960938 143.578125 L 226.714844 143.136719 L 228.242188 142.285156 L 231.375 140.730469 L 232.171875 140.371094 L 232.976562 140.027344 L 234.601562 139.371094 L 235.425781 139.0625 L 236.25 138.765625 L 237.914062 138.214844 L 238.753906 137.957031 L 239.601562 137.710938 L 240.449219 137.480469 L 241.300781 137.261719 L 242.15625 137.058594 L 243.015625 136.867188 L 244.742188 136.523438 L 245.59375 136.375 L 246.445312 136.238281 L 247.300781 136.113281 L 248.160156 136.003906 L 249.019531 135.90625 L 249.878906 135.824219 L 250.742188 135.753906 L 251.609375 135.695312 L 252.472656 135.652344 L 253.339844 135.621094 L 254.207031 135.601562 L 255.074219 135.597656 L 255.941406 135.605469 L 256.808594 135.628906 L 257.675781 135.664062 L 258.542969 135.710938 L 259.410156 135.773438 L 260.277344 135.847656 L 261.144531 135.9375 L 262.007812 136.035156 L 262.871094 136.152344 L 263.730469 136.277344 L 264.589844 136.417969 L 265.449219 136.574219 L 266.304688 136.742188 L 267.160156 136.921875 L 268.007812 137.113281 L 268.859375 137.320312 L 269.703125 137.539062 L 270.542969 137.773438 L 272.21875 138.273438 L 273.050781 138.546875 L 273.878906 138.828125 L 275.519531 139.433594 L 276.335938 139.753906 L 277.144531 140.089844 L 278.75 140.792969 L 279.546875 141.164062 L 280.335938 141.550781 L 281.898438 142.351562 L 284.949219 144.101562 L 285.695312 144.566406 L 286.433594 145.046875 L 287.890625 146.035156 L 288.605469 146.546875 L 289.316406 147.070312 L 290.714844 148.148438 L 291.398438 148.703125 L 292.078125 149.269531 L 293.40625 150.433594 L 295.957031 152.882812 L 296.625 153.574219 L 297.28125 154.277344 L 298.558594 155.714844 L 299.179688 156.449219 L 299.789062 157.195312 L 300.96875 158.71875 L 301.542969 159.492188 L 302.101562 160.277344 L 303.179688 161.878906 L 305.179688 165.183594 L 305.644531 166.03125 L 306.097656 166.886719 L 306.960938 168.621094 L 307.367188 169.496094 L 307.765625 170.382812 L 308.511719 172.171875 L 308.863281 173.078125 L 309.199219 173.988281 L 309.824219 175.824219 L 310.117188 176.75 L 310.394531 177.683594 L 310.898438 179.5625 L 311.128906 180.507812 L 311.339844 181.457031 L 311.539062 182.414062 L 311.722656 183.371094 L 311.890625 184.328125 L 312.039062 185.292969 L 312.175781 186.261719 L 312.292969 187.230469 L 312.398438 188.199219 L 312.484375 189.171875 L 312.554688 190.148438 L 312.609375 191.125 L 312.648438 192.101562 L 312.671875 193.078125 L 312.675781 194.058594 L 312.667969 195.039062 L 312.640625 196.015625 L 312.597656 196.996094 L 312.539062 197.972656 L 312.464844 198.953125 L 312.375 199.929688 L 312.265625 200.90625 L 312.144531 201.878906 L 312.003906 202.851562 L 311.847656 203.824219 L 311.675781 204.789062 L 311.488281 205.757812 L 311.285156 206.71875 L 311.066406 207.679688 L 310.828125 208.632812 L 310.308594 210.535156 L 310.046875 211.417969 L 309.769531 212.292969 L 309.171875 214.035156 L 308.855469 214.902344 L 308.523438 215.761719 L 307.820312 217.464844 L 307.449219 218.3125 L 307.0625 219.148438 L 306.257812 220.8125 L 304.484375 224.058594 L 304.011719 224.851562 L 303.523438 225.640625 L 302.515625 227.195312 L 301.992188 227.957031 L 301.457031 228.714844 L 300.351562 230.207031 L 299.78125 230.9375 L 299.199219 231.664062 L 298.003906 233.082031 L 295.480469 235.816406 L 294.820312 236.472656 L 294.152344 237.121094 L 292.785156 238.390625 L 292.085938 239.007812 L 291.378906 239.613281 L 289.933594 240.796875 L 289.199219 241.371094 L 288.453125 241.933594 L 286.9375 243.027344 L 283.800781 245.070312 L 283 245.550781 L 282.1875 246.019531 L 280.542969 246.917969 L 279.710938 247.347656 L 278.867188 247.765625 L 277.167969 248.5625 L 276.308594 248.941406 L 275.445312 249.308594 L 273.695312 250 L 272.8125 250.328125 L 271.925781 250.640625 L 270.136719 251.222656 L 269.160156 251.515625 L 268.175781 251.792969 L 267.1875 252.054688 L 266.195312 252.300781 L 265.195312 252.527344 L 264.195312 252.738281 L 263.191406 252.933594 L 262.183594 253.109375 L 261.171875 253.269531 L 260.15625 253.414062 L 259.136719 253.542969 L 258.117188 253.652344 L 257.097656 253.742188 L 256.074219 253.820312 L 255.046875 253.878906 L 254.023438 253.921875 L 252.996094 253.945312 L 251.964844 253.953125 L 250.9375 253.941406 L 249.910156 253.914062 L 248.882812 253.871094 L 247.851562 253.808594 L 246.824219 253.730469 L 245.800781 253.632812 L 244.773438 253.519531 L 243.753906 253.390625 L 242.730469 253.242188 L 241.710938 253.078125 L 240.695312 252.894531 L 239.683594 252.695312 L 237.664062 252.246094 L 236.660156 251.996094 L 235.660156 251.730469 L 233.675781 251.148438 L 232.6875 250.828125 L 231.707031 250.496094 L 229.761719 249.78125 L 228.796875 249.398438 L 227.839844 248.996094 L 225.945312 248.152344 L 225.003906 247.703125 L 224.074219 247.242188 L 222.238281 246.269531 L 221.328125 245.757812 L 220.429688 245.234375 L 218.65625 244.140625 L 217.785156 243.570312 L 216.921875 242.984375 L 215.226562 241.769531 L 214.390625 241.144531 L 213.566406 240.5 L 211.953125 239.175781 L 208.855469 236.359375 L 208.160156 235.675781 L 207.476562 234.976562 L 206.136719 233.546875 L 205.484375 232.816406 L 204.84375 232.078125 L 203.59375 230.566406 L 202.988281 229.796875 L 202.394531 229.015625 L 201.242188 227.425781 L 199.085938 224.140625 L 198.578125 223.300781 L 198.082031 222.449219 L 197.132812 220.722656 L 196.679688 219.851562 L 196.238281 218.96875 L 195.398438 217.1875 L 195 216.285156 L 194.613281 215.375 L 193.886719 213.542969 L 193.542969 212.613281 L 193.214844 211.683594 L 192.601562 209.804688 L 192.316406 208.855469 L 192.046875 207.90625 L 191.792969 206.949219 L 191.550781 205.988281 L 191.328125 205.023438 L 191.117188 204.054688 L 190.921875 203.082031 L 190.742188 202.109375 L 190.578125 201.128906 L 190.425781 200.148438 L 190.292969 199.164062 L 190.175781 198.179688 L 190.070312 197.191406 L 189.980469 196.203125 L 189.910156 195.210938 L 189.851562 194.21875 L 189.8125 193.222656 L 189.785156 192.230469 L 189.773438 191.234375 L 189.777344 190.238281 L 189.800781 189.242188 L 189.835938 188.246094 L 189.886719 187.25 L 189.953125 186.257812 L 190.035156 185.261719 L 190.136719 184.269531 L 190.25 183.277344 L 190.378906 182.289062 L 190.523438 181.300781 L 190.683594 180.3125 L 190.859375 179.328125 L 191.050781 178.347656 L 191.253906 177.386719 L 191.46875 176.429688 L 191.703125 175.476562 L 191.949219 174.527344 L 192.210938 173.578125 L 192.484375 172.636719 L 193.082031 170.761719 L 193.398438 169.832031 L 193.734375 168.90625 L 194.441406 167.070312 L 194.820312 166.160156 L 195.210938 165.257812 L 196.03125 163.464844 L 196.460938 162.578125 L 196.90625 161.699219 L 197.839844 159.957031 L 198.324219 159.097656 L 198.824219 158.246094 L 199.863281 156.5625 L 200.398438 155.734375 L 200.949219 154.910156 L 202.089844 153.292969 L 204.519531 150.164062 L 205.15625 149.402344 L 205.804688 148.652344 L 207.140625 147.183594 L 207.824219 146.460938 L 208.515625 145.75 L 209.941406 144.363281 L 210.667969 143.6875 L 211.40625 143.019531 L 212.914062 141.71875 L 216.046875 139.257812 L 216.851562 138.671875 L 217.667969 138.097656 L 219.328125 136.988281 L 220.171875 136.453125 L 221.019531 135.929688 L 222.746094 134.921875 L 223.621094 134.441406 L 224.503906 133.96875 L 226.292969 133.070312 L 227.195312 132.640625 L 228.105469 132.222656 L 229.949219 131.433594 L 230.957031 131.027344 L 231.972656 130.636719 L 234.023438 129.910156 L 235.058594 129.574219 L 236.101562 129.253906 L 238.199219 128.664062 L 239.257812 128.394531 L 240.320312 128.144531 L 241.382812 127.910156 L 242.453125 127.695312 L 243.527344 127.496094 L 244.605469 127.316406 L 245.6875 127.152344 L 246.769531 127.007812 L 247.855469 126.882812 L 248.945312 126.773438 L 250.035156 126.683594 L 251.128906 126.609375 L 252.222656 126.554688 L 253.320312 126.519531 L 254.414062 126.5 L 255.511719 126.5 L 256.609375 126.519531 L 257.703125 126.554688 L 258.800781 126.613281 L 259.898438 126.683594 L 260.992188 126.777344 L 262.085938 126.886719 L 263.175781 127.011719 L 264.265625 127.160156 L 265.355469 127.324219 L 266.441406 127.503906 L 267.523438 127.707031 L 268.601562 127.925781 L 269.679688 128.160156 L 270.75 128.414062 L 272.882812 128.976562 L 273.941406 129.285156 L 275 129.609375 L 277.089844 130.3125 L 278.128906 130.691406 L 279.164062 131.085938 L 281.207031 131.929688 L 282.21875 132.375 L 283.226562 132.839844 L 285.210938 133.816406 L 286.195312 134.332031 L 287.167969 134.863281 L 289.089844 135.972656 L 290.035156 136.550781 L 290.972656 137.144531 L 292.820312 138.378906 L 296.386719 141.035156 L 297.195312 141.6875 L 297.992188 142.355469 L 299.554688 143.726562 L 300.320312 144.429688 L 301.074219 145.144531 L 302.554688 146.613281 L 303.277344 147.363281 L 303.984375 148.125 L 305.371094 149.683594 L 307.996094 152.925781 L 308.621094 153.761719 L 309.234375 154.609375 L 310.421875 156.328125 L 310.992188 157.203125 L 311.554688 158.089844 L 312.628906 159.882812 L 313.148438 160.792969 L 313.652344 161.710938 L 314.621094 163.570312 L 316.378906 167.378906 L 316.78125 168.347656 L 317.167969 169.324219 L 317.898438 171.296875 L 318.242188 172.289062 L 318.566406 173.289062 L 319.175781 175.304688 L 319.457031 176.316406 L 319.71875 177.335938 L 319.96875 178.359375 L 320.203125 179.386719 L 320.421875 180.417969 L 320.621094 181.453125 L 320.808594 182.492188 L 320.976562 183.535156 L 321.128906 184.578125 L 321.265625 185.625 L 321.386719 186.675781 L 321.492188 187.726562 L 321.578125 188.777344 L 321.652344 189.832031 L 321.707031 190.890625 L 321.746094 191.945312 L 321.769531 193.003906 L 321.777344 194.0625 L 321.765625 195.121094 L 321.738281 196.179688 L 321.695312 197.238281 L 321.636719 198.296875 L 321.5625 199.355469 L 321.46875 200.410156 L 321.351562 201.554688 L 321.214844 202.695312 L 321.058594 203.835938 L 320.878906 204.972656 L 320.6875 206.109375 L 320.472656 207.242188 L 320.238281 208.371094 L 319.984375 209.492188 L 319.714844 210.613281 L 319.425781 211.730469 L 318.789062 213.949219 L 318.441406 215.050781 L 318.074219 216.148438 L 317.289062 218.320312 L 316.871094 219.398438 L 316.429688 220.46875 L 315.5 222.585938 L 315.007812 223.636719 L 314.496094 224.675781 L 313.425781 226.730469 L 312.863281 227.742188 L 312.28125 228.75 L 311.074219 230.730469 L 308.453125 234.566406 L 307.757812 235.5 L 307.046875 236.421875 L 305.578125 238.226562 L 304.820312 239.109375 L 304.050781 239.980469 L 302.460938 241.6875 L 301.644531 242.519531 L 300.8125 243.339844 L 299.113281 244.9375 L 295.546875 247.957031 L 294.625 248.675781 L 293.6875 249.378906 L 291.78125 250.738281 L 290.8125 251.394531 L 289.832031 252.03125 L 287.835938 253.261719 L 286.820312 253.851562 L 285.796875 254.421875 L 283.71875 255.515625 L 282.667969 256.039062 L 281.605469 256.539062 L 279.457031 257.492188 L 278.390625 257.933594 L 277.316406 258.359375 L 275.148438 259.152344 L 274.050781 259.523438 L 272.949219 259.878906 L 270.730469 260.527344 L 269.613281 260.828125 L 268.488281 261.105469 L 267.359375 261.367188 L 266.226562 261.609375 L 265.089844 261.835938 L 263.949219 262.039062 L 262.804688 262.226562 L 261.65625 262.394531 L 260.503906 262.542969 L 259.347656 262.671875 L 258.191406 262.78125 L 257.035156 262.875 L 255.875 262.945312 L 254.714844 263 L 253.550781 263.035156 L 252.386719 263.050781 L 251.222656 263.046875 L 250.058594 263.023438 L 248.894531 262.980469 L 247.730469 262.917969 L 246.570312 262.835938 L 245.40625 262.738281 L 244.246094 262.617188 L 243.089844 262.480469 L 241.933594 262.320312 L 240.777344 262.144531 L 239.628906 261.949219 L 238.480469 261.734375 L 237.335938 261.5 L 236.191406 261.25 L 233.921875 260.6875 L 232.792969 260.375 L 231.667969 260.046875 L 229.4375 259.335938 L 228.332031 258.953125 L 227.230469 258.550781 L 225.046875 257.695312 L 223.964844 257.238281 L 222.890625 256.761719 L 220.769531 255.761719 L 219.71875 255.234375 L 218.675781 254.6875 L 216.621094 253.546875 L 215.605469 252.953125 L 214.601562 252.339844 L 212.621094 251.0625 L 208.789062 248.316406 L 207.921875 247.636719 L 207.066406 246.949219 L 205.382812 245.527344 L 204.558594 244.796875 L 203.746094 244.054688 L 202.148438 242.53125 L 201.371094 241.75 L 200.601562 240.957031 L 199.101562 239.335938 L 196.253906 235.957031 L 195.574219 235.082031 L 194.910156 234.199219 L 193.617188 232.402344 L 192.992188 231.488281 L 192.378906 230.566406 L 191.199219 228.691406 L 190.632812 227.738281 L 190.078125 226.777344 L 189.011719 224.832031 L 187.066406 220.839844 L 186.617188 219.824219 L 186.183594 218.800781 L 185.363281 216.730469 L 184.976562 215.6875 L 184.609375 214.636719 L 183.917969 212.519531 L 183.597656 211.453125 L 183.292969 210.382812 L 183.003906 209.304688 L 182.730469 208.222656 L 182.476562 207.136719 L 182.238281 206.046875 L 182.015625 204.953125 L 181.808594 203.855469 L 181.621094 202.753906 L 181.449219 201.652344 L 181.296875 200.542969 L 181.160156 199.433594 L 181.039062 198.324219 L 180.933594 197.207031 L 180.847656 196.09375 L 180.78125 194.976562 L 180.726562 193.859375 L 180.695312 192.738281 L 180.675781 191.617188 L 180.675781 190.496094 L 180.695312 189.375 L 180.726562 188.253906 L 180.78125 187.136719 L 180.847656 186.015625 L 180.941406 184.800781 L 181.058594 183.589844 L 181.191406 182.378906 L 181.347656 181.171875 L 181.523438 179.964844 L 181.71875 178.761719 L 181.933594 177.5625 L 182.167969 176.363281 L 182.425781 175.171875 L 182.699219 173.984375 L 182.996094 172.796875 L 183.308594 171.617188 L 183.644531 170.441406 L 184 169.273438 L 184.769531 166.953125 L 185.179688 165.800781 L 185.613281 164.65625 L 186.535156 162.386719 L 187.027344 161.265625 L 187.535156 160.148438 L 188.605469 157.945312 L 189.171875 156.855469 L 189.753906 155.773438 L 190.972656 153.644531 L 193.625 149.503906 L 194.332031 148.5 L 195.054688 147.503906 L 196.550781 145.546875 L 197.320312 144.589844 L 198.109375 143.640625 L 199.734375 141.789062 L 200.570312 140.882812 L 201.421875 139.988281 L 203.171875 138.246094 L 206.839844 134.9375 L 207.789062 134.148438 L 208.753906 133.375 L 210.722656 131.875 L 211.726562 131.152344 L 212.742188 130.441406 L 214.808594 129.078125 L 215.859375 128.417969 L 216.921875 127.777344 L 219.078125 126.550781 L 223.515625 124.316406 L 224.570312 123.835938 L 225.632812 123.375 L 227.785156 122.496094 L 228.871094 122.082031 L 229.964844 121.6875 L 232.167969 120.945312 L 233.277344 120.601562 L 234.394531 120.273438 L 235.515625 119.960938 L 236.640625 119.667969 L 237.773438 119.394531 L 238.910156 119.132812 L 241.191406 118.671875 L 242.339844 118.464844 L 243.492188 118.28125 L 244.644531 118.109375 L 245.804688 117.957031 L 246.960938 117.824219 L 248.125 117.710938 L 249.289062 117.613281 L 250.453125 117.535156 L 251.621094 117.472656 L 252.789062 117.429688 L 253.957031 117.40625 L 255.128906 117.398438 L 256.296875 117.410156 L 257.46875 117.441406 L 258.636719 117.488281 L 259.808594 117.558594 L 260.976562 117.640625 L 262.144531 117.746094 L 263.308594 117.867188 L 264.472656 118.003906 L 265.636719 118.164062 L 266.796875 118.339844 L 267.953125 118.53125 L 269.105469 118.746094 L 270.257812 118.972656 L 271.40625 119.222656 L 272.550781 119.488281 L 273.691406 119.773438 L 274.828125 120.074219 L 275.960938 120.394531 L 278.210938 121.085938 L 279.324219 121.457031 L 280.4375 121.847656 L 282.640625 122.679688 L 283.734375 123.121094 L 284.820312 123.578125 L 286.972656 124.546875 L 288.035156 125.054688 L 289.089844 125.582031 L 291.179688 126.683594 L 295.253906 129.082031 L 296.230469 129.707031 L 297.195312 130.347656 L 299.097656 131.675781 L 300.035156 132.363281 L 300.960938 133.0625 L 302.78125 134.503906 L 303.675781 135.246094 L 304.558594 136.003906 L 306.292969 137.554688 L 309.609375 140.820312 L 310.410156 141.667969 L 311.195312 142.527344 L 312.730469 144.285156 L 313.476562 145.179688 L 314.207031 146.089844 L 315.632812 147.9375 L 316.324219 148.878906 L 317 149.832031 L 318.3125 151.765625 L 320.753906 155.753906 L 321.324219 156.773438 L 321.882812 157.804688 L 322.949219 159.886719 L 323.460938 160.945312 L 323.953125 162.007812 L 324.894531 164.15625 L 325.339844 165.238281 L 325.765625 166.332031 L 326.574219 168.535156 L 326.953125 169.648438 L 327.3125 170.765625 L 327.984375 173.019531 L 328.296875 174.152344 L 328.589844 175.292969 L 328.863281 176.433594 L 329.121094 177.582031 L 329.363281 178.734375 L 329.585938 179.890625 L 329.792969 181.050781 L 329.980469 182.214844 L 330.148438 183.378906 L 330.300781 184.546875 L 330.4375 185.71875 L 330.554688 186.894531 L 330.652344 188.070312 L 330.734375 189.246094 L 330.796875 190.425781 L 330.839844 191.605469 L 330.867188 192.886719 L 330.875 194.167969 L 330.859375 195.449219 L 330.824219 196.730469 L 330.769531 198.011719 L 330.691406 199.292969 L 330.589844 200.574219 L 330.472656 201.851562 L 330.328125 203.128906 L 330.167969 204.402344 L 329.980469 205.675781 L 329.777344 206.945312 L 329.550781 208.210938 L 329.304688 209.472656 L 328.746094 211.988281 L 328.4375 213.238281 L 328.105469 214.484375 L 327.382812 216.957031 L 326.988281 218.183594 L 326.578125 219.40625 L 325.691406 221.828125 L 325.214844 223.03125 L 324.722656 224.222656 L 323.675781 226.585938 L 321.347656 231.203125 L 320.71875 232.335938 L 320.070312 233.457031 L 318.71875 235.664062 L 318.015625 236.753906 L 317.292969 237.828125 L 315.792969 239.945312 L 315.019531 240.984375 L 314.226562 242.011719 L 312.589844 244.027344 L 309.117188 247.894531 L 308.207031 248.824219 L 307.285156 249.742188 L 305.390625 251.527344 L 304.421875 252.394531 L 303.4375 253.25 L 301.429688 254.910156 L 300.402344 255.714844 L 299.363281 256.5 L 297.246094 258.023438 L 292.859375 260.859375 L 291.808594 261.480469 L 290.75 262.082031 L 288.601562 263.242188 L 287.511719 263.796875 L 286.414062 264.332031 L 284.199219 265.355469 L 283.078125 265.84375 L 281.949219 266.3125 L 279.667969 267.199219 L 278.515625 267.613281 L 277.359375 268.015625 L 275.027344 268.757812 L 273.851562 269.105469 L 272.671875 269.429688 L 271.484375 269.738281 L 270.292969 270.03125 L 269.097656 270.300781 L 267.898438 270.554688 L 266.695312 270.792969 L 265.484375 271.007812 L 264.273438 271.207031 L 263.058594 271.386719 L 261.839844 271.546875 L 260.621094 271.6875 L 259.398438 271.8125 L 258.171875 271.914062 L 256.945312 272 L 255.71875 272.066406 L 254.488281 272.113281 L 253.257812 272.140625 L 252.027344 272.152344 L 250.792969 272.140625 L 249.5625 272.113281 L 248.332031 272.0625 L 247.101562 271.996094 L 245.871094 271.910156 L 244.640625 271.804688 L 243.414062 271.679688 L 242.191406 271.539062 L 240.964844 271.375 L 239.746094 271.195312 L 238.527344 270.996094 L 237.308594 270.777344 L 236.097656 270.539062 L 234.886719 270.28125 L 233.683594 270.007812 L 232.480469 269.710938 L 231.285156 269.398438 L 230.09375 269.070312 L 228.90625 268.71875 L 226.546875 267.964844 L 225.375 267.5625 L 224.210938 267.136719 L 221.902344 266.238281 L 220.753906 265.761719 L 219.617188 265.265625 L 217.363281 264.226562 L 216.121094 263.613281 L 214.886719 262.980469 L 212.453125 261.648438 L 211.253906 260.953125 L 210.066406 260.234375 L 207.726562 258.734375 L 206.578125 257.957031 L 205.441406 257.15625 L 203.207031 255.5 L 198.914062 251.957031 L 197.878906 251.023438 L 196.859375 250.074219 L 194.871094 248.121094 L 193.902344 247.117188 L 192.953125 246.097656 L 191.101562 244.007812 L 190.199219 242.941406 L 189.320312 241.855469 L 187.617188 239.640625 L 184.4375 235.039062 L 183.691406 233.855469 L 182.96875 232.65625 L 181.578125 230.222656 L 180.917969 228.988281 L 180.277344 227.742188 L 179.058594 225.214844 L 178.480469 223.933594 L 177.925781 222.644531 L 176.886719 220.035156 L 176.398438 218.71875 L 175.933594 217.390625 L 175.074219 214.714844 L 174.675781 213.367188 L 174.304688 212.007812 L 173.957031 210.644531 L 173.628906 209.273438 L 173.328125 207.898438 L 173.050781 206.519531 L 172.792969 205.132812 L 172.5625 203.742188 L 172.359375 202.347656 L 172.175781 200.949219 L 172.015625 199.546875 L 171.882812 198.140625 L 171.773438 196.734375 L 171.6875 195.324219 L 171.625 193.914062 L 171.585938 192.5 " transform="matrix(1,0,0,1,-74,-13)"/>
<path style="fill:none;stroke-width:1;stroke-linecap:square;stroke-linejoin:miter;stroke:rgb(0%,0%,0%);stroke-opacity:1;stroke-miterlimit:3.25;" d="M 186.257812 143.648438 L 122.804688 97.542969 " transform="matrix(1,0,0,1,-74,-13)"/>
<path style="fill:none;stroke-width:1;stroke-linecap:square;stroke-linejoin:miter;stroke:rgb(0%,0%,0%);stroke-opacity:1;stroke-miterlimit:3.25;" d="M 186.257812 241.351562 L 122.804688 287.457031 " transform="matrix(1,0,0,1,-74,-13)"/>
<path style="fill:none;stroke-width:1;stroke-linecap:square;stroke-linejoin:miter;stroke:rgb(0%,0%,0%);stroke-opacity:1;stroke-miterlimit:3.25;" d="M 279.183594 271.546875 L 303.421875 346.144531 " transform="matrix(1,0,0,1,-74,-13)"/>
<path style="fill:none;stroke-width:1;stroke-linecap:square;stroke-linejoin:miter;stroke:rgb(0%,0%,0%);stroke-opacity:1;stroke-miterlimit:3.25;" d="M 336.613281 192.5 L 415.050781 192.5 " transform="matrix(1,0,0,1,-74,-13)"/>
<path style="fill:none;stroke-width:1;stroke-linecap:square;stroke-linejoin:miter;stroke:rgb(0%,0%,0%);stroke-opacity:1;stroke-miterlimit:3.25;" d="M 279.183594 113.453125 L 303.421875 38.855469 " transform="matrix(1,0,0,1,-74,-13)"/>
<path style="fill:none;stroke-width:1;stroke-linecap:square;stroke-linejoin:miter;stroke:rgb(0%,0%,0%);stroke-opacity:1;stroke-miterlimit:3.25;" d="M 225.183594 105.355469 L 203.578125 38.855469 " transform="matrix(1,0,0,1,-74,-13)"/>
<path style="fill:none;stroke-width:1;stroke-linecap:square;stroke-linejoin:miter;stroke:rgb(0%,0%,0%);stroke-opacity:1;stroke-miterlimit:3.25;" d="M 161.871094 192.5 L 91.949219 192.5 " transform="matrix(1,0,0,1,-74,-13)"/>
<path style="fill:none;stroke-width:1;stroke-linecap:square;stroke-linejoin:miter;stroke:rgb(0%,0%,0%);stroke-opacity:1;stroke-miterlimit:3.25;" d="M 225.183594 279.644531 L 203.578125 346.144531 " transform="matrix(1,0,0,1,-74,-13)"/>
<path style="fill:none;stroke-width:1;stroke-linecap:square;stroke-linejoin:miter;stroke:rgb(0%,0%,0%);stroke-opacity:1;stroke-miterlimit:3.25;" d="M 327.628906 246.359375 L 384.195312 287.457031 " transform="matrix(1,0,0,1,-74,-13)"/>
<path style="fill:none;stroke-width:1;stroke-linecap:square;stroke-linejoin:miter;stroke:rgb(0%,0%,0%);stroke-opacity:1;stroke-miterlimit:3.25;" d="M 327.628906 138.640625 L 384.195312 97.542969 " transform="matrix(1,0,0,1,-74,-13)"/>
<path style="fill:none;stroke-width:1;stroke-linecap:square;stroke-linejoin:miter;stroke:rgb(0%,0%,0%);stroke-opacity:1;stroke-miterlimit:3.25;" d="M 316.878906 105.265625 L 348.457031 61.804688 " transform="matrix(1,0,0,1,-74,-13)"/>
<path style="fill:none;stroke-width:1;stroke-linecap:square;stroke-linejoin:miter;stroke:rgb(0%,0%,0%);stroke-opacity:1;stroke-miterlimit:3.25;" d="M 253.5 84.671875 L 253.5 30.949219 " transform="matrix(1,0,0,1,-74,-13)"/>
<path style="fill:none;stroke-width:1;stroke-linecap:square;stroke-linejoin:miter;stroke:rgb(0%,0%,0%);stroke-opacity:1;stroke-miterlimit:3.25;" d="M 190.121094 105.265625 L 158.542969 61.804688 " transform="matrix(1,0,0,1,-74,-13)"/>
<path style="fill:none;stroke-width:1;stroke-linecap:square;stroke-linejoin:miter;stroke:rgb(0%,0%,0%);stroke-opacity:1;stroke-miterlimit:3.25;" d="M 150.949219 159.179688 L 99.855469 142.578125 " transform="matrix(1,0,0,1,-74,-13)"/>
<path style="fill:none;stroke-width:1;stroke-linecap:square;stroke-linejoin:miter;stroke:rgb(0%,0%,0%);stroke-opacity:1;stroke-miterlimit:3.25;" d="M 150.949219 225.820312 L 99.855469 242.421875 " transform="matrix(1,0,0,1,-74,-13)"/>
<path style="fill:none;stroke-width:1;stroke-linecap:square;stroke-linejoin:miter;stroke:rgb(0%,0%,0%);stroke-opacity:1;stroke-miterlimit:3.25;" d="M 190.121094 279.734375 L 158.542969 323.195312 " transform="matrix(1,0,0,1,-74,-13)"/>
<path style="fill:none;stroke-width:1;stroke-linecap:square;stroke-linejoin:miter;stroke:rgb(0%,0%,0%);stroke-opacity:1;stroke-miterlimit:3.25;" d="M 253.5 300.328125 L 253.5 354.050781 " transform="matrix(1,0,0,1,-74,-13)"/>
<path style="fill:none;stroke-width:1;stroke-linecap:square;stroke-linejoin:miter;stroke:rgb(0%,0%,0%);stroke-opacity:1;stroke-miterlimit:3.25;" d="M 316.878906 279.734375 L 348.457031 323.195312 " transform="matrix(1,0,0,1,-74,-13)"/>
<path style="fill:none;stroke-width:1;stroke-linecap:square;stroke-linejoin:miter;stroke:rgb(0%,0%,0%);stroke-opacity:1;stroke-miterlimit:3.25;" d="M 356.050781 225.820312 L 407.144531 242.421875 " transform="matrix(1,0,0,1,-74,-13)"/>
<path style="fill:none;stroke-width:1;stroke-linecap:square;stroke-linejoin:miter;stroke:rgb(0%,0%,0%);stroke-opacity:1;stroke-miterlimit:3.25;" d="M 356.050781 159.179688 L 407.144531 142.578125 " transform="matrix(1,0,0,1,-74,-13)"/>
<path style="fill:none;stroke-width:1;stroke-linecap:square;stroke-linejoin:miter;stroke:rgb(0%,0%,0%);stroke-opacity:1;stroke-miterlimit:3.25;" d="M 378.089844 129.019531 L 397.441406 119.15625 " transform="matrix(1,0,0,1,-74,-13)"/>
<path style="fill:none;stroke-width:1;stroke-linecap:square;stroke-linejoin:miter;stroke:rgb(0%,0%,0%);stroke-opacity:1;stroke-miterlimit:3.25;" d="M 352.375 93.625 L 367.734375 78.265625 " transform="matrix(1,0,0,1,-74,-13)"/>
<path style="fill:none;stroke-width:1;stroke-linecap:square;stroke-linejoin:miter;stroke:rgb(0%,0%,0%);stroke-opacity:1;stroke-miterlimit:3.25;" d="M 316.980469 67.910156 L 326.84375 48.558594 " transform="matrix(1,0,0,1,-74,-13)"/>
<path style="fill:none;stroke-width:1;stroke-linecap:square;stroke-linejoin:miter;stroke:rgb(0%,0%,0%);stroke-opacity:1;stroke-miterlimit:3.25;" d="M 275.375 54.394531 L 278.773438 32.9375 " transform="matrix(1,0,0,1,-74,-13)"/>
<path style="fill:none;stroke-width:1;stroke-linecap:square;stroke-linejoin:miter;stroke:rgb(0%,0%,0%);stroke-opacity:1;stroke-miterlimit:3.25;" d="M 231.625 54.394531 L 228.226562 32.9375 " transform="matrix(1,0,0,1,-74,-13)"/>
<path style="fill:none;stroke-width:1;stroke-linecap:square;stroke-linejoin:miter;stroke:rgb(0%,0%,0%);stroke-opacity:1;stroke-miterlimit:3.25;" d="M 190.019531 67.910156 L 180.15625 48.558594 " transform="matrix(1,0,0,1,-74,-13)"/>
<path style="fill:none;stroke-width:1;stroke-linecap:square;stroke-linejoin:miter;stroke:rgb(0%,0%,0%);stroke-opacity:1;stroke-miterlimit:3.25;" d="M 154.625 93.625 L 139.265625 78.265625 " transform="matrix(1,0,0,1,-74,-13)"/>
<path style="fill:none;stroke-width:1;stroke-linecap:square;stroke-linejoin:miter;stroke:rgb(0%,0%,0%);stroke-opacity:1;stroke-miterlimit:3.25;" d="M 128.910156 129.019531 L 109.558594 119.15625 " transform="matrix(1,0,0,1,-74,-13)"/>
<path style="fill:none;stroke-width:1;stroke-linecap:square;stroke-linejoin:miter;stroke:rgb(0%,0%,0%);stroke-opacity:1;stroke-miterlimit:3.25;" d="M 115.394531 170.625 L 93.9375 167.226562 " transform="matrix(1,0,0,1,-74,-13)"/>
<path style="fill:none;stroke-width:1;stroke-linecap:square;stroke-linejoin:miter;stroke:rgb(0%,0%,0%);stroke-opacity:1;stroke-miterlimit:3.25;" d="M 115.394531 214.375 L 93.9375 217.773438 " transform="matrix(1,0,0,1,-74,-13)"/>
<path style="fill:none;stroke-width:1;stroke-linecap:square;stroke-linejoin:miter;stroke:rgb(0%,0%,0%);stroke-opacity:1;stroke-miterlimit:3.25;" d="M 128.910156 255.980469 L 109.558594 265.84375 " transform="matrix(1,0,0,1,-74,-13)"/>
<path style="fill:none;stroke-width:1;stroke-linecap:square;stroke-linejoin:miter;stroke:rgb(0%,0%,0%);stroke-opacity:1;stroke-miterlimit:3.25;" d="M 154.625 291.375 L 139.265625 306.734375 " transform="matrix(1,0,0,1,-74,-13)"/>
<path style="fill:none;stroke-width:1;stroke-linecap:square;stroke-linejoin:miter;stroke:rgb(0%,0%,0%);stroke-opacity:1;stroke-miterlimit:3.25;" d="M 190.019531 317.089844 L 180.15625 336.441406 " transform="matrix(1,0,0,1,-74,-13)"/>
<path style="fill:none;stroke-width:1;stroke-linecap:square;stroke-linejoin:miter;stroke:rgb(0%,0%,0%);stroke-opacity:1;stroke-miterlimit:3.25;" d="M 231.625 330.605469 L 228.226562 352.0625 " transform="matrix(1,0,0,1,-74,-13)"/>
<path style="fill:none;stroke-width:1;stroke-linecap:square;stroke-linejoin:miter;stroke:rgb(0%,0%,0%);stroke-opacity:1;stroke-miterlimit:3.25;" d="M 275.375 330.605469 L 278.773438 352.0625 " transform="matrix(1,0,0,1,-74,-13)"/>
<path style="fill:none;stroke-width:1;stroke-linecap:square;stroke-linejoin:miter;stroke:rgb(0%,0%,0%);stroke-opacity:1;stroke-miterlimit:3.25;" d="M 316.980469 317.089844 L 326.84375 336.441406 " transform="matrix(1,0,0,1,-74,-13)"/>
<path style="fill:none;stroke-width:1;stroke-linecap:square;stroke-linejoin:miter;stroke:rgb(0%,0%,0%);stroke-opacity:1;stroke-miterlimit:3.25;" d="M 352.375 291.375 L 367.734375 306.734375 " transform="matrix(1,0,0,1,-74,-13)"/>
<path style="fill:none;stroke-width:1;stroke-linecap:square;stroke-linejoin:miter;stroke:rgb(0%,0%,0%);stroke-opacity:1;stroke-miterlimit:3.25;" d="M 378.089844 255.980469 L 397.441406 265.84375 " transform="matrix(1,0,0,1,-74,-13)"/>
<path style="fill:none;stroke-width:1;stroke-linecap:square;stroke-linejoin:miter;stroke:rgb(0%,0%,0%);stroke-opacity:1;stroke-miterlimit:3.25;" d="M 391.605469 214.375 L 413.0625 217.773438 " transform="matrix(1,0,0,1,-74,-13)"/>
<path style="fill:none;stroke-width:1;stroke-linecap:square;stroke-linejoin:miter;stroke:rgb(0%,0%,0%);stroke-opacity:1;stroke-miterlimit:3.25;" d="M 391.605469 170.625 L 413.0625 167.226562 " transform="matrix(1,0,0,1,-74,-13)"/>
</g>
</svg>
